G04 #@! TF.GenerationSoftware,KiCad,Pcbnew,8.0.4-8.0.4-0~ubuntu22.04.1*
G04 #@! TF.CreationDate,2024-09-03T14:14:34+02:00*
G04 #@! TF.ProjectId,bldc_project,626c6463-5f70-4726-9f6a-6563742e6b69,rev?*
G04 #@! TF.SameCoordinates,Original*
G04 #@! TF.FileFunction,Legend,Bot*
G04 #@! TF.FilePolarity,Positive*
%FSLAX46Y46*%
G04 Gerber Fmt 4.6, Leading zero omitted, Abs format (unit mm)*
G04 Created by KiCad (PCBNEW 8.0.4-8.0.4-0~ubuntu22.04.1) date 2024-09-03 14:14:34*
%MOMM*%
%LPD*%
G01*
G04 APERTURE LIST*
G04 Aperture macros list*
%AMRoundRect*
0 Rectangle with rounded corners*
0 $1 Rounding radius*
0 $2 $3 $4 $5 $6 $7 $8 $9 X,Y pos of 4 corners*
0 Add a 4 corners polygon primitive as box body*
4,1,4,$2,$3,$4,$5,$6,$7,$8,$9,$2,$3,0*
0 Add four circle primitives for the rounded corners*
1,1,$1+$1,$2,$3*
1,1,$1+$1,$4,$5*
1,1,$1+$1,$6,$7*
1,1,$1+$1,$8,$9*
0 Add four rect primitives between the rounded corners*
20,1,$1+$1,$2,$3,$4,$5,0*
20,1,$1+$1,$4,$5,$6,$7,0*
20,1,$1+$1,$6,$7,$8,$9,0*
20,1,$1+$1,$8,$9,$2,$3,0*%
G04 Aperture macros list end*
%ADD10C,0.160000*%
%ADD11RoundRect,0.038000X0.952500X1.000000X-0.952500X1.000000X-0.952500X-1.000000X0.952500X-1.000000X0*%
%ADD12O,1.981000X2.076000*%
%ADD13C,1.676000*%
%ADD14C,1.448000*%
%ADD15C,0.726000*%
%ADD16O,1.076000X2.176000*%
%ADD17O,1.076000X1.676000*%
%ADD18RoundRect,0.038000X0.850000X-0.850000X0.850000X0.850000X-0.850000X0.850000X-0.850000X-0.850000X0*%
%ADD19O,1.776000X1.776000*%
%ADD20RoundRect,0.038000X0.850000X0.850000X-0.850000X0.850000X-0.850000X-0.850000X0.850000X-0.850000X0*%
%ADD21C,1.076000*%
G04 APERTURE END LIST*
D10*
X76001879Y-128069299D02*
X75763784Y-129069299D01*
X75763784Y-129069299D02*
X75573308Y-128355013D01*
X75573308Y-128355013D02*
X75382832Y-129069299D01*
X75382832Y-129069299D02*
X75144737Y-128069299D01*
X75001880Y-129164537D02*
X74239975Y-129164537D01*
X74144736Y-128069299D02*
X73811403Y-129069299D01*
X73811403Y-129069299D02*
X73478070Y-128069299D01*
X101851879Y-89919299D02*
X101613784Y-90919299D01*
X101613784Y-90919299D02*
X101423308Y-90205013D01*
X101423308Y-90205013D02*
X101232832Y-90919299D01*
X101232832Y-90919299D02*
X100994737Y-89919299D01*
X100851880Y-91014537D02*
X100089975Y-91014537D01*
X99899498Y-90871680D02*
X99756641Y-90919299D01*
X99756641Y-90919299D02*
X99518546Y-90919299D01*
X99518546Y-90919299D02*
X99423308Y-90871680D01*
X99423308Y-90871680D02*
X99375689Y-90824060D01*
X99375689Y-90824060D02*
X99328070Y-90728822D01*
X99328070Y-90728822D02*
X99328070Y-90633584D01*
X99328070Y-90633584D02*
X99375689Y-90538346D01*
X99375689Y-90538346D02*
X99423308Y-90490727D01*
X99423308Y-90490727D02*
X99518546Y-90443108D01*
X99518546Y-90443108D02*
X99709022Y-90395489D01*
X99709022Y-90395489D02*
X99804260Y-90347870D01*
X99804260Y-90347870D02*
X99851879Y-90300251D01*
X99851879Y-90300251D02*
X99899498Y-90205013D01*
X99899498Y-90205013D02*
X99899498Y-90109775D01*
X99899498Y-90109775D02*
X99851879Y-90014537D01*
X99851879Y-90014537D02*
X99804260Y-89966918D01*
X99804260Y-89966918D02*
X99709022Y-89919299D01*
X99709022Y-89919299D02*
X99470927Y-89919299D01*
X99470927Y-89919299D02*
X99328070Y-89966918D01*
X98994736Y-89919299D02*
X98756641Y-90919299D01*
X98756641Y-90919299D02*
X98566165Y-90205013D01*
X98566165Y-90205013D02*
X98375689Y-90919299D01*
X98375689Y-90919299D02*
X98137594Y-89919299D01*
X116406641Y-92219299D02*
X116406641Y-93028822D01*
X116406641Y-93028822D02*
X116359022Y-93124060D01*
X116359022Y-93124060D02*
X116311403Y-93171680D01*
X116311403Y-93171680D02*
X116216165Y-93219299D01*
X116216165Y-93219299D02*
X116025689Y-93219299D01*
X116025689Y-93219299D02*
X115930451Y-93171680D01*
X115930451Y-93171680D02*
X115882832Y-93124060D01*
X115882832Y-93124060D02*
X115835213Y-93028822D01*
X115835213Y-93028822D02*
X115835213Y-92219299D01*
X115597118Y-93314537D02*
X114835213Y-93314537D01*
X114644736Y-93171680D02*
X114501879Y-93219299D01*
X114501879Y-93219299D02*
X114263784Y-93219299D01*
X114263784Y-93219299D02*
X114168546Y-93171680D01*
X114168546Y-93171680D02*
X114120927Y-93124060D01*
X114120927Y-93124060D02*
X114073308Y-93028822D01*
X114073308Y-93028822D02*
X114073308Y-92933584D01*
X114073308Y-92933584D02*
X114120927Y-92838346D01*
X114120927Y-92838346D02*
X114168546Y-92790727D01*
X114168546Y-92790727D02*
X114263784Y-92743108D01*
X114263784Y-92743108D02*
X114454260Y-92695489D01*
X114454260Y-92695489D02*
X114549498Y-92647870D01*
X114549498Y-92647870D02*
X114597117Y-92600251D01*
X114597117Y-92600251D02*
X114644736Y-92505013D01*
X114644736Y-92505013D02*
X114644736Y-92409775D01*
X114644736Y-92409775D02*
X114597117Y-92314537D01*
X114597117Y-92314537D02*
X114549498Y-92266918D01*
X114549498Y-92266918D02*
X114454260Y-92219299D01*
X114454260Y-92219299D02*
X114216165Y-92219299D01*
X114216165Y-92219299D02*
X114073308Y-92266918D01*
X113644736Y-93219299D02*
X113644736Y-92219299D01*
X113644736Y-92219299D02*
X113406641Y-92219299D01*
X113406641Y-92219299D02*
X113263784Y-92266918D01*
X113263784Y-92266918D02*
X113168546Y-92362156D01*
X113168546Y-92362156D02*
X113120927Y-92457394D01*
X113120927Y-92457394D02*
X113073308Y-92647870D01*
X113073308Y-92647870D02*
X113073308Y-92790727D01*
X113073308Y-92790727D02*
X113120927Y-92981203D01*
X113120927Y-92981203D02*
X113168546Y-93076441D01*
X113168546Y-93076441D02*
X113263784Y-93171680D01*
X113263784Y-93171680D02*
X113406641Y-93219299D01*
X113406641Y-93219299D02*
X113644736Y-93219299D01*
X51099498Y-91919299D02*
X50766165Y-92919299D01*
X50766165Y-92919299D02*
X50432832Y-91919299D01*
X50337594Y-93014537D02*
X49575689Y-93014537D01*
X49337593Y-91919299D02*
X49337593Y-92728822D01*
X49337593Y-92728822D02*
X49289974Y-92824060D01*
X49289974Y-92824060D02*
X49242355Y-92871680D01*
X49242355Y-92871680D02*
X49147117Y-92919299D01*
X49147117Y-92919299D02*
X48956641Y-92919299D01*
X48956641Y-92919299D02*
X48861403Y-92871680D01*
X48861403Y-92871680D02*
X48813784Y-92824060D01*
X48813784Y-92824060D02*
X48766165Y-92728822D01*
X48766165Y-92728822D02*
X48766165Y-91919299D01*
X48337593Y-92871680D02*
X48194736Y-92919299D01*
X48194736Y-92919299D02*
X47956641Y-92919299D01*
X47956641Y-92919299D02*
X47861403Y-92871680D01*
X47861403Y-92871680D02*
X47813784Y-92824060D01*
X47813784Y-92824060D02*
X47766165Y-92728822D01*
X47766165Y-92728822D02*
X47766165Y-92633584D01*
X47766165Y-92633584D02*
X47813784Y-92538346D01*
X47813784Y-92538346D02*
X47861403Y-92490727D01*
X47861403Y-92490727D02*
X47956641Y-92443108D01*
X47956641Y-92443108D02*
X48147117Y-92395489D01*
X48147117Y-92395489D02*
X48242355Y-92347870D01*
X48242355Y-92347870D02*
X48289974Y-92300251D01*
X48289974Y-92300251D02*
X48337593Y-92205013D01*
X48337593Y-92205013D02*
X48337593Y-92109775D01*
X48337593Y-92109775D02*
X48289974Y-92014537D01*
X48289974Y-92014537D02*
X48242355Y-91966918D01*
X48242355Y-91966918D02*
X48147117Y-91919299D01*
X48147117Y-91919299D02*
X47909022Y-91919299D01*
X47909022Y-91919299D02*
X47766165Y-91966918D01*
X47004260Y-92395489D02*
X46861403Y-92443108D01*
X46861403Y-92443108D02*
X46813784Y-92490727D01*
X46813784Y-92490727D02*
X46766165Y-92585965D01*
X46766165Y-92585965D02*
X46766165Y-92728822D01*
X46766165Y-92728822D02*
X46813784Y-92824060D01*
X46813784Y-92824060D02*
X46861403Y-92871680D01*
X46861403Y-92871680D02*
X46956641Y-92919299D01*
X46956641Y-92919299D02*
X47337593Y-92919299D01*
X47337593Y-92919299D02*
X47337593Y-91919299D01*
X47337593Y-91919299D02*
X47004260Y-91919299D01*
X47004260Y-91919299D02*
X46909022Y-91966918D01*
X46909022Y-91966918D02*
X46861403Y-92014537D01*
X46861403Y-92014537D02*
X46813784Y-92109775D01*
X46813784Y-92109775D02*
X46813784Y-92205013D01*
X46813784Y-92205013D02*
X46861403Y-92300251D01*
X46861403Y-92300251D02*
X46909022Y-92347870D01*
X46909022Y-92347870D02*
X47004260Y-92395489D01*
X47004260Y-92395489D02*
X47337593Y-92395489D01*
X95701879Y-94169299D02*
X95463784Y-95169299D01*
X95463784Y-95169299D02*
X95273308Y-94455013D01*
X95273308Y-94455013D02*
X95082832Y-95169299D01*
X95082832Y-95169299D02*
X94844737Y-94169299D01*
X94701880Y-95264537D02*
X93939975Y-95264537D01*
X93749498Y-95121680D02*
X93606641Y-95169299D01*
X93606641Y-95169299D02*
X93368546Y-95169299D01*
X93368546Y-95169299D02*
X93273308Y-95121680D01*
X93273308Y-95121680D02*
X93225689Y-95074060D01*
X93225689Y-95074060D02*
X93178070Y-94978822D01*
X93178070Y-94978822D02*
X93178070Y-94883584D01*
X93178070Y-94883584D02*
X93225689Y-94788346D01*
X93225689Y-94788346D02*
X93273308Y-94740727D01*
X93273308Y-94740727D02*
X93368546Y-94693108D01*
X93368546Y-94693108D02*
X93559022Y-94645489D01*
X93559022Y-94645489D02*
X93654260Y-94597870D01*
X93654260Y-94597870D02*
X93701879Y-94550251D01*
X93701879Y-94550251D02*
X93749498Y-94455013D01*
X93749498Y-94455013D02*
X93749498Y-94359775D01*
X93749498Y-94359775D02*
X93701879Y-94264537D01*
X93701879Y-94264537D02*
X93654260Y-94216918D01*
X93654260Y-94216918D02*
X93559022Y-94169299D01*
X93559022Y-94169299D02*
X93320927Y-94169299D01*
X93320927Y-94169299D02*
X93178070Y-94216918D01*
X92749498Y-95169299D02*
X92749498Y-94169299D01*
X92749498Y-94169299D02*
X92511403Y-94169299D01*
X92511403Y-94169299D02*
X92368546Y-94216918D01*
X92368546Y-94216918D02*
X92273308Y-94312156D01*
X92273308Y-94312156D02*
X92225689Y-94407394D01*
X92225689Y-94407394D02*
X92178070Y-94597870D01*
X92178070Y-94597870D02*
X92178070Y-94740727D01*
X92178070Y-94740727D02*
X92225689Y-94931203D01*
X92225689Y-94931203D02*
X92273308Y-95026441D01*
X92273308Y-95026441D02*
X92368546Y-95121680D01*
X92368546Y-95121680D02*
X92511403Y-95169299D01*
X92511403Y-95169299D02*
X92749498Y-95169299D01*
X83430451Y-113869299D02*
X83906641Y-113869299D01*
X83906641Y-113869299D02*
X83954260Y-114345489D01*
X83954260Y-114345489D02*
X83906641Y-114297870D01*
X83906641Y-114297870D02*
X83811403Y-114250251D01*
X83811403Y-114250251D02*
X83573308Y-114250251D01*
X83573308Y-114250251D02*
X83478070Y-114297870D01*
X83478070Y-114297870D02*
X83430451Y-114345489D01*
X83430451Y-114345489D02*
X83382832Y-114440727D01*
X83382832Y-114440727D02*
X83382832Y-114678822D01*
X83382832Y-114678822D02*
X83430451Y-114774060D01*
X83430451Y-114774060D02*
X83478070Y-114821680D01*
X83478070Y-114821680D02*
X83573308Y-114869299D01*
X83573308Y-114869299D02*
X83811403Y-114869299D01*
X83811403Y-114869299D02*
X83906641Y-114821680D01*
X83906641Y-114821680D02*
X83954260Y-114774060D01*
X83097117Y-113869299D02*
X82763784Y-114869299D01*
X82763784Y-114869299D02*
X82430451Y-113869299D01*
X75901879Y-124969299D02*
X75663784Y-125969299D01*
X75663784Y-125969299D02*
X75473308Y-125255013D01*
X75473308Y-125255013D02*
X75282832Y-125969299D01*
X75282832Y-125969299D02*
X75044737Y-124969299D01*
X74901880Y-126064537D02*
X74139975Y-126064537D01*
X73901879Y-125969299D02*
X73901879Y-124969299D01*
X129132832Y-122916918D02*
X129228070Y-122869299D01*
X129228070Y-122869299D02*
X129370927Y-122869299D01*
X129370927Y-122869299D02*
X129513784Y-122916918D01*
X129513784Y-122916918D02*
X129609022Y-123012156D01*
X129609022Y-123012156D02*
X129656641Y-123107394D01*
X129656641Y-123107394D02*
X129704260Y-123297870D01*
X129704260Y-123297870D02*
X129704260Y-123440727D01*
X129704260Y-123440727D02*
X129656641Y-123631203D01*
X129656641Y-123631203D02*
X129609022Y-123726441D01*
X129609022Y-123726441D02*
X129513784Y-123821680D01*
X129513784Y-123821680D02*
X129370927Y-123869299D01*
X129370927Y-123869299D02*
X129275689Y-123869299D01*
X129275689Y-123869299D02*
X129132832Y-123821680D01*
X129132832Y-123821680D02*
X129085213Y-123774060D01*
X129085213Y-123774060D02*
X129085213Y-123440727D01*
X129085213Y-123440727D02*
X129275689Y-123440727D01*
X60706641Y-101469299D02*
X60706641Y-100469299D01*
X60706641Y-100469299D02*
X60468546Y-100469299D01*
X60468546Y-100469299D02*
X60325689Y-100516918D01*
X60325689Y-100516918D02*
X60230451Y-100612156D01*
X60230451Y-100612156D02*
X60182832Y-100707394D01*
X60182832Y-100707394D02*
X60135213Y-100897870D01*
X60135213Y-100897870D02*
X60135213Y-101040727D01*
X60135213Y-101040727D02*
X60182832Y-101231203D01*
X60182832Y-101231203D02*
X60230451Y-101326441D01*
X60230451Y-101326441D02*
X60325689Y-101421680D01*
X60325689Y-101421680D02*
X60468546Y-101469299D01*
X60468546Y-101469299D02*
X60706641Y-101469299D01*
X59706641Y-101088346D02*
X58944737Y-101088346D01*
X105399498Y-92819299D02*
X105066165Y-93819299D01*
X105066165Y-93819299D02*
X104732832Y-92819299D01*
X104637594Y-93914537D02*
X103875689Y-93914537D01*
X103685212Y-93771680D02*
X103542355Y-93819299D01*
X103542355Y-93819299D02*
X103304260Y-93819299D01*
X103304260Y-93819299D02*
X103209022Y-93771680D01*
X103209022Y-93771680D02*
X103161403Y-93724060D01*
X103161403Y-93724060D02*
X103113784Y-93628822D01*
X103113784Y-93628822D02*
X103113784Y-93533584D01*
X103113784Y-93533584D02*
X103161403Y-93438346D01*
X103161403Y-93438346D02*
X103209022Y-93390727D01*
X103209022Y-93390727D02*
X103304260Y-93343108D01*
X103304260Y-93343108D02*
X103494736Y-93295489D01*
X103494736Y-93295489D02*
X103589974Y-93247870D01*
X103589974Y-93247870D02*
X103637593Y-93200251D01*
X103637593Y-93200251D02*
X103685212Y-93105013D01*
X103685212Y-93105013D02*
X103685212Y-93009775D01*
X103685212Y-93009775D02*
X103637593Y-92914537D01*
X103637593Y-92914537D02*
X103589974Y-92866918D01*
X103589974Y-92866918D02*
X103494736Y-92819299D01*
X103494736Y-92819299D02*
X103256641Y-92819299D01*
X103256641Y-92819299D02*
X103113784Y-92866918D01*
X102685212Y-93819299D02*
X102685212Y-92819299D01*
X102685212Y-92819299D02*
X102447117Y-92819299D01*
X102447117Y-92819299D02*
X102304260Y-92866918D01*
X102304260Y-92866918D02*
X102209022Y-92962156D01*
X102209022Y-92962156D02*
X102161403Y-93057394D01*
X102161403Y-93057394D02*
X102113784Y-93247870D01*
X102113784Y-93247870D02*
X102113784Y-93390727D01*
X102113784Y-93390727D02*
X102161403Y-93581203D01*
X102161403Y-93581203D02*
X102209022Y-93676441D01*
X102209022Y-93676441D02*
X102304260Y-93771680D01*
X102304260Y-93771680D02*
X102447117Y-93819299D01*
X102447117Y-93819299D02*
X102685212Y-93819299D01*
X111899498Y-91519299D02*
X111566165Y-92519299D01*
X111566165Y-92519299D02*
X111232832Y-91519299D01*
X111137594Y-92614537D02*
X110375689Y-92614537D01*
X110185212Y-92471680D02*
X110042355Y-92519299D01*
X110042355Y-92519299D02*
X109804260Y-92519299D01*
X109804260Y-92519299D02*
X109709022Y-92471680D01*
X109709022Y-92471680D02*
X109661403Y-92424060D01*
X109661403Y-92424060D02*
X109613784Y-92328822D01*
X109613784Y-92328822D02*
X109613784Y-92233584D01*
X109613784Y-92233584D02*
X109661403Y-92138346D01*
X109661403Y-92138346D02*
X109709022Y-92090727D01*
X109709022Y-92090727D02*
X109804260Y-92043108D01*
X109804260Y-92043108D02*
X109994736Y-91995489D01*
X109994736Y-91995489D02*
X110089974Y-91947870D01*
X110089974Y-91947870D02*
X110137593Y-91900251D01*
X110137593Y-91900251D02*
X110185212Y-91805013D01*
X110185212Y-91805013D02*
X110185212Y-91709775D01*
X110185212Y-91709775D02*
X110137593Y-91614537D01*
X110137593Y-91614537D02*
X110089974Y-91566918D01*
X110089974Y-91566918D02*
X109994736Y-91519299D01*
X109994736Y-91519299D02*
X109756641Y-91519299D01*
X109756641Y-91519299D02*
X109613784Y-91566918D01*
X109280450Y-91519299D02*
X109042355Y-92519299D01*
X109042355Y-92519299D02*
X108851879Y-91805013D01*
X108851879Y-91805013D02*
X108661403Y-92519299D01*
X108661403Y-92519299D02*
X108423308Y-91519299D01*
X91432832Y-122416918D02*
X91528070Y-122369299D01*
X91528070Y-122369299D02*
X91670927Y-122369299D01*
X91670927Y-122369299D02*
X91813784Y-122416918D01*
X91813784Y-122416918D02*
X91909022Y-122512156D01*
X91909022Y-122512156D02*
X91956641Y-122607394D01*
X91956641Y-122607394D02*
X92004260Y-122797870D01*
X92004260Y-122797870D02*
X92004260Y-122940727D01*
X92004260Y-122940727D02*
X91956641Y-123131203D01*
X91956641Y-123131203D02*
X91909022Y-123226441D01*
X91909022Y-123226441D02*
X91813784Y-123321680D01*
X91813784Y-123321680D02*
X91670927Y-123369299D01*
X91670927Y-123369299D02*
X91575689Y-123369299D01*
X91575689Y-123369299D02*
X91432832Y-123321680D01*
X91432832Y-123321680D02*
X91385213Y-123274060D01*
X91385213Y-123274060D02*
X91385213Y-122940727D01*
X91385213Y-122940727D02*
X91575689Y-122940727D01*
X110182832Y-122316918D02*
X110278070Y-122269299D01*
X110278070Y-122269299D02*
X110420927Y-122269299D01*
X110420927Y-122269299D02*
X110563784Y-122316918D01*
X110563784Y-122316918D02*
X110659022Y-122412156D01*
X110659022Y-122412156D02*
X110706641Y-122507394D01*
X110706641Y-122507394D02*
X110754260Y-122697870D01*
X110754260Y-122697870D02*
X110754260Y-122840727D01*
X110754260Y-122840727D02*
X110706641Y-123031203D01*
X110706641Y-123031203D02*
X110659022Y-123126441D01*
X110659022Y-123126441D02*
X110563784Y-123221680D01*
X110563784Y-123221680D02*
X110420927Y-123269299D01*
X110420927Y-123269299D02*
X110325689Y-123269299D01*
X110325689Y-123269299D02*
X110182832Y-123221680D01*
X110182832Y-123221680D02*
X110135213Y-123174060D01*
X110135213Y-123174060D02*
X110135213Y-122840727D01*
X110135213Y-122840727D02*
X110325689Y-122840727D01*
X121406641Y-91819299D02*
X121406641Y-92628822D01*
X121406641Y-92628822D02*
X121359022Y-92724060D01*
X121359022Y-92724060D02*
X121311403Y-92771680D01*
X121311403Y-92771680D02*
X121216165Y-92819299D01*
X121216165Y-92819299D02*
X121025689Y-92819299D01*
X121025689Y-92819299D02*
X120930451Y-92771680D01*
X120930451Y-92771680D02*
X120882832Y-92724060D01*
X120882832Y-92724060D02*
X120835213Y-92628822D01*
X120835213Y-92628822D02*
X120835213Y-91819299D01*
X120597118Y-92914537D02*
X119835213Y-92914537D01*
X119644736Y-92771680D02*
X119501879Y-92819299D01*
X119501879Y-92819299D02*
X119263784Y-92819299D01*
X119263784Y-92819299D02*
X119168546Y-92771680D01*
X119168546Y-92771680D02*
X119120927Y-92724060D01*
X119120927Y-92724060D02*
X119073308Y-92628822D01*
X119073308Y-92628822D02*
X119073308Y-92533584D01*
X119073308Y-92533584D02*
X119120927Y-92438346D01*
X119120927Y-92438346D02*
X119168546Y-92390727D01*
X119168546Y-92390727D02*
X119263784Y-92343108D01*
X119263784Y-92343108D02*
X119454260Y-92295489D01*
X119454260Y-92295489D02*
X119549498Y-92247870D01*
X119549498Y-92247870D02*
X119597117Y-92200251D01*
X119597117Y-92200251D02*
X119644736Y-92105013D01*
X119644736Y-92105013D02*
X119644736Y-92009775D01*
X119644736Y-92009775D02*
X119597117Y-91914537D01*
X119597117Y-91914537D02*
X119549498Y-91866918D01*
X119549498Y-91866918D02*
X119454260Y-91819299D01*
X119454260Y-91819299D02*
X119216165Y-91819299D01*
X119216165Y-91819299D02*
X119073308Y-91866918D01*
X118739974Y-91819299D02*
X118501879Y-92819299D01*
X118501879Y-92819299D02*
X118311403Y-92105013D01*
X118311403Y-92105013D02*
X118120927Y-92819299D01*
X118120927Y-92819299D02*
X117882832Y-91819299D01*
X57635213Y-130324060D02*
X57682832Y-130371680D01*
X57682832Y-130371680D02*
X57825689Y-130419299D01*
X57825689Y-130419299D02*
X57920927Y-130419299D01*
X57920927Y-130419299D02*
X58063784Y-130371680D01*
X58063784Y-130371680D02*
X58159022Y-130276441D01*
X58159022Y-130276441D02*
X58206641Y-130181203D01*
X58206641Y-130181203D02*
X58254260Y-129990727D01*
X58254260Y-129990727D02*
X58254260Y-129847870D01*
X58254260Y-129847870D02*
X58206641Y-129657394D01*
X58206641Y-129657394D02*
X58159022Y-129562156D01*
X58159022Y-129562156D02*
X58063784Y-129466918D01*
X58063784Y-129466918D02*
X57920927Y-129419299D01*
X57920927Y-129419299D02*
X57825689Y-129419299D01*
X57825689Y-129419299D02*
X57682832Y-129466918D01*
X57682832Y-129466918D02*
X57635213Y-129514537D01*
X57254260Y-130133584D02*
X56778070Y-130133584D01*
X57349498Y-130419299D02*
X57016165Y-129419299D01*
X57016165Y-129419299D02*
X56682832Y-130419299D01*
X56349498Y-130419299D02*
X56349498Y-129419299D01*
X56349498Y-129419299D02*
X55778070Y-130419299D01*
X55778070Y-130419299D02*
X55778070Y-129419299D01*
X55539975Y-130514537D02*
X54778070Y-130514537D01*
X54682831Y-129419299D02*
X54111403Y-129419299D01*
X54397117Y-130419299D02*
X54397117Y-129419299D01*
X53873307Y-129419299D02*
X53206641Y-130419299D01*
X53206641Y-129419299D02*
X53873307Y-130419299D01*
X98949498Y-136619299D02*
X98616165Y-137619299D01*
X98616165Y-137619299D02*
X98282832Y-136619299D01*
X98187594Y-137714537D02*
X97425689Y-137714537D01*
X97330450Y-136619299D02*
X96997117Y-137619299D01*
X96997117Y-137619299D02*
X96663784Y-136619299D01*
X125232832Y-127566918D02*
X125328070Y-127519299D01*
X125328070Y-127519299D02*
X125470927Y-127519299D01*
X125470927Y-127519299D02*
X125613784Y-127566918D01*
X125613784Y-127566918D02*
X125709022Y-127662156D01*
X125709022Y-127662156D02*
X125756641Y-127757394D01*
X125756641Y-127757394D02*
X125804260Y-127947870D01*
X125804260Y-127947870D02*
X125804260Y-128090727D01*
X125804260Y-128090727D02*
X125756641Y-128281203D01*
X125756641Y-128281203D02*
X125709022Y-128376441D01*
X125709022Y-128376441D02*
X125613784Y-128471680D01*
X125613784Y-128471680D02*
X125470927Y-128519299D01*
X125470927Y-128519299D02*
X125375689Y-128519299D01*
X125375689Y-128519299D02*
X125232832Y-128471680D01*
X125232832Y-128471680D02*
X125185213Y-128424060D01*
X125185213Y-128424060D02*
X125185213Y-128090727D01*
X125185213Y-128090727D02*
X125375689Y-128090727D01*
X87232832Y-127816918D02*
X87328070Y-127769299D01*
X87328070Y-127769299D02*
X87470927Y-127769299D01*
X87470927Y-127769299D02*
X87613784Y-127816918D01*
X87613784Y-127816918D02*
X87709022Y-127912156D01*
X87709022Y-127912156D02*
X87756641Y-128007394D01*
X87756641Y-128007394D02*
X87804260Y-128197870D01*
X87804260Y-128197870D02*
X87804260Y-128340727D01*
X87804260Y-128340727D02*
X87756641Y-128531203D01*
X87756641Y-128531203D02*
X87709022Y-128626441D01*
X87709022Y-128626441D02*
X87613784Y-128721680D01*
X87613784Y-128721680D02*
X87470927Y-128769299D01*
X87470927Y-128769299D02*
X87375689Y-128769299D01*
X87375689Y-128769299D02*
X87232832Y-128721680D01*
X87232832Y-128721680D02*
X87185213Y-128674060D01*
X87185213Y-128674060D02*
X87185213Y-128340727D01*
X87185213Y-128340727D02*
X87375689Y-128340727D01*
X129632832Y-98369299D02*
X130204260Y-98369299D01*
X129918546Y-98369299D02*
X129918546Y-97369299D01*
X129918546Y-97369299D02*
X130013784Y-97512156D01*
X130013784Y-97512156D02*
X130109022Y-97607394D01*
X130109022Y-97607394D02*
X130204260Y-97655013D01*
X129013784Y-97369299D02*
X128918546Y-97369299D01*
X128918546Y-97369299D02*
X128823308Y-97416918D01*
X128823308Y-97416918D02*
X128775689Y-97464537D01*
X128775689Y-97464537D02*
X128728070Y-97559775D01*
X128728070Y-97559775D02*
X128680451Y-97750251D01*
X128680451Y-97750251D02*
X128680451Y-97988346D01*
X128680451Y-97988346D02*
X128728070Y-98178822D01*
X128728070Y-98178822D02*
X128775689Y-98274060D01*
X128775689Y-98274060D02*
X128823308Y-98321680D01*
X128823308Y-98321680D02*
X128918546Y-98369299D01*
X128918546Y-98369299D02*
X129013784Y-98369299D01*
X129013784Y-98369299D02*
X129109022Y-98321680D01*
X129109022Y-98321680D02*
X129156641Y-98274060D01*
X129156641Y-98274060D02*
X129204260Y-98178822D01*
X129204260Y-98178822D02*
X129251879Y-97988346D01*
X129251879Y-97988346D02*
X129251879Y-97750251D01*
X129251879Y-97750251D02*
X129204260Y-97559775D01*
X129204260Y-97559775D02*
X129156641Y-97464537D01*
X129156641Y-97464537D02*
X129109022Y-97416918D01*
X129109022Y-97416918D02*
X129013784Y-97369299D01*
X128394736Y-97369299D02*
X128061403Y-98369299D01*
X128061403Y-98369299D02*
X127728070Y-97369299D01*
X67501879Y-103269299D02*
X66882832Y-103269299D01*
X66882832Y-103269299D02*
X67216165Y-103650251D01*
X67216165Y-103650251D02*
X67073308Y-103650251D01*
X67073308Y-103650251D02*
X66978070Y-103697870D01*
X66978070Y-103697870D02*
X66930451Y-103745489D01*
X66930451Y-103745489D02*
X66882832Y-103840727D01*
X66882832Y-103840727D02*
X66882832Y-104078822D01*
X66882832Y-104078822D02*
X66930451Y-104174060D01*
X66930451Y-104174060D02*
X66978070Y-104221680D01*
X66978070Y-104221680D02*
X67073308Y-104269299D01*
X67073308Y-104269299D02*
X67359022Y-104269299D01*
X67359022Y-104269299D02*
X67454260Y-104221680D01*
X67454260Y-104221680D02*
X67501879Y-104174060D01*
X66454260Y-104174060D02*
X66406641Y-104221680D01*
X66406641Y-104221680D02*
X66454260Y-104269299D01*
X66454260Y-104269299D02*
X66501879Y-104221680D01*
X66501879Y-104221680D02*
X66454260Y-104174060D01*
X66454260Y-104174060D02*
X66454260Y-104269299D01*
X66073308Y-103269299D02*
X65454261Y-103269299D01*
X65454261Y-103269299D02*
X65787594Y-103650251D01*
X65787594Y-103650251D02*
X65644737Y-103650251D01*
X65644737Y-103650251D02*
X65549499Y-103697870D01*
X65549499Y-103697870D02*
X65501880Y-103745489D01*
X65501880Y-103745489D02*
X65454261Y-103840727D01*
X65454261Y-103840727D02*
X65454261Y-104078822D01*
X65454261Y-104078822D02*
X65501880Y-104174060D01*
X65501880Y-104174060D02*
X65549499Y-104221680D01*
X65549499Y-104221680D02*
X65644737Y-104269299D01*
X65644737Y-104269299D02*
X65930451Y-104269299D01*
X65930451Y-104269299D02*
X66025689Y-104221680D01*
X66025689Y-104221680D02*
X66073308Y-104174060D01*
X65168546Y-103269299D02*
X64835213Y-104269299D01*
X64835213Y-104269299D02*
X64501880Y-103269299D01*
X117256641Y-136369299D02*
X117256641Y-137178822D01*
X117256641Y-137178822D02*
X117209022Y-137274060D01*
X117209022Y-137274060D02*
X117161403Y-137321680D01*
X117161403Y-137321680D02*
X117066165Y-137369299D01*
X117066165Y-137369299D02*
X116875689Y-137369299D01*
X116875689Y-137369299D02*
X116780451Y-137321680D01*
X116780451Y-137321680D02*
X116732832Y-137274060D01*
X116732832Y-137274060D02*
X116685213Y-137178822D01*
X116685213Y-137178822D02*
X116685213Y-136369299D01*
X116447118Y-137464537D02*
X115685213Y-137464537D01*
X115589974Y-136369299D02*
X115256641Y-137369299D01*
X115256641Y-137369299D02*
X114923308Y-136369299D01*
X72032832Y-130366918D02*
X72128070Y-130319299D01*
X72128070Y-130319299D02*
X72270927Y-130319299D01*
X72270927Y-130319299D02*
X72413784Y-130366918D01*
X72413784Y-130366918D02*
X72509022Y-130462156D01*
X72509022Y-130462156D02*
X72556641Y-130557394D01*
X72556641Y-130557394D02*
X72604260Y-130747870D01*
X72604260Y-130747870D02*
X72604260Y-130890727D01*
X72604260Y-130890727D02*
X72556641Y-131081203D01*
X72556641Y-131081203D02*
X72509022Y-131176441D01*
X72509022Y-131176441D02*
X72413784Y-131271680D01*
X72413784Y-131271680D02*
X72270927Y-131319299D01*
X72270927Y-131319299D02*
X72175689Y-131319299D01*
X72175689Y-131319299D02*
X72032832Y-131271680D01*
X72032832Y-131271680D02*
X71985213Y-131224060D01*
X71985213Y-131224060D02*
X71985213Y-130890727D01*
X71985213Y-130890727D02*
X72175689Y-130890727D01*
X71794737Y-131414537D02*
X71032832Y-131414537D01*
X70937593Y-130319299D02*
X70604260Y-131319299D01*
X70604260Y-131319299D02*
X70270927Y-130319299D01*
X97499498Y-132869299D02*
X97166165Y-133869299D01*
X97166165Y-133869299D02*
X96832832Y-132869299D01*
X96737594Y-133964537D02*
X95975689Y-133964537D01*
X95737593Y-133869299D02*
X95737593Y-132869299D01*
X113156641Y-129969299D02*
X113156641Y-130778822D01*
X113156641Y-130778822D02*
X113109022Y-130874060D01*
X113109022Y-130874060D02*
X113061403Y-130921680D01*
X113061403Y-130921680D02*
X112966165Y-130969299D01*
X112966165Y-130969299D02*
X112775689Y-130969299D01*
X112775689Y-130969299D02*
X112680451Y-130921680D01*
X112680451Y-130921680D02*
X112632832Y-130874060D01*
X112632832Y-130874060D02*
X112585213Y-130778822D01*
X112585213Y-130778822D02*
X112585213Y-129969299D01*
X112347118Y-131064537D02*
X111585213Y-131064537D01*
X111347117Y-130969299D02*
X111347117Y-129969299D01*
X127323308Y-101945489D02*
X127180451Y-101993108D01*
X127180451Y-101993108D02*
X127132832Y-102040727D01*
X127132832Y-102040727D02*
X127085213Y-102135965D01*
X127085213Y-102135965D02*
X127085213Y-102278822D01*
X127085213Y-102278822D02*
X127132832Y-102374060D01*
X127132832Y-102374060D02*
X127180451Y-102421680D01*
X127180451Y-102421680D02*
X127275689Y-102469299D01*
X127275689Y-102469299D02*
X127656641Y-102469299D01*
X127656641Y-102469299D02*
X127656641Y-101469299D01*
X127656641Y-101469299D02*
X127323308Y-101469299D01*
X127323308Y-101469299D02*
X127228070Y-101516918D01*
X127228070Y-101516918D02*
X127180451Y-101564537D01*
X127180451Y-101564537D02*
X127132832Y-101659775D01*
X127132832Y-101659775D02*
X127132832Y-101755013D01*
X127132832Y-101755013D02*
X127180451Y-101850251D01*
X127180451Y-101850251D02*
X127228070Y-101897870D01*
X127228070Y-101897870D02*
X127323308Y-101945489D01*
X127323308Y-101945489D02*
X127656641Y-101945489D01*
X126704260Y-102183584D02*
X126228070Y-102183584D01*
X126799498Y-102469299D02*
X126466165Y-101469299D01*
X126466165Y-101469299D02*
X126132832Y-102469299D01*
X125942355Y-101469299D02*
X125370927Y-101469299D01*
X125656641Y-102469299D02*
X125656641Y-101469299D01*
X125180450Y-101469299D02*
X124609022Y-101469299D01*
X124894736Y-102469299D02*
X124894736Y-101469299D01*
X90923308Y-102295489D02*
X90780451Y-102343108D01*
X90780451Y-102343108D02*
X90732832Y-102390727D01*
X90732832Y-102390727D02*
X90685213Y-102485965D01*
X90685213Y-102485965D02*
X90685213Y-102628822D01*
X90685213Y-102628822D02*
X90732832Y-102724060D01*
X90732832Y-102724060D02*
X90780451Y-102771680D01*
X90780451Y-102771680D02*
X90875689Y-102819299D01*
X90875689Y-102819299D02*
X91256641Y-102819299D01*
X91256641Y-102819299D02*
X91256641Y-101819299D01*
X91256641Y-101819299D02*
X90923308Y-101819299D01*
X90923308Y-101819299D02*
X90828070Y-101866918D01*
X90828070Y-101866918D02*
X90780451Y-101914537D01*
X90780451Y-101914537D02*
X90732832Y-102009775D01*
X90732832Y-102009775D02*
X90732832Y-102105013D01*
X90732832Y-102105013D02*
X90780451Y-102200251D01*
X90780451Y-102200251D02*
X90828070Y-102247870D01*
X90828070Y-102247870D02*
X90923308Y-102295489D01*
X90923308Y-102295489D02*
X91256641Y-102295489D01*
X90256641Y-101819299D02*
X90256641Y-102628822D01*
X90256641Y-102628822D02*
X90209022Y-102724060D01*
X90209022Y-102724060D02*
X90161403Y-102771680D01*
X90161403Y-102771680D02*
X90066165Y-102819299D01*
X90066165Y-102819299D02*
X89875689Y-102819299D01*
X89875689Y-102819299D02*
X89780451Y-102771680D01*
X89780451Y-102771680D02*
X89732832Y-102724060D01*
X89732832Y-102724060D02*
X89685213Y-102628822D01*
X89685213Y-102628822D02*
X89685213Y-101819299D01*
X88637594Y-102724060D02*
X88685213Y-102771680D01*
X88685213Y-102771680D02*
X88828070Y-102819299D01*
X88828070Y-102819299D02*
X88923308Y-102819299D01*
X88923308Y-102819299D02*
X89066165Y-102771680D01*
X89066165Y-102771680D02*
X89161403Y-102676441D01*
X89161403Y-102676441D02*
X89209022Y-102581203D01*
X89209022Y-102581203D02*
X89256641Y-102390727D01*
X89256641Y-102390727D02*
X89256641Y-102247870D01*
X89256641Y-102247870D02*
X89209022Y-102057394D01*
X89209022Y-102057394D02*
X89161403Y-101962156D01*
X89161403Y-101962156D02*
X89066165Y-101866918D01*
X89066165Y-101866918D02*
X88923308Y-101819299D01*
X88923308Y-101819299D02*
X88828070Y-101819299D01*
X88828070Y-101819299D02*
X88685213Y-101866918D01*
X88685213Y-101866918D02*
X88637594Y-101914537D01*
X88209022Y-102819299D02*
X88209022Y-101819299D01*
X87637594Y-102819299D02*
X88066165Y-102247870D01*
X87637594Y-101819299D02*
X88209022Y-102390727D01*
X86732832Y-101819299D02*
X87209022Y-101819299D01*
X87209022Y-101819299D02*
X87256641Y-102295489D01*
X87256641Y-102295489D02*
X87209022Y-102247870D01*
X87209022Y-102247870D02*
X87113784Y-102200251D01*
X87113784Y-102200251D02*
X86875689Y-102200251D01*
X86875689Y-102200251D02*
X86780451Y-102247870D01*
X86780451Y-102247870D02*
X86732832Y-102295489D01*
X86732832Y-102295489D02*
X86685213Y-102390727D01*
X86685213Y-102390727D02*
X86685213Y-102628822D01*
X86685213Y-102628822D02*
X86732832Y-102724060D01*
X86732832Y-102724060D02*
X86780451Y-102771680D01*
X86780451Y-102771680D02*
X86875689Y-102819299D01*
X86875689Y-102819299D02*
X87113784Y-102819299D01*
X87113784Y-102819299D02*
X87209022Y-102771680D01*
X87209022Y-102771680D02*
X87256641Y-102724060D01*
X86494737Y-102914537D02*
X85732832Y-102914537D01*
X85304260Y-101819299D02*
X85113784Y-101819299D01*
X85113784Y-101819299D02*
X85018546Y-101866918D01*
X85018546Y-101866918D02*
X84923308Y-101962156D01*
X84923308Y-101962156D02*
X84875689Y-102152632D01*
X84875689Y-102152632D02*
X84875689Y-102485965D01*
X84875689Y-102485965D02*
X84923308Y-102676441D01*
X84923308Y-102676441D02*
X85018546Y-102771680D01*
X85018546Y-102771680D02*
X85113784Y-102819299D01*
X85113784Y-102819299D02*
X85304260Y-102819299D01*
X85304260Y-102819299D02*
X85399498Y-102771680D01*
X85399498Y-102771680D02*
X85494736Y-102676441D01*
X85494736Y-102676441D02*
X85542355Y-102485965D01*
X85542355Y-102485965D02*
X85542355Y-102152632D01*
X85542355Y-102152632D02*
X85494736Y-101962156D01*
X85494736Y-101962156D02*
X85399498Y-101866918D01*
X85399498Y-101866918D02*
X85304260Y-101819299D01*
X66976691Y-82654510D02*
X67119548Y-82606891D01*
X67119548Y-82606891D02*
X67167167Y-82559272D01*
X67167167Y-82559272D02*
X67214786Y-82464034D01*
X67214786Y-82464034D02*
X67214786Y-82321177D01*
X67214786Y-82321177D02*
X67167167Y-82225939D01*
X67167167Y-82225939D02*
X67119548Y-82178320D01*
X67119548Y-82178320D02*
X67024310Y-82130700D01*
X67024310Y-82130700D02*
X66643358Y-82130700D01*
X66643358Y-82130700D02*
X66643358Y-83130700D01*
X66643358Y-83130700D02*
X66976691Y-83130700D01*
X66976691Y-83130700D02*
X67071929Y-83083081D01*
X67071929Y-83083081D02*
X67119548Y-83035462D01*
X67119548Y-83035462D02*
X67167167Y-82940224D01*
X67167167Y-82940224D02*
X67167167Y-82844986D01*
X67167167Y-82844986D02*
X67119548Y-82749748D01*
X67119548Y-82749748D02*
X67071929Y-82702129D01*
X67071929Y-82702129D02*
X66976691Y-82654510D01*
X66976691Y-82654510D02*
X66643358Y-82654510D01*
X68119548Y-82130700D02*
X67643358Y-82130700D01*
X67643358Y-82130700D02*
X67643358Y-83130700D01*
X68452882Y-82130700D02*
X68452882Y-83130700D01*
X68452882Y-83130700D02*
X68690977Y-83130700D01*
X68690977Y-83130700D02*
X68833834Y-83083081D01*
X68833834Y-83083081D02*
X68929072Y-82987843D01*
X68929072Y-82987843D02*
X68976691Y-82892605D01*
X68976691Y-82892605D02*
X69024310Y-82702129D01*
X69024310Y-82702129D02*
X69024310Y-82559272D01*
X69024310Y-82559272D02*
X68976691Y-82368796D01*
X68976691Y-82368796D02*
X68929072Y-82273558D01*
X68929072Y-82273558D02*
X68833834Y-82178320D01*
X68833834Y-82178320D02*
X68690977Y-82130700D01*
X68690977Y-82130700D02*
X68452882Y-82130700D01*
X70024310Y-82225939D02*
X69976691Y-82178320D01*
X69976691Y-82178320D02*
X69833834Y-82130700D01*
X69833834Y-82130700D02*
X69738596Y-82130700D01*
X69738596Y-82130700D02*
X69595739Y-82178320D01*
X69595739Y-82178320D02*
X69500501Y-82273558D01*
X69500501Y-82273558D02*
X69452882Y-82368796D01*
X69452882Y-82368796D02*
X69405263Y-82559272D01*
X69405263Y-82559272D02*
X69405263Y-82702129D01*
X69405263Y-82702129D02*
X69452882Y-82892605D01*
X69452882Y-82892605D02*
X69500501Y-82987843D01*
X69500501Y-82987843D02*
X69595739Y-83083081D01*
X69595739Y-83083081D02*
X69738596Y-83130700D01*
X69738596Y-83130700D02*
X69833834Y-83130700D01*
X69833834Y-83130700D02*
X69976691Y-83083081D01*
X69976691Y-83083081D02*
X70024310Y-83035462D01*
X71214787Y-82130700D02*
X71214787Y-83130700D01*
X71214787Y-83130700D02*
X71452882Y-83130700D01*
X71452882Y-83130700D02*
X71595739Y-83083081D01*
X71595739Y-83083081D02*
X71690977Y-82987843D01*
X71690977Y-82987843D02*
X71738596Y-82892605D01*
X71738596Y-82892605D02*
X71786215Y-82702129D01*
X71786215Y-82702129D02*
X71786215Y-82559272D01*
X71786215Y-82559272D02*
X71738596Y-82368796D01*
X71738596Y-82368796D02*
X71690977Y-82273558D01*
X71690977Y-82273558D02*
X71595739Y-82178320D01*
X71595739Y-82178320D02*
X71452882Y-82130700D01*
X71452882Y-82130700D02*
X71214787Y-82130700D01*
X72214787Y-82130700D02*
X72214787Y-82797367D01*
X72214787Y-82606891D02*
X72262406Y-82702129D01*
X72262406Y-82702129D02*
X72310025Y-82749748D01*
X72310025Y-82749748D02*
X72405263Y-82797367D01*
X72405263Y-82797367D02*
X72500501Y-82797367D01*
X72833835Y-82130700D02*
X72833835Y-82797367D01*
X72833835Y-83130700D02*
X72786216Y-83083081D01*
X72786216Y-83083081D02*
X72833835Y-83035462D01*
X72833835Y-83035462D02*
X72881454Y-83083081D01*
X72881454Y-83083081D02*
X72833835Y-83130700D01*
X72833835Y-83130700D02*
X72833835Y-83035462D01*
X73214787Y-82797367D02*
X73452882Y-82130700D01*
X73452882Y-82130700D02*
X73690977Y-82797367D01*
X74452882Y-82178320D02*
X74357644Y-82130700D01*
X74357644Y-82130700D02*
X74167168Y-82130700D01*
X74167168Y-82130700D02*
X74071930Y-82178320D01*
X74071930Y-82178320D02*
X74024311Y-82273558D01*
X74024311Y-82273558D02*
X74024311Y-82654510D01*
X74024311Y-82654510D02*
X74071930Y-82749748D01*
X74071930Y-82749748D02*
X74167168Y-82797367D01*
X74167168Y-82797367D02*
X74357644Y-82797367D01*
X74357644Y-82797367D02*
X74452882Y-82749748D01*
X74452882Y-82749748D02*
X74500501Y-82654510D01*
X74500501Y-82654510D02*
X74500501Y-82559272D01*
X74500501Y-82559272D02*
X74024311Y-82464034D01*
X74929073Y-82130700D02*
X74929073Y-82797367D01*
X74929073Y-82606891D02*
X74976692Y-82702129D01*
X74976692Y-82702129D02*
X75024311Y-82749748D01*
X75024311Y-82749748D02*
X75119549Y-82797367D01*
X75119549Y-82797367D02*
X75214787Y-82797367D01*
X75595740Y-82178320D02*
X75595740Y-82130700D01*
X75595740Y-82130700D02*
X75548121Y-82035462D01*
X75548121Y-82035462D02*
X75500502Y-81987843D01*
X76786216Y-82130700D02*
X76786216Y-82797367D01*
X76786216Y-82606891D02*
X76833835Y-82702129D01*
X76833835Y-82702129D02*
X76881454Y-82749748D01*
X76881454Y-82749748D02*
X76976692Y-82797367D01*
X76976692Y-82797367D02*
X77071930Y-82797367D01*
X77786216Y-82178320D02*
X77690978Y-82130700D01*
X77690978Y-82130700D02*
X77500502Y-82130700D01*
X77500502Y-82130700D02*
X77405264Y-82178320D01*
X77405264Y-82178320D02*
X77357645Y-82273558D01*
X77357645Y-82273558D02*
X77357645Y-82654510D01*
X77357645Y-82654510D02*
X77405264Y-82749748D01*
X77405264Y-82749748D02*
X77500502Y-82797367D01*
X77500502Y-82797367D02*
X77690978Y-82797367D01*
X77690978Y-82797367D02*
X77786216Y-82749748D01*
X77786216Y-82749748D02*
X77833835Y-82654510D01*
X77833835Y-82654510D02*
X77833835Y-82559272D01*
X77833835Y-82559272D02*
X77357645Y-82464034D01*
X78167169Y-82797367D02*
X78405264Y-82130700D01*
X78405264Y-82130700D02*
X78643359Y-82797367D01*
X80310026Y-82130700D02*
X79738598Y-82130700D01*
X80024312Y-82130700D02*
X80024312Y-83130700D01*
X80024312Y-83130700D02*
X79929074Y-82987843D01*
X79929074Y-82987843D02*
X79833836Y-82892605D01*
X79833836Y-82892605D02*
X79738598Y-82844986D01*
X49485213Y-127724060D02*
X49532832Y-127771680D01*
X49532832Y-127771680D02*
X49675689Y-127819299D01*
X49675689Y-127819299D02*
X49770927Y-127819299D01*
X49770927Y-127819299D02*
X49913784Y-127771680D01*
X49913784Y-127771680D02*
X50009022Y-127676441D01*
X50009022Y-127676441D02*
X50056641Y-127581203D01*
X50056641Y-127581203D02*
X50104260Y-127390727D01*
X50104260Y-127390727D02*
X50104260Y-127247870D01*
X50104260Y-127247870D02*
X50056641Y-127057394D01*
X50056641Y-127057394D02*
X50009022Y-126962156D01*
X50009022Y-126962156D02*
X49913784Y-126866918D01*
X49913784Y-126866918D02*
X49770927Y-126819299D01*
X49770927Y-126819299D02*
X49675689Y-126819299D01*
X49675689Y-126819299D02*
X49532832Y-126866918D01*
X49532832Y-126866918D02*
X49485213Y-126914537D01*
X49104260Y-127533584D02*
X48628070Y-127533584D01*
X49199498Y-127819299D02*
X48866165Y-126819299D01*
X48866165Y-126819299D02*
X48532832Y-127819299D01*
X48199498Y-127819299D02*
X48199498Y-126819299D01*
X48199498Y-126819299D02*
X47628070Y-127819299D01*
X47628070Y-127819299D02*
X47628070Y-126819299D01*
X47389975Y-127914537D02*
X46628070Y-127914537D01*
X45818546Y-127819299D02*
X46151879Y-127343108D01*
X46389974Y-127819299D02*
X46389974Y-126819299D01*
X46389974Y-126819299D02*
X46009022Y-126819299D01*
X46009022Y-126819299D02*
X45913784Y-126866918D01*
X45913784Y-126866918D02*
X45866165Y-126914537D01*
X45866165Y-126914537D02*
X45818546Y-127009775D01*
X45818546Y-127009775D02*
X45818546Y-127152632D01*
X45818546Y-127152632D02*
X45866165Y-127247870D01*
X45866165Y-127247870D02*
X45913784Y-127295489D01*
X45913784Y-127295489D02*
X46009022Y-127343108D01*
X46009022Y-127343108D02*
X46389974Y-127343108D01*
X45485212Y-126819299D02*
X44818546Y-127819299D01*
X44818546Y-126819299D02*
X45485212Y-127819299D01*
X55606641Y-102269299D02*
X55606641Y-101269299D01*
X55606641Y-101269299D02*
X55368546Y-101269299D01*
X55368546Y-101269299D02*
X55225689Y-101316918D01*
X55225689Y-101316918D02*
X55130451Y-101412156D01*
X55130451Y-101412156D02*
X55082832Y-101507394D01*
X55082832Y-101507394D02*
X55035213Y-101697870D01*
X55035213Y-101697870D02*
X55035213Y-101840727D01*
X55035213Y-101840727D02*
X55082832Y-102031203D01*
X55082832Y-102031203D02*
X55130451Y-102126441D01*
X55130451Y-102126441D02*
X55225689Y-102221680D01*
X55225689Y-102221680D02*
X55368546Y-102269299D01*
X55368546Y-102269299D02*
X55606641Y-102269299D01*
X54606641Y-101888346D02*
X53844737Y-101888346D01*
X54225689Y-102269299D02*
X54225689Y-101507394D01*
X106232832Y-127416918D02*
X106328070Y-127369299D01*
X106328070Y-127369299D02*
X106470927Y-127369299D01*
X106470927Y-127369299D02*
X106613784Y-127416918D01*
X106613784Y-127416918D02*
X106709022Y-127512156D01*
X106709022Y-127512156D02*
X106756641Y-127607394D01*
X106756641Y-127607394D02*
X106804260Y-127797870D01*
X106804260Y-127797870D02*
X106804260Y-127940727D01*
X106804260Y-127940727D02*
X106756641Y-128131203D01*
X106756641Y-128131203D02*
X106709022Y-128226441D01*
X106709022Y-128226441D02*
X106613784Y-128321680D01*
X106613784Y-128321680D02*
X106470927Y-128369299D01*
X106470927Y-128369299D02*
X106375689Y-128369299D01*
X106375689Y-128369299D02*
X106232832Y-128321680D01*
X106232832Y-128321680D02*
X106185213Y-128274060D01*
X106185213Y-128274060D02*
X106185213Y-127940727D01*
X106185213Y-127940727D02*
X106375689Y-127940727D01*
%LPC*%
D11*
X127540000Y-122592500D03*
D12*
X125000000Y-122592500D03*
X122460000Y-122592500D03*
D13*
X132500000Y-105300000D03*
X137500000Y-105300000D03*
D14*
X137800000Y-97450000D03*
D13*
X133000000Y-127300000D03*
X138000000Y-127300000D03*
D14*
X45900000Y-91750000D03*
X138200000Y-136900000D03*
D11*
X108177500Y-122772500D03*
D12*
X105637500Y-122772500D03*
X103097500Y-122772500D03*
D15*
X60990000Y-87300000D03*
X55210000Y-87300000D03*
D16*
X62420000Y-87830000D03*
D17*
X62420000Y-83650000D03*
D16*
X53780000Y-87830000D03*
D17*
X53780000Y-83650000D03*
D11*
X104077500Y-127917500D03*
D12*
X101537500Y-127917500D03*
X98997500Y-127917500D03*
D11*
X85350000Y-128150000D03*
D12*
X82810000Y-128150000D03*
X80270000Y-128150000D03*
D11*
X89580000Y-122655000D03*
D12*
X87040000Y-122655000D03*
X84500000Y-122655000D03*
D13*
X132600000Y-116300000D03*
X137600000Y-116300000D03*
D18*
X50900000Y-137000000D03*
D19*
X53440000Y-137000000D03*
X55980000Y-137000000D03*
D14*
X44200000Y-136900000D03*
D11*
X123377500Y-127872500D03*
D12*
X120837500Y-127872500D03*
X118297500Y-127872500D03*
D20*
X43500000Y-114890000D03*
D19*
X43500000Y-112350000D03*
X43500000Y-109810000D03*
X43500000Y-107270000D03*
X43500000Y-104730000D03*
X43500000Y-102190000D03*
X43500000Y-99650000D03*
X43500000Y-97110000D03*
D21*
X49200000Y-123800000D03*
X81300000Y-113200000D03*
X117900000Y-94700000D03*
X94400000Y-133400000D03*
X43500000Y-132850000D03*
X114350000Y-138550000D03*
X129200000Y-100050000D03*
X52650000Y-92750000D03*
X71050000Y-126600000D03*
X95800000Y-138050000D03*
X59750000Y-99100000D03*
X115700000Y-94700000D03*
X97500000Y-95050000D03*
X56550000Y-100350000D03*
X57600000Y-128000000D03*
X67500000Y-105700000D03*
X99900000Y-93200000D03*
X109250000Y-94300000D03*
X72400000Y-128800000D03*
X82950000Y-102300000D03*
X125900000Y-103950000D03*
X69900000Y-129100000D03*
X106650000Y-94550000D03*
X112400000Y-128700000D03*
%LPD*%
M02*
