%TF.GenerationSoftware,KiCad,Pcbnew,8.0.4-8.0.4-0~ubuntu22.04.1*%
%TF.CreationDate,2024-09-03T14:14:51+02:00*%
%TF.ProjectId,bldc_project,626c6463-5f70-4726-9f6a-6563742e6b69,rev?*%
%TF.SameCoordinates,Original*%
%TF.FileFunction,Drillmap*%
%TF.FilePolarity,Positive*%
%FSLAX45Y45*%
G04 Gerber Fmt 4.5, Leading zero omitted, Abs format (unit mm)*
G04 Created by KiCad (PCBNEW 8.0.4-8.0.4-0~ubuntu22.04.1) date 2024-09-03 14:14:51*
%MOMM*%
%LPD*%
G01*
G04 APERTURE LIST*
%ADD10C,0.100000*%
%ADD11C,0.200000*%
%ADD12C,0.115200*%
G04 APERTURE END LIST*
D10*
X4120000Y-8050000D02*
X14120000Y-8050000D01*
X14120000Y-14050000D01*
X4120000Y-14050000D01*
X4120000Y-8050000D01*
D11*
D10*
X5488500Y-8697500D02*
X5553500Y-8762500D01*
X5553500Y-8697500D02*
X5488500Y-8762500D01*
X6066500Y-8697500D02*
X6131500Y-8762500D01*
X6131500Y-8697500D02*
X6066500Y-8762500D01*
D12*
X4477600Y-13690000D02*
G75*
G02*
X4362400Y-13690000I-57600J0D01*
G01*
X4362400Y-13690000D02*
G75*
G02*
X4477600Y-13690000I57600J0D01*
G01*
X4647600Y-9175000D02*
G75*
G02*
X4532400Y-9175000I-57600J0D01*
G01*
X4532400Y-9175000D02*
G75*
G02*
X4647600Y-9175000I57600J0D01*
G01*
X13837600Y-9745000D02*
G75*
G02*
X13722400Y-9745000I-57600J0D01*
G01*
X13722400Y-9745000D02*
G75*
G02*
X13837600Y-9745000I57600J0D01*
G01*
X13877600Y-13690000D02*
G75*
G02*
X13762400Y-13690000I-57600J0D01*
G01*
X13762400Y-13690000D02*
G75*
G02*
X13877600Y-13690000I57600J0D01*
G01*
D11*
X4375777Y-14366484D02*
X4375777Y-14166484D01*
X4375777Y-14166484D02*
X4423396Y-14166484D01*
X4423396Y-14166484D02*
X4451967Y-14176008D01*
X4451967Y-14176008D02*
X4471015Y-14195055D01*
X4471015Y-14195055D02*
X4480539Y-14214103D01*
X4480539Y-14214103D02*
X4490063Y-14252198D01*
X4490063Y-14252198D02*
X4490063Y-14280769D01*
X4490063Y-14280769D02*
X4480539Y-14318865D01*
X4480539Y-14318865D02*
X4471015Y-14337912D01*
X4471015Y-14337912D02*
X4451967Y-14356960D01*
X4451967Y-14356960D02*
X4423396Y-14366484D01*
X4423396Y-14366484D02*
X4375777Y-14366484D01*
X4575777Y-14366484D02*
X4575777Y-14233150D01*
X4575777Y-14271246D02*
X4585301Y-14252198D01*
X4585301Y-14252198D02*
X4594824Y-14242674D01*
X4594824Y-14242674D02*
X4613872Y-14233150D01*
X4613872Y-14233150D02*
X4632920Y-14233150D01*
X4699586Y-14366484D02*
X4699586Y-14233150D01*
X4699586Y-14166484D02*
X4690063Y-14176008D01*
X4690063Y-14176008D02*
X4699586Y-14185531D01*
X4699586Y-14185531D02*
X4709110Y-14176008D01*
X4709110Y-14176008D02*
X4699586Y-14166484D01*
X4699586Y-14166484D02*
X4699586Y-14185531D01*
X4823396Y-14366484D02*
X4804348Y-14356960D01*
X4804348Y-14356960D02*
X4794824Y-14337912D01*
X4794824Y-14337912D02*
X4794824Y-14166484D01*
X4928158Y-14366484D02*
X4909110Y-14356960D01*
X4909110Y-14356960D02*
X4899586Y-14337912D01*
X4899586Y-14337912D02*
X4899586Y-14166484D01*
X5156729Y-14366484D02*
X5156729Y-14166484D01*
X5156729Y-14166484D02*
X5223396Y-14309341D01*
X5223396Y-14309341D02*
X5290063Y-14166484D01*
X5290063Y-14166484D02*
X5290063Y-14366484D01*
X5471015Y-14366484D02*
X5471015Y-14261722D01*
X5471015Y-14261722D02*
X5461491Y-14242674D01*
X5461491Y-14242674D02*
X5442444Y-14233150D01*
X5442444Y-14233150D02*
X5404348Y-14233150D01*
X5404348Y-14233150D02*
X5385301Y-14242674D01*
X5471015Y-14356960D02*
X5451967Y-14366484D01*
X5451967Y-14366484D02*
X5404348Y-14366484D01*
X5404348Y-14366484D02*
X5385301Y-14356960D01*
X5385301Y-14356960D02*
X5375777Y-14337912D01*
X5375777Y-14337912D02*
X5375777Y-14318865D01*
X5375777Y-14318865D02*
X5385301Y-14299817D01*
X5385301Y-14299817D02*
X5404348Y-14290293D01*
X5404348Y-14290293D02*
X5451967Y-14290293D01*
X5451967Y-14290293D02*
X5471015Y-14280769D01*
X5566253Y-14233150D02*
X5566253Y-14433150D01*
X5566253Y-14242674D02*
X5585301Y-14233150D01*
X5585301Y-14233150D02*
X5623396Y-14233150D01*
X5623396Y-14233150D02*
X5642443Y-14242674D01*
X5642443Y-14242674D02*
X5651967Y-14252198D01*
X5651967Y-14252198D02*
X5661491Y-14271246D01*
X5661491Y-14271246D02*
X5661491Y-14328388D01*
X5661491Y-14328388D02*
X5651967Y-14347436D01*
X5651967Y-14347436D02*
X5642443Y-14356960D01*
X5642443Y-14356960D02*
X5623396Y-14366484D01*
X5623396Y-14366484D02*
X5585301Y-14366484D01*
X5585301Y-14366484D02*
X5566253Y-14356960D01*
X5747205Y-14347436D02*
X5756729Y-14356960D01*
X5756729Y-14356960D02*
X5747205Y-14366484D01*
X5747205Y-14366484D02*
X5737682Y-14356960D01*
X5737682Y-14356960D02*
X5747205Y-14347436D01*
X5747205Y-14347436D02*
X5747205Y-14366484D01*
X5747205Y-14242674D02*
X5756729Y-14252198D01*
X5756729Y-14252198D02*
X5747205Y-14261722D01*
X5747205Y-14261722D02*
X5737682Y-14252198D01*
X5737682Y-14252198D02*
X5747205Y-14242674D01*
X5747205Y-14242674D02*
X5747205Y-14261722D01*
D10*
X4050000Y-14662500D02*
X4115000Y-14727500D01*
X4115000Y-14662500D02*
X4050000Y-14727500D01*
D11*
X4413872Y-14586484D02*
X4432920Y-14586484D01*
X4432920Y-14586484D02*
X4451967Y-14596008D01*
X4451967Y-14596008D02*
X4461491Y-14605531D01*
X4461491Y-14605531D02*
X4471015Y-14624579D01*
X4471015Y-14624579D02*
X4480539Y-14662674D01*
X4480539Y-14662674D02*
X4480539Y-14710293D01*
X4480539Y-14710293D02*
X4471015Y-14748388D01*
X4471015Y-14748388D02*
X4461491Y-14767436D01*
X4461491Y-14767436D02*
X4451967Y-14776960D01*
X4451967Y-14776960D02*
X4432920Y-14786484D01*
X4432920Y-14786484D02*
X4413872Y-14786484D01*
X4413872Y-14786484D02*
X4394824Y-14776960D01*
X4394824Y-14776960D02*
X4385301Y-14767436D01*
X4385301Y-14767436D02*
X4375777Y-14748388D01*
X4375777Y-14748388D02*
X4366253Y-14710293D01*
X4366253Y-14710293D02*
X4366253Y-14662674D01*
X4366253Y-14662674D02*
X4375777Y-14624579D01*
X4375777Y-14624579D02*
X4385301Y-14605531D01*
X4385301Y-14605531D02*
X4394824Y-14596008D01*
X4394824Y-14596008D02*
X4413872Y-14586484D01*
X4566253Y-14767436D02*
X4575777Y-14776960D01*
X4575777Y-14776960D02*
X4566253Y-14786484D01*
X4566253Y-14786484D02*
X4556729Y-14776960D01*
X4556729Y-14776960D02*
X4566253Y-14767436D01*
X4566253Y-14767436D02*
X4566253Y-14786484D01*
X4747205Y-14586484D02*
X4709110Y-14586484D01*
X4709110Y-14586484D02*
X4690063Y-14596008D01*
X4690063Y-14596008D02*
X4680539Y-14605531D01*
X4680539Y-14605531D02*
X4661491Y-14634103D01*
X4661491Y-14634103D02*
X4651967Y-14672198D01*
X4651967Y-14672198D02*
X4651967Y-14748388D01*
X4651967Y-14748388D02*
X4661491Y-14767436D01*
X4661491Y-14767436D02*
X4671015Y-14776960D01*
X4671015Y-14776960D02*
X4690063Y-14786484D01*
X4690063Y-14786484D02*
X4728158Y-14786484D01*
X4728158Y-14786484D02*
X4747205Y-14776960D01*
X4747205Y-14776960D02*
X4756729Y-14767436D01*
X4756729Y-14767436D02*
X4766253Y-14748388D01*
X4766253Y-14748388D02*
X4766253Y-14700769D01*
X4766253Y-14700769D02*
X4756729Y-14681722D01*
X4756729Y-14681722D02*
X4747205Y-14672198D01*
X4747205Y-14672198D02*
X4728158Y-14662674D01*
X4728158Y-14662674D02*
X4690063Y-14662674D01*
X4690063Y-14662674D02*
X4671015Y-14672198D01*
X4671015Y-14672198D02*
X4661491Y-14681722D01*
X4661491Y-14681722D02*
X4651967Y-14700769D01*
X4947205Y-14586484D02*
X4851967Y-14586484D01*
X4851967Y-14586484D02*
X4842444Y-14681722D01*
X4842444Y-14681722D02*
X4851967Y-14672198D01*
X4851967Y-14672198D02*
X4871015Y-14662674D01*
X4871015Y-14662674D02*
X4918634Y-14662674D01*
X4918634Y-14662674D02*
X4937682Y-14672198D01*
X4937682Y-14672198D02*
X4947205Y-14681722D01*
X4947205Y-14681722D02*
X4956729Y-14700769D01*
X4956729Y-14700769D02*
X4956729Y-14748388D01*
X4956729Y-14748388D02*
X4947205Y-14767436D01*
X4947205Y-14767436D02*
X4937682Y-14776960D01*
X4937682Y-14776960D02*
X4918634Y-14786484D01*
X4918634Y-14786484D02*
X4871015Y-14786484D01*
X4871015Y-14786484D02*
X4851967Y-14776960D01*
X4851967Y-14776960D02*
X4842444Y-14767436D01*
X5080539Y-14586484D02*
X5099586Y-14586484D01*
X5099586Y-14586484D02*
X5118634Y-14596008D01*
X5118634Y-14596008D02*
X5128158Y-14605531D01*
X5128158Y-14605531D02*
X5137682Y-14624579D01*
X5137682Y-14624579D02*
X5147205Y-14662674D01*
X5147205Y-14662674D02*
X5147205Y-14710293D01*
X5147205Y-14710293D02*
X5137682Y-14748388D01*
X5137682Y-14748388D02*
X5128158Y-14767436D01*
X5128158Y-14767436D02*
X5118634Y-14776960D01*
X5118634Y-14776960D02*
X5099586Y-14786484D01*
X5099586Y-14786484D02*
X5080539Y-14786484D01*
X5080539Y-14786484D02*
X5061491Y-14776960D01*
X5061491Y-14776960D02*
X5051967Y-14767436D01*
X5051967Y-14767436D02*
X5042444Y-14748388D01*
X5042444Y-14748388D02*
X5032920Y-14710293D01*
X5032920Y-14710293D02*
X5032920Y-14662674D01*
X5032920Y-14662674D02*
X5042444Y-14624579D01*
X5042444Y-14624579D02*
X5051967Y-14605531D01*
X5051967Y-14605531D02*
X5061491Y-14596008D01*
X5061491Y-14596008D02*
X5080539Y-14586484D01*
X5232920Y-14786484D02*
X5232920Y-14653150D01*
X5232920Y-14672198D02*
X5242444Y-14662674D01*
X5242444Y-14662674D02*
X5261491Y-14653150D01*
X5261491Y-14653150D02*
X5290063Y-14653150D01*
X5290063Y-14653150D02*
X5309110Y-14662674D01*
X5309110Y-14662674D02*
X5318634Y-14681722D01*
X5318634Y-14681722D02*
X5318634Y-14786484D01*
X5318634Y-14681722D02*
X5328158Y-14662674D01*
X5328158Y-14662674D02*
X5347205Y-14653150D01*
X5347205Y-14653150D02*
X5375777Y-14653150D01*
X5375777Y-14653150D02*
X5394825Y-14662674D01*
X5394825Y-14662674D02*
X5404348Y-14681722D01*
X5404348Y-14681722D02*
X5404348Y-14786484D01*
X5499586Y-14786484D02*
X5499586Y-14653150D01*
X5499586Y-14672198D02*
X5509110Y-14662674D01*
X5509110Y-14662674D02*
X5528158Y-14653150D01*
X5528158Y-14653150D02*
X5556729Y-14653150D01*
X5556729Y-14653150D02*
X5575777Y-14662674D01*
X5575777Y-14662674D02*
X5585301Y-14681722D01*
X5585301Y-14681722D02*
X5585301Y-14786484D01*
X5585301Y-14681722D02*
X5594824Y-14662674D01*
X5594824Y-14662674D02*
X5613872Y-14653150D01*
X5613872Y-14653150D02*
X5642443Y-14653150D01*
X5642443Y-14653150D02*
X5661491Y-14662674D01*
X5661491Y-14662674D02*
X5671015Y-14681722D01*
X5671015Y-14681722D02*
X5671015Y-14786484D01*
X6061491Y-14576960D02*
X5890063Y-14834103D01*
X6318634Y-14586484D02*
X6337682Y-14586484D01*
X6337682Y-14586484D02*
X6356729Y-14596008D01*
X6356729Y-14596008D02*
X6366253Y-14605531D01*
X6366253Y-14605531D02*
X6375777Y-14624579D01*
X6375777Y-14624579D02*
X6385301Y-14662674D01*
X6385301Y-14662674D02*
X6385301Y-14710293D01*
X6385301Y-14710293D02*
X6375777Y-14748388D01*
X6375777Y-14748388D02*
X6366253Y-14767436D01*
X6366253Y-14767436D02*
X6356729Y-14776960D01*
X6356729Y-14776960D02*
X6337682Y-14786484D01*
X6337682Y-14786484D02*
X6318634Y-14786484D01*
X6318634Y-14786484D02*
X6299586Y-14776960D01*
X6299586Y-14776960D02*
X6290063Y-14767436D01*
X6290063Y-14767436D02*
X6280539Y-14748388D01*
X6280539Y-14748388D02*
X6271015Y-14710293D01*
X6271015Y-14710293D02*
X6271015Y-14662674D01*
X6271015Y-14662674D02*
X6280539Y-14624579D01*
X6280539Y-14624579D02*
X6290063Y-14605531D01*
X6290063Y-14605531D02*
X6299586Y-14596008D01*
X6299586Y-14596008D02*
X6318634Y-14586484D01*
X6471015Y-14767436D02*
X6480539Y-14776960D01*
X6480539Y-14776960D02*
X6471015Y-14786484D01*
X6471015Y-14786484D02*
X6461491Y-14776960D01*
X6461491Y-14776960D02*
X6471015Y-14767436D01*
X6471015Y-14767436D02*
X6471015Y-14786484D01*
X6604348Y-14586484D02*
X6623396Y-14586484D01*
X6623396Y-14586484D02*
X6642444Y-14596008D01*
X6642444Y-14596008D02*
X6651967Y-14605531D01*
X6651967Y-14605531D02*
X6661491Y-14624579D01*
X6661491Y-14624579D02*
X6671015Y-14662674D01*
X6671015Y-14662674D02*
X6671015Y-14710293D01*
X6671015Y-14710293D02*
X6661491Y-14748388D01*
X6661491Y-14748388D02*
X6651967Y-14767436D01*
X6651967Y-14767436D02*
X6642444Y-14776960D01*
X6642444Y-14776960D02*
X6623396Y-14786484D01*
X6623396Y-14786484D02*
X6604348Y-14786484D01*
X6604348Y-14786484D02*
X6585301Y-14776960D01*
X6585301Y-14776960D02*
X6575777Y-14767436D01*
X6575777Y-14767436D02*
X6566253Y-14748388D01*
X6566253Y-14748388D02*
X6556729Y-14710293D01*
X6556729Y-14710293D02*
X6556729Y-14662674D01*
X6556729Y-14662674D02*
X6566253Y-14624579D01*
X6566253Y-14624579D02*
X6575777Y-14605531D01*
X6575777Y-14605531D02*
X6585301Y-14596008D01*
X6585301Y-14596008D02*
X6604348Y-14586484D01*
X6747206Y-14605531D02*
X6756729Y-14596008D01*
X6756729Y-14596008D02*
X6775777Y-14586484D01*
X6775777Y-14586484D02*
X6823396Y-14586484D01*
X6823396Y-14586484D02*
X6842444Y-14596008D01*
X6842444Y-14596008D02*
X6851967Y-14605531D01*
X6851967Y-14605531D02*
X6861491Y-14624579D01*
X6861491Y-14624579D02*
X6861491Y-14643627D01*
X6861491Y-14643627D02*
X6851967Y-14672198D01*
X6851967Y-14672198D02*
X6737682Y-14786484D01*
X6737682Y-14786484D02*
X6861491Y-14786484D01*
X7042444Y-14586484D02*
X6947206Y-14586484D01*
X6947206Y-14586484D02*
X6937682Y-14681722D01*
X6937682Y-14681722D02*
X6947206Y-14672198D01*
X6947206Y-14672198D02*
X6966253Y-14662674D01*
X6966253Y-14662674D02*
X7013872Y-14662674D01*
X7013872Y-14662674D02*
X7032920Y-14672198D01*
X7032920Y-14672198D02*
X7042444Y-14681722D01*
X7042444Y-14681722D02*
X7051967Y-14700769D01*
X7051967Y-14700769D02*
X7051967Y-14748388D01*
X7051967Y-14748388D02*
X7042444Y-14767436D01*
X7042444Y-14767436D02*
X7032920Y-14776960D01*
X7032920Y-14776960D02*
X7013872Y-14786484D01*
X7013872Y-14786484D02*
X6966253Y-14786484D01*
X6966253Y-14786484D02*
X6947206Y-14776960D01*
X6947206Y-14776960D02*
X6937682Y-14767436D01*
X7223396Y-14586484D02*
X7185301Y-14586484D01*
X7185301Y-14586484D02*
X7166253Y-14596008D01*
X7166253Y-14596008D02*
X7156729Y-14605531D01*
X7156729Y-14605531D02*
X7137682Y-14634103D01*
X7137682Y-14634103D02*
X7128158Y-14672198D01*
X7128158Y-14672198D02*
X7128158Y-14748388D01*
X7128158Y-14748388D02*
X7137682Y-14767436D01*
X7137682Y-14767436D02*
X7147206Y-14776960D01*
X7147206Y-14776960D02*
X7166253Y-14786484D01*
X7166253Y-14786484D02*
X7204348Y-14786484D01*
X7204348Y-14786484D02*
X7223396Y-14776960D01*
X7223396Y-14776960D02*
X7232920Y-14767436D01*
X7232920Y-14767436D02*
X7242444Y-14748388D01*
X7242444Y-14748388D02*
X7242444Y-14700769D01*
X7242444Y-14700769D02*
X7232920Y-14681722D01*
X7232920Y-14681722D02*
X7223396Y-14672198D01*
X7223396Y-14672198D02*
X7204348Y-14662674D01*
X7204348Y-14662674D02*
X7166253Y-14662674D01*
X7166253Y-14662674D02*
X7147206Y-14672198D01*
X7147206Y-14672198D02*
X7137682Y-14681722D01*
X7137682Y-14681722D02*
X7128158Y-14700769D01*
X7318634Y-14586484D02*
X7318634Y-14624579D01*
X7394825Y-14586484D02*
X7394825Y-14624579D01*
X7690063Y-14862674D02*
X7680539Y-14853150D01*
X7680539Y-14853150D02*
X7661491Y-14824579D01*
X7661491Y-14824579D02*
X7651968Y-14805531D01*
X7651968Y-14805531D02*
X7642444Y-14776960D01*
X7642444Y-14776960D02*
X7632920Y-14729341D01*
X7632920Y-14729341D02*
X7632920Y-14691246D01*
X7632920Y-14691246D02*
X7642444Y-14643627D01*
X7642444Y-14643627D02*
X7651968Y-14615055D01*
X7651968Y-14615055D02*
X7661491Y-14596008D01*
X7661491Y-14596008D02*
X7680539Y-14567436D01*
X7680539Y-14567436D02*
X7690063Y-14557912D01*
X7756729Y-14605531D02*
X7766253Y-14596008D01*
X7766253Y-14596008D02*
X7785301Y-14586484D01*
X7785301Y-14586484D02*
X7832920Y-14586484D01*
X7832920Y-14586484D02*
X7851968Y-14596008D01*
X7851968Y-14596008D02*
X7861491Y-14605531D01*
X7861491Y-14605531D02*
X7871015Y-14624579D01*
X7871015Y-14624579D02*
X7871015Y-14643627D01*
X7871015Y-14643627D02*
X7861491Y-14672198D01*
X7861491Y-14672198D02*
X7747206Y-14786484D01*
X7747206Y-14786484D02*
X7871015Y-14786484D01*
X8109110Y-14786484D02*
X8109110Y-14586484D01*
X8194825Y-14786484D02*
X8194825Y-14681722D01*
X8194825Y-14681722D02*
X8185301Y-14662674D01*
X8185301Y-14662674D02*
X8166253Y-14653150D01*
X8166253Y-14653150D02*
X8137682Y-14653150D01*
X8137682Y-14653150D02*
X8118634Y-14662674D01*
X8118634Y-14662674D02*
X8109110Y-14672198D01*
X8318634Y-14786484D02*
X8299587Y-14776960D01*
X8299587Y-14776960D02*
X8290063Y-14767436D01*
X8290063Y-14767436D02*
X8280539Y-14748388D01*
X8280539Y-14748388D02*
X8280539Y-14691246D01*
X8280539Y-14691246D02*
X8290063Y-14672198D01*
X8290063Y-14672198D02*
X8299587Y-14662674D01*
X8299587Y-14662674D02*
X8318634Y-14653150D01*
X8318634Y-14653150D02*
X8347206Y-14653150D01*
X8347206Y-14653150D02*
X8366253Y-14662674D01*
X8366253Y-14662674D02*
X8375777Y-14672198D01*
X8375777Y-14672198D02*
X8385301Y-14691246D01*
X8385301Y-14691246D02*
X8385301Y-14748388D01*
X8385301Y-14748388D02*
X8375777Y-14767436D01*
X8375777Y-14767436D02*
X8366253Y-14776960D01*
X8366253Y-14776960D02*
X8347206Y-14786484D01*
X8347206Y-14786484D02*
X8318634Y-14786484D01*
X8499587Y-14786484D02*
X8480539Y-14776960D01*
X8480539Y-14776960D02*
X8471015Y-14757912D01*
X8471015Y-14757912D02*
X8471015Y-14586484D01*
X8651968Y-14776960D02*
X8632920Y-14786484D01*
X8632920Y-14786484D02*
X8594825Y-14786484D01*
X8594825Y-14786484D02*
X8575777Y-14776960D01*
X8575777Y-14776960D02*
X8566253Y-14757912D01*
X8566253Y-14757912D02*
X8566253Y-14681722D01*
X8566253Y-14681722D02*
X8575777Y-14662674D01*
X8575777Y-14662674D02*
X8594825Y-14653150D01*
X8594825Y-14653150D02*
X8632920Y-14653150D01*
X8632920Y-14653150D02*
X8651968Y-14662674D01*
X8651968Y-14662674D02*
X8661492Y-14681722D01*
X8661492Y-14681722D02*
X8661492Y-14700769D01*
X8661492Y-14700769D02*
X8566253Y-14719817D01*
X8737682Y-14776960D02*
X8756730Y-14786484D01*
X8756730Y-14786484D02*
X8794825Y-14786484D01*
X8794825Y-14786484D02*
X8813873Y-14776960D01*
X8813873Y-14776960D02*
X8823396Y-14757912D01*
X8823396Y-14757912D02*
X8823396Y-14748388D01*
X8823396Y-14748388D02*
X8813873Y-14729341D01*
X8813873Y-14729341D02*
X8794825Y-14719817D01*
X8794825Y-14719817D02*
X8766253Y-14719817D01*
X8766253Y-14719817D02*
X8747206Y-14710293D01*
X8747206Y-14710293D02*
X8737682Y-14691246D01*
X8737682Y-14691246D02*
X8737682Y-14681722D01*
X8737682Y-14681722D02*
X8747206Y-14662674D01*
X8747206Y-14662674D02*
X8766253Y-14653150D01*
X8766253Y-14653150D02*
X8794825Y-14653150D01*
X8794825Y-14653150D02*
X8813873Y-14662674D01*
X8890063Y-14862674D02*
X8899587Y-14853150D01*
X8899587Y-14853150D02*
X8918634Y-14824579D01*
X8918634Y-14824579D02*
X8928158Y-14805531D01*
X8928158Y-14805531D02*
X8937682Y-14776960D01*
X8937682Y-14776960D02*
X8947206Y-14729341D01*
X8947206Y-14729341D02*
X8947206Y-14691246D01*
X8947206Y-14691246D02*
X8937682Y-14643627D01*
X8937682Y-14643627D02*
X8928158Y-14615055D01*
X8928158Y-14615055D02*
X8918634Y-14596008D01*
X8918634Y-14596008D02*
X8899587Y-14567436D01*
X8899587Y-14567436D02*
X8890063Y-14557912D01*
X9251968Y-14862674D02*
X9242444Y-14853150D01*
X9242444Y-14853150D02*
X9223396Y-14824579D01*
X9223396Y-14824579D02*
X9213873Y-14805531D01*
X9213873Y-14805531D02*
X9204349Y-14776960D01*
X9204349Y-14776960D02*
X9194825Y-14729341D01*
X9194825Y-14729341D02*
X9194825Y-14691246D01*
X9194825Y-14691246D02*
X9204349Y-14643627D01*
X9204349Y-14643627D02*
X9213873Y-14615055D01*
X9213873Y-14615055D02*
X9223396Y-14596008D01*
X9223396Y-14596008D02*
X9242444Y-14567436D01*
X9242444Y-14567436D02*
X9251968Y-14557912D01*
X9328158Y-14653150D02*
X9328158Y-14786484D01*
X9328158Y-14672198D02*
X9337682Y-14662674D01*
X9337682Y-14662674D02*
X9356730Y-14653150D01*
X9356730Y-14653150D02*
X9385301Y-14653150D01*
X9385301Y-14653150D02*
X9404349Y-14662674D01*
X9404349Y-14662674D02*
X9413873Y-14681722D01*
X9413873Y-14681722D02*
X9413873Y-14786484D01*
X9537682Y-14786484D02*
X9518634Y-14776960D01*
X9518634Y-14776960D02*
X9509111Y-14767436D01*
X9509111Y-14767436D02*
X9499587Y-14748388D01*
X9499587Y-14748388D02*
X9499587Y-14691246D01*
X9499587Y-14691246D02*
X9509111Y-14672198D01*
X9509111Y-14672198D02*
X9518634Y-14662674D01*
X9518634Y-14662674D02*
X9537682Y-14653150D01*
X9537682Y-14653150D02*
X9566254Y-14653150D01*
X9566254Y-14653150D02*
X9585301Y-14662674D01*
X9585301Y-14662674D02*
X9594825Y-14672198D01*
X9594825Y-14672198D02*
X9604349Y-14691246D01*
X9604349Y-14691246D02*
X9604349Y-14748388D01*
X9604349Y-14748388D02*
X9594825Y-14767436D01*
X9594825Y-14767436D02*
X9585301Y-14776960D01*
X9585301Y-14776960D02*
X9566254Y-14786484D01*
X9566254Y-14786484D02*
X9537682Y-14786484D01*
X9661492Y-14653150D02*
X9737682Y-14653150D01*
X9690063Y-14586484D02*
X9690063Y-14757912D01*
X9690063Y-14757912D02*
X9699587Y-14776960D01*
X9699587Y-14776960D02*
X9718634Y-14786484D01*
X9718634Y-14786484D02*
X9737682Y-14786484D01*
X9956730Y-14653150D02*
X9956730Y-14853150D01*
X9956730Y-14662674D02*
X9975777Y-14653150D01*
X9975777Y-14653150D02*
X10013873Y-14653150D01*
X10013873Y-14653150D02*
X10032920Y-14662674D01*
X10032920Y-14662674D02*
X10042444Y-14672198D01*
X10042444Y-14672198D02*
X10051968Y-14691246D01*
X10051968Y-14691246D02*
X10051968Y-14748388D01*
X10051968Y-14748388D02*
X10042444Y-14767436D01*
X10042444Y-14767436D02*
X10032920Y-14776960D01*
X10032920Y-14776960D02*
X10013873Y-14786484D01*
X10013873Y-14786484D02*
X9975777Y-14786484D01*
X9975777Y-14786484D02*
X9956730Y-14776960D01*
X10166254Y-14786484D02*
X10147206Y-14776960D01*
X10147206Y-14776960D02*
X10137682Y-14757912D01*
X10137682Y-14757912D02*
X10137682Y-14586484D01*
X10328158Y-14786484D02*
X10328158Y-14681722D01*
X10328158Y-14681722D02*
X10318635Y-14662674D01*
X10318635Y-14662674D02*
X10299587Y-14653150D01*
X10299587Y-14653150D02*
X10261492Y-14653150D01*
X10261492Y-14653150D02*
X10242444Y-14662674D01*
X10328158Y-14776960D02*
X10309111Y-14786484D01*
X10309111Y-14786484D02*
X10261492Y-14786484D01*
X10261492Y-14786484D02*
X10242444Y-14776960D01*
X10242444Y-14776960D02*
X10232920Y-14757912D01*
X10232920Y-14757912D02*
X10232920Y-14738865D01*
X10232920Y-14738865D02*
X10242444Y-14719817D01*
X10242444Y-14719817D02*
X10261492Y-14710293D01*
X10261492Y-14710293D02*
X10309111Y-14710293D01*
X10309111Y-14710293D02*
X10328158Y-14700769D01*
X10394825Y-14653150D02*
X10471015Y-14653150D01*
X10423396Y-14586484D02*
X10423396Y-14757912D01*
X10423396Y-14757912D02*
X10432920Y-14776960D01*
X10432920Y-14776960D02*
X10451968Y-14786484D01*
X10451968Y-14786484D02*
X10471015Y-14786484D01*
X10613873Y-14776960D02*
X10594825Y-14786484D01*
X10594825Y-14786484D02*
X10556730Y-14786484D01*
X10556730Y-14786484D02*
X10537682Y-14776960D01*
X10537682Y-14776960D02*
X10528158Y-14757912D01*
X10528158Y-14757912D02*
X10528158Y-14681722D01*
X10528158Y-14681722D02*
X10537682Y-14662674D01*
X10537682Y-14662674D02*
X10556730Y-14653150D01*
X10556730Y-14653150D02*
X10594825Y-14653150D01*
X10594825Y-14653150D02*
X10613873Y-14662674D01*
X10613873Y-14662674D02*
X10623396Y-14681722D01*
X10623396Y-14681722D02*
X10623396Y-14700769D01*
X10623396Y-14700769D02*
X10528158Y-14719817D01*
X10794825Y-14786484D02*
X10794825Y-14586484D01*
X10794825Y-14776960D02*
X10775777Y-14786484D01*
X10775777Y-14786484D02*
X10737682Y-14786484D01*
X10737682Y-14786484D02*
X10718635Y-14776960D01*
X10718635Y-14776960D02*
X10709111Y-14767436D01*
X10709111Y-14767436D02*
X10699587Y-14748388D01*
X10699587Y-14748388D02*
X10699587Y-14691246D01*
X10699587Y-14691246D02*
X10709111Y-14672198D01*
X10709111Y-14672198D02*
X10718635Y-14662674D01*
X10718635Y-14662674D02*
X10737682Y-14653150D01*
X10737682Y-14653150D02*
X10775777Y-14653150D01*
X10775777Y-14653150D02*
X10794825Y-14662674D01*
X10871016Y-14862674D02*
X10880539Y-14853150D01*
X10880539Y-14853150D02*
X10899587Y-14824579D01*
X10899587Y-14824579D02*
X10909111Y-14805531D01*
X10909111Y-14805531D02*
X10918635Y-14776960D01*
X10918635Y-14776960D02*
X10928158Y-14729341D01*
X10928158Y-14729341D02*
X10928158Y-14691246D01*
X10928158Y-14691246D02*
X10918635Y-14643627D01*
X10918635Y-14643627D02*
X10909111Y-14615055D01*
X10909111Y-14615055D02*
X10899587Y-14596008D01*
X10899587Y-14596008D02*
X10880539Y-14567436D01*
X10880539Y-14567436D02*
X10871016Y-14557912D01*
D12*
X4115000Y-14959000D02*
G75*
G02*
X3999800Y-14959000I-57600J0D01*
G01*
X3999800Y-14959000D02*
G75*
G02*
X4115000Y-14959000I57600J0D01*
G01*
D11*
X4480539Y-15050484D02*
X4366253Y-15050484D01*
X4423396Y-15050484D02*
X4423396Y-14850484D01*
X4423396Y-14850484D02*
X4404348Y-14879055D01*
X4404348Y-14879055D02*
X4385301Y-14898103D01*
X4385301Y-14898103D02*
X4366253Y-14907627D01*
X4566253Y-15031436D02*
X4575777Y-15040960D01*
X4575777Y-15040960D02*
X4566253Y-15050484D01*
X4566253Y-15050484D02*
X4556729Y-15040960D01*
X4556729Y-15040960D02*
X4566253Y-15031436D01*
X4566253Y-15031436D02*
X4566253Y-15050484D01*
X4766253Y-15050484D02*
X4651967Y-15050484D01*
X4709110Y-15050484D02*
X4709110Y-14850484D01*
X4709110Y-14850484D02*
X4690063Y-14879055D01*
X4690063Y-14879055D02*
X4671015Y-14898103D01*
X4671015Y-14898103D02*
X4651967Y-14907627D01*
X4947205Y-14850484D02*
X4851967Y-14850484D01*
X4851967Y-14850484D02*
X4842444Y-14945722D01*
X4842444Y-14945722D02*
X4851967Y-14936198D01*
X4851967Y-14936198D02*
X4871015Y-14926674D01*
X4871015Y-14926674D02*
X4918634Y-14926674D01*
X4918634Y-14926674D02*
X4937682Y-14936198D01*
X4937682Y-14936198D02*
X4947205Y-14945722D01*
X4947205Y-14945722D02*
X4956729Y-14964769D01*
X4956729Y-14964769D02*
X4956729Y-15012388D01*
X4956729Y-15012388D02*
X4947205Y-15031436D01*
X4947205Y-15031436D02*
X4937682Y-15040960D01*
X4937682Y-15040960D02*
X4918634Y-15050484D01*
X4918634Y-15050484D02*
X4871015Y-15050484D01*
X4871015Y-15050484D02*
X4851967Y-15040960D01*
X4851967Y-15040960D02*
X4842444Y-15031436D01*
X5032920Y-14869531D02*
X5042444Y-14860008D01*
X5042444Y-14860008D02*
X5061491Y-14850484D01*
X5061491Y-14850484D02*
X5109110Y-14850484D01*
X5109110Y-14850484D02*
X5128158Y-14860008D01*
X5128158Y-14860008D02*
X5137682Y-14869531D01*
X5137682Y-14869531D02*
X5147205Y-14888579D01*
X5147205Y-14888579D02*
X5147205Y-14907627D01*
X5147205Y-14907627D02*
X5137682Y-14936198D01*
X5137682Y-14936198D02*
X5023396Y-15050484D01*
X5023396Y-15050484D02*
X5147205Y-15050484D01*
X5232920Y-15050484D02*
X5232920Y-14917150D01*
X5232920Y-14936198D02*
X5242444Y-14926674D01*
X5242444Y-14926674D02*
X5261491Y-14917150D01*
X5261491Y-14917150D02*
X5290063Y-14917150D01*
X5290063Y-14917150D02*
X5309110Y-14926674D01*
X5309110Y-14926674D02*
X5318634Y-14945722D01*
X5318634Y-14945722D02*
X5318634Y-15050484D01*
X5318634Y-14945722D02*
X5328158Y-14926674D01*
X5328158Y-14926674D02*
X5347205Y-14917150D01*
X5347205Y-14917150D02*
X5375777Y-14917150D01*
X5375777Y-14917150D02*
X5394825Y-14926674D01*
X5394825Y-14926674D02*
X5404348Y-14945722D01*
X5404348Y-14945722D02*
X5404348Y-15050484D01*
X5499586Y-15050484D02*
X5499586Y-14917150D01*
X5499586Y-14936198D02*
X5509110Y-14926674D01*
X5509110Y-14926674D02*
X5528158Y-14917150D01*
X5528158Y-14917150D02*
X5556729Y-14917150D01*
X5556729Y-14917150D02*
X5575777Y-14926674D01*
X5575777Y-14926674D02*
X5585301Y-14945722D01*
X5585301Y-14945722D02*
X5585301Y-15050484D01*
X5585301Y-14945722D02*
X5594824Y-14926674D01*
X5594824Y-14926674D02*
X5613872Y-14917150D01*
X5613872Y-14917150D02*
X5642443Y-14917150D01*
X5642443Y-14917150D02*
X5661491Y-14926674D01*
X5661491Y-14926674D02*
X5671015Y-14945722D01*
X5671015Y-14945722D02*
X5671015Y-15050484D01*
X6061491Y-14840960D02*
X5890063Y-15098103D01*
X6318634Y-14850484D02*
X6337682Y-14850484D01*
X6337682Y-14850484D02*
X6356729Y-14860008D01*
X6356729Y-14860008D02*
X6366253Y-14869531D01*
X6366253Y-14869531D02*
X6375777Y-14888579D01*
X6375777Y-14888579D02*
X6385301Y-14926674D01*
X6385301Y-14926674D02*
X6385301Y-14974293D01*
X6385301Y-14974293D02*
X6375777Y-15012388D01*
X6375777Y-15012388D02*
X6366253Y-15031436D01*
X6366253Y-15031436D02*
X6356729Y-15040960D01*
X6356729Y-15040960D02*
X6337682Y-15050484D01*
X6337682Y-15050484D02*
X6318634Y-15050484D01*
X6318634Y-15050484D02*
X6299586Y-15040960D01*
X6299586Y-15040960D02*
X6290063Y-15031436D01*
X6290063Y-15031436D02*
X6280539Y-15012388D01*
X6280539Y-15012388D02*
X6271015Y-14974293D01*
X6271015Y-14974293D02*
X6271015Y-14926674D01*
X6271015Y-14926674D02*
X6280539Y-14888579D01*
X6280539Y-14888579D02*
X6290063Y-14869531D01*
X6290063Y-14869531D02*
X6299586Y-14860008D01*
X6299586Y-14860008D02*
X6318634Y-14850484D01*
X6471015Y-15031436D02*
X6480539Y-15040960D01*
X6480539Y-15040960D02*
X6471015Y-15050484D01*
X6471015Y-15050484D02*
X6461491Y-15040960D01*
X6461491Y-15040960D02*
X6471015Y-15031436D01*
X6471015Y-15031436D02*
X6471015Y-15050484D01*
X6604348Y-14850484D02*
X6623396Y-14850484D01*
X6623396Y-14850484D02*
X6642444Y-14860008D01*
X6642444Y-14860008D02*
X6651967Y-14869531D01*
X6651967Y-14869531D02*
X6661491Y-14888579D01*
X6661491Y-14888579D02*
X6671015Y-14926674D01*
X6671015Y-14926674D02*
X6671015Y-14974293D01*
X6671015Y-14974293D02*
X6661491Y-15012388D01*
X6661491Y-15012388D02*
X6651967Y-15031436D01*
X6651967Y-15031436D02*
X6642444Y-15040960D01*
X6642444Y-15040960D02*
X6623396Y-15050484D01*
X6623396Y-15050484D02*
X6604348Y-15050484D01*
X6604348Y-15050484D02*
X6585301Y-15040960D01*
X6585301Y-15040960D02*
X6575777Y-15031436D01*
X6575777Y-15031436D02*
X6566253Y-15012388D01*
X6566253Y-15012388D02*
X6556729Y-14974293D01*
X6556729Y-14974293D02*
X6556729Y-14926674D01*
X6556729Y-14926674D02*
X6566253Y-14888579D01*
X6566253Y-14888579D02*
X6575777Y-14869531D01*
X6575777Y-14869531D02*
X6585301Y-14860008D01*
X6585301Y-14860008D02*
X6604348Y-14850484D01*
X6842444Y-14917150D02*
X6842444Y-15050484D01*
X6794825Y-14840960D02*
X6747206Y-14983817D01*
X6747206Y-14983817D02*
X6871015Y-14983817D01*
X7042444Y-14850484D02*
X6947206Y-14850484D01*
X6947206Y-14850484D02*
X6937682Y-14945722D01*
X6937682Y-14945722D02*
X6947206Y-14936198D01*
X6947206Y-14936198D02*
X6966253Y-14926674D01*
X6966253Y-14926674D02*
X7013872Y-14926674D01*
X7013872Y-14926674D02*
X7032920Y-14936198D01*
X7032920Y-14936198D02*
X7042444Y-14945722D01*
X7042444Y-14945722D02*
X7051967Y-14964769D01*
X7051967Y-14964769D02*
X7051967Y-15012388D01*
X7051967Y-15012388D02*
X7042444Y-15031436D01*
X7042444Y-15031436D02*
X7032920Y-15040960D01*
X7032920Y-15040960D02*
X7013872Y-15050484D01*
X7013872Y-15050484D02*
X6966253Y-15050484D01*
X6966253Y-15050484D02*
X6947206Y-15040960D01*
X6947206Y-15040960D02*
X6937682Y-15031436D01*
X7223396Y-14917150D02*
X7223396Y-15050484D01*
X7175777Y-14840960D02*
X7128158Y-14983817D01*
X7128158Y-14983817D02*
X7251967Y-14983817D01*
X7318634Y-14850484D02*
X7318634Y-14888579D01*
X7394825Y-14850484D02*
X7394825Y-14888579D01*
X7690063Y-15126674D02*
X7680539Y-15117150D01*
X7680539Y-15117150D02*
X7661491Y-15088579D01*
X7661491Y-15088579D02*
X7651968Y-15069531D01*
X7651968Y-15069531D02*
X7642444Y-15040960D01*
X7642444Y-15040960D02*
X7632920Y-14993341D01*
X7632920Y-14993341D02*
X7632920Y-14955246D01*
X7632920Y-14955246D02*
X7642444Y-14907627D01*
X7642444Y-14907627D02*
X7651968Y-14879055D01*
X7651968Y-14879055D02*
X7661491Y-14860008D01*
X7661491Y-14860008D02*
X7680539Y-14831436D01*
X7680539Y-14831436D02*
X7690063Y-14821912D01*
X7851968Y-14917150D02*
X7851968Y-15050484D01*
X7804348Y-14840960D02*
X7756729Y-14983817D01*
X7756729Y-14983817D02*
X7880539Y-14983817D01*
X8109110Y-15050484D02*
X8109110Y-14850484D01*
X8194825Y-15050484D02*
X8194825Y-14945722D01*
X8194825Y-14945722D02*
X8185301Y-14926674D01*
X8185301Y-14926674D02*
X8166253Y-14917150D01*
X8166253Y-14917150D02*
X8137682Y-14917150D01*
X8137682Y-14917150D02*
X8118634Y-14926674D01*
X8118634Y-14926674D02*
X8109110Y-14936198D01*
X8318634Y-15050484D02*
X8299587Y-15040960D01*
X8299587Y-15040960D02*
X8290063Y-15031436D01*
X8290063Y-15031436D02*
X8280539Y-15012388D01*
X8280539Y-15012388D02*
X8280539Y-14955246D01*
X8280539Y-14955246D02*
X8290063Y-14936198D01*
X8290063Y-14936198D02*
X8299587Y-14926674D01*
X8299587Y-14926674D02*
X8318634Y-14917150D01*
X8318634Y-14917150D02*
X8347206Y-14917150D01*
X8347206Y-14917150D02*
X8366253Y-14926674D01*
X8366253Y-14926674D02*
X8375777Y-14936198D01*
X8375777Y-14936198D02*
X8385301Y-14955246D01*
X8385301Y-14955246D02*
X8385301Y-15012388D01*
X8385301Y-15012388D02*
X8375777Y-15031436D01*
X8375777Y-15031436D02*
X8366253Y-15040960D01*
X8366253Y-15040960D02*
X8347206Y-15050484D01*
X8347206Y-15050484D02*
X8318634Y-15050484D01*
X8499587Y-15050484D02*
X8480539Y-15040960D01*
X8480539Y-15040960D02*
X8471015Y-15021912D01*
X8471015Y-15021912D02*
X8471015Y-14850484D01*
X8651968Y-15040960D02*
X8632920Y-15050484D01*
X8632920Y-15050484D02*
X8594825Y-15050484D01*
X8594825Y-15050484D02*
X8575777Y-15040960D01*
X8575777Y-15040960D02*
X8566253Y-15021912D01*
X8566253Y-15021912D02*
X8566253Y-14945722D01*
X8566253Y-14945722D02*
X8575777Y-14926674D01*
X8575777Y-14926674D02*
X8594825Y-14917150D01*
X8594825Y-14917150D02*
X8632920Y-14917150D01*
X8632920Y-14917150D02*
X8651968Y-14926674D01*
X8651968Y-14926674D02*
X8661492Y-14945722D01*
X8661492Y-14945722D02*
X8661492Y-14964769D01*
X8661492Y-14964769D02*
X8566253Y-14983817D01*
X8737682Y-15040960D02*
X8756730Y-15050484D01*
X8756730Y-15050484D02*
X8794825Y-15050484D01*
X8794825Y-15050484D02*
X8813873Y-15040960D01*
X8813873Y-15040960D02*
X8823396Y-15021912D01*
X8823396Y-15021912D02*
X8823396Y-15012388D01*
X8823396Y-15012388D02*
X8813873Y-14993341D01*
X8813873Y-14993341D02*
X8794825Y-14983817D01*
X8794825Y-14983817D02*
X8766253Y-14983817D01*
X8766253Y-14983817D02*
X8747206Y-14974293D01*
X8747206Y-14974293D02*
X8737682Y-14955246D01*
X8737682Y-14955246D02*
X8737682Y-14945722D01*
X8737682Y-14945722D02*
X8747206Y-14926674D01*
X8747206Y-14926674D02*
X8766253Y-14917150D01*
X8766253Y-14917150D02*
X8794825Y-14917150D01*
X8794825Y-14917150D02*
X8813873Y-14926674D01*
X8890063Y-15126674D02*
X8899587Y-15117150D01*
X8899587Y-15117150D02*
X8918634Y-15088579D01*
X8918634Y-15088579D02*
X8928158Y-15069531D01*
X8928158Y-15069531D02*
X8937682Y-15040960D01*
X8937682Y-15040960D02*
X8947206Y-14993341D01*
X8947206Y-14993341D02*
X8947206Y-14955246D01*
X8947206Y-14955246D02*
X8937682Y-14907627D01*
X8937682Y-14907627D02*
X8928158Y-14879055D01*
X8928158Y-14879055D02*
X8918634Y-14860008D01*
X8918634Y-14860008D02*
X8899587Y-14831436D01*
X8899587Y-14831436D02*
X8890063Y-14821912D01*
X9251968Y-15126674D02*
X9242444Y-15117150D01*
X9242444Y-15117150D02*
X9223396Y-15088579D01*
X9223396Y-15088579D02*
X9213873Y-15069531D01*
X9213873Y-15069531D02*
X9204349Y-15040960D01*
X9204349Y-15040960D02*
X9194825Y-14993341D01*
X9194825Y-14993341D02*
X9194825Y-14955246D01*
X9194825Y-14955246D02*
X9204349Y-14907627D01*
X9204349Y-14907627D02*
X9213873Y-14879055D01*
X9213873Y-14879055D02*
X9223396Y-14860008D01*
X9223396Y-14860008D02*
X9242444Y-14831436D01*
X9242444Y-14831436D02*
X9251968Y-14821912D01*
X9328158Y-14917150D02*
X9328158Y-15050484D01*
X9328158Y-14936198D02*
X9337682Y-14926674D01*
X9337682Y-14926674D02*
X9356730Y-14917150D01*
X9356730Y-14917150D02*
X9385301Y-14917150D01*
X9385301Y-14917150D02*
X9404349Y-14926674D01*
X9404349Y-14926674D02*
X9413873Y-14945722D01*
X9413873Y-14945722D02*
X9413873Y-15050484D01*
X9537682Y-15050484D02*
X9518634Y-15040960D01*
X9518634Y-15040960D02*
X9509111Y-15031436D01*
X9509111Y-15031436D02*
X9499587Y-15012388D01*
X9499587Y-15012388D02*
X9499587Y-14955246D01*
X9499587Y-14955246D02*
X9509111Y-14936198D01*
X9509111Y-14936198D02*
X9518634Y-14926674D01*
X9518634Y-14926674D02*
X9537682Y-14917150D01*
X9537682Y-14917150D02*
X9566254Y-14917150D01*
X9566254Y-14917150D02*
X9585301Y-14926674D01*
X9585301Y-14926674D02*
X9594825Y-14936198D01*
X9594825Y-14936198D02*
X9604349Y-14955246D01*
X9604349Y-14955246D02*
X9604349Y-15012388D01*
X9604349Y-15012388D02*
X9594825Y-15031436D01*
X9594825Y-15031436D02*
X9585301Y-15040960D01*
X9585301Y-15040960D02*
X9566254Y-15050484D01*
X9566254Y-15050484D02*
X9537682Y-15050484D01*
X9661492Y-14917150D02*
X9737682Y-14917150D01*
X9690063Y-14850484D02*
X9690063Y-15021912D01*
X9690063Y-15021912D02*
X9699587Y-15040960D01*
X9699587Y-15040960D02*
X9718634Y-15050484D01*
X9718634Y-15050484D02*
X9737682Y-15050484D01*
X9956730Y-14917150D02*
X9956730Y-15117150D01*
X9956730Y-14926674D02*
X9975777Y-14917150D01*
X9975777Y-14917150D02*
X10013873Y-14917150D01*
X10013873Y-14917150D02*
X10032920Y-14926674D01*
X10032920Y-14926674D02*
X10042444Y-14936198D01*
X10042444Y-14936198D02*
X10051968Y-14955246D01*
X10051968Y-14955246D02*
X10051968Y-15012388D01*
X10051968Y-15012388D02*
X10042444Y-15031436D01*
X10042444Y-15031436D02*
X10032920Y-15040960D01*
X10032920Y-15040960D02*
X10013873Y-15050484D01*
X10013873Y-15050484D02*
X9975777Y-15050484D01*
X9975777Y-15050484D02*
X9956730Y-15040960D01*
X10166254Y-15050484D02*
X10147206Y-15040960D01*
X10147206Y-15040960D02*
X10137682Y-15021912D01*
X10137682Y-15021912D02*
X10137682Y-14850484D01*
X10328158Y-15050484D02*
X10328158Y-14945722D01*
X10328158Y-14945722D02*
X10318635Y-14926674D01*
X10318635Y-14926674D02*
X10299587Y-14917150D01*
X10299587Y-14917150D02*
X10261492Y-14917150D01*
X10261492Y-14917150D02*
X10242444Y-14926674D01*
X10328158Y-15040960D02*
X10309111Y-15050484D01*
X10309111Y-15050484D02*
X10261492Y-15050484D01*
X10261492Y-15050484D02*
X10242444Y-15040960D01*
X10242444Y-15040960D02*
X10232920Y-15021912D01*
X10232920Y-15021912D02*
X10232920Y-15002865D01*
X10232920Y-15002865D02*
X10242444Y-14983817D01*
X10242444Y-14983817D02*
X10261492Y-14974293D01*
X10261492Y-14974293D02*
X10309111Y-14974293D01*
X10309111Y-14974293D02*
X10328158Y-14964769D01*
X10394825Y-14917150D02*
X10471015Y-14917150D01*
X10423396Y-14850484D02*
X10423396Y-15021912D01*
X10423396Y-15021912D02*
X10432920Y-15040960D01*
X10432920Y-15040960D02*
X10451968Y-15050484D01*
X10451968Y-15050484D02*
X10471015Y-15050484D01*
X10613873Y-15040960D02*
X10594825Y-15050484D01*
X10594825Y-15050484D02*
X10556730Y-15050484D01*
X10556730Y-15050484D02*
X10537682Y-15040960D01*
X10537682Y-15040960D02*
X10528158Y-15021912D01*
X10528158Y-15021912D02*
X10528158Y-14945722D01*
X10528158Y-14945722D02*
X10537682Y-14926674D01*
X10537682Y-14926674D02*
X10556730Y-14917150D01*
X10556730Y-14917150D02*
X10594825Y-14917150D01*
X10594825Y-14917150D02*
X10613873Y-14926674D01*
X10613873Y-14926674D02*
X10623396Y-14945722D01*
X10623396Y-14945722D02*
X10623396Y-14964769D01*
X10623396Y-14964769D02*
X10528158Y-14983817D01*
X10794825Y-15050484D02*
X10794825Y-14850484D01*
X10794825Y-15040960D02*
X10775777Y-15050484D01*
X10775777Y-15050484D02*
X10737682Y-15050484D01*
X10737682Y-15050484D02*
X10718635Y-15040960D01*
X10718635Y-15040960D02*
X10709111Y-15031436D01*
X10709111Y-15031436D02*
X10699587Y-15012388D01*
X10699587Y-15012388D02*
X10699587Y-14955246D01*
X10699587Y-14955246D02*
X10709111Y-14936198D01*
X10709111Y-14936198D02*
X10718635Y-14926674D01*
X10718635Y-14926674D02*
X10737682Y-14917150D01*
X10737682Y-14917150D02*
X10775777Y-14917150D01*
X10775777Y-14917150D02*
X10794825Y-14926674D01*
X10871016Y-15126674D02*
X10880539Y-15117150D01*
X10880539Y-15117150D02*
X10899587Y-15088579D01*
X10899587Y-15088579D02*
X10909111Y-15069531D01*
X10909111Y-15069531D02*
X10918635Y-15040960D01*
X10918635Y-15040960D02*
X10928158Y-14993341D01*
X10928158Y-14993341D02*
X10928158Y-14955246D01*
X10928158Y-14955246D02*
X10918635Y-14907627D01*
X10918635Y-14907627D02*
X10909111Y-14879055D01*
X10909111Y-14879055D02*
X10899587Y-14860008D01*
X10899587Y-14860008D02*
X10880539Y-14831436D01*
X10880539Y-14831436D02*
X10871016Y-14821912D01*
M02*
