M48
; DRILL file {KiCad 8.0.4-8.0.4-0~ubuntu22.04.1} date 2024-08-24T23:14:54+0200
; FORMAT={-:-/ absolute / metric / decimal}
; #@! TF.CreationDate,2024-08-24T23:14:54+02:00
; #@! TF.GenerationSoftware,Kicad,Pcbnew,8.0.4-8.0.4-0~ubuntu22.04.1
; #@! TF.FileFunction,Plated,1,4,PTH
FMAT,2
METRIC
; #@! TA.AperFunction,Plated,PTH,ViaDrill
T1C0.300
; #@! TA.AperFunction,Plated,PTH,ViaDrill
T2C0.400
; #@! TA.AperFunction,Plated,PTH,ComponentDrill
T3C0.500
; #@! TA.AperFunction,Plated,PTH,ComponentDrill
T4C0.600
; #@! TA.AperFunction,Plated,PTH,ComponentDrill
T5C0.800
; #@! TA.AperFunction,Plated,PTH,ComponentDrill
T6C1.000
; #@! TA.AperFunction,Plated,PTH,ComponentDrill
T7C1.100
%
G90
G05
T1
X42.05Y-102.5
X43.8Y-101.4
X43.8Y-103.2
X48.3Y-113.75
X48.3Y-114.65
X48.45Y-115.6
X48.45Y-116.925
X48.7Y-121.375
X49.7Y-113.0
X50.1Y-110.4
X50.35Y-103.55
X51.0Y-103.0
X51.15Y-110.15
X51.45Y-114.6
X51.75Y-112.6
X51.825Y-127.45
X52.0Y-108.2
X52.05Y-104.05
X53.15Y-116.15
X53.75Y-104.2
X54.1Y-107.1
X54.35Y-125.475
X54.9Y-107.4
X55.225Y-128.15
X55.7Y-90.8
X55.8Y-91.7
X55.9Y-102.75
X56.154Y-116.804
X56.25Y-101.95
X56.6Y-92.8
X56.65Y-109.9
X56.65Y-110.85
X56.65Y-111.7
X56.65Y-112.55
X57.25Y-104.0
X58.6Y-126.5
X59.1Y-90.7
X59.1Y-91.7
X59.2Y-108.55
X59.3Y-92.5
X60.35Y-108.55
X60.55Y-113.8
X60.6Y-117.8
X60.8Y-104.9
X61.0Y-105.7
X61.6Y-113.8
X61.7Y-108.4
X61.7Y-110.7
X61.7Y-111.8
X61.7Y-112.95
X63.1Y-116.8
X63.35Y-107.35
X63.9Y-116.25
X63.95Y-117.05
X64.7Y-109.6
X66.9Y-112.9
X67.5Y-113.5
X68.6Y-116.45
X69.3Y-109.2
X69.4Y-118.875
X69.45Y-119.8
X69.5Y-133.9
X70.6Y-123.3
X70.8Y-135.9
X71.501Y-118.999
X71.65Y-123.0
X72.05Y-122.0
X72.1Y-117.875
X72.158Y-134.35
X72.3Y-123.95
X73.4Y-133.4
X73.65Y-135.85
X73.925Y-119.55
X75.2Y-115.6
X75.6Y-116.5
X75.95Y-115.2
X76.45Y-116.5
X77.35Y-116.5
X80.0Y-123.05
X80.5Y-121.95
X80.8Y-122.95
X89.3Y-119.85
X92.15Y-119.7
X93.9Y-130.85
X94.15Y-130.05
X94.2Y-128.3
X94.3Y-129.1
X98.3Y-110.1
X98.95Y-109.25
X99.0Y-95.1
X99.01Y-95.99
X99.2Y-110.15
X99.75Y-109.25
X100.0Y-110.05
X100.2Y-95.9
X100.55Y-109.25
X100.575Y-104.195
X100.7Y-94.8
X101.6Y-104.3
X102.45Y-120.0
X102.7Y-106.2
X102.7Y-110.5
X102.95Y-119.1
X103.3Y-109.8
X103.7Y-119.65
X104.05Y-107.35
X104.5Y-109.8
X105.2Y-109.1
X106.55Y-125.5
X106.75Y-110.7
X107.2Y-95.9
X107.55Y-110.05
X108.061Y-95.83
X109.285Y-96.315
X109.5Y-110.0
X109.85Y-95.55
X109.95Y-125.15
X110.0Y-120.05
X110.2Y-109.4
X110.4Y-119.2
X110.8Y-104.4
X111.2Y-119.95
X111.6Y-105.6
X111.9Y-110.8
X112.05Y-119.9
X112.45Y-110.2
X112.875Y-120.0
X115.15Y-103.5
X115.2Y-101.9
X115.2Y-102.7
X115.6Y-110.0
X116.2Y-110.6
X116.8Y-95.4
X116.8Y-96.2
X117.95Y-123.3
X118.636Y-96.164
X118.7Y-122.4
X118.8Y-123.3
X119.2Y-95.4
X119.2Y-110.5
X120.2Y-104.4
X120.2Y-110.5
X120.5Y-109.6
X121.3Y-110.3
X121.95Y-120.6
X122.0Y-106.3
X122.75Y-120.6
X122.8Y-108.55
X123.1Y-106.85
X123.55Y-109.15
X123.85Y-123.95
X123.9Y-109.9
X126.65Y-120.2
X129.55Y-120.65
X129.65Y-121.95
T2
X43.1Y-102.3
X44.975Y-119.9
X45.2Y-98.0
X46.4Y-119.825
X48.475Y-131.725
X48.525Y-117.975
X49.8Y-114.45
X51.05Y-113.6
X51.37Y-104.73
X51.475Y-125.65
X51.5Y-90.4
X52.0Y-107.22
X52.208Y-109.676
X52.238Y-114.2
X52.7Y-90.7
X52.9Y-95.8
X53.15Y-132.7
X53.416Y-109.7
X54.658Y-104.842
X54.7Y-106.37
X54.8Y-95.7
X54.85Y-132.775
X55.3Y-125.65
X56.16Y-103.94
X56.75Y-113.5
X56.824Y-90.355
X56.9Y-108.9
X57.1Y-102.7
X58.875Y-131.5
X58.9Y-132.9
X59.075Y-134.925
X59.175Y-137.725
X59.225Y-136.425
X59.3Y-113.5
X59.8Y-118.1
X60.45Y-104.1
X60.5Y-102.6
X60.8Y-96.1
X61.1Y-109.3
X61.6Y-121.5
X61.7Y-96.3
X62.0Y-117.1
X62.6Y-105.5
X63.05Y-126.95
X63.3Y-106.3
X63.3Y-121.6
X63.8Y-90.4
X63.8Y-128.05
X64.9Y-126.5
X65.1Y-117.1
X65.4Y-110.2
X65.4Y-136.3
X65.57Y-127.93
X66.844Y-116.222
X67.9Y-117.1
X68.5Y-108.8
X68.62Y-115.38
X68.7Y-110.3
X69.011Y-111.289
X69.801Y-124.101
X69.9Y-125.3
X69.912Y-111.95
X70.4Y-122.3
X71.405Y-133.595
X71.7Y-119.9
X72.9Y-112.35
X73.0Y-104.3
X73.2Y-124.7
X74.7Y-110.4
X75.0Y-130.8
X75.1Y-127.1
X75.583Y-135.717
X79.45Y-122.3
X79.5Y-113.95
X79.7Y-117.9
X80.6Y-107.65
X80.8Y-117.9
X81.5Y-109.2
X82.8Y-109.2
X83.0Y-97.1
X84.4Y-109.2
X84.65Y-120.15
X85.616Y-93.34
X85.8Y-98.1
X85.85Y-125.4
X90.4Y-119.65
X90.7Y-135.9
X91.3Y-132.6
X91.8Y-128.8
X92.9Y-122.0
X92.9Y-132.6
X94.0Y-119.7
X94.22Y-127.32
X95.3Y-119.7
X95.7Y-122.1
X95.8Y-132.1
X97.1Y-109.8
X99.1Y-100.7
X99.2Y-99.5
X100.6Y-99.6
X100.7Y-100.7
X101.0Y-107.5
X101.1Y-82.1
X101.1Y-83.3
X101.1Y-84.4
X101.1Y-85.6
X101.6Y-109.9
X102.4Y-82.1
X102.4Y-83.3
X102.4Y-84.4
X102.4Y-85.6
X103.3Y-120.55
X105.15Y-125.3
X105.3Y-95.2
X105.8Y-110.0
X108.2Y-99.8
X108.25Y-119.8
X108.4Y-100.9
X108.938Y-107.7
X109.8Y-99.8
X109.8Y-104.5
X109.8Y-132.4
X109.9Y-100.9
X110.7Y-129.3
X110.8Y-110.3
X110.8Y-134.9
X111.7Y-121.1
X112.0Y-126.7
X113.1Y-126.8
X114.0Y-131.5
X114.1Y-81.9
X114.1Y-83.1
X114.1Y-84.2
X114.1Y-85.4
X114.4Y-95.4
X115.4Y-81.9
X115.4Y-83.1
X115.4Y-84.2
X115.4Y-85.4
X115.8Y-121.3
X116.6Y-122.8
X116.9Y-109.7
X117.0Y-85.1
X117.6Y-122.0
X117.8Y-99.6
X117.9Y-100.8
X119.1Y-104.4
X119.3Y-99.6
X119.3Y-100.8
X119.4Y-109.5
X122.45Y-109.85
X122.6Y-96.9
X123.7Y-82.35
X123.8Y-125.2
X125.0Y-91.2
X126.9Y-85.8
X127.7Y-132.7
X127.85Y-120.5
X129.8Y-128.5
X136.7Y-115.0
X136.8Y-103.7
X136.8Y-106.5
X136.8Y-117.5
X136.8Y-128.5
X136.9Y-125.6
X137.8Y-106.9
X137.9Y-117.9
X137.9Y-128.9
X138.0Y-103.7
X138.0Y-114.5
X138.3Y-125.8
X138.8Y-106.5
X138.9Y-82.4
X138.9Y-83.4
X138.9Y-84.6
X138.9Y-85.7
X138.9Y-86.9
X138.9Y-88.0
X139.0Y-104.3
X139.1Y-115.2
X139.1Y-117.4
X139.1Y-128.6
X139.3Y-126.4
X139.4Y-105.5
X139.4Y-116.3
X139.7Y-127.6
T3
X43.5Y-132.85
X49.2Y-123.8
X52.65Y-92.75
X56.55Y-100.35
X57.6Y-128.0
X59.75Y-99.1
X67.5Y-105.7
X69.9Y-129.1
X71.05Y-126.6
X72.4Y-128.8
X81.3Y-113.2
X82.95Y-102.3
X94.4Y-133.4
X95.8Y-138.05
X97.5Y-95.05
X99.9Y-93.2
X106.65Y-94.55
X109.25Y-94.3
X112.4Y-128.7
X114.35Y-138.55
X115.7Y-94.7
X117.9Y-94.7
X125.9Y-103.95
X129.2Y-100.05
T5
X132.5Y-105.3
X132.6Y-116.3
X133.0Y-127.3
X137.5Y-105.3
X137.6Y-116.3
X138.0Y-127.3
T6
X44.1Y-111.86
X44.1Y-114.4
X44.1Y-116.94
X50.9Y-137.0
X53.44Y-137.0
X55.98Y-137.0
T7
X80.27Y-128.15
X82.81Y-128.15
X84.5Y-122.655
X85.35Y-128.15
X87.04Y-122.655
X89.58Y-122.655
X98.998Y-127.917
X101.537Y-127.917
X103.097Y-122.772
X104.078Y-127.917
X105.637Y-122.772
X108.177Y-122.772
X118.297Y-127.872
X120.837Y-127.872
X122.46Y-122.593
X123.377Y-127.872
X125.0Y-122.593
X127.54Y-122.593
T4
X53.78Y-83.95G85X53.78Y-83.35
G05
X53.78Y-88.38G85X53.78Y-87.28
G05
X62.42Y-83.95G85X62.42Y-83.35
G05
X62.42Y-88.38G85X62.42Y-87.28
G05
M30
