G04 #@! TF.GenerationSoftware,KiCad,Pcbnew,8.0.4-8.0.4-0~ubuntu22.04.1*
G04 #@! TF.CreationDate,2024-09-01T21:10:03+02:00*
G04 #@! TF.ProjectId,bldc_project,626c6463-5f70-4726-9f6a-6563742e6b69,rev?*
G04 #@! TF.SameCoordinates,Original*
G04 #@! TF.FileFunction,Soldermask,Bot*
G04 #@! TF.FilePolarity,Negative*
%FSLAX46Y46*%
G04 Gerber Fmt 4.6, Leading zero omitted, Abs format (unit mm)*
G04 Created by KiCad (PCBNEW 8.0.4-8.0.4-0~ubuntu22.04.1) date 2024-09-01 21:10:03*
%MOMM*%
%LPD*%
G01*
G04 APERTURE LIST*
G04 APERTURE END LIST*
G36*
X114489245Y-138030332D02*
G01*
X114619000Y-138084078D01*
X114730423Y-138169577D01*
X114815922Y-138281000D01*
X114869668Y-138410755D01*
X114888000Y-138550000D01*
X114869668Y-138689245D01*
X114815922Y-138819000D01*
X114730423Y-138930423D01*
X114619000Y-139015922D01*
X114489245Y-139069668D01*
X114350000Y-139088000D01*
X114210755Y-139069668D01*
X114081000Y-139015922D01*
X113969577Y-138930423D01*
X113884078Y-138819000D01*
X113830332Y-138689245D01*
X113812000Y-138550000D01*
X113830332Y-138410755D01*
X113884078Y-138281000D01*
X113969577Y-138169577D01*
X114081000Y-138084078D01*
X114210755Y-138030332D01*
X114350000Y-138012000D01*
X114489245Y-138030332D01*
G37*
G36*
X95939245Y-137530332D02*
G01*
X96069000Y-137584078D01*
X96180423Y-137669577D01*
X96265922Y-137781000D01*
X96319668Y-137910755D01*
X96338000Y-138050000D01*
X96319668Y-138189245D01*
X96265922Y-138319000D01*
X96180423Y-138430423D01*
X96069000Y-138515922D01*
X95939245Y-138569668D01*
X95800000Y-138588000D01*
X95660755Y-138569668D01*
X95531000Y-138515922D01*
X95419577Y-138430423D01*
X95334078Y-138319000D01*
X95280332Y-138189245D01*
X95262000Y-138050000D01*
X95280332Y-137910755D01*
X95334078Y-137781000D01*
X95419577Y-137669577D01*
X95531000Y-137584078D01*
X95660755Y-137530332D01*
X95800000Y-137512000D01*
X95939245Y-137530332D01*
G37*
G36*
X51764542Y-136114893D02*
G01*
X51776870Y-136123130D01*
X51785107Y-136135458D01*
X51788000Y-136150000D01*
X51788000Y-137850000D01*
X51785107Y-137864542D01*
X51776870Y-137876870D01*
X51764542Y-137885107D01*
X51750000Y-137888000D01*
X50050000Y-137888000D01*
X50035458Y-137885107D01*
X50023130Y-137876870D01*
X50014893Y-137864542D01*
X50012000Y-137850000D01*
X50012000Y-136150000D01*
X50014893Y-136135458D01*
X50023130Y-136123130D01*
X50035458Y-136114893D01*
X50050000Y-136112000D01*
X51750000Y-136112000D01*
X51764542Y-136114893D01*
G37*
G36*
X53714407Y-136155462D02*
G01*
X53884000Y-136230969D01*
X54034188Y-136340087D01*
X54158407Y-136478047D01*
X54251228Y-136638818D01*
X54308595Y-136815374D01*
X54328000Y-137000000D01*
X54308595Y-137184626D01*
X54251228Y-137361182D01*
X54158407Y-137521953D01*
X54034188Y-137659913D01*
X53884000Y-137769031D01*
X53714407Y-137844538D01*
X53532821Y-137883135D01*
X53347179Y-137883135D01*
X53165593Y-137844538D01*
X52996000Y-137769031D01*
X52845812Y-137659913D01*
X52721593Y-137521953D01*
X52628772Y-137361182D01*
X52571405Y-137184626D01*
X52552000Y-137000000D01*
X52571405Y-136815374D01*
X52628772Y-136638818D01*
X52721593Y-136478047D01*
X52845812Y-136340087D01*
X52996000Y-136230969D01*
X53165593Y-136155462D01*
X53347179Y-136116865D01*
X53532821Y-136116865D01*
X53714407Y-136155462D01*
G37*
G36*
X56254407Y-136155462D02*
G01*
X56424000Y-136230969D01*
X56574188Y-136340087D01*
X56698407Y-136478047D01*
X56791228Y-136638818D01*
X56848595Y-136815374D01*
X56868000Y-137000000D01*
X56848595Y-137184626D01*
X56791228Y-137361182D01*
X56698407Y-137521953D01*
X56574188Y-137659913D01*
X56424000Y-137769031D01*
X56254407Y-137844538D01*
X56072821Y-137883135D01*
X55887179Y-137883135D01*
X55705593Y-137844538D01*
X55536000Y-137769031D01*
X55385812Y-137659913D01*
X55261593Y-137521953D01*
X55168772Y-137361182D01*
X55111405Y-137184626D01*
X55092000Y-137000000D01*
X55111405Y-136815374D01*
X55168772Y-136638818D01*
X55261593Y-136478047D01*
X55385812Y-136340087D01*
X55536000Y-136230969D01*
X55705593Y-136155462D01*
X55887179Y-136116865D01*
X56072821Y-136116865D01*
X56254407Y-136155462D01*
G37*
G36*
X44361105Y-136194152D02*
G01*
X44514132Y-136247699D01*
X44651407Y-136333954D01*
X44766046Y-136448593D01*
X44852301Y-136585868D01*
X44905848Y-136738895D01*
X44924000Y-136900000D01*
X44905848Y-137061105D01*
X44852301Y-137214132D01*
X44766046Y-137351407D01*
X44651407Y-137466046D01*
X44514132Y-137552301D01*
X44361105Y-137605848D01*
X44200000Y-137624000D01*
X44038895Y-137605848D01*
X43885868Y-137552301D01*
X43748593Y-137466046D01*
X43633954Y-137351407D01*
X43547699Y-137214132D01*
X43494152Y-137061105D01*
X43476000Y-136900000D01*
X43494152Y-136738895D01*
X43547699Y-136585868D01*
X43633954Y-136448593D01*
X43748593Y-136333954D01*
X43885868Y-136247699D01*
X44038895Y-136194152D01*
X44200000Y-136176000D01*
X44361105Y-136194152D01*
G37*
G36*
X138361105Y-136194152D02*
G01*
X138514132Y-136247699D01*
X138651407Y-136333954D01*
X138766046Y-136448593D01*
X138852301Y-136585868D01*
X138905848Y-136738895D01*
X138924000Y-136900000D01*
X138905848Y-137061105D01*
X138852301Y-137214132D01*
X138766046Y-137351407D01*
X138651407Y-137466046D01*
X138514132Y-137552301D01*
X138361105Y-137605848D01*
X138200000Y-137624000D01*
X138038895Y-137605848D01*
X137885868Y-137552301D01*
X137748593Y-137466046D01*
X137633954Y-137351407D01*
X137547699Y-137214132D01*
X137494152Y-137061105D01*
X137476000Y-136900000D01*
X137494152Y-136738895D01*
X137547699Y-136585868D01*
X137633954Y-136448593D01*
X137748593Y-136333954D01*
X137885868Y-136247699D01*
X138038895Y-136194152D01*
X138200000Y-136176000D01*
X138361105Y-136194152D01*
G37*
G36*
X94539245Y-132880332D02*
G01*
X94669000Y-132934078D01*
X94780423Y-133019577D01*
X94865922Y-133131000D01*
X94919668Y-133260755D01*
X94938000Y-133400000D01*
X94919668Y-133539245D01*
X94865922Y-133669000D01*
X94780423Y-133780423D01*
X94669000Y-133865922D01*
X94539245Y-133919668D01*
X94400000Y-133938000D01*
X94260755Y-133919668D01*
X94131000Y-133865922D01*
X94019577Y-133780423D01*
X93934078Y-133669000D01*
X93880332Y-133539245D01*
X93862000Y-133400000D01*
X93880332Y-133260755D01*
X93934078Y-133131000D01*
X94019577Y-133019577D01*
X94131000Y-132934078D01*
X94260755Y-132880332D01*
X94400000Y-132862000D01*
X94539245Y-132880332D01*
G37*
G36*
X43639245Y-132330332D02*
G01*
X43769000Y-132384078D01*
X43880423Y-132469577D01*
X43965922Y-132581000D01*
X44019668Y-132710755D01*
X44038000Y-132850000D01*
X44019668Y-132989245D01*
X43965922Y-133119000D01*
X43880423Y-133230423D01*
X43769000Y-133315922D01*
X43639245Y-133369668D01*
X43500000Y-133388000D01*
X43360755Y-133369668D01*
X43231000Y-133315922D01*
X43119577Y-133230423D01*
X43034078Y-133119000D01*
X42980332Y-132989245D01*
X42962000Y-132850000D01*
X42980332Y-132710755D01*
X43034078Y-132581000D01*
X43119577Y-132469577D01*
X43231000Y-132384078D01*
X43360755Y-132330332D01*
X43500000Y-132312000D01*
X43639245Y-132330332D01*
G37*
G36*
X70039245Y-128580332D02*
G01*
X70169000Y-128634078D01*
X70280423Y-128719577D01*
X70365922Y-128831000D01*
X70419668Y-128960755D01*
X70438000Y-129100000D01*
X70419668Y-129239245D01*
X70365922Y-129369000D01*
X70280423Y-129480423D01*
X70169000Y-129565922D01*
X70039245Y-129619668D01*
X69900000Y-129638000D01*
X69760755Y-129619668D01*
X69631000Y-129565922D01*
X69519577Y-129480423D01*
X69434078Y-129369000D01*
X69380332Y-129239245D01*
X69362000Y-129100000D01*
X69380332Y-128960755D01*
X69434078Y-128831000D01*
X69519577Y-128719577D01*
X69631000Y-128634078D01*
X69760755Y-128580332D01*
X69900000Y-128562000D01*
X70039245Y-128580332D01*
G37*
G36*
X72539245Y-128280332D02*
G01*
X72669000Y-128334078D01*
X72780423Y-128419577D01*
X72865922Y-128531000D01*
X72919668Y-128660755D01*
X72938000Y-128800000D01*
X72919668Y-128939245D01*
X72865922Y-129069000D01*
X72780423Y-129180423D01*
X72669000Y-129265922D01*
X72539245Y-129319668D01*
X72400000Y-129338000D01*
X72260755Y-129319668D01*
X72131000Y-129265922D01*
X72019577Y-129180423D01*
X71934078Y-129069000D01*
X71880332Y-128939245D01*
X71862000Y-128800000D01*
X71880332Y-128660755D01*
X71934078Y-128531000D01*
X72019577Y-128419577D01*
X72131000Y-128334078D01*
X72260755Y-128280332D01*
X72400000Y-128262000D01*
X72539245Y-128280332D01*
G37*
G36*
X112539245Y-128180332D02*
G01*
X112669000Y-128234078D01*
X112780423Y-128319577D01*
X112865922Y-128431000D01*
X112919668Y-128560755D01*
X112938000Y-128700000D01*
X112919668Y-128839245D01*
X112865922Y-128969000D01*
X112780423Y-129080423D01*
X112669000Y-129165922D01*
X112539245Y-129219668D01*
X112400000Y-129238000D01*
X112260755Y-129219668D01*
X112131000Y-129165922D01*
X112019577Y-129080423D01*
X111934078Y-128969000D01*
X111880332Y-128839245D01*
X111862000Y-128700000D01*
X111880332Y-128560755D01*
X111934078Y-128431000D01*
X112019577Y-128319577D01*
X112131000Y-128234078D01*
X112260755Y-128180332D01*
X112400000Y-128162000D01*
X112539245Y-128180332D01*
G37*
G36*
X86317042Y-127114893D02*
G01*
X86329370Y-127123130D01*
X86337607Y-127135458D01*
X86340500Y-127150000D01*
X86340500Y-129150000D01*
X86337607Y-129164542D01*
X86329370Y-129176870D01*
X86317042Y-129185107D01*
X86302500Y-129188000D01*
X84397500Y-129188000D01*
X84382958Y-129185107D01*
X84370630Y-129176870D01*
X84362393Y-129164542D01*
X84359500Y-129150000D01*
X84359500Y-127150000D01*
X84362393Y-127135458D01*
X84370630Y-127123130D01*
X84382958Y-127114893D01*
X84397500Y-127112000D01*
X86302500Y-127112000D01*
X86317042Y-127114893D01*
G37*
G36*
X80557527Y-127154651D02*
G01*
X80736918Y-127228957D01*
X80898367Y-127336833D01*
X81035667Y-127474133D01*
X81143543Y-127635582D01*
X81217849Y-127814973D01*
X81255730Y-128005414D01*
X81260500Y-128102500D01*
X81260500Y-128197500D01*
X81255730Y-128294586D01*
X81217849Y-128485027D01*
X81143543Y-128664418D01*
X81035667Y-128825867D01*
X80898367Y-128963167D01*
X80736918Y-129071043D01*
X80557527Y-129145349D01*
X80367086Y-129183230D01*
X80172914Y-129183230D01*
X79982473Y-129145349D01*
X79803082Y-129071043D01*
X79641633Y-128963167D01*
X79504333Y-128825867D01*
X79396457Y-128664418D01*
X79322151Y-128485027D01*
X79284270Y-128294586D01*
X79279500Y-128197500D01*
X79279500Y-128102500D01*
X79284270Y-128005414D01*
X79322151Y-127814973D01*
X79396457Y-127635582D01*
X79504333Y-127474133D01*
X79641633Y-127336833D01*
X79803082Y-127228957D01*
X79982473Y-127154651D01*
X80172914Y-127116770D01*
X80367086Y-127116770D01*
X80557527Y-127154651D01*
G37*
G36*
X83097527Y-127154651D02*
G01*
X83276918Y-127228957D01*
X83438367Y-127336833D01*
X83575667Y-127474133D01*
X83683543Y-127635582D01*
X83757849Y-127814973D01*
X83795730Y-128005414D01*
X83800500Y-128102500D01*
X83800500Y-128197500D01*
X83795730Y-128294586D01*
X83757849Y-128485027D01*
X83683543Y-128664418D01*
X83575667Y-128825867D01*
X83438367Y-128963167D01*
X83276918Y-129071043D01*
X83097527Y-129145349D01*
X82907086Y-129183230D01*
X82712914Y-129183230D01*
X82522473Y-129145349D01*
X82343082Y-129071043D01*
X82181633Y-128963167D01*
X82044333Y-128825867D01*
X81936457Y-128664418D01*
X81862151Y-128485027D01*
X81824270Y-128294586D01*
X81819500Y-128197500D01*
X81819500Y-128102500D01*
X81824270Y-128005414D01*
X81862151Y-127814973D01*
X81936457Y-127635582D01*
X82044333Y-127474133D01*
X82181633Y-127336833D01*
X82343082Y-127228957D01*
X82522473Y-127154651D01*
X82712914Y-127116770D01*
X82907086Y-127116770D01*
X83097527Y-127154651D01*
G37*
G36*
X105044542Y-126882393D02*
G01*
X105056870Y-126890630D01*
X105065107Y-126902958D01*
X105068000Y-126917500D01*
X105068000Y-128917500D01*
X105065107Y-128932042D01*
X105056870Y-128944370D01*
X105044542Y-128952607D01*
X105030000Y-128955500D01*
X103125000Y-128955500D01*
X103110458Y-128952607D01*
X103098130Y-128944370D01*
X103089893Y-128932042D01*
X103087000Y-128917500D01*
X103087000Y-126917500D01*
X103089893Y-126902958D01*
X103098130Y-126890630D01*
X103110458Y-126882393D01*
X103125000Y-126879500D01*
X105030000Y-126879500D01*
X105044542Y-126882393D01*
G37*
G36*
X99285027Y-126922151D02*
G01*
X99464418Y-126996457D01*
X99625867Y-127104333D01*
X99763167Y-127241633D01*
X99871043Y-127403082D01*
X99945349Y-127582473D01*
X99983230Y-127772914D01*
X99988000Y-127870000D01*
X99988000Y-127965000D01*
X99983230Y-128062086D01*
X99945349Y-128252527D01*
X99871043Y-128431918D01*
X99763167Y-128593367D01*
X99625867Y-128730667D01*
X99464418Y-128838543D01*
X99285027Y-128912849D01*
X99094586Y-128950730D01*
X98900414Y-128950730D01*
X98709973Y-128912849D01*
X98530582Y-128838543D01*
X98369133Y-128730667D01*
X98231833Y-128593367D01*
X98123957Y-128431918D01*
X98049651Y-128252527D01*
X98011770Y-128062086D01*
X98007000Y-127965000D01*
X98007000Y-127870000D01*
X98011770Y-127772914D01*
X98049651Y-127582473D01*
X98123957Y-127403082D01*
X98231833Y-127241633D01*
X98369133Y-127104333D01*
X98530582Y-126996457D01*
X98709973Y-126922151D01*
X98900414Y-126884270D01*
X99094586Y-126884270D01*
X99285027Y-126922151D01*
G37*
G36*
X101825027Y-126922151D02*
G01*
X102004418Y-126996457D01*
X102165867Y-127104333D01*
X102303167Y-127241633D01*
X102411043Y-127403082D01*
X102485349Y-127582473D01*
X102523230Y-127772914D01*
X102528000Y-127870000D01*
X102528000Y-127965000D01*
X102523230Y-128062086D01*
X102485349Y-128252527D01*
X102411043Y-128431918D01*
X102303167Y-128593367D01*
X102165867Y-128730667D01*
X102004418Y-128838543D01*
X101825027Y-128912849D01*
X101634586Y-128950730D01*
X101440414Y-128950730D01*
X101249973Y-128912849D01*
X101070582Y-128838543D01*
X100909133Y-128730667D01*
X100771833Y-128593367D01*
X100663957Y-128431918D01*
X100589651Y-128252527D01*
X100551770Y-128062086D01*
X100547000Y-127965000D01*
X100547000Y-127870000D01*
X100551770Y-127772914D01*
X100589651Y-127582473D01*
X100663957Y-127403082D01*
X100771833Y-127241633D01*
X100909133Y-127104333D01*
X101070582Y-126996457D01*
X101249973Y-126922151D01*
X101440414Y-126884270D01*
X101634586Y-126884270D01*
X101825027Y-126922151D01*
G37*
G36*
X124344542Y-126837393D02*
G01*
X124356870Y-126845630D01*
X124365107Y-126857958D01*
X124368000Y-126872500D01*
X124368000Y-128872500D01*
X124365107Y-128887042D01*
X124356870Y-128899370D01*
X124344542Y-128907607D01*
X124330000Y-128910500D01*
X122425000Y-128910500D01*
X122410458Y-128907607D01*
X122398130Y-128899370D01*
X122389893Y-128887042D01*
X122387000Y-128872500D01*
X122387000Y-126872500D01*
X122389893Y-126857958D01*
X122398130Y-126845630D01*
X122410458Y-126837393D01*
X122425000Y-126834500D01*
X124330000Y-126834500D01*
X124344542Y-126837393D01*
G37*
G36*
X118585027Y-126877151D02*
G01*
X118764418Y-126951457D01*
X118925867Y-127059333D01*
X119063167Y-127196633D01*
X119171043Y-127358082D01*
X119245349Y-127537473D01*
X119283230Y-127727914D01*
X119288000Y-127825000D01*
X119288000Y-127920000D01*
X119283230Y-128017086D01*
X119245349Y-128207527D01*
X119171043Y-128386918D01*
X119063167Y-128548367D01*
X118925867Y-128685667D01*
X118764418Y-128793543D01*
X118585027Y-128867849D01*
X118394586Y-128905730D01*
X118200414Y-128905730D01*
X118009973Y-128867849D01*
X117830582Y-128793543D01*
X117669133Y-128685667D01*
X117531833Y-128548367D01*
X117423957Y-128386918D01*
X117349651Y-128207527D01*
X117311770Y-128017086D01*
X117307000Y-127920000D01*
X117307000Y-127825000D01*
X117311770Y-127727914D01*
X117349651Y-127537473D01*
X117423957Y-127358082D01*
X117531833Y-127196633D01*
X117669133Y-127059333D01*
X117830582Y-126951457D01*
X118009973Y-126877151D01*
X118200414Y-126839270D01*
X118394586Y-126839270D01*
X118585027Y-126877151D01*
G37*
G36*
X121125027Y-126877151D02*
G01*
X121304418Y-126951457D01*
X121465867Y-127059333D01*
X121603167Y-127196633D01*
X121711043Y-127358082D01*
X121785349Y-127537473D01*
X121823230Y-127727914D01*
X121828000Y-127825000D01*
X121828000Y-127920000D01*
X121823230Y-128017086D01*
X121785349Y-128207527D01*
X121711043Y-128386918D01*
X121603167Y-128548367D01*
X121465867Y-128685667D01*
X121304418Y-128793543D01*
X121125027Y-128867849D01*
X120934586Y-128905730D01*
X120740414Y-128905730D01*
X120549973Y-128867849D01*
X120370582Y-128793543D01*
X120209133Y-128685667D01*
X120071833Y-128548367D01*
X119963957Y-128386918D01*
X119889651Y-128207527D01*
X119851770Y-128017086D01*
X119847000Y-127920000D01*
X119847000Y-127825000D01*
X119851770Y-127727914D01*
X119889651Y-127537473D01*
X119963957Y-127358082D01*
X120071833Y-127196633D01*
X120209133Y-127059333D01*
X120370582Y-126951457D01*
X120549973Y-126877151D01*
X120740414Y-126839270D01*
X120934586Y-126839270D01*
X121125027Y-126877151D01*
G37*
G36*
X57739245Y-127480332D02*
G01*
X57869000Y-127534078D01*
X57980423Y-127619577D01*
X58065922Y-127731000D01*
X58119668Y-127860755D01*
X58138000Y-128000000D01*
X58119668Y-128139245D01*
X58065922Y-128269000D01*
X57980423Y-128380423D01*
X57869000Y-128465922D01*
X57739245Y-128519668D01*
X57600000Y-128538000D01*
X57460755Y-128519668D01*
X57331000Y-128465922D01*
X57219577Y-128380423D01*
X57134078Y-128269000D01*
X57080332Y-128139245D01*
X57062000Y-128000000D01*
X57080332Y-127860755D01*
X57134078Y-127731000D01*
X57219577Y-127619577D01*
X57331000Y-127534078D01*
X57460755Y-127480332D01*
X57600000Y-127462000D01*
X57739245Y-127480332D01*
G37*
G36*
X133258956Y-126503015D02*
G01*
X133419000Y-126574271D01*
X133560731Y-126677245D01*
X133677956Y-126807436D01*
X133765551Y-126959155D01*
X133819688Y-127125770D01*
X133838000Y-127300000D01*
X133819688Y-127474230D01*
X133765551Y-127640845D01*
X133677956Y-127792564D01*
X133560731Y-127922755D01*
X133419000Y-128025729D01*
X133258956Y-128096985D01*
X133087595Y-128133409D01*
X132912405Y-128133409D01*
X132741044Y-128096985D01*
X132581000Y-128025729D01*
X132439269Y-127922755D01*
X132322044Y-127792564D01*
X132234449Y-127640845D01*
X132180312Y-127474230D01*
X132162000Y-127300000D01*
X132180312Y-127125770D01*
X132234449Y-126959155D01*
X132322044Y-126807436D01*
X132439269Y-126677245D01*
X132581000Y-126574271D01*
X132741044Y-126503015D01*
X132912405Y-126466591D01*
X133087595Y-126466591D01*
X133258956Y-126503015D01*
G37*
G36*
X138258956Y-126503015D02*
G01*
X138419000Y-126574271D01*
X138560731Y-126677245D01*
X138677956Y-126807436D01*
X138765551Y-126959155D01*
X138819688Y-127125770D01*
X138838000Y-127300000D01*
X138819688Y-127474230D01*
X138765551Y-127640845D01*
X138677956Y-127792564D01*
X138560731Y-127922755D01*
X138419000Y-128025729D01*
X138258956Y-128096985D01*
X138087595Y-128133409D01*
X137912405Y-128133409D01*
X137741044Y-128096985D01*
X137581000Y-128025729D01*
X137439269Y-127922755D01*
X137322044Y-127792564D01*
X137234449Y-127640845D01*
X137180312Y-127474230D01*
X137162000Y-127300000D01*
X137180312Y-127125770D01*
X137234449Y-126959155D01*
X137322044Y-126807436D01*
X137439269Y-126677245D01*
X137581000Y-126574271D01*
X137741044Y-126503015D01*
X137912405Y-126466591D01*
X138087595Y-126466591D01*
X138258956Y-126503015D01*
G37*
G36*
X71189245Y-126080332D02*
G01*
X71319000Y-126134078D01*
X71430423Y-126219577D01*
X71515922Y-126331000D01*
X71569668Y-126460755D01*
X71588000Y-126600000D01*
X71569668Y-126739245D01*
X71515922Y-126869000D01*
X71430423Y-126980423D01*
X71319000Y-127065922D01*
X71189245Y-127119668D01*
X71050000Y-127138000D01*
X70910755Y-127119668D01*
X70781000Y-127065922D01*
X70669577Y-126980423D01*
X70584078Y-126869000D01*
X70530332Y-126739245D01*
X70512000Y-126600000D01*
X70530332Y-126460755D01*
X70584078Y-126331000D01*
X70669577Y-126219577D01*
X70781000Y-126134078D01*
X70910755Y-126080332D01*
X71050000Y-126062000D01*
X71189245Y-126080332D01*
G37*
G36*
X49339245Y-123280332D02*
G01*
X49469000Y-123334078D01*
X49580423Y-123419577D01*
X49665922Y-123531000D01*
X49719668Y-123660755D01*
X49738000Y-123800000D01*
X49719668Y-123939245D01*
X49665922Y-124069000D01*
X49580423Y-124180423D01*
X49469000Y-124265922D01*
X49339245Y-124319668D01*
X49200000Y-124338000D01*
X49060755Y-124319668D01*
X48931000Y-124265922D01*
X48819577Y-124180423D01*
X48734078Y-124069000D01*
X48680332Y-123939245D01*
X48662000Y-123800000D01*
X48680332Y-123660755D01*
X48734078Y-123531000D01*
X48819577Y-123419577D01*
X48931000Y-123334078D01*
X49060755Y-123280332D01*
X49200000Y-123262000D01*
X49339245Y-123280332D01*
G37*
G36*
X109144542Y-121737393D02*
G01*
X109156870Y-121745630D01*
X109165107Y-121757958D01*
X109168000Y-121772500D01*
X109168000Y-123772500D01*
X109165107Y-123787042D01*
X109156870Y-123799370D01*
X109144542Y-123807607D01*
X109130000Y-123810500D01*
X107225000Y-123810500D01*
X107210458Y-123807607D01*
X107198130Y-123799370D01*
X107189893Y-123787042D01*
X107187000Y-123772500D01*
X107187000Y-121772500D01*
X107189893Y-121757958D01*
X107198130Y-121745630D01*
X107210458Y-121737393D01*
X107225000Y-121734500D01*
X109130000Y-121734500D01*
X109144542Y-121737393D01*
G37*
G36*
X103385027Y-121777151D02*
G01*
X103564418Y-121851457D01*
X103725867Y-121959333D01*
X103863167Y-122096633D01*
X103971043Y-122258082D01*
X104045349Y-122437473D01*
X104083230Y-122627914D01*
X104088000Y-122725000D01*
X104088000Y-122820000D01*
X104083230Y-122917086D01*
X104045349Y-123107527D01*
X103971043Y-123286918D01*
X103863167Y-123448367D01*
X103725867Y-123585667D01*
X103564418Y-123693543D01*
X103385027Y-123767849D01*
X103194586Y-123805730D01*
X103000414Y-123805730D01*
X102809973Y-123767849D01*
X102630582Y-123693543D01*
X102469133Y-123585667D01*
X102331833Y-123448367D01*
X102223957Y-123286918D01*
X102149651Y-123107527D01*
X102111770Y-122917086D01*
X102107000Y-122820000D01*
X102107000Y-122725000D01*
X102111770Y-122627914D01*
X102149651Y-122437473D01*
X102223957Y-122258082D01*
X102331833Y-122096633D01*
X102469133Y-121959333D01*
X102630582Y-121851457D01*
X102809973Y-121777151D01*
X103000414Y-121739270D01*
X103194586Y-121739270D01*
X103385027Y-121777151D01*
G37*
G36*
X105925027Y-121777151D02*
G01*
X106104418Y-121851457D01*
X106265867Y-121959333D01*
X106403167Y-122096633D01*
X106511043Y-122258082D01*
X106585349Y-122437473D01*
X106623230Y-122627914D01*
X106628000Y-122725000D01*
X106628000Y-122820000D01*
X106623230Y-122917086D01*
X106585349Y-123107527D01*
X106511043Y-123286918D01*
X106403167Y-123448367D01*
X106265867Y-123585667D01*
X106104418Y-123693543D01*
X105925027Y-123767849D01*
X105734586Y-123805730D01*
X105540414Y-123805730D01*
X105349973Y-123767849D01*
X105170582Y-123693543D01*
X105009133Y-123585667D01*
X104871833Y-123448367D01*
X104763957Y-123286918D01*
X104689651Y-123107527D01*
X104651770Y-122917086D01*
X104647000Y-122820000D01*
X104647000Y-122725000D01*
X104651770Y-122627914D01*
X104689651Y-122437473D01*
X104763957Y-122258082D01*
X104871833Y-122096633D01*
X105009133Y-121959333D01*
X105170582Y-121851457D01*
X105349973Y-121777151D01*
X105540414Y-121739270D01*
X105734586Y-121739270D01*
X105925027Y-121777151D01*
G37*
G36*
X90547042Y-121619893D02*
G01*
X90559370Y-121628130D01*
X90567607Y-121640458D01*
X90570500Y-121655000D01*
X90570500Y-123655000D01*
X90567607Y-123669542D01*
X90559370Y-123681870D01*
X90547042Y-123690107D01*
X90532500Y-123693000D01*
X88627500Y-123693000D01*
X88612958Y-123690107D01*
X88600630Y-123681870D01*
X88592393Y-123669542D01*
X88589500Y-123655000D01*
X88589500Y-121655000D01*
X88592393Y-121640458D01*
X88600630Y-121628130D01*
X88612958Y-121619893D01*
X88627500Y-121617000D01*
X90532500Y-121617000D01*
X90547042Y-121619893D01*
G37*
G36*
X84787527Y-121659651D02*
G01*
X84966918Y-121733957D01*
X85128367Y-121841833D01*
X85265667Y-121979133D01*
X85373543Y-122140582D01*
X85447849Y-122319973D01*
X85485730Y-122510414D01*
X85490500Y-122607500D01*
X85490500Y-122702500D01*
X85485730Y-122799586D01*
X85447849Y-122990027D01*
X85373543Y-123169418D01*
X85265667Y-123330867D01*
X85128367Y-123468167D01*
X84966918Y-123576043D01*
X84787527Y-123650349D01*
X84597086Y-123688230D01*
X84402914Y-123688230D01*
X84212473Y-123650349D01*
X84033082Y-123576043D01*
X83871633Y-123468167D01*
X83734333Y-123330867D01*
X83626457Y-123169418D01*
X83552151Y-122990027D01*
X83514270Y-122799586D01*
X83509500Y-122702500D01*
X83509500Y-122607500D01*
X83514270Y-122510414D01*
X83552151Y-122319973D01*
X83626457Y-122140582D01*
X83734333Y-121979133D01*
X83871633Y-121841833D01*
X84033082Y-121733957D01*
X84212473Y-121659651D01*
X84402914Y-121621770D01*
X84597086Y-121621770D01*
X84787527Y-121659651D01*
G37*
G36*
X87327527Y-121659651D02*
G01*
X87506918Y-121733957D01*
X87668367Y-121841833D01*
X87805667Y-121979133D01*
X87913543Y-122140582D01*
X87987849Y-122319973D01*
X88025730Y-122510414D01*
X88030500Y-122607500D01*
X88030500Y-122702500D01*
X88025730Y-122799586D01*
X87987849Y-122990027D01*
X87913543Y-123169418D01*
X87805667Y-123330867D01*
X87668367Y-123468167D01*
X87506918Y-123576043D01*
X87327527Y-123650349D01*
X87137086Y-123688230D01*
X86942914Y-123688230D01*
X86752473Y-123650349D01*
X86573082Y-123576043D01*
X86411633Y-123468167D01*
X86274333Y-123330867D01*
X86166457Y-123169418D01*
X86092151Y-122990027D01*
X86054270Y-122799586D01*
X86049500Y-122702500D01*
X86049500Y-122607500D01*
X86054270Y-122510414D01*
X86092151Y-122319973D01*
X86166457Y-122140582D01*
X86274333Y-121979133D01*
X86411633Y-121841833D01*
X86573082Y-121733957D01*
X86752473Y-121659651D01*
X86942914Y-121621770D01*
X87137086Y-121621770D01*
X87327527Y-121659651D01*
G37*
G36*
X128507042Y-121557393D02*
G01*
X128519370Y-121565630D01*
X128527607Y-121577958D01*
X128530500Y-121592500D01*
X128530500Y-123592500D01*
X128527607Y-123607042D01*
X128519370Y-123619370D01*
X128507042Y-123627607D01*
X128492500Y-123630500D01*
X126587500Y-123630500D01*
X126572958Y-123627607D01*
X126560630Y-123619370D01*
X126552393Y-123607042D01*
X126549500Y-123592500D01*
X126549500Y-121592500D01*
X126552393Y-121577958D01*
X126560630Y-121565630D01*
X126572958Y-121557393D01*
X126587500Y-121554500D01*
X128492500Y-121554500D01*
X128507042Y-121557393D01*
G37*
G36*
X122747527Y-121597151D02*
G01*
X122926918Y-121671457D01*
X123088367Y-121779333D01*
X123225667Y-121916633D01*
X123333543Y-122078082D01*
X123407849Y-122257473D01*
X123445730Y-122447914D01*
X123450500Y-122545000D01*
X123450500Y-122640000D01*
X123445730Y-122737086D01*
X123407849Y-122927527D01*
X123333543Y-123106918D01*
X123225667Y-123268367D01*
X123088367Y-123405667D01*
X122926918Y-123513543D01*
X122747527Y-123587849D01*
X122557086Y-123625730D01*
X122362914Y-123625730D01*
X122172473Y-123587849D01*
X121993082Y-123513543D01*
X121831633Y-123405667D01*
X121694333Y-123268367D01*
X121586457Y-123106918D01*
X121512151Y-122927527D01*
X121474270Y-122737086D01*
X121469500Y-122640000D01*
X121469500Y-122545000D01*
X121474270Y-122447914D01*
X121512151Y-122257473D01*
X121586457Y-122078082D01*
X121694333Y-121916633D01*
X121831633Y-121779333D01*
X121993082Y-121671457D01*
X122172473Y-121597151D01*
X122362914Y-121559270D01*
X122557086Y-121559270D01*
X122747527Y-121597151D01*
G37*
G36*
X125287527Y-121597151D02*
G01*
X125466918Y-121671457D01*
X125628367Y-121779333D01*
X125765667Y-121916633D01*
X125873543Y-122078082D01*
X125947849Y-122257473D01*
X125985730Y-122447914D01*
X125990500Y-122545000D01*
X125990500Y-122640000D01*
X125985730Y-122737086D01*
X125947849Y-122927527D01*
X125873543Y-123106918D01*
X125765667Y-123268367D01*
X125628367Y-123405667D01*
X125466918Y-123513543D01*
X125287527Y-123587849D01*
X125097086Y-123625730D01*
X124902914Y-123625730D01*
X124712473Y-123587849D01*
X124533082Y-123513543D01*
X124371633Y-123405667D01*
X124234333Y-123268367D01*
X124126457Y-123106918D01*
X124052151Y-122927527D01*
X124014270Y-122737086D01*
X124009500Y-122640000D01*
X124009500Y-122545000D01*
X124014270Y-122447914D01*
X124052151Y-122257473D01*
X124126457Y-122078082D01*
X124234333Y-121916633D01*
X124371633Y-121779333D01*
X124533082Y-121671457D01*
X124712473Y-121597151D01*
X124902914Y-121559270D01*
X125097086Y-121559270D01*
X125287527Y-121597151D01*
G37*
G36*
X132858956Y-115503015D02*
G01*
X133019000Y-115574271D01*
X133160731Y-115677245D01*
X133277956Y-115807436D01*
X133365551Y-115959155D01*
X133419688Y-116125770D01*
X133438000Y-116300000D01*
X133419688Y-116474230D01*
X133365551Y-116640845D01*
X133277956Y-116792564D01*
X133160731Y-116922755D01*
X133019000Y-117025729D01*
X132858956Y-117096985D01*
X132687595Y-117133409D01*
X132512405Y-117133409D01*
X132341044Y-117096985D01*
X132181000Y-117025729D01*
X132039269Y-116922755D01*
X131922044Y-116792564D01*
X131834449Y-116640845D01*
X131780312Y-116474230D01*
X131762000Y-116300000D01*
X131780312Y-116125770D01*
X131834449Y-115959155D01*
X131922044Y-115807436D01*
X132039269Y-115677245D01*
X132181000Y-115574271D01*
X132341044Y-115503015D01*
X132512405Y-115466591D01*
X132687595Y-115466591D01*
X132858956Y-115503015D01*
G37*
G36*
X137858956Y-115503015D02*
G01*
X138019000Y-115574271D01*
X138160731Y-115677245D01*
X138277956Y-115807436D01*
X138365551Y-115959155D01*
X138419688Y-116125770D01*
X138438000Y-116300000D01*
X138419688Y-116474230D01*
X138365551Y-116640845D01*
X138277956Y-116792564D01*
X138160731Y-116922755D01*
X138019000Y-117025729D01*
X137858956Y-117096985D01*
X137687595Y-117133409D01*
X137512405Y-117133409D01*
X137341044Y-117096985D01*
X137181000Y-117025729D01*
X137039269Y-116922755D01*
X136922044Y-116792564D01*
X136834449Y-116640845D01*
X136780312Y-116474230D01*
X136762000Y-116300000D01*
X136780312Y-116125770D01*
X136834449Y-115959155D01*
X136922044Y-115807436D01*
X137039269Y-115677245D01*
X137181000Y-115574271D01*
X137341044Y-115503015D01*
X137512405Y-115466591D01*
X137687595Y-115466591D01*
X137858956Y-115503015D01*
G37*
G36*
X44364542Y-114004893D02*
G01*
X44376870Y-114013130D01*
X44385107Y-114025458D01*
X44388000Y-114040000D01*
X44388000Y-115740000D01*
X44385107Y-115754542D01*
X44376870Y-115766870D01*
X44364542Y-115775107D01*
X44350000Y-115778000D01*
X42650000Y-115778000D01*
X42635458Y-115775107D01*
X42623130Y-115766870D01*
X42614893Y-115754542D01*
X42612000Y-115740000D01*
X42612000Y-114040000D01*
X42614893Y-114025458D01*
X42623130Y-114013130D01*
X42635458Y-114004893D01*
X42650000Y-114002000D01*
X44350000Y-114002000D01*
X44364542Y-114004893D01*
G37*
G36*
X81439245Y-112680332D02*
G01*
X81569000Y-112734078D01*
X81680423Y-112819577D01*
X81765922Y-112931000D01*
X81819668Y-113060755D01*
X81838000Y-113200000D01*
X81819668Y-113339245D01*
X81765922Y-113469000D01*
X81680423Y-113580423D01*
X81569000Y-113665922D01*
X81439245Y-113719668D01*
X81300000Y-113738000D01*
X81160755Y-113719668D01*
X81031000Y-113665922D01*
X80919577Y-113580423D01*
X80834078Y-113469000D01*
X80780332Y-113339245D01*
X80762000Y-113200000D01*
X80780332Y-113060755D01*
X80834078Y-112931000D01*
X80919577Y-112819577D01*
X81031000Y-112734078D01*
X81160755Y-112680332D01*
X81300000Y-112662000D01*
X81439245Y-112680332D01*
G37*
G36*
X43774407Y-111505462D02*
G01*
X43944000Y-111580969D01*
X44094188Y-111690087D01*
X44218407Y-111828047D01*
X44311228Y-111988818D01*
X44368595Y-112165374D01*
X44388000Y-112350000D01*
X44368595Y-112534626D01*
X44311228Y-112711182D01*
X44218407Y-112871953D01*
X44094188Y-113009913D01*
X43944000Y-113119031D01*
X43774407Y-113194538D01*
X43592821Y-113233135D01*
X43407179Y-113233135D01*
X43225593Y-113194538D01*
X43056000Y-113119031D01*
X42905812Y-113009913D01*
X42781593Y-112871953D01*
X42688772Y-112711182D01*
X42631405Y-112534626D01*
X42612000Y-112350000D01*
X42631405Y-112165374D01*
X42688772Y-111988818D01*
X42781593Y-111828047D01*
X42905812Y-111690087D01*
X43056000Y-111580969D01*
X43225593Y-111505462D01*
X43407179Y-111466865D01*
X43592821Y-111466865D01*
X43774407Y-111505462D01*
G37*
G36*
X43774407Y-108965462D02*
G01*
X43944000Y-109040969D01*
X44094188Y-109150087D01*
X44218407Y-109288047D01*
X44311228Y-109448818D01*
X44368595Y-109625374D01*
X44388000Y-109810000D01*
X44368595Y-109994626D01*
X44311228Y-110171182D01*
X44218407Y-110331953D01*
X44094188Y-110469913D01*
X43944000Y-110579031D01*
X43774407Y-110654538D01*
X43592821Y-110693135D01*
X43407179Y-110693135D01*
X43225593Y-110654538D01*
X43056000Y-110579031D01*
X42905812Y-110469913D01*
X42781593Y-110331953D01*
X42688772Y-110171182D01*
X42631405Y-109994626D01*
X42612000Y-109810000D01*
X42631405Y-109625374D01*
X42688772Y-109448818D01*
X42781593Y-109288047D01*
X42905812Y-109150087D01*
X43056000Y-109040969D01*
X43225593Y-108965462D01*
X43407179Y-108926865D01*
X43592821Y-108926865D01*
X43774407Y-108965462D01*
G37*
G36*
X43774407Y-106425462D02*
G01*
X43944000Y-106500969D01*
X44094188Y-106610087D01*
X44218407Y-106748047D01*
X44311228Y-106908818D01*
X44368595Y-107085374D01*
X44388000Y-107270000D01*
X44368595Y-107454626D01*
X44311228Y-107631182D01*
X44218407Y-107791953D01*
X44094188Y-107929913D01*
X43944000Y-108039031D01*
X43774407Y-108114538D01*
X43592821Y-108153135D01*
X43407179Y-108153135D01*
X43225593Y-108114538D01*
X43056000Y-108039031D01*
X42905812Y-107929913D01*
X42781593Y-107791953D01*
X42688772Y-107631182D01*
X42631405Y-107454626D01*
X42612000Y-107270000D01*
X42631405Y-107085374D01*
X42688772Y-106908818D01*
X42781593Y-106748047D01*
X42905812Y-106610087D01*
X43056000Y-106500969D01*
X43225593Y-106425462D01*
X43407179Y-106386865D01*
X43592821Y-106386865D01*
X43774407Y-106425462D01*
G37*
G36*
X67639245Y-105180332D02*
G01*
X67769000Y-105234078D01*
X67880423Y-105319577D01*
X67965922Y-105431000D01*
X68019668Y-105560755D01*
X68038000Y-105700000D01*
X68019668Y-105839245D01*
X67965922Y-105969000D01*
X67880423Y-106080423D01*
X67769000Y-106165922D01*
X67639245Y-106219668D01*
X67500000Y-106238000D01*
X67360755Y-106219668D01*
X67231000Y-106165922D01*
X67119577Y-106080423D01*
X67034078Y-105969000D01*
X66980332Y-105839245D01*
X66962000Y-105700000D01*
X66980332Y-105560755D01*
X67034078Y-105431000D01*
X67119577Y-105319577D01*
X67231000Y-105234078D01*
X67360755Y-105180332D01*
X67500000Y-105162000D01*
X67639245Y-105180332D01*
G37*
G36*
X132758956Y-104503015D02*
G01*
X132919000Y-104574271D01*
X133060731Y-104677245D01*
X133177956Y-104807436D01*
X133265551Y-104959155D01*
X133319688Y-105125770D01*
X133338000Y-105300000D01*
X133319688Y-105474230D01*
X133265551Y-105640845D01*
X133177956Y-105792564D01*
X133060731Y-105922755D01*
X132919000Y-106025729D01*
X132758956Y-106096985D01*
X132587595Y-106133409D01*
X132412405Y-106133409D01*
X132241044Y-106096985D01*
X132081000Y-106025729D01*
X131939269Y-105922755D01*
X131822044Y-105792564D01*
X131734449Y-105640845D01*
X131680312Y-105474230D01*
X131662000Y-105300000D01*
X131680312Y-105125770D01*
X131734449Y-104959155D01*
X131822044Y-104807436D01*
X131939269Y-104677245D01*
X132081000Y-104574271D01*
X132241044Y-104503015D01*
X132412405Y-104466591D01*
X132587595Y-104466591D01*
X132758956Y-104503015D01*
G37*
G36*
X137758956Y-104503015D02*
G01*
X137919000Y-104574271D01*
X138060731Y-104677245D01*
X138177956Y-104807436D01*
X138265551Y-104959155D01*
X138319688Y-105125770D01*
X138338000Y-105300000D01*
X138319688Y-105474230D01*
X138265551Y-105640845D01*
X138177956Y-105792564D01*
X138060731Y-105922755D01*
X137919000Y-106025729D01*
X137758956Y-106096985D01*
X137587595Y-106133409D01*
X137412405Y-106133409D01*
X137241044Y-106096985D01*
X137081000Y-106025729D01*
X136939269Y-105922755D01*
X136822044Y-105792564D01*
X136734449Y-105640845D01*
X136680312Y-105474230D01*
X136662000Y-105300000D01*
X136680312Y-105125770D01*
X136734449Y-104959155D01*
X136822044Y-104807436D01*
X136939269Y-104677245D01*
X137081000Y-104574271D01*
X137241044Y-104503015D01*
X137412405Y-104466591D01*
X137587595Y-104466591D01*
X137758956Y-104503015D01*
G37*
G36*
X43774407Y-103885462D02*
G01*
X43944000Y-103960969D01*
X44094188Y-104070087D01*
X44218407Y-104208047D01*
X44311228Y-104368818D01*
X44368595Y-104545374D01*
X44388000Y-104730000D01*
X44368595Y-104914626D01*
X44311228Y-105091182D01*
X44218407Y-105251953D01*
X44094188Y-105389913D01*
X43944000Y-105499031D01*
X43774407Y-105574538D01*
X43592821Y-105613135D01*
X43407179Y-105613135D01*
X43225593Y-105574538D01*
X43056000Y-105499031D01*
X42905812Y-105389913D01*
X42781593Y-105251953D01*
X42688772Y-105091182D01*
X42631405Y-104914626D01*
X42612000Y-104730000D01*
X42631405Y-104545374D01*
X42688772Y-104368818D01*
X42781593Y-104208047D01*
X42905812Y-104070087D01*
X43056000Y-103960969D01*
X43225593Y-103885462D01*
X43407179Y-103846865D01*
X43592821Y-103846865D01*
X43774407Y-103885462D01*
G37*
G36*
X126039245Y-103430332D02*
G01*
X126169000Y-103484078D01*
X126280423Y-103569577D01*
X126365922Y-103681000D01*
X126419668Y-103810755D01*
X126438000Y-103950000D01*
X126419668Y-104089245D01*
X126365922Y-104219000D01*
X126280423Y-104330423D01*
X126169000Y-104415922D01*
X126039245Y-104469668D01*
X125900000Y-104488000D01*
X125760755Y-104469668D01*
X125631000Y-104415922D01*
X125519577Y-104330423D01*
X125434078Y-104219000D01*
X125380332Y-104089245D01*
X125362000Y-103950000D01*
X125380332Y-103810755D01*
X125434078Y-103681000D01*
X125519577Y-103569577D01*
X125631000Y-103484078D01*
X125760755Y-103430332D01*
X125900000Y-103412000D01*
X126039245Y-103430332D01*
G37*
G36*
X43774407Y-101345462D02*
G01*
X43944000Y-101420969D01*
X44094188Y-101530087D01*
X44218407Y-101668047D01*
X44311228Y-101828818D01*
X44368595Y-102005374D01*
X44388000Y-102190000D01*
X44368595Y-102374626D01*
X44311228Y-102551182D01*
X44218407Y-102711953D01*
X44094188Y-102849913D01*
X43944000Y-102959031D01*
X43774407Y-103034538D01*
X43592821Y-103073135D01*
X43407179Y-103073135D01*
X43225593Y-103034538D01*
X43056000Y-102959031D01*
X42905812Y-102849913D01*
X42781593Y-102711953D01*
X42688772Y-102551182D01*
X42631405Y-102374626D01*
X42612000Y-102190000D01*
X42631405Y-102005374D01*
X42688772Y-101828818D01*
X42781593Y-101668047D01*
X42905812Y-101530087D01*
X43056000Y-101420969D01*
X43225593Y-101345462D01*
X43407179Y-101306865D01*
X43592821Y-101306865D01*
X43774407Y-101345462D01*
G37*
G36*
X83089245Y-101780332D02*
G01*
X83219000Y-101834078D01*
X83330423Y-101919577D01*
X83415922Y-102031000D01*
X83469668Y-102160755D01*
X83488000Y-102300000D01*
X83469668Y-102439245D01*
X83415922Y-102569000D01*
X83330423Y-102680423D01*
X83219000Y-102765922D01*
X83089245Y-102819668D01*
X82950000Y-102838000D01*
X82810755Y-102819668D01*
X82681000Y-102765922D01*
X82569577Y-102680423D01*
X82484078Y-102569000D01*
X82430332Y-102439245D01*
X82412000Y-102300000D01*
X82430332Y-102160755D01*
X82484078Y-102031000D01*
X82569577Y-101919577D01*
X82681000Y-101834078D01*
X82810755Y-101780332D01*
X82950000Y-101762000D01*
X83089245Y-101780332D01*
G37*
G36*
X56689245Y-99830332D02*
G01*
X56819000Y-99884078D01*
X56930423Y-99969577D01*
X57015922Y-100081000D01*
X57069668Y-100210755D01*
X57088000Y-100350000D01*
X57069668Y-100489245D01*
X57015922Y-100619000D01*
X56930423Y-100730423D01*
X56819000Y-100815922D01*
X56689245Y-100869668D01*
X56550000Y-100888000D01*
X56410755Y-100869668D01*
X56281000Y-100815922D01*
X56169577Y-100730423D01*
X56084078Y-100619000D01*
X56030332Y-100489245D01*
X56012000Y-100350000D01*
X56030332Y-100210755D01*
X56084078Y-100081000D01*
X56169577Y-99969577D01*
X56281000Y-99884078D01*
X56410755Y-99830332D01*
X56550000Y-99812000D01*
X56689245Y-99830332D01*
G37*
G36*
X129339245Y-99530332D02*
G01*
X129469000Y-99584078D01*
X129580423Y-99669577D01*
X129665922Y-99781000D01*
X129719668Y-99910755D01*
X129738000Y-100050000D01*
X129719668Y-100189245D01*
X129665922Y-100319000D01*
X129580423Y-100430423D01*
X129469000Y-100515922D01*
X129339245Y-100569668D01*
X129200000Y-100588000D01*
X129060755Y-100569668D01*
X128931000Y-100515922D01*
X128819577Y-100430423D01*
X128734078Y-100319000D01*
X128680332Y-100189245D01*
X128662000Y-100050000D01*
X128680332Y-99910755D01*
X128734078Y-99781000D01*
X128819577Y-99669577D01*
X128931000Y-99584078D01*
X129060755Y-99530332D01*
X129200000Y-99512000D01*
X129339245Y-99530332D01*
G37*
G36*
X43774407Y-98805462D02*
G01*
X43944000Y-98880969D01*
X44094188Y-98990087D01*
X44218407Y-99128047D01*
X44311228Y-99288818D01*
X44368595Y-99465374D01*
X44388000Y-99650000D01*
X44368595Y-99834626D01*
X44311228Y-100011182D01*
X44218407Y-100171953D01*
X44094188Y-100309913D01*
X43944000Y-100419031D01*
X43774407Y-100494538D01*
X43592821Y-100533135D01*
X43407179Y-100533135D01*
X43225593Y-100494538D01*
X43056000Y-100419031D01*
X42905812Y-100309913D01*
X42781593Y-100171953D01*
X42688772Y-100011182D01*
X42631405Y-99834626D01*
X42612000Y-99650000D01*
X42631405Y-99465374D01*
X42688772Y-99288818D01*
X42781593Y-99128047D01*
X42905812Y-98990087D01*
X43056000Y-98880969D01*
X43225593Y-98805462D01*
X43407179Y-98766865D01*
X43592821Y-98766865D01*
X43774407Y-98805462D01*
G37*
G36*
X59889245Y-98580332D02*
G01*
X60019000Y-98634078D01*
X60130423Y-98719577D01*
X60215922Y-98831000D01*
X60269668Y-98960755D01*
X60288000Y-99100000D01*
X60269668Y-99239245D01*
X60215922Y-99369000D01*
X60130423Y-99480423D01*
X60019000Y-99565922D01*
X59889245Y-99619668D01*
X59750000Y-99638000D01*
X59610755Y-99619668D01*
X59481000Y-99565922D01*
X59369577Y-99480423D01*
X59284078Y-99369000D01*
X59230332Y-99239245D01*
X59212000Y-99100000D01*
X59230332Y-98960755D01*
X59284078Y-98831000D01*
X59369577Y-98719577D01*
X59481000Y-98634078D01*
X59610755Y-98580332D01*
X59750000Y-98562000D01*
X59889245Y-98580332D01*
G37*
G36*
X137961105Y-96744152D02*
G01*
X138114132Y-96797699D01*
X138251407Y-96883954D01*
X138366046Y-96998593D01*
X138452301Y-97135868D01*
X138505848Y-97288895D01*
X138524000Y-97450000D01*
X138505848Y-97611105D01*
X138452301Y-97764132D01*
X138366046Y-97901407D01*
X138251407Y-98016046D01*
X138114132Y-98102301D01*
X137961105Y-98155848D01*
X137800000Y-98174000D01*
X137638895Y-98155848D01*
X137485868Y-98102301D01*
X137348593Y-98016046D01*
X137233954Y-97901407D01*
X137147699Y-97764132D01*
X137094152Y-97611105D01*
X137076000Y-97450000D01*
X137094152Y-97288895D01*
X137147699Y-97135868D01*
X137233954Y-96998593D01*
X137348593Y-96883954D01*
X137485868Y-96797699D01*
X137638895Y-96744152D01*
X137800000Y-96726000D01*
X137961105Y-96744152D01*
G37*
G36*
X43774407Y-96265462D02*
G01*
X43944000Y-96340969D01*
X44094188Y-96450087D01*
X44218407Y-96588047D01*
X44311228Y-96748818D01*
X44368595Y-96925374D01*
X44388000Y-97110000D01*
X44368595Y-97294626D01*
X44311228Y-97471182D01*
X44218407Y-97631953D01*
X44094188Y-97769913D01*
X43944000Y-97879031D01*
X43774407Y-97954538D01*
X43592821Y-97993135D01*
X43407179Y-97993135D01*
X43225593Y-97954538D01*
X43056000Y-97879031D01*
X42905812Y-97769913D01*
X42781593Y-97631953D01*
X42688772Y-97471182D01*
X42631405Y-97294626D01*
X42612000Y-97110000D01*
X42631405Y-96925374D01*
X42688772Y-96748818D01*
X42781593Y-96588047D01*
X42905812Y-96450087D01*
X43056000Y-96340969D01*
X43225593Y-96265462D01*
X43407179Y-96226865D01*
X43592821Y-96226865D01*
X43774407Y-96265462D01*
G37*
G36*
X97639245Y-94530332D02*
G01*
X97769000Y-94584078D01*
X97880423Y-94669577D01*
X97965922Y-94781000D01*
X98019668Y-94910755D01*
X98038000Y-95050000D01*
X98019668Y-95189245D01*
X97965922Y-95319000D01*
X97880423Y-95430423D01*
X97769000Y-95515922D01*
X97639245Y-95569668D01*
X97500000Y-95588000D01*
X97360755Y-95569668D01*
X97231000Y-95515922D01*
X97119577Y-95430423D01*
X97034078Y-95319000D01*
X96980332Y-95189245D01*
X96962000Y-95050000D01*
X96980332Y-94910755D01*
X97034078Y-94781000D01*
X97119577Y-94669577D01*
X97231000Y-94584078D01*
X97360755Y-94530332D01*
X97500000Y-94512000D01*
X97639245Y-94530332D01*
G37*
G36*
X115839245Y-94180332D02*
G01*
X115969000Y-94234078D01*
X116080423Y-94319577D01*
X116165922Y-94431000D01*
X116219668Y-94560755D01*
X116238000Y-94700000D01*
X116219668Y-94839245D01*
X116165922Y-94969000D01*
X116080423Y-95080423D01*
X115969000Y-95165922D01*
X115839245Y-95219668D01*
X115700000Y-95238000D01*
X115560755Y-95219668D01*
X115431000Y-95165922D01*
X115319577Y-95080423D01*
X115234078Y-94969000D01*
X115180332Y-94839245D01*
X115162000Y-94700000D01*
X115180332Y-94560755D01*
X115234078Y-94431000D01*
X115319577Y-94319577D01*
X115431000Y-94234078D01*
X115560755Y-94180332D01*
X115700000Y-94162000D01*
X115839245Y-94180332D01*
G37*
G36*
X118039245Y-94180332D02*
G01*
X118169000Y-94234078D01*
X118280423Y-94319577D01*
X118365922Y-94431000D01*
X118419668Y-94560755D01*
X118438000Y-94700000D01*
X118419668Y-94839245D01*
X118365922Y-94969000D01*
X118280423Y-95080423D01*
X118169000Y-95165922D01*
X118039245Y-95219668D01*
X117900000Y-95238000D01*
X117760755Y-95219668D01*
X117631000Y-95165922D01*
X117519577Y-95080423D01*
X117434078Y-94969000D01*
X117380332Y-94839245D01*
X117362000Y-94700000D01*
X117380332Y-94560755D01*
X117434078Y-94431000D01*
X117519577Y-94319577D01*
X117631000Y-94234078D01*
X117760755Y-94180332D01*
X117900000Y-94162000D01*
X118039245Y-94180332D01*
G37*
G36*
X106789245Y-94030332D02*
G01*
X106919000Y-94084078D01*
X107030423Y-94169577D01*
X107115922Y-94281000D01*
X107169668Y-94410755D01*
X107188000Y-94550000D01*
X107169668Y-94689245D01*
X107115922Y-94819000D01*
X107030423Y-94930423D01*
X106919000Y-95015922D01*
X106789245Y-95069668D01*
X106650000Y-95088000D01*
X106510755Y-95069668D01*
X106381000Y-95015922D01*
X106269577Y-94930423D01*
X106184078Y-94819000D01*
X106130332Y-94689245D01*
X106112000Y-94550000D01*
X106130332Y-94410755D01*
X106184078Y-94281000D01*
X106269577Y-94169577D01*
X106381000Y-94084078D01*
X106510755Y-94030332D01*
X106650000Y-94012000D01*
X106789245Y-94030332D01*
G37*
G36*
X109389245Y-93780332D02*
G01*
X109519000Y-93834078D01*
X109630423Y-93919577D01*
X109715922Y-94031000D01*
X109769668Y-94160755D01*
X109788000Y-94300000D01*
X109769668Y-94439245D01*
X109715922Y-94569000D01*
X109630423Y-94680423D01*
X109519000Y-94765922D01*
X109389245Y-94819668D01*
X109250000Y-94838000D01*
X109110755Y-94819668D01*
X108981000Y-94765922D01*
X108869577Y-94680423D01*
X108784078Y-94569000D01*
X108730332Y-94439245D01*
X108712000Y-94300000D01*
X108730332Y-94160755D01*
X108784078Y-94031000D01*
X108869577Y-93919577D01*
X108981000Y-93834078D01*
X109110755Y-93780332D01*
X109250000Y-93762000D01*
X109389245Y-93780332D01*
G37*
G36*
X100039245Y-92680332D02*
G01*
X100169000Y-92734078D01*
X100280423Y-92819577D01*
X100365922Y-92931000D01*
X100419668Y-93060755D01*
X100438000Y-93200000D01*
X100419668Y-93339245D01*
X100365922Y-93469000D01*
X100280423Y-93580423D01*
X100169000Y-93665922D01*
X100039245Y-93719668D01*
X99900000Y-93738000D01*
X99760755Y-93719668D01*
X99631000Y-93665922D01*
X99519577Y-93580423D01*
X99434078Y-93469000D01*
X99380332Y-93339245D01*
X99362000Y-93200000D01*
X99380332Y-93060755D01*
X99434078Y-92931000D01*
X99519577Y-92819577D01*
X99631000Y-92734078D01*
X99760755Y-92680332D01*
X99900000Y-92662000D01*
X100039245Y-92680332D01*
G37*
G36*
X52789245Y-92230332D02*
G01*
X52919000Y-92284078D01*
X53030423Y-92369577D01*
X53115922Y-92481000D01*
X53169668Y-92610755D01*
X53188000Y-92750000D01*
X53169668Y-92889245D01*
X53115922Y-93019000D01*
X53030423Y-93130423D01*
X52919000Y-93215922D01*
X52789245Y-93269668D01*
X52650000Y-93288000D01*
X52510755Y-93269668D01*
X52381000Y-93215922D01*
X52269577Y-93130423D01*
X52184078Y-93019000D01*
X52130332Y-92889245D01*
X52112000Y-92750000D01*
X52130332Y-92610755D01*
X52184078Y-92481000D01*
X52269577Y-92369577D01*
X52381000Y-92284078D01*
X52510755Y-92230332D01*
X52650000Y-92212000D01*
X52789245Y-92230332D01*
G37*
G36*
X46061105Y-91044152D02*
G01*
X46214132Y-91097699D01*
X46351407Y-91183954D01*
X46466046Y-91298593D01*
X46552301Y-91435868D01*
X46605848Y-91588895D01*
X46624000Y-91750000D01*
X46605848Y-91911105D01*
X46552301Y-92064132D01*
X46466046Y-92201407D01*
X46351407Y-92316046D01*
X46214132Y-92402301D01*
X46061105Y-92455848D01*
X45900000Y-92474000D01*
X45738895Y-92455848D01*
X45585868Y-92402301D01*
X45448593Y-92316046D01*
X45333954Y-92201407D01*
X45247699Y-92064132D01*
X45194152Y-91911105D01*
X45176000Y-91750000D01*
X45194152Y-91588895D01*
X45247699Y-91435868D01*
X45333954Y-91298593D01*
X45448593Y-91183954D01*
X45585868Y-91097699D01*
X45738895Y-91044152D01*
X45900000Y-91026000D01*
X46061105Y-91044152D01*
G37*
G36*
X53985884Y-86782953D02*
G01*
X54107514Y-86853176D01*
X54206824Y-86952486D01*
X54277047Y-87074116D01*
X54313397Y-87209777D01*
X54318000Y-87280000D01*
X54318000Y-88380000D01*
X54313397Y-88450223D01*
X54277047Y-88585884D01*
X54206824Y-88707514D01*
X54107514Y-88806824D01*
X53985884Y-88877047D01*
X53850223Y-88913397D01*
X53709777Y-88913397D01*
X53574116Y-88877047D01*
X53452486Y-88806824D01*
X53353176Y-88707514D01*
X53282953Y-88585884D01*
X53246603Y-88450223D01*
X53242000Y-88380000D01*
X53242000Y-87280000D01*
X53246603Y-87209777D01*
X53282953Y-87074116D01*
X53353176Y-86952486D01*
X53452486Y-86853176D01*
X53574116Y-86782953D01*
X53709777Y-86746603D01*
X53850223Y-86746603D01*
X53985884Y-86782953D01*
G37*
G36*
X62625884Y-86782953D02*
G01*
X62747514Y-86853176D01*
X62846824Y-86952486D01*
X62917047Y-87074116D01*
X62953397Y-87209777D01*
X62958000Y-87280000D01*
X62958000Y-88380000D01*
X62953397Y-88450223D01*
X62917047Y-88585884D01*
X62846824Y-88707514D01*
X62747514Y-88806824D01*
X62625884Y-88877047D01*
X62490223Y-88913397D01*
X62349777Y-88913397D01*
X62214116Y-88877047D01*
X62092486Y-88806824D01*
X61993176Y-88707514D01*
X61922953Y-88585884D01*
X61886603Y-88450223D01*
X61882000Y-88380000D01*
X61882000Y-87280000D01*
X61886603Y-87209777D01*
X61922953Y-87074116D01*
X61993176Y-86952486D01*
X62092486Y-86853176D01*
X62214116Y-86782953D01*
X62349777Y-86746603D01*
X62490223Y-86746603D01*
X62625884Y-86782953D01*
G37*
G36*
X55322173Y-86954766D02*
G01*
X55423366Y-87006327D01*
X55503673Y-87086634D01*
X55555234Y-87187827D01*
X55573000Y-87300000D01*
X55555234Y-87412173D01*
X55503673Y-87513366D01*
X55423366Y-87593673D01*
X55322173Y-87645234D01*
X55210000Y-87663000D01*
X55097827Y-87645234D01*
X54996634Y-87593673D01*
X54916327Y-87513366D01*
X54864766Y-87412173D01*
X54847000Y-87300000D01*
X54864766Y-87187827D01*
X54916327Y-87086634D01*
X54996634Y-87006327D01*
X55097827Y-86954766D01*
X55210000Y-86937000D01*
X55322173Y-86954766D01*
G37*
G36*
X61102173Y-86954766D02*
G01*
X61203366Y-87006327D01*
X61283673Y-87086634D01*
X61335234Y-87187827D01*
X61353000Y-87300000D01*
X61335234Y-87412173D01*
X61283673Y-87513366D01*
X61203366Y-87593673D01*
X61102173Y-87645234D01*
X60990000Y-87663000D01*
X60877827Y-87645234D01*
X60776634Y-87593673D01*
X60696327Y-87513366D01*
X60644766Y-87412173D01*
X60627000Y-87300000D01*
X60644766Y-87187827D01*
X60696327Y-87086634D01*
X60776634Y-87006327D01*
X60877827Y-86954766D01*
X60990000Y-86937000D01*
X61102173Y-86954766D01*
G37*
G36*
X53985884Y-82852953D02*
G01*
X54107514Y-82923176D01*
X54206824Y-83022486D01*
X54277047Y-83144116D01*
X54313397Y-83279777D01*
X54318000Y-83350000D01*
X54318000Y-83950000D01*
X54313397Y-84020223D01*
X54277047Y-84155884D01*
X54206824Y-84277514D01*
X54107514Y-84376824D01*
X53985884Y-84447047D01*
X53850223Y-84483397D01*
X53709777Y-84483397D01*
X53574116Y-84447047D01*
X53452486Y-84376824D01*
X53353176Y-84277514D01*
X53282953Y-84155884D01*
X53246603Y-84020223D01*
X53242000Y-83950000D01*
X53242000Y-83350000D01*
X53246603Y-83279777D01*
X53282953Y-83144116D01*
X53353176Y-83022486D01*
X53452486Y-82923176D01*
X53574116Y-82852953D01*
X53709777Y-82816603D01*
X53850223Y-82816603D01*
X53985884Y-82852953D01*
G37*
G36*
X62625884Y-82852953D02*
G01*
X62747514Y-82923176D01*
X62846824Y-83022486D01*
X62917047Y-83144116D01*
X62953397Y-83279777D01*
X62958000Y-83350000D01*
X62958000Y-83950000D01*
X62953397Y-84020223D01*
X62917047Y-84155884D01*
X62846824Y-84277514D01*
X62747514Y-84376824D01*
X62625884Y-84447047D01*
X62490223Y-84483397D01*
X62349777Y-84483397D01*
X62214116Y-84447047D01*
X62092486Y-84376824D01*
X61993176Y-84277514D01*
X61922953Y-84155884D01*
X61886603Y-84020223D01*
X61882000Y-83950000D01*
X61882000Y-83350000D01*
X61886603Y-83279777D01*
X61922953Y-83144116D01*
X61993176Y-83022486D01*
X62092486Y-82923176D01*
X62214116Y-82852953D01*
X62349777Y-82816603D01*
X62490223Y-82816603D01*
X62625884Y-82852953D01*
G37*
M02*
