%TF.GenerationSoftware,KiCad,Pcbnew,8.0.4-8.0.4-0~ubuntu22.04.1*%
%TF.CreationDate,2024-09-01T21:11:13+02:00*%
%TF.ProjectId,bldc_project,626c6463-5f70-4726-9f6a-6563742e6b69,rev?*%
%TF.SameCoordinates,Original*%
%TF.FileFunction,Drillmap*%
%TF.FilePolarity,Positive*%
%FSLAX45Y45*%
G04 Gerber Fmt 4.5, Leading zero omitted, Abs format (unit mm)*
G04 Created by KiCad (PCBNEW 8.0.4-8.0.4-0~ubuntu22.04.1) date 2024-09-01 21:11:13*
%MOMM*%
%LPD*%
G01*
G04 APERTURE LIST*
%ADD10C,0.100000*%
%ADD11C,0.200000*%
%ADD12C,0.110000*%
G04 APERTURE END LIST*
D10*
X4120000Y-8050000D02*
X14120000Y-8050000D01*
X14120000Y-14050000D01*
X4120000Y-14050000D01*
X4120000Y-8050000D01*
D11*
D10*
X4775000Y-11345000D02*
X4805000Y-11375000D01*
X4805000Y-11345000D02*
X4775000Y-11375000D01*
X4785000Y-11455000D02*
X4815000Y-11485000D01*
X4815000Y-11455000D02*
X4785000Y-11485000D01*
X4790000Y-11575000D02*
X4820000Y-11605000D01*
X4820000Y-11575000D02*
X4790000Y-11605000D01*
X4830000Y-11677500D02*
X4860000Y-11707500D01*
X4860000Y-11677500D02*
X4830000Y-11707500D01*
X4855000Y-12122500D02*
X4885000Y-12152500D01*
X4885000Y-12122500D02*
X4855000Y-12152500D01*
X4955000Y-11285000D02*
X4985000Y-11315000D01*
X4985000Y-11285000D02*
X4955000Y-11315000D01*
X4995000Y-11025000D02*
X5025000Y-11055000D01*
X5025000Y-11025000D02*
X4995000Y-11055000D01*
X5020000Y-10350000D02*
X5050000Y-10380000D01*
X5050000Y-10350000D02*
X5020000Y-10380000D01*
X5100000Y-11000000D02*
X5130000Y-11030000D01*
X5130000Y-11000000D02*
X5100000Y-11030000D01*
X5130000Y-11445000D02*
X5160000Y-11475000D01*
X5160000Y-11445000D02*
X5130000Y-11475000D01*
X5160000Y-11245000D02*
X5190000Y-11275000D01*
X5190000Y-11245000D02*
X5160000Y-11275000D01*
X5167500Y-12730000D02*
X5197500Y-12760000D01*
X5197500Y-12730000D02*
X5167500Y-12760000D01*
X5185000Y-10805000D02*
X5215000Y-10835000D01*
X5215000Y-10805000D02*
X5185000Y-10835000D01*
X5270000Y-10330000D02*
X5300000Y-10360000D01*
X5300000Y-10330000D02*
X5270000Y-10360000D01*
X5300000Y-11600000D02*
X5330000Y-11630000D01*
X5330000Y-11600000D02*
X5300000Y-11630000D01*
X5360000Y-10405000D02*
X5390000Y-10435000D01*
X5390000Y-10405000D02*
X5360000Y-10435000D01*
X5395000Y-10695000D02*
X5425000Y-10725000D01*
X5425000Y-10695000D02*
X5395000Y-10725000D01*
X5420000Y-12532500D02*
X5450000Y-12562500D01*
X5450000Y-12532500D02*
X5420000Y-12562500D01*
X5475000Y-10725000D02*
X5505000Y-10755000D01*
X5505000Y-10725000D02*
X5475000Y-10755000D01*
X5507500Y-12800000D02*
X5537500Y-12830000D01*
X5537500Y-12800000D02*
X5507500Y-12830000D01*
X5555000Y-9065000D02*
X5585000Y-9095000D01*
X5585000Y-9065000D02*
X5555000Y-9095000D01*
X5565000Y-9155000D02*
X5595000Y-9185000D01*
X5595000Y-9155000D02*
X5565000Y-9185000D01*
X5575000Y-10260000D02*
X5605000Y-10290000D01*
X5605000Y-10260000D02*
X5575000Y-10290000D01*
X5600353Y-11665353D02*
X5630353Y-11695353D01*
X5630353Y-11665353D02*
X5600353Y-11695353D01*
X5610000Y-10180000D02*
X5640000Y-10210000D01*
X5640000Y-10180000D02*
X5610000Y-10210000D01*
X5645000Y-9265000D02*
X5675000Y-9295000D01*
X5675000Y-9265000D02*
X5645000Y-9295000D01*
X5650000Y-10975000D02*
X5680000Y-11005000D01*
X5680000Y-10975000D02*
X5650000Y-11005000D01*
X5650000Y-11070000D02*
X5680000Y-11100000D01*
X5680000Y-11070000D02*
X5650000Y-11100000D01*
X5650000Y-11155000D02*
X5680000Y-11185000D01*
X5680000Y-11155000D02*
X5650000Y-11185000D01*
X5650000Y-11240000D02*
X5680000Y-11270000D01*
X5680000Y-11240000D02*
X5650000Y-11270000D01*
X5710000Y-10385000D02*
X5740000Y-10415000D01*
X5740000Y-10385000D02*
X5710000Y-10415000D01*
X5845000Y-12635000D02*
X5875000Y-12665000D01*
X5875000Y-12635000D02*
X5845000Y-12665000D01*
X5895000Y-9055000D02*
X5925000Y-9085000D01*
X5925000Y-9055000D02*
X5895000Y-9085000D01*
X5895000Y-9155000D02*
X5925000Y-9185000D01*
X5925000Y-9155000D02*
X5895000Y-9185000D01*
X5905000Y-10840000D02*
X5935000Y-10870000D01*
X5935000Y-10840000D02*
X5905000Y-10870000D01*
X5915000Y-9235000D02*
X5945000Y-9265000D01*
X5945000Y-9235000D02*
X5915000Y-9265000D01*
X6020000Y-10840000D02*
X6050000Y-10870000D01*
X6050000Y-10840000D02*
X6020000Y-10870000D01*
X6040000Y-11365000D02*
X6070000Y-11395000D01*
X6070000Y-11365000D02*
X6040000Y-11395000D01*
X6045000Y-11765000D02*
X6075000Y-11795000D01*
X6075000Y-11765000D02*
X6045000Y-11795000D01*
X6065000Y-10475000D02*
X6095000Y-10505000D01*
X6095000Y-10475000D02*
X6065000Y-10505000D01*
X6085000Y-10555000D02*
X6115000Y-10585000D01*
X6115000Y-10555000D02*
X6085000Y-10585000D01*
X6145000Y-11365000D02*
X6175000Y-11395000D01*
X6175000Y-11365000D02*
X6145000Y-11395000D01*
X6155000Y-10825000D02*
X6185000Y-10855000D01*
X6185000Y-10825000D02*
X6155000Y-10855000D01*
X6155000Y-11055000D02*
X6185000Y-11085000D01*
X6185000Y-11055000D02*
X6155000Y-11085000D01*
X6155000Y-11165000D02*
X6185000Y-11195000D01*
X6185000Y-11165000D02*
X6155000Y-11195000D01*
X6155000Y-11280000D02*
X6185000Y-11310000D01*
X6185000Y-11280000D02*
X6155000Y-11310000D01*
X6295000Y-11665000D02*
X6325000Y-11695000D01*
X6325000Y-11665000D02*
X6295000Y-11695000D01*
X6320000Y-10720000D02*
X6350000Y-10750000D01*
X6350000Y-10720000D02*
X6320000Y-10750000D01*
X6375000Y-11610000D02*
X6405000Y-11640000D01*
X6405000Y-11610000D02*
X6375000Y-11640000D01*
X6380000Y-11690000D02*
X6410000Y-11720000D01*
X6410000Y-11690000D02*
X6380000Y-11720000D01*
X6455000Y-10945000D02*
X6485000Y-10975000D01*
X6485000Y-10945000D02*
X6455000Y-10975000D01*
X6675000Y-11275000D02*
X6705000Y-11305000D01*
X6705000Y-11275000D02*
X6675000Y-11305000D01*
X6735000Y-11335000D02*
X6765000Y-11365000D01*
X6765000Y-11335000D02*
X6735000Y-11365000D01*
X6845000Y-11630000D02*
X6875000Y-11660000D01*
X6875000Y-11630000D02*
X6845000Y-11660000D01*
X6915000Y-10905000D02*
X6945000Y-10935000D01*
X6945000Y-10905000D02*
X6915000Y-10935000D01*
X6925000Y-11872500D02*
X6955000Y-11902500D01*
X6955000Y-11872500D02*
X6925000Y-11902500D01*
X6930000Y-11965000D02*
X6960000Y-11995000D01*
X6960000Y-11965000D02*
X6930000Y-11995000D01*
X6935000Y-13375000D02*
X6965000Y-13405000D01*
X6965000Y-13375000D02*
X6935000Y-13405000D01*
X7045000Y-12315000D02*
X7075000Y-12345000D01*
X7075000Y-12315000D02*
X7045000Y-12345000D01*
X7135073Y-11884926D02*
X7165073Y-11914926D01*
X7165073Y-11884926D02*
X7135073Y-11914926D01*
X7150000Y-12285000D02*
X7180000Y-12315000D01*
X7180000Y-12285000D02*
X7150000Y-12315000D01*
X7190000Y-12185000D02*
X7220000Y-12215000D01*
X7220000Y-12185000D02*
X7190000Y-12215000D01*
X7195000Y-11772500D02*
X7225000Y-11802500D01*
X7225000Y-11772500D02*
X7195000Y-11802500D01*
X7200753Y-13420000D02*
X7230753Y-13450000D01*
X7230753Y-13420000D02*
X7200753Y-13450000D01*
X7215000Y-12380000D02*
X7245000Y-12410000D01*
X7245000Y-12380000D02*
X7215000Y-12410000D01*
X7325000Y-13325000D02*
X7355000Y-13355000D01*
X7355000Y-13325000D02*
X7325000Y-13355000D01*
X7377500Y-11940000D02*
X7407500Y-11970000D01*
X7407500Y-11940000D02*
X7377500Y-11970000D01*
X7505000Y-11545000D02*
X7535000Y-11575000D01*
X7535000Y-11545000D02*
X7505000Y-11575000D01*
X7525000Y-13545000D02*
X7555000Y-13575000D01*
X7555000Y-13545000D02*
X7525000Y-13575000D01*
X7545000Y-11635000D02*
X7575000Y-11665000D01*
X7575000Y-11635000D02*
X7545000Y-11665000D01*
X7580000Y-11505000D02*
X7610000Y-11535000D01*
X7610000Y-11505000D02*
X7580000Y-11535000D01*
X7630000Y-11635000D02*
X7660000Y-11665000D01*
X7660000Y-11635000D02*
X7630000Y-11665000D01*
X7720000Y-11635000D02*
X7750000Y-11665000D01*
X7750000Y-11635000D02*
X7720000Y-11665000D01*
X7985000Y-12290000D02*
X8015000Y-12320000D01*
X8015000Y-12290000D02*
X7985000Y-12320000D01*
X8035000Y-12180000D02*
X8065000Y-12210000D01*
X8065000Y-12180000D02*
X8035000Y-12210000D01*
X8065000Y-12280000D02*
X8095000Y-12310000D01*
X8095000Y-12280000D02*
X8065000Y-12310000D01*
X8915000Y-11970000D02*
X8945000Y-12000000D01*
X8945000Y-11970000D02*
X8915000Y-12000000D01*
X9200000Y-11955000D02*
X9230000Y-11985000D01*
X9230000Y-11955000D02*
X9200000Y-11985000D01*
X9375000Y-13070000D02*
X9405000Y-13100000D01*
X9405000Y-13070000D02*
X9375000Y-13100000D01*
X9400000Y-12990000D02*
X9430000Y-13020000D01*
X9430000Y-12990000D02*
X9400000Y-13020000D01*
X9405000Y-12815000D02*
X9435000Y-12845000D01*
X9435000Y-12815000D02*
X9405000Y-12845000D01*
X9415000Y-12895000D02*
X9445000Y-12925000D01*
X9445000Y-12895000D02*
X9415000Y-12925000D01*
X9815000Y-10995000D02*
X9845000Y-11025000D01*
X9845000Y-10995000D02*
X9815000Y-11025000D01*
X9880000Y-10910000D02*
X9910000Y-10940000D01*
X9910000Y-10910000D02*
X9880000Y-10940000D01*
X9885000Y-9495000D02*
X9915000Y-9525000D01*
X9915000Y-9495000D02*
X9885000Y-9525000D01*
X9886000Y-9584000D02*
X9916000Y-9614000D01*
X9916000Y-9584000D02*
X9886000Y-9614000D01*
X9905000Y-11000000D02*
X9935000Y-11030000D01*
X9935000Y-11000000D02*
X9905000Y-11030000D01*
X9960000Y-10910000D02*
X9990000Y-10940000D01*
X9990000Y-10910000D02*
X9960000Y-10940000D01*
X9985000Y-10990000D02*
X10015000Y-11020000D01*
X10015000Y-10990000D02*
X9985000Y-11020000D01*
X10005000Y-9575000D02*
X10035000Y-9605000D01*
X10035000Y-9575000D02*
X10005000Y-9605000D01*
X10040000Y-10910000D02*
X10070000Y-10940000D01*
X10070000Y-10910000D02*
X10040000Y-10940000D01*
X10042500Y-10404500D02*
X10072500Y-10434500D01*
X10072500Y-10404500D02*
X10042500Y-10434500D01*
X10055000Y-9465000D02*
X10085000Y-9495000D01*
X10085000Y-9465000D02*
X10055000Y-9495000D01*
X10145000Y-10415000D02*
X10175000Y-10445000D01*
X10175000Y-10415000D02*
X10145000Y-10445000D01*
X10230000Y-11985000D02*
X10260000Y-12015000D01*
X10260000Y-11985000D02*
X10230000Y-12015000D01*
X10255000Y-10605000D02*
X10285000Y-10635000D01*
X10285000Y-10605000D02*
X10255000Y-10635000D01*
X10255000Y-11035000D02*
X10285000Y-11065000D01*
X10285000Y-11035000D02*
X10255000Y-11065000D01*
X10280000Y-11895000D02*
X10310000Y-11925000D01*
X10310000Y-11895000D02*
X10280000Y-11925000D01*
X10315000Y-10965000D02*
X10345000Y-10995000D01*
X10345000Y-10965000D02*
X10315000Y-10995000D01*
X10355000Y-11950000D02*
X10385000Y-11980000D01*
X10385000Y-11950000D02*
X10355000Y-11980000D01*
X10390000Y-10720000D02*
X10420000Y-10750000D01*
X10420000Y-10720000D02*
X10390000Y-10750000D01*
X10435000Y-10965000D02*
X10465000Y-10995000D01*
X10465000Y-10965000D02*
X10435000Y-10995000D01*
X10505000Y-10895000D02*
X10535000Y-10925000D01*
X10535000Y-10895000D02*
X10505000Y-10925000D01*
X10640000Y-12535000D02*
X10670000Y-12565000D01*
X10670000Y-12535000D02*
X10640000Y-12565000D01*
X10660000Y-11055000D02*
X10690000Y-11085000D01*
X10690000Y-11055000D02*
X10660000Y-11085000D01*
X10705000Y-9575000D02*
X10735000Y-9605000D01*
X10735000Y-9575000D02*
X10705000Y-9605000D01*
X10740000Y-10990000D02*
X10770000Y-11020000D01*
X10770000Y-10990000D02*
X10740000Y-11020000D01*
X10791058Y-9568000D02*
X10821058Y-9598000D01*
X10821058Y-9568000D02*
X10791058Y-9598000D01*
X10913500Y-9616500D02*
X10943500Y-9646500D01*
X10943500Y-9616500D02*
X10913500Y-9646500D01*
X10935000Y-10985000D02*
X10965000Y-11015000D01*
X10965000Y-10985000D02*
X10935000Y-11015000D01*
X10970000Y-9540000D02*
X11000000Y-9570000D01*
X11000000Y-9540000D02*
X10970000Y-9570000D01*
X10980000Y-12500000D02*
X11010000Y-12530000D01*
X11010000Y-12500000D02*
X10980000Y-12530000D01*
X10985000Y-11990000D02*
X11015000Y-12020000D01*
X11015000Y-11990000D02*
X10985000Y-12020000D01*
X11005000Y-10925000D02*
X11035000Y-10955000D01*
X11035000Y-10925000D02*
X11005000Y-10955000D01*
X11025000Y-11905000D02*
X11055000Y-11935000D01*
X11055000Y-11905000D02*
X11025000Y-11935000D01*
X11065000Y-10425000D02*
X11095000Y-10455000D01*
X11095000Y-10425000D02*
X11065000Y-10455000D01*
X11105000Y-11980000D02*
X11135000Y-12010000D01*
X11135000Y-11980000D02*
X11105000Y-12010000D01*
X11145000Y-10545000D02*
X11175000Y-10575000D01*
X11175000Y-10545000D02*
X11145000Y-10575000D01*
X11175000Y-11065000D02*
X11205000Y-11095000D01*
X11205000Y-11065000D02*
X11175000Y-11095000D01*
X11190000Y-11975000D02*
X11220000Y-12005000D01*
X11220000Y-11975000D02*
X11190000Y-12005000D01*
X11230000Y-11005000D02*
X11260000Y-11035000D01*
X11260000Y-11005000D02*
X11230000Y-11035000D01*
X11272500Y-11985000D02*
X11302500Y-12015000D01*
X11302500Y-11985000D02*
X11272500Y-12015000D01*
X11500000Y-10335000D02*
X11530000Y-10365000D01*
X11530000Y-10335000D02*
X11500000Y-10365000D01*
X11505000Y-10175000D02*
X11535000Y-10205000D01*
X11535000Y-10175000D02*
X11505000Y-10205000D01*
X11505000Y-10255000D02*
X11535000Y-10285000D01*
X11535000Y-10255000D02*
X11505000Y-10285000D01*
X11545000Y-10985000D02*
X11575000Y-11015000D01*
X11575000Y-10985000D02*
X11545000Y-11015000D01*
X11605000Y-11045000D02*
X11635000Y-11075000D01*
X11635000Y-11045000D02*
X11605000Y-11075000D01*
X11665000Y-9525000D02*
X11695000Y-9555000D01*
X11695000Y-9525000D02*
X11665000Y-9555000D01*
X11665000Y-9605000D02*
X11695000Y-9635000D01*
X11695000Y-9605000D02*
X11665000Y-9635000D01*
X11780000Y-12315000D02*
X11810000Y-12345000D01*
X11810000Y-12315000D02*
X11780000Y-12345000D01*
X11848625Y-9601375D02*
X11878625Y-9631375D01*
X11878625Y-9601375D02*
X11848625Y-9631375D01*
X11855000Y-12225000D02*
X11885000Y-12255000D01*
X11885000Y-12225000D02*
X11855000Y-12255000D01*
X11865000Y-12315000D02*
X11895000Y-12345000D01*
X11895000Y-12315000D02*
X11865000Y-12345000D01*
X11905000Y-9525000D02*
X11935000Y-9555000D01*
X11935000Y-9525000D02*
X11905000Y-9555000D01*
X11905000Y-11035000D02*
X11935000Y-11065000D01*
X11935000Y-11035000D02*
X11905000Y-11065000D01*
X12005000Y-10425000D02*
X12035000Y-10455000D01*
X12035000Y-10425000D02*
X12005000Y-10455000D01*
X12005000Y-11035000D02*
X12035000Y-11065000D01*
X12035000Y-11035000D02*
X12005000Y-11065000D01*
X12035000Y-10945000D02*
X12065000Y-10975000D01*
X12065000Y-10945000D02*
X12035000Y-10975000D01*
X12115000Y-11015000D02*
X12145000Y-11045000D01*
X12145000Y-11015000D02*
X12115000Y-11045000D01*
X12180000Y-12045000D02*
X12210000Y-12075000D01*
X12210000Y-12045000D02*
X12180000Y-12075000D01*
X12185000Y-10615000D02*
X12215000Y-10645000D01*
X12215000Y-10615000D02*
X12185000Y-10645000D01*
X12260000Y-12045000D02*
X12290000Y-12075000D01*
X12290000Y-12045000D02*
X12260000Y-12075000D01*
X12265000Y-10840000D02*
X12295000Y-10870000D01*
X12295000Y-10840000D02*
X12265000Y-10870000D01*
X12295000Y-10670000D02*
X12325000Y-10700000D01*
X12325000Y-10670000D02*
X12295000Y-10700000D01*
X12340000Y-10900000D02*
X12370000Y-10930000D01*
X12370000Y-10900000D02*
X12340000Y-10930000D01*
X12370000Y-12380000D02*
X12400000Y-12410000D01*
X12400000Y-12380000D02*
X12370000Y-12410000D01*
X12375000Y-10975000D02*
X12405000Y-11005000D01*
X12405000Y-10975000D02*
X12375000Y-11005000D01*
X12650000Y-12005000D02*
X12680000Y-12035000D01*
X12680000Y-12005000D02*
X12650000Y-12035000D01*
X12940000Y-12050000D02*
X12970000Y-12080000D01*
X12970000Y-12050000D02*
X12940000Y-12080000D01*
X12950000Y-12180000D02*
X12980000Y-12210000D01*
X12980000Y-12180000D02*
X12950000Y-12210000D01*
X4612500Y-9527500D02*
G75*
G02*
X4572500Y-9527500I-20000J0D01*
G01*
X4572500Y-9527500D02*
G75*
G02*
X4612500Y-9527500I20000J0D01*
G01*
X4867500Y-13172500D02*
G75*
G02*
X4827500Y-13172500I-20000J0D01*
G01*
X4827500Y-13172500D02*
G75*
G02*
X4867500Y-13172500I20000J0D01*
G01*
X4870000Y-9730000D02*
G75*
G02*
X4830000Y-9730000I-20000J0D01*
G01*
X4830000Y-9730000D02*
G75*
G02*
X4870000Y-9730000I20000J0D01*
G01*
X4872500Y-11797500D02*
G75*
G02*
X4832500Y-11797500I-20000J0D01*
G01*
X4832500Y-11797500D02*
G75*
G02*
X4872500Y-11797500I20000J0D01*
G01*
X5000000Y-11445000D02*
G75*
G02*
X4960000Y-11445000I-20000J0D01*
G01*
X4960000Y-11445000D02*
G75*
G02*
X5000000Y-11445000I20000J0D01*
G01*
X5125000Y-11360000D02*
G75*
G02*
X5085000Y-11360000I-20000J0D01*
G01*
X5085000Y-11360000D02*
G75*
G02*
X5125000Y-11360000I20000J0D01*
G01*
X5156967Y-10473033D02*
G75*
G02*
X5116967Y-10473033I-20000J0D01*
G01*
X5116967Y-10473033D02*
G75*
G02*
X5156967Y-10473033I20000J0D01*
G01*
X5167500Y-12565000D02*
G75*
G02*
X5127500Y-12565000I-20000J0D01*
G01*
X5127500Y-12565000D02*
G75*
G02*
X5167500Y-12565000I20000J0D01*
G01*
X5170000Y-9040000D02*
G75*
G02*
X5130000Y-9040000I-20000J0D01*
G01*
X5130000Y-9040000D02*
G75*
G02*
X5170000Y-9040000I20000J0D01*
G01*
X5220000Y-10722000D02*
G75*
G02*
X5180000Y-10722000I-20000J0D01*
G01*
X5180000Y-10722000D02*
G75*
G02*
X5220000Y-10722000I20000J0D01*
G01*
X5240772Y-10967597D02*
G75*
G02*
X5200772Y-10967597I-20000J0D01*
G01*
X5200772Y-10967597D02*
G75*
G02*
X5240772Y-10967597I20000J0D01*
G01*
X5243757Y-11420000D02*
G75*
G02*
X5203757Y-11420000I-20000J0D01*
G01*
X5203757Y-11420000D02*
G75*
G02*
X5243757Y-11420000I20000J0D01*
G01*
X5290000Y-9070000D02*
G75*
G02*
X5250000Y-9070000I-20000J0D01*
G01*
X5250000Y-9070000D02*
G75*
G02*
X5290000Y-9070000I20000J0D01*
G01*
X5310000Y-9580000D02*
G75*
G02*
X5270000Y-9580000I-20000J0D01*
G01*
X5270000Y-9580000D02*
G75*
G02*
X5310000Y-9580000I20000J0D01*
G01*
X5335000Y-13270000D02*
G75*
G02*
X5295000Y-13270000I-20000J0D01*
G01*
X5295000Y-13270000D02*
G75*
G02*
X5335000Y-13270000I20000J0D01*
G01*
X5361636Y-10970000D02*
G75*
G02*
X5321636Y-10970000I-20000J0D01*
G01*
X5321636Y-10970000D02*
G75*
G02*
X5361636Y-10970000I20000J0D01*
G01*
X5490000Y-10637000D02*
G75*
G02*
X5450000Y-10637000I-20000J0D01*
G01*
X5450000Y-10637000D02*
G75*
G02*
X5490000Y-10637000I20000J0D01*
G01*
X5500000Y-9570000D02*
G75*
G02*
X5460000Y-9570000I-20000J0D01*
G01*
X5460000Y-9570000D02*
G75*
G02*
X5500000Y-9570000I20000J0D01*
G01*
X5505000Y-13277500D02*
G75*
G02*
X5465000Y-13277500I-20000J0D01*
G01*
X5465000Y-13277500D02*
G75*
G02*
X5505000Y-13277500I20000J0D01*
G01*
X5550000Y-12565000D02*
G75*
G02*
X5510000Y-12565000I-20000J0D01*
G01*
X5510000Y-12565000D02*
G75*
G02*
X5550000Y-12565000I20000J0D01*
G01*
X5695000Y-11350000D02*
G75*
G02*
X5655000Y-11350000I-20000J0D01*
G01*
X5655000Y-11350000D02*
G75*
G02*
X5695000Y-11350000I20000J0D01*
G01*
X5702408Y-9035471D02*
G75*
G02*
X5662408Y-9035471I-20000J0D01*
G01*
X5662408Y-9035471D02*
G75*
G02*
X5702408Y-9035471I20000J0D01*
G01*
X5710000Y-10890000D02*
G75*
G02*
X5670000Y-10890000I-20000J0D01*
G01*
X5670000Y-10890000D02*
G75*
G02*
X5710000Y-10890000I20000J0D01*
G01*
X5730000Y-10270000D02*
G75*
G02*
X5690000Y-10270000I-20000J0D01*
G01*
X5690000Y-10270000D02*
G75*
G02*
X5730000Y-10270000I20000J0D01*
G01*
X5907500Y-13150000D02*
G75*
G02*
X5867500Y-13150000I-20000J0D01*
G01*
X5867500Y-13150000D02*
G75*
G02*
X5907500Y-13150000I20000J0D01*
G01*
X5910000Y-13290000D02*
G75*
G02*
X5870000Y-13290000I-20000J0D01*
G01*
X5870000Y-13290000D02*
G75*
G02*
X5910000Y-13290000I20000J0D01*
G01*
X5937500Y-13772500D02*
G75*
G02*
X5897500Y-13772500I-20000J0D01*
G01*
X5897500Y-13772500D02*
G75*
G02*
X5937500Y-13772500I20000J0D01*
G01*
X5950000Y-11350000D02*
G75*
G02*
X5910000Y-11350000I-20000J0D01*
G01*
X5910000Y-11350000D02*
G75*
G02*
X5950000Y-11350000I20000J0D01*
G01*
X5960000Y-13540000D02*
G75*
G02*
X5920000Y-13540000I-20000J0D01*
G01*
X5920000Y-13540000D02*
G75*
G02*
X5960000Y-13540000I20000J0D01*
G01*
X6000000Y-11810000D02*
G75*
G02*
X5960000Y-11810000I-20000J0D01*
G01*
X5960000Y-11810000D02*
G75*
G02*
X6000000Y-11810000I20000J0D01*
G01*
X6065000Y-10410000D02*
G75*
G02*
X6025000Y-10410000I-20000J0D01*
G01*
X6025000Y-10410000D02*
G75*
G02*
X6065000Y-10410000I20000J0D01*
G01*
X6070000Y-10260000D02*
G75*
G02*
X6030000Y-10260000I-20000J0D01*
G01*
X6030000Y-10260000D02*
G75*
G02*
X6070000Y-10260000I20000J0D01*
G01*
X6100000Y-9610000D02*
G75*
G02*
X6060000Y-9610000I-20000J0D01*
G01*
X6060000Y-9610000D02*
G75*
G02*
X6100000Y-9610000I20000J0D01*
G01*
X6130000Y-10930000D02*
G75*
G02*
X6090000Y-10930000I-20000J0D01*
G01*
X6090000Y-10930000D02*
G75*
G02*
X6130000Y-10930000I20000J0D01*
G01*
X6180000Y-12150000D02*
G75*
G02*
X6140000Y-12150000I-20000J0D01*
G01*
X6140000Y-12150000D02*
G75*
G02*
X6180000Y-12150000I20000J0D01*
G01*
X6190000Y-9630000D02*
G75*
G02*
X6150000Y-9630000I-20000J0D01*
G01*
X6150000Y-9630000D02*
G75*
G02*
X6190000Y-9630000I20000J0D01*
G01*
X6220000Y-11710000D02*
G75*
G02*
X6180000Y-11710000I-20000J0D01*
G01*
X6180000Y-11710000D02*
G75*
G02*
X6220000Y-11710000I20000J0D01*
G01*
X6280000Y-10550000D02*
G75*
G02*
X6240000Y-10550000I-20000J0D01*
G01*
X6240000Y-10550000D02*
G75*
G02*
X6280000Y-10550000I20000J0D01*
G01*
X6325000Y-12695000D02*
G75*
G02*
X6285000Y-12695000I-20000J0D01*
G01*
X6285000Y-12695000D02*
G75*
G02*
X6325000Y-12695000I20000J0D01*
G01*
X6350000Y-10630000D02*
G75*
G02*
X6310000Y-10630000I-20000J0D01*
G01*
X6310000Y-10630000D02*
G75*
G02*
X6350000Y-10630000I20000J0D01*
G01*
X6350000Y-12160000D02*
G75*
G02*
X6310000Y-12160000I-20000J0D01*
G01*
X6310000Y-12160000D02*
G75*
G02*
X6350000Y-12160000I20000J0D01*
G01*
X6400000Y-9040000D02*
G75*
G02*
X6360000Y-9040000I-20000J0D01*
G01*
X6360000Y-9040000D02*
G75*
G02*
X6400000Y-9040000I20000J0D01*
G01*
X6400000Y-12805000D02*
G75*
G02*
X6360000Y-12805000I-20000J0D01*
G01*
X6360000Y-12805000D02*
G75*
G02*
X6400000Y-12805000I20000J0D01*
G01*
X6510000Y-12650000D02*
G75*
G02*
X6470000Y-12650000I-20000J0D01*
G01*
X6470000Y-12650000D02*
G75*
G02*
X6510000Y-12650000I20000J0D01*
G01*
X6530000Y-11710000D02*
G75*
G02*
X6490000Y-11710000I-20000J0D01*
G01*
X6490000Y-11710000D02*
G75*
G02*
X6530000Y-11710000I20000J0D01*
G01*
X6560000Y-11020000D02*
G75*
G02*
X6520000Y-11020000I-20000J0D01*
G01*
X6520000Y-11020000D02*
G75*
G02*
X6560000Y-11020000I20000J0D01*
G01*
X6560000Y-13630000D02*
G75*
G02*
X6520000Y-13630000I-20000J0D01*
G01*
X6520000Y-13630000D02*
G75*
G02*
X6560000Y-13630000I20000J0D01*
G01*
X6576967Y-12793033D02*
G75*
G02*
X6536967Y-12793033I-20000J0D01*
G01*
X6536967Y-12793033D02*
G75*
G02*
X6576967Y-12793033I20000J0D01*
G01*
X6704356Y-11622224D02*
G75*
G02*
X6664356Y-11622224I-20000J0D01*
G01*
X6664356Y-11622224D02*
G75*
G02*
X6704356Y-11622224I20000J0D01*
G01*
X6810000Y-11710000D02*
G75*
G02*
X6770000Y-11710000I-20000J0D01*
G01*
X6770000Y-11710000D02*
G75*
G02*
X6810000Y-11710000I20000J0D01*
G01*
X6870000Y-10880000D02*
G75*
G02*
X6830000Y-10880000I-20000J0D01*
G01*
X6830000Y-10880000D02*
G75*
G02*
X6870000Y-10880000I20000J0D01*
G01*
X6881967Y-11538033D02*
G75*
G02*
X6841967Y-11538033I-20000J0D01*
G01*
X6841967Y-11538033D02*
G75*
G02*
X6881967Y-11538033I20000J0D01*
G01*
X6890000Y-11030000D02*
G75*
G02*
X6850000Y-11030000I-20000J0D01*
G01*
X6850000Y-11030000D02*
G75*
G02*
X6890000Y-11030000I20000J0D01*
G01*
X6921066Y-11128934D02*
G75*
G02*
X6881066Y-11128934I-20000J0D01*
G01*
X6881066Y-11128934D02*
G75*
G02*
X6921066Y-11128934I20000J0D01*
G01*
X7000104Y-12410104D02*
G75*
G02*
X6960104Y-12410104I-20000J0D01*
G01*
X6960104Y-12410104D02*
G75*
G02*
X7000104Y-12410104I20000J0D01*
G01*
X7010000Y-12530000D02*
G75*
G02*
X6970000Y-12530000I-20000J0D01*
G01*
X6970000Y-12530000D02*
G75*
G02*
X7010000Y-12530000I20000J0D01*
G01*
X7011174Y-11195000D02*
G75*
G02*
X6971174Y-11195000I-20000J0D01*
G01*
X6971174Y-11195000D02*
G75*
G02*
X7011174Y-11195000I20000J0D01*
G01*
X7060000Y-12230000D02*
G75*
G02*
X7020000Y-12230000I-20000J0D01*
G01*
X7020000Y-12230000D02*
G75*
G02*
X7060000Y-12230000I20000J0D01*
G01*
X7160533Y-13359467D02*
G75*
G02*
X7120533Y-13359467I-20000J0D01*
G01*
X7120533Y-13359467D02*
G75*
G02*
X7160533Y-13359467I20000J0D01*
G01*
X7190000Y-11990000D02*
G75*
G02*
X7150000Y-11990000I-20000J0D01*
G01*
X7150000Y-11990000D02*
G75*
G02*
X7190000Y-11990000I20000J0D01*
G01*
X7310000Y-11235000D02*
G75*
G02*
X7270000Y-11235000I-20000J0D01*
G01*
X7270000Y-11235000D02*
G75*
G02*
X7310000Y-11235000I20000J0D01*
G01*
X7320000Y-10430000D02*
G75*
G02*
X7280000Y-10430000I-20000J0D01*
G01*
X7280000Y-10430000D02*
G75*
G02*
X7320000Y-10430000I20000J0D01*
G01*
X7340000Y-12470000D02*
G75*
G02*
X7300000Y-12470000I-20000J0D01*
G01*
X7300000Y-12470000D02*
G75*
G02*
X7340000Y-12470000I20000J0D01*
G01*
X7490000Y-11040000D02*
G75*
G02*
X7450000Y-11040000I-20000J0D01*
G01*
X7450000Y-11040000D02*
G75*
G02*
X7490000Y-11040000I20000J0D01*
G01*
X7520000Y-13080000D02*
G75*
G02*
X7480000Y-13080000I-20000J0D01*
G01*
X7480000Y-13080000D02*
G75*
G02*
X7520000Y-13080000I20000J0D01*
G01*
X7530000Y-12710000D02*
G75*
G02*
X7490000Y-12710000I-20000J0D01*
G01*
X7490000Y-12710000D02*
G75*
G02*
X7530000Y-12710000I20000J0D01*
G01*
X7965000Y-12230000D02*
G75*
G02*
X7925000Y-12230000I-20000J0D01*
G01*
X7925000Y-12230000D02*
G75*
G02*
X7965000Y-12230000I20000J0D01*
G01*
X7970000Y-11395000D02*
G75*
G02*
X7930000Y-11395000I-20000J0D01*
G01*
X7930000Y-11395000D02*
G75*
G02*
X7970000Y-11395000I20000J0D01*
G01*
X7990000Y-11790000D02*
G75*
G02*
X7950000Y-11790000I-20000J0D01*
G01*
X7950000Y-11790000D02*
G75*
G02*
X7990000Y-11790000I20000J0D01*
G01*
X8080000Y-10765000D02*
G75*
G02*
X8040000Y-10765000I-20000J0D01*
G01*
X8040000Y-10765000D02*
G75*
G02*
X8080000Y-10765000I20000J0D01*
G01*
X8100000Y-11790000D02*
G75*
G02*
X8060000Y-11790000I-20000J0D01*
G01*
X8060000Y-11790000D02*
G75*
G02*
X8100000Y-11790000I20000J0D01*
G01*
X8170000Y-10920000D02*
G75*
G02*
X8130000Y-10920000I-20000J0D01*
G01*
X8130000Y-10920000D02*
G75*
G02*
X8170000Y-10920000I20000J0D01*
G01*
X8300000Y-10920000D02*
G75*
G02*
X8260000Y-10920000I-20000J0D01*
G01*
X8260000Y-10920000D02*
G75*
G02*
X8300000Y-10920000I20000J0D01*
G01*
X8320000Y-9710000D02*
G75*
G02*
X8280000Y-9710000I-20000J0D01*
G01*
X8280000Y-9710000D02*
G75*
G02*
X8320000Y-9710000I20000J0D01*
G01*
X8460000Y-10920000D02*
G75*
G02*
X8420000Y-10920000I-20000J0D01*
G01*
X8420000Y-10920000D02*
G75*
G02*
X8460000Y-10920000I20000J0D01*
G01*
X8485000Y-12015000D02*
G75*
G02*
X8445000Y-12015000I-20000J0D01*
G01*
X8445000Y-12015000D02*
G75*
G02*
X8485000Y-12015000I20000J0D01*
G01*
X8581600Y-9334000D02*
G75*
G02*
X8541600Y-9334000I-20000J0D01*
G01*
X8541600Y-9334000D02*
G75*
G02*
X8581600Y-9334000I20000J0D01*
G01*
X8600000Y-9810000D02*
G75*
G02*
X8560000Y-9810000I-20000J0D01*
G01*
X8560000Y-9810000D02*
G75*
G02*
X8600000Y-9810000I20000J0D01*
G01*
X8605000Y-12540000D02*
G75*
G02*
X8565000Y-12540000I-20000J0D01*
G01*
X8565000Y-12540000D02*
G75*
G02*
X8605000Y-12540000I20000J0D01*
G01*
X9060000Y-11965000D02*
G75*
G02*
X9020000Y-11965000I-20000J0D01*
G01*
X9020000Y-11965000D02*
G75*
G02*
X9060000Y-11965000I20000J0D01*
G01*
X9090000Y-13590000D02*
G75*
G02*
X9050000Y-13590000I-20000J0D01*
G01*
X9050000Y-13590000D02*
G75*
G02*
X9090000Y-13590000I20000J0D01*
G01*
X9150000Y-13260000D02*
G75*
G02*
X9110000Y-13260000I-20000J0D01*
G01*
X9110000Y-13260000D02*
G75*
G02*
X9150000Y-13260000I20000J0D01*
G01*
X9200000Y-12880000D02*
G75*
G02*
X9160000Y-12880000I-20000J0D01*
G01*
X9160000Y-12880000D02*
G75*
G02*
X9200000Y-12880000I20000J0D01*
G01*
X9310000Y-12200000D02*
G75*
G02*
X9270000Y-12200000I-20000J0D01*
G01*
X9270000Y-12200000D02*
G75*
G02*
X9310000Y-12200000I20000J0D01*
G01*
X9310000Y-13260000D02*
G75*
G02*
X9270000Y-13260000I-20000J0D01*
G01*
X9270000Y-13260000D02*
G75*
G02*
X9310000Y-13260000I20000J0D01*
G01*
X9420000Y-11970000D02*
G75*
G02*
X9380000Y-11970000I-20000J0D01*
G01*
X9380000Y-11970000D02*
G75*
G02*
X9420000Y-11970000I20000J0D01*
G01*
X9441967Y-12731967D02*
G75*
G02*
X9401967Y-12731967I-20000J0D01*
G01*
X9401967Y-12731967D02*
G75*
G02*
X9441967Y-12731967I20000J0D01*
G01*
X9550000Y-11970000D02*
G75*
G02*
X9510000Y-11970000I-20000J0D01*
G01*
X9510000Y-11970000D02*
G75*
G02*
X9550000Y-11970000I20000J0D01*
G01*
X9590000Y-12210000D02*
G75*
G02*
X9550000Y-12210000I-20000J0D01*
G01*
X9550000Y-12210000D02*
G75*
G02*
X9590000Y-12210000I20000J0D01*
G01*
X9600000Y-13210000D02*
G75*
G02*
X9560000Y-13210000I-20000J0D01*
G01*
X9560000Y-13210000D02*
G75*
G02*
X9600000Y-13210000I20000J0D01*
G01*
X9730000Y-10980000D02*
G75*
G02*
X9690000Y-10980000I-20000J0D01*
G01*
X9690000Y-10980000D02*
G75*
G02*
X9730000Y-10980000I20000J0D01*
G01*
X9930000Y-10070000D02*
G75*
G02*
X9890000Y-10070000I-20000J0D01*
G01*
X9890000Y-10070000D02*
G75*
G02*
X9930000Y-10070000I20000J0D01*
G01*
X9940000Y-9950000D02*
G75*
G02*
X9900000Y-9950000I-20000J0D01*
G01*
X9900000Y-9950000D02*
G75*
G02*
X9940000Y-9950000I20000J0D01*
G01*
X10080000Y-9960000D02*
G75*
G02*
X10040000Y-9960000I-20000J0D01*
G01*
X10040000Y-9960000D02*
G75*
G02*
X10080000Y-9960000I20000J0D01*
G01*
X10090000Y-10070000D02*
G75*
G02*
X10050000Y-10070000I-20000J0D01*
G01*
X10050000Y-10070000D02*
G75*
G02*
X10090000Y-10070000I20000J0D01*
G01*
X10120000Y-10750000D02*
G75*
G02*
X10080000Y-10750000I-20000J0D01*
G01*
X10080000Y-10750000D02*
G75*
G02*
X10120000Y-10750000I20000J0D01*
G01*
X10180000Y-10990000D02*
G75*
G02*
X10140000Y-10990000I-20000J0D01*
G01*
X10140000Y-10990000D02*
G75*
G02*
X10180000Y-10990000I20000J0D01*
G01*
X10350000Y-12055000D02*
G75*
G02*
X10310000Y-12055000I-20000J0D01*
G01*
X10310000Y-12055000D02*
G75*
G02*
X10350000Y-12055000I20000J0D01*
G01*
X10535000Y-12530000D02*
G75*
G02*
X10495000Y-12530000I-20000J0D01*
G01*
X10495000Y-12530000D02*
G75*
G02*
X10535000Y-12530000I20000J0D01*
G01*
X10550000Y-9520000D02*
G75*
G02*
X10510000Y-9520000I-20000J0D01*
G01*
X10510000Y-9520000D02*
G75*
G02*
X10550000Y-9520000I20000J0D01*
G01*
X10600000Y-11000000D02*
G75*
G02*
X10560000Y-11000000I-20000J0D01*
G01*
X10560000Y-11000000D02*
G75*
G02*
X10600000Y-11000000I20000J0D01*
G01*
X10840000Y-9980000D02*
G75*
G02*
X10800000Y-9980000I-20000J0D01*
G01*
X10800000Y-9980000D02*
G75*
G02*
X10840000Y-9980000I20000J0D01*
G01*
X10845000Y-11980000D02*
G75*
G02*
X10805000Y-11980000I-20000J0D01*
G01*
X10805000Y-11980000D02*
G75*
G02*
X10845000Y-11980000I20000J0D01*
G01*
X10860000Y-10090000D02*
G75*
G02*
X10820000Y-10090000I-20000J0D01*
G01*
X10820000Y-10090000D02*
G75*
G02*
X10860000Y-10090000I20000J0D01*
G01*
X10913750Y-10770000D02*
G75*
G02*
X10873750Y-10770000I-20000J0D01*
G01*
X10873750Y-10770000D02*
G75*
G02*
X10913750Y-10770000I20000J0D01*
G01*
X11000000Y-9980000D02*
G75*
G02*
X10960000Y-9980000I-20000J0D01*
G01*
X10960000Y-9980000D02*
G75*
G02*
X11000000Y-9980000I20000J0D01*
G01*
X11000000Y-10450000D02*
G75*
G02*
X10960000Y-10450000I-20000J0D01*
G01*
X10960000Y-10450000D02*
G75*
G02*
X11000000Y-10450000I20000J0D01*
G01*
X11000000Y-13240000D02*
G75*
G02*
X10960000Y-13240000I-20000J0D01*
G01*
X10960000Y-13240000D02*
G75*
G02*
X11000000Y-13240000I20000J0D01*
G01*
X11010000Y-10090000D02*
G75*
G02*
X10970000Y-10090000I-20000J0D01*
G01*
X10970000Y-10090000D02*
G75*
G02*
X11010000Y-10090000I20000J0D01*
G01*
X11090000Y-12930000D02*
G75*
G02*
X11050000Y-12930000I-20000J0D01*
G01*
X11050000Y-12930000D02*
G75*
G02*
X11090000Y-12930000I20000J0D01*
G01*
X11100000Y-11030000D02*
G75*
G02*
X11060000Y-11030000I-20000J0D01*
G01*
X11060000Y-11030000D02*
G75*
G02*
X11100000Y-11030000I20000J0D01*
G01*
X11100000Y-13490000D02*
G75*
G02*
X11060000Y-13490000I-20000J0D01*
G01*
X11060000Y-13490000D02*
G75*
G02*
X11100000Y-13490000I20000J0D01*
G01*
X11190000Y-12110000D02*
G75*
G02*
X11150000Y-12110000I-20000J0D01*
G01*
X11150000Y-12110000D02*
G75*
G02*
X11190000Y-12110000I20000J0D01*
G01*
X11220000Y-12670000D02*
G75*
G02*
X11180000Y-12670000I-20000J0D01*
G01*
X11180000Y-12670000D02*
G75*
G02*
X11220000Y-12670000I20000J0D01*
G01*
X11330000Y-12680000D02*
G75*
G02*
X11290000Y-12680000I-20000J0D01*
G01*
X11290000Y-12680000D02*
G75*
G02*
X11330000Y-12680000I20000J0D01*
G01*
X11420000Y-13150000D02*
G75*
G02*
X11380000Y-13150000I-20000J0D01*
G01*
X11380000Y-13150000D02*
G75*
G02*
X11420000Y-13150000I20000J0D01*
G01*
X11460000Y-9540000D02*
G75*
G02*
X11420000Y-9540000I-20000J0D01*
G01*
X11420000Y-9540000D02*
G75*
G02*
X11460000Y-9540000I20000J0D01*
G01*
X11600000Y-12130000D02*
G75*
G02*
X11560000Y-12130000I-20000J0D01*
G01*
X11560000Y-12130000D02*
G75*
G02*
X11600000Y-12130000I20000J0D01*
G01*
X11680000Y-12280000D02*
G75*
G02*
X11640000Y-12280000I-20000J0D01*
G01*
X11640000Y-12280000D02*
G75*
G02*
X11680000Y-12280000I20000J0D01*
G01*
X11710000Y-10970000D02*
G75*
G02*
X11670000Y-10970000I-20000J0D01*
G01*
X11670000Y-10970000D02*
G75*
G02*
X11710000Y-10970000I20000J0D01*
G01*
X11720000Y-8510000D02*
G75*
G02*
X11680000Y-8510000I-20000J0D01*
G01*
X11680000Y-8510000D02*
G75*
G02*
X11720000Y-8510000I20000J0D01*
G01*
X11780000Y-12200000D02*
G75*
G02*
X11740000Y-12200000I-20000J0D01*
G01*
X11740000Y-12200000D02*
G75*
G02*
X11780000Y-12200000I20000J0D01*
G01*
X11800000Y-9960000D02*
G75*
G02*
X11760000Y-9960000I-20000J0D01*
G01*
X11760000Y-9960000D02*
G75*
G02*
X11800000Y-9960000I20000J0D01*
G01*
X11810000Y-10080000D02*
G75*
G02*
X11770000Y-10080000I-20000J0D01*
G01*
X11770000Y-10080000D02*
G75*
G02*
X11810000Y-10080000I20000J0D01*
G01*
X11930000Y-10440000D02*
G75*
G02*
X11890000Y-10440000I-20000J0D01*
G01*
X11890000Y-10440000D02*
G75*
G02*
X11930000Y-10440000I20000J0D01*
G01*
X11950000Y-9960000D02*
G75*
G02*
X11910000Y-9960000I-20000J0D01*
G01*
X11910000Y-9960000D02*
G75*
G02*
X11950000Y-9960000I20000J0D01*
G01*
X11950000Y-10080000D02*
G75*
G02*
X11910000Y-10080000I-20000J0D01*
G01*
X11910000Y-10080000D02*
G75*
G02*
X11950000Y-10080000I20000J0D01*
G01*
X11960000Y-10950000D02*
G75*
G02*
X11920000Y-10950000I-20000J0D01*
G01*
X11920000Y-10950000D02*
G75*
G02*
X11960000Y-10950000I20000J0D01*
G01*
X12265000Y-10985000D02*
G75*
G02*
X12225000Y-10985000I-20000J0D01*
G01*
X12225000Y-10985000D02*
G75*
G02*
X12265000Y-10985000I20000J0D01*
G01*
X12280000Y-9690000D02*
G75*
G02*
X12240000Y-9690000I-20000J0D01*
G01*
X12240000Y-9690000D02*
G75*
G02*
X12280000Y-9690000I20000J0D01*
G01*
X12390000Y-8235000D02*
G75*
G02*
X12350000Y-8235000I-20000J0D01*
G01*
X12350000Y-8235000D02*
G75*
G02*
X12390000Y-8235000I20000J0D01*
G01*
X12400000Y-12520000D02*
G75*
G02*
X12360000Y-12520000I-20000J0D01*
G01*
X12360000Y-12520000D02*
G75*
G02*
X12400000Y-12520000I20000J0D01*
G01*
X12520000Y-9120000D02*
G75*
G02*
X12480000Y-9120000I-20000J0D01*
G01*
X12480000Y-9120000D02*
G75*
G02*
X12520000Y-9120000I20000J0D01*
G01*
X12710000Y-8580000D02*
G75*
G02*
X12670000Y-8580000I-20000J0D01*
G01*
X12670000Y-8580000D02*
G75*
G02*
X12710000Y-8580000I20000J0D01*
G01*
X12790000Y-13270000D02*
G75*
G02*
X12750000Y-13270000I-20000J0D01*
G01*
X12750000Y-13270000D02*
G75*
G02*
X12790000Y-13270000I20000J0D01*
G01*
X12805000Y-12050000D02*
G75*
G02*
X12765000Y-12050000I-20000J0D01*
G01*
X12765000Y-12050000D02*
G75*
G02*
X12805000Y-12050000I20000J0D01*
G01*
X13000000Y-12850000D02*
G75*
G02*
X12960000Y-12850000I-20000J0D01*
G01*
X12960000Y-12850000D02*
G75*
G02*
X13000000Y-12850000I20000J0D01*
G01*
X13700000Y-10370000D02*
G75*
G02*
X13660000Y-10370000I-20000J0D01*
G01*
X13660000Y-10370000D02*
G75*
G02*
X13700000Y-10370000I20000J0D01*
G01*
X13700000Y-11750000D02*
G75*
G02*
X13660000Y-11750000I-20000J0D01*
G01*
X13660000Y-11750000D02*
G75*
G02*
X13700000Y-11750000I20000J0D01*
G01*
X13700000Y-12600000D02*
G75*
G02*
X13660000Y-12600000I-20000J0D01*
G01*
X13660000Y-12600000D02*
G75*
G02*
X13700000Y-12600000I20000J0D01*
G01*
X13700000Y-12850000D02*
G75*
G02*
X13660000Y-12850000I-20000J0D01*
G01*
X13660000Y-12850000D02*
G75*
G02*
X13700000Y-12850000I20000J0D01*
G01*
X13710000Y-10700000D02*
G75*
G02*
X13670000Y-10700000I-20000J0D01*
G01*
X13670000Y-10700000D02*
G75*
G02*
X13710000Y-10700000I20000J0D01*
G01*
X13710000Y-11480000D02*
G75*
G02*
X13670000Y-11480000I-20000J0D01*
G01*
X13670000Y-11480000D02*
G75*
G02*
X13710000Y-11480000I20000J0D01*
G01*
X13810000Y-11790000D02*
G75*
G02*
X13770000Y-11790000I-20000J0D01*
G01*
X13770000Y-11790000D02*
G75*
G02*
X13810000Y-11790000I20000J0D01*
G01*
X13810000Y-12890000D02*
G75*
G02*
X13770000Y-12890000I-20000J0D01*
G01*
X13770000Y-12890000D02*
G75*
G02*
X13810000Y-12890000I20000J0D01*
G01*
X13820000Y-10370000D02*
G75*
G02*
X13780000Y-10370000I-20000J0D01*
G01*
X13780000Y-10370000D02*
G75*
G02*
X13820000Y-10370000I20000J0D01*
G01*
X13840000Y-10680000D02*
G75*
G02*
X13800000Y-10680000I-20000J0D01*
G01*
X13800000Y-10680000D02*
G75*
G02*
X13840000Y-10680000I20000J0D01*
G01*
X13850000Y-12580000D02*
G75*
G02*
X13810000Y-12580000I-20000J0D01*
G01*
X13810000Y-12580000D02*
G75*
G02*
X13850000Y-12580000I20000J0D01*
G01*
X13870000Y-11490000D02*
G75*
G02*
X13830000Y-11490000I-20000J0D01*
G01*
X13830000Y-11490000D02*
G75*
G02*
X13870000Y-11490000I20000J0D01*
G01*
X13910000Y-8340000D02*
G75*
G02*
X13870000Y-8340000I-20000J0D01*
G01*
X13870000Y-8340000D02*
G75*
G02*
X13910000Y-8340000I20000J0D01*
G01*
X13910000Y-8460000D02*
G75*
G02*
X13870000Y-8460000I-20000J0D01*
G01*
X13870000Y-8460000D02*
G75*
G02*
X13910000Y-8460000I20000J0D01*
G01*
X13910000Y-8570000D02*
G75*
G02*
X13870000Y-8570000I-20000J0D01*
G01*
X13870000Y-8570000D02*
G75*
G02*
X13910000Y-8570000I20000J0D01*
G01*
X13910000Y-8690000D02*
G75*
G02*
X13870000Y-8690000I-20000J0D01*
G01*
X13870000Y-8690000D02*
G75*
G02*
X13910000Y-8690000I20000J0D01*
G01*
X13930000Y-11740000D02*
G75*
G02*
X13890000Y-11740000I-20000J0D01*
G01*
X13890000Y-11740000D02*
G75*
G02*
X13930000Y-11740000I20000J0D01*
G01*
X13930000Y-12860000D02*
G75*
G02*
X13890000Y-12860000I-20000J0D01*
G01*
X13890000Y-12860000D02*
G75*
G02*
X13930000Y-12860000I20000J0D01*
G01*
X13940000Y-10590000D02*
G75*
G02*
X13900000Y-10590000I-20000J0D01*
G01*
X13900000Y-10590000D02*
G75*
G02*
X13940000Y-10590000I20000J0D01*
G01*
X13950000Y-10450000D02*
G75*
G02*
X13910000Y-10450000I-20000J0D01*
G01*
X13910000Y-10450000D02*
G75*
G02*
X13950000Y-10450000I20000J0D01*
G01*
X13950000Y-12640000D02*
G75*
G02*
X13910000Y-12640000I-20000J0D01*
G01*
X13910000Y-12640000D02*
G75*
G02*
X13950000Y-12640000I20000J0D01*
G01*
X13960000Y-11600000D02*
G75*
G02*
X13920000Y-11600000I-20000J0D01*
G01*
X13920000Y-11600000D02*
G75*
G02*
X13960000Y-11600000I20000J0D01*
G01*
X4350000Y-13260000D02*
X4350000Y-13310000D01*
X4325000Y-13285000D02*
X4375000Y-13285000D01*
X4920000Y-12355000D02*
X4920000Y-12405000D01*
X4895000Y-12380000D02*
X4945000Y-12380000D01*
X5265000Y-9250000D02*
X5265000Y-9300000D01*
X5240000Y-9275000D02*
X5290000Y-9275000D01*
X5655000Y-10010000D02*
X5655000Y-10060000D01*
X5630000Y-10035000D02*
X5680000Y-10035000D01*
X5760000Y-12775000D02*
X5760000Y-12825000D01*
X5735000Y-12800000D02*
X5785000Y-12800000D01*
X5975000Y-9885000D02*
X5975000Y-9935000D01*
X5950000Y-9910000D02*
X6000000Y-9910000D01*
X6750000Y-10545000D02*
X6750000Y-10595000D01*
X6725000Y-10570000D02*
X6775000Y-10570000D01*
X6990000Y-12885000D02*
X6990000Y-12935000D01*
X6965000Y-12910000D02*
X7015000Y-12910000D01*
X7105000Y-12635000D02*
X7105000Y-12685000D01*
X7080000Y-12660000D02*
X7130000Y-12660000D01*
X7240000Y-12855000D02*
X7240000Y-12905000D01*
X7215000Y-12880000D02*
X7265000Y-12880000D01*
X8130000Y-11295000D02*
X8130000Y-11345000D01*
X8105000Y-11320000D02*
X8155000Y-11320000D01*
X8295000Y-10205000D02*
X8295000Y-10255000D01*
X8270000Y-10230000D02*
X8320000Y-10230000D01*
X9440000Y-13315000D02*
X9440000Y-13365000D01*
X9415000Y-13340000D02*
X9465000Y-13340000D01*
X9580000Y-13780000D02*
X9580000Y-13830000D01*
X9555000Y-13805000D02*
X9605000Y-13805000D01*
X9750000Y-9480000D02*
X9750000Y-9530000D01*
X9725000Y-9505000D02*
X9775000Y-9505000D01*
X9990000Y-9295000D02*
X9990000Y-9345000D01*
X9965000Y-9320000D02*
X10015000Y-9320000D01*
X10665000Y-9430000D02*
X10665000Y-9480000D01*
X10640000Y-9455000D02*
X10690000Y-9455000D01*
X10925000Y-9405000D02*
X10925000Y-9455000D01*
X10900000Y-9430000D02*
X10950000Y-9430000D01*
X11240000Y-12845000D02*
X11240000Y-12895000D01*
X11215000Y-12870000D02*
X11265000Y-12870000D01*
X11435000Y-13830000D02*
X11435000Y-13880000D01*
X11410000Y-13855000D02*
X11460000Y-13855000D01*
X11570000Y-9445000D02*
X11570000Y-9495000D01*
X11545000Y-9470000D02*
X11595000Y-9470000D01*
X11790000Y-9445000D02*
X11790000Y-9495000D01*
X11765000Y-9470000D02*
X11815000Y-9470000D01*
X12590000Y-10370000D02*
X12590000Y-10420000D01*
X12565000Y-10395000D02*
X12615000Y-10395000D01*
X12920000Y-9980000D02*
X12920000Y-10030000D01*
X12895000Y-10005000D02*
X12945000Y-10005000D01*
X5399213Y-8386213D02*
X5399213Y-8343787D01*
X5356787Y-8343787D01*
X5356787Y-8386213D01*
X5399213Y-8386213D01*
X5408000Y-8395000D02*
X5408000Y-8335000D01*
X5348000Y-8335000D02*
G75*
G02*
X5408000Y-8335000I30000J0D01*
G01*
X5348000Y-8335000D02*
X5348000Y-8395000D01*
X5348000Y-8395000D02*
G75*
G03*
X5408000Y-8395000I30000J0D01*
G01*
X5399213Y-8804213D02*
X5399213Y-8761787D01*
X5356787Y-8761787D01*
X5356787Y-8804213D01*
X5399213Y-8804213D01*
X5408000Y-8838000D02*
X5408000Y-8728000D01*
X5348000Y-8728000D02*
G75*
G02*
X5408000Y-8728000I30000J0D01*
G01*
X5348000Y-8728000D02*
X5348000Y-8838000D01*
X5348000Y-8838000D02*
G75*
G03*
X5408000Y-8838000I30000J0D01*
G01*
X6263213Y-8386213D02*
X6263213Y-8343787D01*
X6220787Y-8343787D01*
X6220787Y-8386213D01*
X6263213Y-8386213D01*
X6272000Y-8395000D02*
X6272000Y-8335000D01*
X6212000Y-8335000D02*
G75*
G02*
X6272000Y-8335000I30000J0D01*
G01*
X6212000Y-8335000D02*
X6212000Y-8395000D01*
X6212000Y-8395000D02*
G75*
G03*
X6272000Y-8395000I30000J0D01*
G01*
X6263213Y-8804213D02*
X6263213Y-8761787D01*
X6220787Y-8761787D01*
X6220787Y-8804213D01*
X6263213Y-8804213D01*
X6272000Y-8838000D02*
X6272000Y-8728000D01*
X6212000Y-8728000D02*
G75*
G02*
X6272000Y-8728000I30000J0D01*
G01*
X6212000Y-8728000D02*
X6212000Y-8838000D01*
X6212000Y-8838000D02*
G75*
G03*
X6272000Y-8838000I30000J0D01*
G01*
X10180000Y-8245000D02*
X10215000Y-8210000D01*
X10180000Y-8175000D01*
X10145000Y-8210000D01*
X10180000Y-8245000D01*
X10180000Y-8375000D02*
X10215000Y-8340000D01*
X10180000Y-8305000D01*
X10145000Y-8340000D01*
X10180000Y-8375000D01*
X10180000Y-8505000D02*
X10215000Y-8470000D01*
X10180000Y-8435000D01*
X10145000Y-8470000D01*
X10180000Y-8505000D01*
X10180000Y-8625000D02*
X10215000Y-8590000D01*
X10180000Y-8555000D01*
X10145000Y-8590000D01*
X10180000Y-8625000D01*
X11470000Y-8245000D02*
X11505000Y-8210000D01*
X11470000Y-8175000D01*
X11435000Y-8210000D01*
X11470000Y-8245000D01*
X11470000Y-8375000D02*
X11505000Y-8340000D01*
X11470000Y-8305000D01*
X11435000Y-8340000D01*
X11470000Y-8375000D01*
X11470000Y-8495000D02*
X11505000Y-8460000D01*
X11470000Y-8425000D01*
X11435000Y-8460000D01*
X11470000Y-8495000D01*
X11470000Y-8615000D02*
X11505000Y-8580000D01*
X11470000Y-8545000D01*
X11435000Y-8580000D01*
X11470000Y-8615000D01*
X13210000Y-10490000D02*
X13290000Y-10570000D01*
X13290000Y-10490000D02*
X13210000Y-10570000D01*
X13290000Y-10530000D02*
G75*
G02*
X13210000Y-10530000I-40000J0D01*
G01*
X13210000Y-10530000D02*
G75*
G02*
X13290000Y-10530000I40000J0D01*
G01*
X13220000Y-11590000D02*
X13300000Y-11670000D01*
X13300000Y-11590000D02*
X13220000Y-11670000D01*
X13300000Y-11630000D02*
G75*
G02*
X13220000Y-11630000I-40000J0D01*
G01*
X13220000Y-11630000D02*
G75*
G02*
X13300000Y-11630000I40000J0D01*
G01*
X13260000Y-12690000D02*
X13340000Y-12770000D01*
X13340000Y-12690000D02*
X13260000Y-12770000D01*
X13340000Y-12730000D02*
G75*
G02*
X13260000Y-12730000I-40000J0D01*
G01*
X13260000Y-12730000D02*
G75*
G02*
X13340000Y-12730000I40000J0D01*
G01*
X13710000Y-10490000D02*
X13790000Y-10570000D01*
X13790000Y-10490000D02*
X13710000Y-10570000D01*
X13790000Y-10530000D02*
G75*
G02*
X13710000Y-10530000I-40000J0D01*
G01*
X13710000Y-10530000D02*
G75*
G02*
X13790000Y-10530000I40000J0D01*
G01*
X13720000Y-11590000D02*
X13800000Y-11670000D01*
X13800000Y-11590000D02*
X13720000Y-11670000D01*
X13800000Y-11630000D02*
G75*
G02*
X13720000Y-11630000I-40000J0D01*
G01*
X13720000Y-11630000D02*
G75*
G02*
X13800000Y-11630000I40000J0D01*
G01*
X13760000Y-12690000D02*
X13840000Y-12770000D01*
X13840000Y-12690000D02*
X13760000Y-12770000D01*
X13840000Y-12730000D02*
G75*
G02*
X13760000Y-12730000I-40000J0D01*
G01*
X13760000Y-12730000D02*
G75*
G02*
X13840000Y-12730000I40000J0D01*
G01*
X4300000Y-9661000D02*
X4400000Y-9761000D01*
X4400000Y-9661000D02*
X4300000Y-9761000D01*
X4350000Y-9661000D02*
X4350000Y-9761000D01*
X4300000Y-9711000D02*
X4400000Y-9711000D01*
X4300000Y-9915000D02*
X4400000Y-10015000D01*
X4400000Y-9915000D02*
X4300000Y-10015000D01*
X4350000Y-9915000D02*
X4350000Y-10015000D01*
X4300000Y-9965000D02*
X4400000Y-9965000D01*
X4300000Y-10169000D02*
X4400000Y-10269000D01*
X4400000Y-10169000D02*
X4300000Y-10269000D01*
X4350000Y-10169000D02*
X4350000Y-10269000D01*
X4300000Y-10219000D02*
X4400000Y-10219000D01*
X4300000Y-10423000D02*
X4400000Y-10523000D01*
X4400000Y-10423000D02*
X4300000Y-10523000D01*
X4350000Y-10423000D02*
X4350000Y-10523000D01*
X4300000Y-10473000D02*
X4400000Y-10473000D01*
X4300000Y-10677000D02*
X4400000Y-10777000D01*
X4400000Y-10677000D02*
X4300000Y-10777000D01*
X4350000Y-10677000D02*
X4350000Y-10777000D01*
X4300000Y-10727000D02*
X4400000Y-10727000D01*
X4300000Y-10931000D02*
X4400000Y-11031000D01*
X4400000Y-10931000D02*
X4300000Y-11031000D01*
X4350000Y-10931000D02*
X4350000Y-11031000D01*
X4300000Y-10981000D02*
X4400000Y-10981000D01*
X4300000Y-11185000D02*
X4400000Y-11285000D01*
X4400000Y-11185000D02*
X4300000Y-11285000D01*
X4350000Y-11185000D02*
X4350000Y-11285000D01*
X4300000Y-11235000D02*
X4400000Y-11235000D01*
X4300000Y-11439000D02*
X4400000Y-11539000D01*
X4400000Y-11439000D02*
X4300000Y-11539000D01*
X4350000Y-11439000D02*
X4350000Y-11539000D01*
X4300000Y-11489000D02*
X4400000Y-11489000D01*
X5040000Y-13650000D02*
X5140000Y-13750000D01*
X5140000Y-13650000D02*
X5040000Y-13750000D01*
X5090000Y-13650000D02*
X5090000Y-13750000D01*
X5040000Y-13700000D02*
X5140000Y-13700000D01*
X5294000Y-13650000D02*
X5394000Y-13750000D01*
X5394000Y-13650000D02*
X5294000Y-13750000D01*
X5344000Y-13650000D02*
X5344000Y-13750000D01*
X5294000Y-13700000D02*
X5394000Y-13700000D01*
X5548000Y-13650000D02*
X5648000Y-13750000D01*
X5648000Y-13650000D02*
X5548000Y-13750000D01*
X5598000Y-13650000D02*
X5598000Y-13750000D01*
X5548000Y-13700000D02*
X5648000Y-13700000D01*
D12*
X7972000Y-12760000D02*
X8082000Y-12870000D01*
X8082000Y-12760000D02*
X7972000Y-12870000D01*
X8065891Y-12853891D02*
X8065891Y-12776109D01*
X7988109Y-12776109D01*
X7988109Y-12853891D01*
X8065891Y-12853891D01*
X8226000Y-12760000D02*
X8336000Y-12870000D01*
X8336000Y-12760000D02*
X8226000Y-12870000D01*
X8319891Y-12853891D02*
X8319891Y-12776109D01*
X8242109Y-12776109D01*
X8242109Y-12853891D01*
X8319891Y-12853891D01*
X8395000Y-12210500D02*
X8505000Y-12320500D01*
X8505000Y-12210500D02*
X8395000Y-12320500D01*
X8488891Y-12304391D02*
X8488891Y-12226609D01*
X8411109Y-12226609D01*
X8411109Y-12304391D01*
X8488891Y-12304391D01*
X8480000Y-12760000D02*
X8590000Y-12870000D01*
X8590000Y-12760000D02*
X8480000Y-12870000D01*
X8573891Y-12853891D02*
X8573891Y-12776109D01*
X8496109Y-12776109D01*
X8496109Y-12853891D01*
X8573891Y-12853891D01*
X8649000Y-12210500D02*
X8759000Y-12320500D01*
X8759000Y-12210500D02*
X8649000Y-12320500D01*
X8742891Y-12304391D02*
X8742891Y-12226609D01*
X8665109Y-12226609D01*
X8665109Y-12304391D01*
X8742891Y-12304391D01*
X8903000Y-12210500D02*
X9013000Y-12320500D01*
X9013000Y-12210500D02*
X8903000Y-12320500D01*
X8996891Y-12304391D02*
X8996891Y-12226609D01*
X8919109Y-12226609D01*
X8919109Y-12304391D01*
X8996891Y-12304391D01*
X9844750Y-12736750D02*
X9954750Y-12846750D01*
X9954750Y-12736750D02*
X9844750Y-12846750D01*
X9938641Y-12830641D02*
X9938641Y-12752859D01*
X9860859Y-12752859D01*
X9860859Y-12830641D01*
X9938641Y-12830641D01*
X10098750Y-12736750D02*
X10208750Y-12846750D01*
X10208750Y-12736750D02*
X10098750Y-12846750D01*
X10192641Y-12830641D02*
X10192641Y-12752859D01*
X10114859Y-12752859D01*
X10114859Y-12830641D01*
X10192641Y-12830641D01*
X10254750Y-12222250D02*
X10364750Y-12332250D01*
X10364750Y-12222250D02*
X10254750Y-12332250D01*
X10348641Y-12316141D02*
X10348641Y-12238359D01*
X10270859Y-12238359D01*
X10270859Y-12316141D01*
X10348641Y-12316141D01*
X10352750Y-12736750D02*
X10462750Y-12846750D01*
X10462750Y-12736750D02*
X10352750Y-12846750D01*
X10446641Y-12830641D02*
X10446641Y-12752859D01*
X10368859Y-12752859D01*
X10368859Y-12830641D01*
X10446641Y-12830641D01*
X10508750Y-12222250D02*
X10618750Y-12332250D01*
X10618750Y-12222250D02*
X10508750Y-12332250D01*
X10602641Y-12316141D02*
X10602641Y-12238359D01*
X10524859Y-12238359D01*
X10524859Y-12316141D01*
X10602641Y-12316141D01*
X10762750Y-12222250D02*
X10872750Y-12332250D01*
X10872750Y-12222250D02*
X10762750Y-12332250D01*
X10856641Y-12316141D02*
X10856641Y-12238359D01*
X10778859Y-12238359D01*
X10778859Y-12316141D01*
X10856641Y-12316141D01*
X11774750Y-12732250D02*
X11884750Y-12842250D01*
X11884750Y-12732250D02*
X11774750Y-12842250D01*
X11868641Y-12826141D02*
X11868641Y-12748359D01*
X11790859Y-12748359D01*
X11790859Y-12826141D01*
X11868641Y-12826141D01*
X12028750Y-12732250D02*
X12138750Y-12842250D01*
X12138750Y-12732250D02*
X12028750Y-12842250D01*
X12122641Y-12826141D02*
X12122641Y-12748359D01*
X12044859Y-12748359D01*
X12044859Y-12826141D01*
X12122641Y-12826141D01*
X12191000Y-12204250D02*
X12301000Y-12314250D01*
X12301000Y-12204250D02*
X12191000Y-12314250D01*
X12284891Y-12298141D02*
X12284891Y-12220359D01*
X12207109Y-12220359D01*
X12207109Y-12298141D01*
X12284891Y-12298141D01*
X12282750Y-12732250D02*
X12392750Y-12842250D01*
X12392750Y-12732250D02*
X12282750Y-12842250D01*
X12376641Y-12826141D02*
X12376641Y-12748359D01*
X12298859Y-12748359D01*
X12298859Y-12826141D01*
X12376641Y-12826141D01*
X12445000Y-12204250D02*
X12555000Y-12314250D01*
X12555000Y-12204250D02*
X12445000Y-12314250D01*
X12538891Y-12298141D02*
X12538891Y-12220359D01*
X12461109Y-12220359D01*
X12461109Y-12298141D01*
X12538891Y-12298141D01*
X12699000Y-12204250D02*
X12809000Y-12314250D01*
X12809000Y-12204250D02*
X12699000Y-12314250D01*
X12792891Y-12298141D02*
X12792891Y-12220359D01*
X12715109Y-12220359D01*
X12715109Y-12298141D01*
X12792891Y-12298141D01*
D11*
X4375777Y-14366484D02*
X4375777Y-14166484D01*
X4375777Y-14166484D02*
X4423396Y-14166484D01*
X4423396Y-14166484D02*
X4451967Y-14176008D01*
X4451967Y-14176008D02*
X4471015Y-14195055D01*
X4471015Y-14195055D02*
X4480539Y-14214103D01*
X4480539Y-14214103D02*
X4490063Y-14252198D01*
X4490063Y-14252198D02*
X4490063Y-14280769D01*
X4490063Y-14280769D02*
X4480539Y-14318865D01*
X4480539Y-14318865D02*
X4471015Y-14337912D01*
X4471015Y-14337912D02*
X4451967Y-14356960D01*
X4451967Y-14356960D02*
X4423396Y-14366484D01*
X4423396Y-14366484D02*
X4375777Y-14366484D01*
X4575777Y-14366484D02*
X4575777Y-14233150D01*
X4575777Y-14271246D02*
X4585301Y-14252198D01*
X4585301Y-14252198D02*
X4594824Y-14242674D01*
X4594824Y-14242674D02*
X4613872Y-14233150D01*
X4613872Y-14233150D02*
X4632920Y-14233150D01*
X4699586Y-14366484D02*
X4699586Y-14233150D01*
X4699586Y-14166484D02*
X4690063Y-14176008D01*
X4690063Y-14176008D02*
X4699586Y-14185531D01*
X4699586Y-14185531D02*
X4709110Y-14176008D01*
X4709110Y-14176008D02*
X4699586Y-14166484D01*
X4699586Y-14166484D02*
X4699586Y-14185531D01*
X4823396Y-14366484D02*
X4804348Y-14356960D01*
X4804348Y-14356960D02*
X4794824Y-14337912D01*
X4794824Y-14337912D02*
X4794824Y-14166484D01*
X4928158Y-14366484D02*
X4909110Y-14356960D01*
X4909110Y-14356960D02*
X4899586Y-14337912D01*
X4899586Y-14337912D02*
X4899586Y-14166484D01*
X5156729Y-14366484D02*
X5156729Y-14166484D01*
X5156729Y-14166484D02*
X5223396Y-14309341D01*
X5223396Y-14309341D02*
X5290063Y-14166484D01*
X5290063Y-14166484D02*
X5290063Y-14366484D01*
X5471015Y-14366484D02*
X5471015Y-14261722D01*
X5471015Y-14261722D02*
X5461491Y-14242674D01*
X5461491Y-14242674D02*
X5442444Y-14233150D01*
X5442444Y-14233150D02*
X5404348Y-14233150D01*
X5404348Y-14233150D02*
X5385301Y-14242674D01*
X5471015Y-14356960D02*
X5451967Y-14366484D01*
X5451967Y-14366484D02*
X5404348Y-14366484D01*
X5404348Y-14366484D02*
X5385301Y-14356960D01*
X5385301Y-14356960D02*
X5375777Y-14337912D01*
X5375777Y-14337912D02*
X5375777Y-14318865D01*
X5375777Y-14318865D02*
X5385301Y-14299817D01*
X5385301Y-14299817D02*
X5404348Y-14290293D01*
X5404348Y-14290293D02*
X5451967Y-14290293D01*
X5451967Y-14290293D02*
X5471015Y-14280769D01*
X5566253Y-14233150D02*
X5566253Y-14433150D01*
X5566253Y-14242674D02*
X5585301Y-14233150D01*
X5585301Y-14233150D02*
X5623396Y-14233150D01*
X5623396Y-14233150D02*
X5642443Y-14242674D01*
X5642443Y-14242674D02*
X5651967Y-14252198D01*
X5651967Y-14252198D02*
X5661491Y-14271246D01*
X5661491Y-14271246D02*
X5661491Y-14328388D01*
X5661491Y-14328388D02*
X5651967Y-14347436D01*
X5651967Y-14347436D02*
X5642443Y-14356960D01*
X5642443Y-14356960D02*
X5623396Y-14366484D01*
X5623396Y-14366484D02*
X5585301Y-14366484D01*
X5585301Y-14366484D02*
X5566253Y-14356960D01*
X5747205Y-14347436D02*
X5756729Y-14356960D01*
X5756729Y-14356960D02*
X5747205Y-14366484D01*
X5747205Y-14366484D02*
X5737682Y-14356960D01*
X5737682Y-14356960D02*
X5747205Y-14347436D01*
X5747205Y-14347436D02*
X5747205Y-14366484D01*
X5747205Y-14242674D02*
X5756729Y-14252198D01*
X5756729Y-14252198D02*
X5747205Y-14261722D01*
X5747205Y-14261722D02*
X5737682Y-14252198D01*
X5737682Y-14252198D02*
X5747205Y-14242674D01*
X5747205Y-14242674D02*
X5747205Y-14261722D01*
D10*
X4085000Y-14680000D02*
X4115000Y-14710000D01*
X4115000Y-14680000D02*
X4085000Y-14710000D01*
D11*
X4413872Y-14586484D02*
X4432920Y-14586484D01*
X4432920Y-14586484D02*
X4451967Y-14596008D01*
X4451967Y-14596008D02*
X4461491Y-14605531D01*
X4461491Y-14605531D02*
X4471015Y-14624579D01*
X4471015Y-14624579D02*
X4480539Y-14662674D01*
X4480539Y-14662674D02*
X4480539Y-14710293D01*
X4480539Y-14710293D02*
X4471015Y-14748388D01*
X4471015Y-14748388D02*
X4461491Y-14767436D01*
X4461491Y-14767436D02*
X4451967Y-14776960D01*
X4451967Y-14776960D02*
X4432920Y-14786484D01*
X4432920Y-14786484D02*
X4413872Y-14786484D01*
X4413872Y-14786484D02*
X4394824Y-14776960D01*
X4394824Y-14776960D02*
X4385301Y-14767436D01*
X4385301Y-14767436D02*
X4375777Y-14748388D01*
X4375777Y-14748388D02*
X4366253Y-14710293D01*
X4366253Y-14710293D02*
X4366253Y-14662674D01*
X4366253Y-14662674D02*
X4375777Y-14624579D01*
X4375777Y-14624579D02*
X4385301Y-14605531D01*
X4385301Y-14605531D02*
X4394824Y-14596008D01*
X4394824Y-14596008D02*
X4413872Y-14586484D01*
X4566253Y-14767436D02*
X4575777Y-14776960D01*
X4575777Y-14776960D02*
X4566253Y-14786484D01*
X4566253Y-14786484D02*
X4556729Y-14776960D01*
X4556729Y-14776960D02*
X4566253Y-14767436D01*
X4566253Y-14767436D02*
X4566253Y-14786484D01*
X4642444Y-14586484D02*
X4766253Y-14586484D01*
X4766253Y-14586484D02*
X4699586Y-14662674D01*
X4699586Y-14662674D02*
X4728158Y-14662674D01*
X4728158Y-14662674D02*
X4747205Y-14672198D01*
X4747205Y-14672198D02*
X4756729Y-14681722D01*
X4756729Y-14681722D02*
X4766253Y-14700769D01*
X4766253Y-14700769D02*
X4766253Y-14748388D01*
X4766253Y-14748388D02*
X4756729Y-14767436D01*
X4756729Y-14767436D02*
X4747205Y-14776960D01*
X4747205Y-14776960D02*
X4728158Y-14786484D01*
X4728158Y-14786484D02*
X4671015Y-14786484D01*
X4671015Y-14786484D02*
X4651967Y-14776960D01*
X4651967Y-14776960D02*
X4642444Y-14767436D01*
X4890063Y-14586484D02*
X4909110Y-14586484D01*
X4909110Y-14586484D02*
X4928158Y-14596008D01*
X4928158Y-14596008D02*
X4937682Y-14605531D01*
X4937682Y-14605531D02*
X4947205Y-14624579D01*
X4947205Y-14624579D02*
X4956729Y-14662674D01*
X4956729Y-14662674D02*
X4956729Y-14710293D01*
X4956729Y-14710293D02*
X4947205Y-14748388D01*
X4947205Y-14748388D02*
X4937682Y-14767436D01*
X4937682Y-14767436D02*
X4928158Y-14776960D01*
X4928158Y-14776960D02*
X4909110Y-14786484D01*
X4909110Y-14786484D02*
X4890063Y-14786484D01*
X4890063Y-14786484D02*
X4871015Y-14776960D01*
X4871015Y-14776960D02*
X4861491Y-14767436D01*
X4861491Y-14767436D02*
X4851967Y-14748388D01*
X4851967Y-14748388D02*
X4842444Y-14710293D01*
X4842444Y-14710293D02*
X4842444Y-14662674D01*
X4842444Y-14662674D02*
X4851967Y-14624579D01*
X4851967Y-14624579D02*
X4861491Y-14605531D01*
X4861491Y-14605531D02*
X4871015Y-14596008D01*
X4871015Y-14596008D02*
X4890063Y-14586484D01*
X5080539Y-14586484D02*
X5099586Y-14586484D01*
X5099586Y-14586484D02*
X5118634Y-14596008D01*
X5118634Y-14596008D02*
X5128158Y-14605531D01*
X5128158Y-14605531D02*
X5137682Y-14624579D01*
X5137682Y-14624579D02*
X5147205Y-14662674D01*
X5147205Y-14662674D02*
X5147205Y-14710293D01*
X5147205Y-14710293D02*
X5137682Y-14748388D01*
X5137682Y-14748388D02*
X5128158Y-14767436D01*
X5128158Y-14767436D02*
X5118634Y-14776960D01*
X5118634Y-14776960D02*
X5099586Y-14786484D01*
X5099586Y-14786484D02*
X5080539Y-14786484D01*
X5080539Y-14786484D02*
X5061491Y-14776960D01*
X5061491Y-14776960D02*
X5051967Y-14767436D01*
X5051967Y-14767436D02*
X5042444Y-14748388D01*
X5042444Y-14748388D02*
X5032920Y-14710293D01*
X5032920Y-14710293D02*
X5032920Y-14662674D01*
X5032920Y-14662674D02*
X5042444Y-14624579D01*
X5042444Y-14624579D02*
X5051967Y-14605531D01*
X5051967Y-14605531D02*
X5061491Y-14596008D01*
X5061491Y-14596008D02*
X5080539Y-14586484D01*
X5232920Y-14786484D02*
X5232920Y-14653150D01*
X5232920Y-14672198D02*
X5242444Y-14662674D01*
X5242444Y-14662674D02*
X5261491Y-14653150D01*
X5261491Y-14653150D02*
X5290063Y-14653150D01*
X5290063Y-14653150D02*
X5309110Y-14662674D01*
X5309110Y-14662674D02*
X5318634Y-14681722D01*
X5318634Y-14681722D02*
X5318634Y-14786484D01*
X5318634Y-14681722D02*
X5328158Y-14662674D01*
X5328158Y-14662674D02*
X5347205Y-14653150D01*
X5347205Y-14653150D02*
X5375777Y-14653150D01*
X5375777Y-14653150D02*
X5394825Y-14662674D01*
X5394825Y-14662674D02*
X5404348Y-14681722D01*
X5404348Y-14681722D02*
X5404348Y-14786484D01*
X5499586Y-14786484D02*
X5499586Y-14653150D01*
X5499586Y-14672198D02*
X5509110Y-14662674D01*
X5509110Y-14662674D02*
X5528158Y-14653150D01*
X5528158Y-14653150D02*
X5556729Y-14653150D01*
X5556729Y-14653150D02*
X5575777Y-14662674D01*
X5575777Y-14662674D02*
X5585301Y-14681722D01*
X5585301Y-14681722D02*
X5585301Y-14786484D01*
X5585301Y-14681722D02*
X5594824Y-14662674D01*
X5594824Y-14662674D02*
X5613872Y-14653150D01*
X5613872Y-14653150D02*
X5642443Y-14653150D01*
X5642443Y-14653150D02*
X5661491Y-14662674D01*
X5661491Y-14662674D02*
X5671015Y-14681722D01*
X5671015Y-14681722D02*
X5671015Y-14786484D01*
X6061491Y-14576960D02*
X5890063Y-14834103D01*
X6318634Y-14586484D02*
X6337682Y-14586484D01*
X6337682Y-14586484D02*
X6356729Y-14596008D01*
X6356729Y-14596008D02*
X6366253Y-14605531D01*
X6366253Y-14605531D02*
X6375777Y-14624579D01*
X6375777Y-14624579D02*
X6385301Y-14662674D01*
X6385301Y-14662674D02*
X6385301Y-14710293D01*
X6385301Y-14710293D02*
X6375777Y-14748388D01*
X6375777Y-14748388D02*
X6366253Y-14767436D01*
X6366253Y-14767436D02*
X6356729Y-14776960D01*
X6356729Y-14776960D02*
X6337682Y-14786484D01*
X6337682Y-14786484D02*
X6318634Y-14786484D01*
X6318634Y-14786484D02*
X6299586Y-14776960D01*
X6299586Y-14776960D02*
X6290063Y-14767436D01*
X6290063Y-14767436D02*
X6280539Y-14748388D01*
X6280539Y-14748388D02*
X6271015Y-14710293D01*
X6271015Y-14710293D02*
X6271015Y-14662674D01*
X6271015Y-14662674D02*
X6280539Y-14624579D01*
X6280539Y-14624579D02*
X6290063Y-14605531D01*
X6290063Y-14605531D02*
X6299586Y-14596008D01*
X6299586Y-14596008D02*
X6318634Y-14586484D01*
X6471015Y-14767436D02*
X6480539Y-14776960D01*
X6480539Y-14776960D02*
X6471015Y-14786484D01*
X6471015Y-14786484D02*
X6461491Y-14776960D01*
X6461491Y-14776960D02*
X6471015Y-14767436D01*
X6471015Y-14767436D02*
X6471015Y-14786484D01*
X6604348Y-14586484D02*
X6623396Y-14586484D01*
X6623396Y-14586484D02*
X6642444Y-14596008D01*
X6642444Y-14596008D02*
X6651967Y-14605531D01*
X6651967Y-14605531D02*
X6661491Y-14624579D01*
X6661491Y-14624579D02*
X6671015Y-14662674D01*
X6671015Y-14662674D02*
X6671015Y-14710293D01*
X6671015Y-14710293D02*
X6661491Y-14748388D01*
X6661491Y-14748388D02*
X6651967Y-14767436D01*
X6651967Y-14767436D02*
X6642444Y-14776960D01*
X6642444Y-14776960D02*
X6623396Y-14786484D01*
X6623396Y-14786484D02*
X6604348Y-14786484D01*
X6604348Y-14786484D02*
X6585301Y-14776960D01*
X6585301Y-14776960D02*
X6575777Y-14767436D01*
X6575777Y-14767436D02*
X6566253Y-14748388D01*
X6566253Y-14748388D02*
X6556729Y-14710293D01*
X6556729Y-14710293D02*
X6556729Y-14662674D01*
X6556729Y-14662674D02*
X6566253Y-14624579D01*
X6566253Y-14624579D02*
X6575777Y-14605531D01*
X6575777Y-14605531D02*
X6585301Y-14596008D01*
X6585301Y-14596008D02*
X6604348Y-14586484D01*
X6861491Y-14786484D02*
X6747206Y-14786484D01*
X6804348Y-14786484D02*
X6804348Y-14586484D01*
X6804348Y-14586484D02*
X6785301Y-14615055D01*
X6785301Y-14615055D02*
X6766253Y-14634103D01*
X6766253Y-14634103D02*
X6747206Y-14643627D01*
X7051967Y-14786484D02*
X6937682Y-14786484D01*
X6994825Y-14786484D02*
X6994825Y-14586484D01*
X6994825Y-14586484D02*
X6975777Y-14615055D01*
X6975777Y-14615055D02*
X6956729Y-14634103D01*
X6956729Y-14634103D02*
X6937682Y-14643627D01*
X7166253Y-14672198D02*
X7147206Y-14662674D01*
X7147206Y-14662674D02*
X7137682Y-14653150D01*
X7137682Y-14653150D02*
X7128158Y-14634103D01*
X7128158Y-14634103D02*
X7128158Y-14624579D01*
X7128158Y-14624579D02*
X7137682Y-14605531D01*
X7137682Y-14605531D02*
X7147206Y-14596008D01*
X7147206Y-14596008D02*
X7166253Y-14586484D01*
X7166253Y-14586484D02*
X7204348Y-14586484D01*
X7204348Y-14586484D02*
X7223396Y-14596008D01*
X7223396Y-14596008D02*
X7232920Y-14605531D01*
X7232920Y-14605531D02*
X7242444Y-14624579D01*
X7242444Y-14624579D02*
X7242444Y-14634103D01*
X7242444Y-14634103D02*
X7232920Y-14653150D01*
X7232920Y-14653150D02*
X7223396Y-14662674D01*
X7223396Y-14662674D02*
X7204348Y-14672198D01*
X7204348Y-14672198D02*
X7166253Y-14672198D01*
X7166253Y-14672198D02*
X7147206Y-14681722D01*
X7147206Y-14681722D02*
X7137682Y-14691246D01*
X7137682Y-14691246D02*
X7128158Y-14710293D01*
X7128158Y-14710293D02*
X7128158Y-14748388D01*
X7128158Y-14748388D02*
X7137682Y-14767436D01*
X7137682Y-14767436D02*
X7147206Y-14776960D01*
X7147206Y-14776960D02*
X7166253Y-14786484D01*
X7166253Y-14786484D02*
X7204348Y-14786484D01*
X7204348Y-14786484D02*
X7223396Y-14776960D01*
X7223396Y-14776960D02*
X7232920Y-14767436D01*
X7232920Y-14767436D02*
X7242444Y-14748388D01*
X7242444Y-14748388D02*
X7242444Y-14710293D01*
X7242444Y-14710293D02*
X7232920Y-14691246D01*
X7232920Y-14691246D02*
X7223396Y-14681722D01*
X7223396Y-14681722D02*
X7204348Y-14672198D01*
X7318634Y-14586484D02*
X7318634Y-14624579D01*
X7394825Y-14586484D02*
X7394825Y-14624579D01*
X7690063Y-14862674D02*
X7680539Y-14853150D01*
X7680539Y-14853150D02*
X7661491Y-14824579D01*
X7661491Y-14824579D02*
X7651968Y-14805531D01*
X7651968Y-14805531D02*
X7642444Y-14776960D01*
X7642444Y-14776960D02*
X7632920Y-14729341D01*
X7632920Y-14729341D02*
X7632920Y-14691246D01*
X7632920Y-14691246D02*
X7642444Y-14643627D01*
X7642444Y-14643627D02*
X7651968Y-14615055D01*
X7651968Y-14615055D02*
X7661491Y-14596008D01*
X7661491Y-14596008D02*
X7680539Y-14567436D01*
X7680539Y-14567436D02*
X7690063Y-14557912D01*
X7871015Y-14786484D02*
X7756729Y-14786484D01*
X7813872Y-14786484D02*
X7813872Y-14586484D01*
X7813872Y-14586484D02*
X7794825Y-14615055D01*
X7794825Y-14615055D02*
X7775777Y-14634103D01*
X7775777Y-14634103D02*
X7756729Y-14643627D01*
X8051968Y-14586484D02*
X7956729Y-14586484D01*
X7956729Y-14586484D02*
X7947206Y-14681722D01*
X7947206Y-14681722D02*
X7956729Y-14672198D01*
X7956729Y-14672198D02*
X7975777Y-14662674D01*
X7975777Y-14662674D02*
X8023396Y-14662674D01*
X8023396Y-14662674D02*
X8042444Y-14672198D01*
X8042444Y-14672198D02*
X8051968Y-14681722D01*
X8051968Y-14681722D02*
X8061491Y-14700769D01*
X8061491Y-14700769D02*
X8061491Y-14748388D01*
X8061491Y-14748388D02*
X8051968Y-14767436D01*
X8051968Y-14767436D02*
X8042444Y-14776960D01*
X8042444Y-14776960D02*
X8023396Y-14786484D01*
X8023396Y-14786484D02*
X7975777Y-14786484D01*
X7975777Y-14786484D02*
X7956729Y-14776960D01*
X7956729Y-14776960D02*
X7947206Y-14767436D01*
X8185301Y-14586484D02*
X8204349Y-14586484D01*
X8204349Y-14586484D02*
X8223396Y-14596008D01*
X8223396Y-14596008D02*
X8232920Y-14605531D01*
X8232920Y-14605531D02*
X8242444Y-14624579D01*
X8242444Y-14624579D02*
X8251968Y-14662674D01*
X8251968Y-14662674D02*
X8251968Y-14710293D01*
X8251968Y-14710293D02*
X8242444Y-14748388D01*
X8242444Y-14748388D02*
X8232920Y-14767436D01*
X8232920Y-14767436D02*
X8223396Y-14776960D01*
X8223396Y-14776960D02*
X8204349Y-14786484D01*
X8204349Y-14786484D02*
X8185301Y-14786484D01*
X8185301Y-14786484D02*
X8166253Y-14776960D01*
X8166253Y-14776960D02*
X8156729Y-14767436D01*
X8156729Y-14767436D02*
X8147206Y-14748388D01*
X8147206Y-14748388D02*
X8137682Y-14710293D01*
X8137682Y-14710293D02*
X8137682Y-14662674D01*
X8137682Y-14662674D02*
X8147206Y-14624579D01*
X8147206Y-14624579D02*
X8156729Y-14605531D01*
X8156729Y-14605531D02*
X8166253Y-14596008D01*
X8166253Y-14596008D02*
X8185301Y-14586484D01*
X8490063Y-14786484D02*
X8490063Y-14586484D01*
X8575777Y-14786484D02*
X8575777Y-14681722D01*
X8575777Y-14681722D02*
X8566253Y-14662674D01*
X8566253Y-14662674D02*
X8547206Y-14653150D01*
X8547206Y-14653150D02*
X8518634Y-14653150D01*
X8518634Y-14653150D02*
X8499587Y-14662674D01*
X8499587Y-14662674D02*
X8490063Y-14672198D01*
X8699587Y-14786484D02*
X8680539Y-14776960D01*
X8680539Y-14776960D02*
X8671015Y-14767436D01*
X8671015Y-14767436D02*
X8661492Y-14748388D01*
X8661492Y-14748388D02*
X8661492Y-14691246D01*
X8661492Y-14691246D02*
X8671015Y-14672198D01*
X8671015Y-14672198D02*
X8680539Y-14662674D01*
X8680539Y-14662674D02*
X8699587Y-14653150D01*
X8699587Y-14653150D02*
X8728158Y-14653150D01*
X8728158Y-14653150D02*
X8747206Y-14662674D01*
X8747206Y-14662674D02*
X8756730Y-14672198D01*
X8756730Y-14672198D02*
X8766253Y-14691246D01*
X8766253Y-14691246D02*
X8766253Y-14748388D01*
X8766253Y-14748388D02*
X8756730Y-14767436D01*
X8756730Y-14767436D02*
X8747206Y-14776960D01*
X8747206Y-14776960D02*
X8728158Y-14786484D01*
X8728158Y-14786484D02*
X8699587Y-14786484D01*
X8880539Y-14786484D02*
X8861492Y-14776960D01*
X8861492Y-14776960D02*
X8851968Y-14757912D01*
X8851968Y-14757912D02*
X8851968Y-14586484D01*
X9032920Y-14776960D02*
X9013873Y-14786484D01*
X9013873Y-14786484D02*
X8975777Y-14786484D01*
X8975777Y-14786484D02*
X8956730Y-14776960D01*
X8956730Y-14776960D02*
X8947206Y-14757912D01*
X8947206Y-14757912D02*
X8947206Y-14681722D01*
X8947206Y-14681722D02*
X8956730Y-14662674D01*
X8956730Y-14662674D02*
X8975777Y-14653150D01*
X8975777Y-14653150D02*
X9013873Y-14653150D01*
X9013873Y-14653150D02*
X9032920Y-14662674D01*
X9032920Y-14662674D02*
X9042444Y-14681722D01*
X9042444Y-14681722D02*
X9042444Y-14700769D01*
X9042444Y-14700769D02*
X8947206Y-14719817D01*
X9118634Y-14776960D02*
X9137682Y-14786484D01*
X9137682Y-14786484D02*
X9175777Y-14786484D01*
X9175777Y-14786484D02*
X9194825Y-14776960D01*
X9194825Y-14776960D02*
X9204349Y-14757912D01*
X9204349Y-14757912D02*
X9204349Y-14748388D01*
X9204349Y-14748388D02*
X9194825Y-14729341D01*
X9194825Y-14729341D02*
X9175777Y-14719817D01*
X9175777Y-14719817D02*
X9147206Y-14719817D01*
X9147206Y-14719817D02*
X9128158Y-14710293D01*
X9128158Y-14710293D02*
X9118634Y-14691246D01*
X9118634Y-14691246D02*
X9118634Y-14681722D01*
X9118634Y-14681722D02*
X9128158Y-14662674D01*
X9128158Y-14662674D02*
X9147206Y-14653150D01*
X9147206Y-14653150D02*
X9175777Y-14653150D01*
X9175777Y-14653150D02*
X9194825Y-14662674D01*
X9271015Y-14862674D02*
X9280539Y-14853150D01*
X9280539Y-14853150D02*
X9299587Y-14824579D01*
X9299587Y-14824579D02*
X9309111Y-14805531D01*
X9309111Y-14805531D02*
X9318634Y-14776960D01*
X9318634Y-14776960D02*
X9328158Y-14729341D01*
X9328158Y-14729341D02*
X9328158Y-14691246D01*
X9328158Y-14691246D02*
X9318634Y-14643627D01*
X9318634Y-14643627D02*
X9309111Y-14615055D01*
X9309111Y-14615055D02*
X9299587Y-14596008D01*
X9299587Y-14596008D02*
X9280539Y-14567436D01*
X9280539Y-14567436D02*
X9271015Y-14557912D01*
D10*
X4115000Y-14959000D02*
G75*
G02*
X4075000Y-14959000I-20000J0D01*
G01*
X4075000Y-14959000D02*
G75*
G02*
X4115000Y-14959000I20000J0D01*
G01*
D11*
X4413872Y-14850484D02*
X4432920Y-14850484D01*
X4432920Y-14850484D02*
X4451967Y-14860008D01*
X4451967Y-14860008D02*
X4461491Y-14869531D01*
X4461491Y-14869531D02*
X4471015Y-14888579D01*
X4471015Y-14888579D02*
X4480539Y-14926674D01*
X4480539Y-14926674D02*
X4480539Y-14974293D01*
X4480539Y-14974293D02*
X4471015Y-15012388D01*
X4471015Y-15012388D02*
X4461491Y-15031436D01*
X4461491Y-15031436D02*
X4451967Y-15040960D01*
X4451967Y-15040960D02*
X4432920Y-15050484D01*
X4432920Y-15050484D02*
X4413872Y-15050484D01*
X4413872Y-15050484D02*
X4394824Y-15040960D01*
X4394824Y-15040960D02*
X4385301Y-15031436D01*
X4385301Y-15031436D02*
X4375777Y-15012388D01*
X4375777Y-15012388D02*
X4366253Y-14974293D01*
X4366253Y-14974293D02*
X4366253Y-14926674D01*
X4366253Y-14926674D02*
X4375777Y-14888579D01*
X4375777Y-14888579D02*
X4385301Y-14869531D01*
X4385301Y-14869531D02*
X4394824Y-14860008D01*
X4394824Y-14860008D02*
X4413872Y-14850484D01*
X4566253Y-15031436D02*
X4575777Y-15040960D01*
X4575777Y-15040960D02*
X4566253Y-15050484D01*
X4566253Y-15050484D02*
X4556729Y-15040960D01*
X4556729Y-15040960D02*
X4566253Y-15031436D01*
X4566253Y-15031436D02*
X4566253Y-15050484D01*
X4747205Y-14917150D02*
X4747205Y-15050484D01*
X4699586Y-14840960D02*
X4651967Y-14983817D01*
X4651967Y-14983817D02*
X4775777Y-14983817D01*
X4890063Y-14850484D02*
X4909110Y-14850484D01*
X4909110Y-14850484D02*
X4928158Y-14860008D01*
X4928158Y-14860008D02*
X4937682Y-14869531D01*
X4937682Y-14869531D02*
X4947205Y-14888579D01*
X4947205Y-14888579D02*
X4956729Y-14926674D01*
X4956729Y-14926674D02*
X4956729Y-14974293D01*
X4956729Y-14974293D02*
X4947205Y-15012388D01*
X4947205Y-15012388D02*
X4937682Y-15031436D01*
X4937682Y-15031436D02*
X4928158Y-15040960D01*
X4928158Y-15040960D02*
X4909110Y-15050484D01*
X4909110Y-15050484D02*
X4890063Y-15050484D01*
X4890063Y-15050484D02*
X4871015Y-15040960D01*
X4871015Y-15040960D02*
X4861491Y-15031436D01*
X4861491Y-15031436D02*
X4851967Y-15012388D01*
X4851967Y-15012388D02*
X4842444Y-14974293D01*
X4842444Y-14974293D02*
X4842444Y-14926674D01*
X4842444Y-14926674D02*
X4851967Y-14888579D01*
X4851967Y-14888579D02*
X4861491Y-14869531D01*
X4861491Y-14869531D02*
X4871015Y-14860008D01*
X4871015Y-14860008D02*
X4890063Y-14850484D01*
X5080539Y-14850484D02*
X5099586Y-14850484D01*
X5099586Y-14850484D02*
X5118634Y-14860008D01*
X5118634Y-14860008D02*
X5128158Y-14869531D01*
X5128158Y-14869531D02*
X5137682Y-14888579D01*
X5137682Y-14888579D02*
X5147205Y-14926674D01*
X5147205Y-14926674D02*
X5147205Y-14974293D01*
X5147205Y-14974293D02*
X5137682Y-15012388D01*
X5137682Y-15012388D02*
X5128158Y-15031436D01*
X5128158Y-15031436D02*
X5118634Y-15040960D01*
X5118634Y-15040960D02*
X5099586Y-15050484D01*
X5099586Y-15050484D02*
X5080539Y-15050484D01*
X5080539Y-15050484D02*
X5061491Y-15040960D01*
X5061491Y-15040960D02*
X5051967Y-15031436D01*
X5051967Y-15031436D02*
X5042444Y-15012388D01*
X5042444Y-15012388D02*
X5032920Y-14974293D01*
X5032920Y-14974293D02*
X5032920Y-14926674D01*
X5032920Y-14926674D02*
X5042444Y-14888579D01*
X5042444Y-14888579D02*
X5051967Y-14869531D01*
X5051967Y-14869531D02*
X5061491Y-14860008D01*
X5061491Y-14860008D02*
X5080539Y-14850484D01*
X5232920Y-15050484D02*
X5232920Y-14917150D01*
X5232920Y-14936198D02*
X5242444Y-14926674D01*
X5242444Y-14926674D02*
X5261491Y-14917150D01*
X5261491Y-14917150D02*
X5290063Y-14917150D01*
X5290063Y-14917150D02*
X5309110Y-14926674D01*
X5309110Y-14926674D02*
X5318634Y-14945722D01*
X5318634Y-14945722D02*
X5318634Y-15050484D01*
X5318634Y-14945722D02*
X5328158Y-14926674D01*
X5328158Y-14926674D02*
X5347205Y-14917150D01*
X5347205Y-14917150D02*
X5375777Y-14917150D01*
X5375777Y-14917150D02*
X5394825Y-14926674D01*
X5394825Y-14926674D02*
X5404348Y-14945722D01*
X5404348Y-14945722D02*
X5404348Y-15050484D01*
X5499586Y-15050484D02*
X5499586Y-14917150D01*
X5499586Y-14936198D02*
X5509110Y-14926674D01*
X5509110Y-14926674D02*
X5528158Y-14917150D01*
X5528158Y-14917150D02*
X5556729Y-14917150D01*
X5556729Y-14917150D02*
X5575777Y-14926674D01*
X5575777Y-14926674D02*
X5585301Y-14945722D01*
X5585301Y-14945722D02*
X5585301Y-15050484D01*
X5585301Y-14945722D02*
X5594824Y-14926674D01*
X5594824Y-14926674D02*
X5613872Y-14917150D01*
X5613872Y-14917150D02*
X5642443Y-14917150D01*
X5642443Y-14917150D02*
X5661491Y-14926674D01*
X5661491Y-14926674D02*
X5671015Y-14945722D01*
X5671015Y-14945722D02*
X5671015Y-15050484D01*
X6061491Y-14840960D02*
X5890063Y-15098103D01*
X6318634Y-14850484D02*
X6337682Y-14850484D01*
X6337682Y-14850484D02*
X6356729Y-14860008D01*
X6356729Y-14860008D02*
X6366253Y-14869531D01*
X6366253Y-14869531D02*
X6375777Y-14888579D01*
X6375777Y-14888579D02*
X6385301Y-14926674D01*
X6385301Y-14926674D02*
X6385301Y-14974293D01*
X6385301Y-14974293D02*
X6375777Y-15012388D01*
X6375777Y-15012388D02*
X6366253Y-15031436D01*
X6366253Y-15031436D02*
X6356729Y-15040960D01*
X6356729Y-15040960D02*
X6337682Y-15050484D01*
X6337682Y-15050484D02*
X6318634Y-15050484D01*
X6318634Y-15050484D02*
X6299586Y-15040960D01*
X6299586Y-15040960D02*
X6290063Y-15031436D01*
X6290063Y-15031436D02*
X6280539Y-15012388D01*
X6280539Y-15012388D02*
X6271015Y-14974293D01*
X6271015Y-14974293D02*
X6271015Y-14926674D01*
X6271015Y-14926674D02*
X6280539Y-14888579D01*
X6280539Y-14888579D02*
X6290063Y-14869531D01*
X6290063Y-14869531D02*
X6299586Y-14860008D01*
X6299586Y-14860008D02*
X6318634Y-14850484D01*
X6471015Y-15031436D02*
X6480539Y-15040960D01*
X6480539Y-15040960D02*
X6471015Y-15050484D01*
X6471015Y-15050484D02*
X6461491Y-15040960D01*
X6461491Y-15040960D02*
X6471015Y-15031436D01*
X6471015Y-15031436D02*
X6471015Y-15050484D01*
X6604348Y-14850484D02*
X6623396Y-14850484D01*
X6623396Y-14850484D02*
X6642444Y-14860008D01*
X6642444Y-14860008D02*
X6651967Y-14869531D01*
X6651967Y-14869531D02*
X6661491Y-14888579D01*
X6661491Y-14888579D02*
X6671015Y-14926674D01*
X6671015Y-14926674D02*
X6671015Y-14974293D01*
X6671015Y-14974293D02*
X6661491Y-15012388D01*
X6661491Y-15012388D02*
X6651967Y-15031436D01*
X6651967Y-15031436D02*
X6642444Y-15040960D01*
X6642444Y-15040960D02*
X6623396Y-15050484D01*
X6623396Y-15050484D02*
X6604348Y-15050484D01*
X6604348Y-15050484D02*
X6585301Y-15040960D01*
X6585301Y-15040960D02*
X6575777Y-15031436D01*
X6575777Y-15031436D02*
X6566253Y-15012388D01*
X6566253Y-15012388D02*
X6556729Y-14974293D01*
X6556729Y-14974293D02*
X6556729Y-14926674D01*
X6556729Y-14926674D02*
X6566253Y-14888579D01*
X6566253Y-14888579D02*
X6575777Y-14869531D01*
X6575777Y-14869531D02*
X6585301Y-14860008D01*
X6585301Y-14860008D02*
X6604348Y-14850484D01*
X6861491Y-15050484D02*
X6747206Y-15050484D01*
X6804348Y-15050484D02*
X6804348Y-14850484D01*
X6804348Y-14850484D02*
X6785301Y-14879055D01*
X6785301Y-14879055D02*
X6766253Y-14898103D01*
X6766253Y-14898103D02*
X6747206Y-14907627D01*
X7042444Y-14850484D02*
X6947206Y-14850484D01*
X6947206Y-14850484D02*
X6937682Y-14945722D01*
X6937682Y-14945722D02*
X6947206Y-14936198D01*
X6947206Y-14936198D02*
X6966253Y-14926674D01*
X6966253Y-14926674D02*
X7013872Y-14926674D01*
X7013872Y-14926674D02*
X7032920Y-14936198D01*
X7032920Y-14936198D02*
X7042444Y-14945722D01*
X7042444Y-14945722D02*
X7051967Y-14964769D01*
X7051967Y-14964769D02*
X7051967Y-15012388D01*
X7051967Y-15012388D02*
X7042444Y-15031436D01*
X7042444Y-15031436D02*
X7032920Y-15040960D01*
X7032920Y-15040960D02*
X7013872Y-15050484D01*
X7013872Y-15050484D02*
X6966253Y-15050484D01*
X6966253Y-15050484D02*
X6947206Y-15040960D01*
X6947206Y-15040960D02*
X6937682Y-15031436D01*
X7118634Y-14850484D02*
X7251967Y-14850484D01*
X7251967Y-14850484D02*
X7166253Y-15050484D01*
X7318634Y-14850484D02*
X7318634Y-14888579D01*
X7394825Y-14850484D02*
X7394825Y-14888579D01*
X7690063Y-15126674D02*
X7680539Y-15117150D01*
X7680539Y-15117150D02*
X7661491Y-15088579D01*
X7661491Y-15088579D02*
X7651968Y-15069531D01*
X7651968Y-15069531D02*
X7642444Y-15040960D01*
X7642444Y-15040960D02*
X7632920Y-14993341D01*
X7632920Y-14993341D02*
X7632920Y-14955246D01*
X7632920Y-14955246D02*
X7642444Y-14907627D01*
X7642444Y-14907627D02*
X7651968Y-14879055D01*
X7651968Y-14879055D02*
X7661491Y-14860008D01*
X7661491Y-14860008D02*
X7680539Y-14831436D01*
X7680539Y-14831436D02*
X7690063Y-14821912D01*
X7871015Y-15050484D02*
X7756729Y-15050484D01*
X7813872Y-15050484D02*
X7813872Y-14850484D01*
X7813872Y-14850484D02*
X7794825Y-14879055D01*
X7794825Y-14879055D02*
X7775777Y-14898103D01*
X7775777Y-14898103D02*
X7756729Y-14907627D01*
X8051968Y-14850484D02*
X7956729Y-14850484D01*
X7956729Y-14850484D02*
X7947206Y-14945722D01*
X7947206Y-14945722D02*
X7956729Y-14936198D01*
X7956729Y-14936198D02*
X7975777Y-14926674D01*
X7975777Y-14926674D02*
X8023396Y-14926674D01*
X8023396Y-14926674D02*
X8042444Y-14936198D01*
X8042444Y-14936198D02*
X8051968Y-14945722D01*
X8051968Y-14945722D02*
X8061491Y-14964769D01*
X8061491Y-14964769D02*
X8061491Y-15012388D01*
X8061491Y-15012388D02*
X8051968Y-15031436D01*
X8051968Y-15031436D02*
X8042444Y-15040960D01*
X8042444Y-15040960D02*
X8023396Y-15050484D01*
X8023396Y-15050484D02*
X7975777Y-15050484D01*
X7975777Y-15050484D02*
X7956729Y-15040960D01*
X7956729Y-15040960D02*
X7947206Y-15031436D01*
X8156729Y-15050484D02*
X8194825Y-15050484D01*
X8194825Y-15050484D02*
X8213872Y-15040960D01*
X8213872Y-15040960D02*
X8223396Y-15031436D01*
X8223396Y-15031436D02*
X8242444Y-15002865D01*
X8242444Y-15002865D02*
X8251968Y-14964769D01*
X8251968Y-14964769D02*
X8251968Y-14888579D01*
X8251968Y-14888579D02*
X8242444Y-14869531D01*
X8242444Y-14869531D02*
X8232920Y-14860008D01*
X8232920Y-14860008D02*
X8213872Y-14850484D01*
X8213872Y-14850484D02*
X8175777Y-14850484D01*
X8175777Y-14850484D02*
X8156729Y-14860008D01*
X8156729Y-14860008D02*
X8147206Y-14869531D01*
X8147206Y-14869531D02*
X8137682Y-14888579D01*
X8137682Y-14888579D02*
X8137682Y-14936198D01*
X8137682Y-14936198D02*
X8147206Y-14955246D01*
X8147206Y-14955246D02*
X8156729Y-14964769D01*
X8156729Y-14964769D02*
X8175777Y-14974293D01*
X8175777Y-14974293D02*
X8213872Y-14974293D01*
X8213872Y-14974293D02*
X8232920Y-14964769D01*
X8232920Y-14964769D02*
X8242444Y-14955246D01*
X8242444Y-14955246D02*
X8251968Y-14936198D01*
X8490063Y-15050484D02*
X8490063Y-14850484D01*
X8575777Y-15050484D02*
X8575777Y-14945722D01*
X8575777Y-14945722D02*
X8566253Y-14926674D01*
X8566253Y-14926674D02*
X8547206Y-14917150D01*
X8547206Y-14917150D02*
X8518634Y-14917150D01*
X8518634Y-14917150D02*
X8499587Y-14926674D01*
X8499587Y-14926674D02*
X8490063Y-14936198D01*
X8699587Y-15050484D02*
X8680539Y-15040960D01*
X8680539Y-15040960D02*
X8671015Y-15031436D01*
X8671015Y-15031436D02*
X8661492Y-15012388D01*
X8661492Y-15012388D02*
X8661492Y-14955246D01*
X8661492Y-14955246D02*
X8671015Y-14936198D01*
X8671015Y-14936198D02*
X8680539Y-14926674D01*
X8680539Y-14926674D02*
X8699587Y-14917150D01*
X8699587Y-14917150D02*
X8728158Y-14917150D01*
X8728158Y-14917150D02*
X8747206Y-14926674D01*
X8747206Y-14926674D02*
X8756730Y-14936198D01*
X8756730Y-14936198D02*
X8766253Y-14955246D01*
X8766253Y-14955246D02*
X8766253Y-15012388D01*
X8766253Y-15012388D02*
X8756730Y-15031436D01*
X8756730Y-15031436D02*
X8747206Y-15040960D01*
X8747206Y-15040960D02*
X8728158Y-15050484D01*
X8728158Y-15050484D02*
X8699587Y-15050484D01*
X8880539Y-15050484D02*
X8861492Y-15040960D01*
X8861492Y-15040960D02*
X8851968Y-15021912D01*
X8851968Y-15021912D02*
X8851968Y-14850484D01*
X9032920Y-15040960D02*
X9013873Y-15050484D01*
X9013873Y-15050484D02*
X8975777Y-15050484D01*
X8975777Y-15050484D02*
X8956730Y-15040960D01*
X8956730Y-15040960D02*
X8947206Y-15021912D01*
X8947206Y-15021912D02*
X8947206Y-14945722D01*
X8947206Y-14945722D02*
X8956730Y-14926674D01*
X8956730Y-14926674D02*
X8975777Y-14917150D01*
X8975777Y-14917150D02*
X9013873Y-14917150D01*
X9013873Y-14917150D02*
X9032920Y-14926674D01*
X9032920Y-14926674D02*
X9042444Y-14945722D01*
X9042444Y-14945722D02*
X9042444Y-14964769D01*
X9042444Y-14964769D02*
X8947206Y-14983817D01*
X9118634Y-15040960D02*
X9137682Y-15050484D01*
X9137682Y-15050484D02*
X9175777Y-15050484D01*
X9175777Y-15050484D02*
X9194825Y-15040960D01*
X9194825Y-15040960D02*
X9204349Y-15021912D01*
X9204349Y-15021912D02*
X9204349Y-15012388D01*
X9204349Y-15012388D02*
X9194825Y-14993341D01*
X9194825Y-14993341D02*
X9175777Y-14983817D01*
X9175777Y-14983817D02*
X9147206Y-14983817D01*
X9147206Y-14983817D02*
X9128158Y-14974293D01*
X9128158Y-14974293D02*
X9118634Y-14955246D01*
X9118634Y-14955246D02*
X9118634Y-14945722D01*
X9118634Y-14945722D02*
X9128158Y-14926674D01*
X9128158Y-14926674D02*
X9147206Y-14917150D01*
X9147206Y-14917150D02*
X9175777Y-14917150D01*
X9175777Y-14917150D02*
X9194825Y-14926674D01*
X9271015Y-15126674D02*
X9280539Y-15117150D01*
X9280539Y-15117150D02*
X9299587Y-15088579D01*
X9299587Y-15088579D02*
X9309111Y-15069531D01*
X9309111Y-15069531D02*
X9318634Y-15040960D01*
X9318634Y-15040960D02*
X9328158Y-14993341D01*
X9328158Y-14993341D02*
X9328158Y-14955246D01*
X9328158Y-14955246D02*
X9318634Y-14907627D01*
X9318634Y-14907627D02*
X9309111Y-14879055D01*
X9309111Y-14879055D02*
X9299587Y-14860008D01*
X9299587Y-14860008D02*
X9280539Y-14831436D01*
X9280539Y-14831436D02*
X9271015Y-14821912D01*
D10*
X4090000Y-15198000D02*
X4090000Y-15248000D01*
X4065000Y-15223000D02*
X4115000Y-15223000D01*
D11*
X4413872Y-15114484D02*
X4432920Y-15114484D01*
X4432920Y-15114484D02*
X4451967Y-15124008D01*
X4451967Y-15124008D02*
X4461491Y-15133531D01*
X4461491Y-15133531D02*
X4471015Y-15152579D01*
X4471015Y-15152579D02*
X4480539Y-15190674D01*
X4480539Y-15190674D02*
X4480539Y-15238293D01*
X4480539Y-15238293D02*
X4471015Y-15276388D01*
X4471015Y-15276388D02*
X4461491Y-15295436D01*
X4461491Y-15295436D02*
X4451967Y-15304960D01*
X4451967Y-15304960D02*
X4432920Y-15314484D01*
X4432920Y-15314484D02*
X4413872Y-15314484D01*
X4413872Y-15314484D02*
X4394824Y-15304960D01*
X4394824Y-15304960D02*
X4385301Y-15295436D01*
X4385301Y-15295436D02*
X4375777Y-15276388D01*
X4375777Y-15276388D02*
X4366253Y-15238293D01*
X4366253Y-15238293D02*
X4366253Y-15190674D01*
X4366253Y-15190674D02*
X4375777Y-15152579D01*
X4375777Y-15152579D02*
X4385301Y-15133531D01*
X4385301Y-15133531D02*
X4394824Y-15124008D01*
X4394824Y-15124008D02*
X4413872Y-15114484D01*
X4566253Y-15295436D02*
X4575777Y-15304960D01*
X4575777Y-15304960D02*
X4566253Y-15314484D01*
X4566253Y-15314484D02*
X4556729Y-15304960D01*
X4556729Y-15304960D02*
X4566253Y-15295436D01*
X4566253Y-15295436D02*
X4566253Y-15314484D01*
X4756729Y-15114484D02*
X4661491Y-15114484D01*
X4661491Y-15114484D02*
X4651967Y-15209722D01*
X4651967Y-15209722D02*
X4661491Y-15200198D01*
X4661491Y-15200198D02*
X4680539Y-15190674D01*
X4680539Y-15190674D02*
X4728158Y-15190674D01*
X4728158Y-15190674D02*
X4747205Y-15200198D01*
X4747205Y-15200198D02*
X4756729Y-15209722D01*
X4756729Y-15209722D02*
X4766253Y-15228769D01*
X4766253Y-15228769D02*
X4766253Y-15276388D01*
X4766253Y-15276388D02*
X4756729Y-15295436D01*
X4756729Y-15295436D02*
X4747205Y-15304960D01*
X4747205Y-15304960D02*
X4728158Y-15314484D01*
X4728158Y-15314484D02*
X4680539Y-15314484D01*
X4680539Y-15314484D02*
X4661491Y-15304960D01*
X4661491Y-15304960D02*
X4651967Y-15295436D01*
X4890063Y-15114484D02*
X4909110Y-15114484D01*
X4909110Y-15114484D02*
X4928158Y-15124008D01*
X4928158Y-15124008D02*
X4937682Y-15133531D01*
X4937682Y-15133531D02*
X4947205Y-15152579D01*
X4947205Y-15152579D02*
X4956729Y-15190674D01*
X4956729Y-15190674D02*
X4956729Y-15238293D01*
X4956729Y-15238293D02*
X4947205Y-15276388D01*
X4947205Y-15276388D02*
X4937682Y-15295436D01*
X4937682Y-15295436D02*
X4928158Y-15304960D01*
X4928158Y-15304960D02*
X4909110Y-15314484D01*
X4909110Y-15314484D02*
X4890063Y-15314484D01*
X4890063Y-15314484D02*
X4871015Y-15304960D01*
X4871015Y-15304960D02*
X4861491Y-15295436D01*
X4861491Y-15295436D02*
X4851967Y-15276388D01*
X4851967Y-15276388D02*
X4842444Y-15238293D01*
X4842444Y-15238293D02*
X4842444Y-15190674D01*
X4842444Y-15190674D02*
X4851967Y-15152579D01*
X4851967Y-15152579D02*
X4861491Y-15133531D01*
X4861491Y-15133531D02*
X4871015Y-15124008D01*
X4871015Y-15124008D02*
X4890063Y-15114484D01*
X5080539Y-15114484D02*
X5099586Y-15114484D01*
X5099586Y-15114484D02*
X5118634Y-15124008D01*
X5118634Y-15124008D02*
X5128158Y-15133531D01*
X5128158Y-15133531D02*
X5137682Y-15152579D01*
X5137682Y-15152579D02*
X5147205Y-15190674D01*
X5147205Y-15190674D02*
X5147205Y-15238293D01*
X5147205Y-15238293D02*
X5137682Y-15276388D01*
X5137682Y-15276388D02*
X5128158Y-15295436D01*
X5128158Y-15295436D02*
X5118634Y-15304960D01*
X5118634Y-15304960D02*
X5099586Y-15314484D01*
X5099586Y-15314484D02*
X5080539Y-15314484D01*
X5080539Y-15314484D02*
X5061491Y-15304960D01*
X5061491Y-15304960D02*
X5051967Y-15295436D01*
X5051967Y-15295436D02*
X5042444Y-15276388D01*
X5042444Y-15276388D02*
X5032920Y-15238293D01*
X5032920Y-15238293D02*
X5032920Y-15190674D01*
X5032920Y-15190674D02*
X5042444Y-15152579D01*
X5042444Y-15152579D02*
X5051967Y-15133531D01*
X5051967Y-15133531D02*
X5061491Y-15124008D01*
X5061491Y-15124008D02*
X5080539Y-15114484D01*
X5232920Y-15314484D02*
X5232920Y-15181150D01*
X5232920Y-15200198D02*
X5242444Y-15190674D01*
X5242444Y-15190674D02*
X5261491Y-15181150D01*
X5261491Y-15181150D02*
X5290063Y-15181150D01*
X5290063Y-15181150D02*
X5309110Y-15190674D01*
X5309110Y-15190674D02*
X5318634Y-15209722D01*
X5318634Y-15209722D02*
X5318634Y-15314484D01*
X5318634Y-15209722D02*
X5328158Y-15190674D01*
X5328158Y-15190674D02*
X5347205Y-15181150D01*
X5347205Y-15181150D02*
X5375777Y-15181150D01*
X5375777Y-15181150D02*
X5394825Y-15190674D01*
X5394825Y-15190674D02*
X5404348Y-15209722D01*
X5404348Y-15209722D02*
X5404348Y-15314484D01*
X5499586Y-15314484D02*
X5499586Y-15181150D01*
X5499586Y-15200198D02*
X5509110Y-15190674D01*
X5509110Y-15190674D02*
X5528158Y-15181150D01*
X5528158Y-15181150D02*
X5556729Y-15181150D01*
X5556729Y-15181150D02*
X5575777Y-15190674D01*
X5575777Y-15190674D02*
X5585301Y-15209722D01*
X5585301Y-15209722D02*
X5585301Y-15314484D01*
X5585301Y-15209722D02*
X5594824Y-15190674D01*
X5594824Y-15190674D02*
X5613872Y-15181150D01*
X5613872Y-15181150D02*
X5642443Y-15181150D01*
X5642443Y-15181150D02*
X5661491Y-15190674D01*
X5661491Y-15190674D02*
X5671015Y-15209722D01*
X5671015Y-15209722D02*
X5671015Y-15314484D01*
X6061491Y-15104960D02*
X5890063Y-15362103D01*
X6318634Y-15114484D02*
X6337682Y-15114484D01*
X6337682Y-15114484D02*
X6356729Y-15124008D01*
X6356729Y-15124008D02*
X6366253Y-15133531D01*
X6366253Y-15133531D02*
X6375777Y-15152579D01*
X6375777Y-15152579D02*
X6385301Y-15190674D01*
X6385301Y-15190674D02*
X6385301Y-15238293D01*
X6385301Y-15238293D02*
X6375777Y-15276388D01*
X6375777Y-15276388D02*
X6366253Y-15295436D01*
X6366253Y-15295436D02*
X6356729Y-15304960D01*
X6356729Y-15304960D02*
X6337682Y-15314484D01*
X6337682Y-15314484D02*
X6318634Y-15314484D01*
X6318634Y-15314484D02*
X6299586Y-15304960D01*
X6299586Y-15304960D02*
X6290063Y-15295436D01*
X6290063Y-15295436D02*
X6280539Y-15276388D01*
X6280539Y-15276388D02*
X6271015Y-15238293D01*
X6271015Y-15238293D02*
X6271015Y-15190674D01*
X6271015Y-15190674D02*
X6280539Y-15152579D01*
X6280539Y-15152579D02*
X6290063Y-15133531D01*
X6290063Y-15133531D02*
X6299586Y-15124008D01*
X6299586Y-15124008D02*
X6318634Y-15114484D01*
X6471015Y-15295436D02*
X6480539Y-15304960D01*
X6480539Y-15304960D02*
X6471015Y-15314484D01*
X6471015Y-15314484D02*
X6461491Y-15304960D01*
X6461491Y-15304960D02*
X6471015Y-15295436D01*
X6471015Y-15295436D02*
X6471015Y-15314484D01*
X6604348Y-15114484D02*
X6623396Y-15114484D01*
X6623396Y-15114484D02*
X6642444Y-15124008D01*
X6642444Y-15124008D02*
X6651967Y-15133531D01*
X6651967Y-15133531D02*
X6661491Y-15152579D01*
X6661491Y-15152579D02*
X6671015Y-15190674D01*
X6671015Y-15190674D02*
X6671015Y-15238293D01*
X6671015Y-15238293D02*
X6661491Y-15276388D01*
X6661491Y-15276388D02*
X6651967Y-15295436D01*
X6651967Y-15295436D02*
X6642444Y-15304960D01*
X6642444Y-15304960D02*
X6623396Y-15314484D01*
X6623396Y-15314484D02*
X6604348Y-15314484D01*
X6604348Y-15314484D02*
X6585301Y-15304960D01*
X6585301Y-15304960D02*
X6575777Y-15295436D01*
X6575777Y-15295436D02*
X6566253Y-15276388D01*
X6566253Y-15276388D02*
X6556729Y-15238293D01*
X6556729Y-15238293D02*
X6556729Y-15190674D01*
X6556729Y-15190674D02*
X6566253Y-15152579D01*
X6566253Y-15152579D02*
X6575777Y-15133531D01*
X6575777Y-15133531D02*
X6585301Y-15124008D01*
X6585301Y-15124008D02*
X6604348Y-15114484D01*
X6861491Y-15314484D02*
X6747206Y-15314484D01*
X6804348Y-15314484D02*
X6804348Y-15114484D01*
X6804348Y-15114484D02*
X6785301Y-15143055D01*
X6785301Y-15143055D02*
X6766253Y-15162103D01*
X6766253Y-15162103D02*
X6747206Y-15171627D01*
X6956729Y-15314484D02*
X6994825Y-15314484D01*
X6994825Y-15314484D02*
X7013872Y-15304960D01*
X7013872Y-15304960D02*
X7023396Y-15295436D01*
X7023396Y-15295436D02*
X7042444Y-15266865D01*
X7042444Y-15266865D02*
X7051967Y-15228769D01*
X7051967Y-15228769D02*
X7051967Y-15152579D01*
X7051967Y-15152579D02*
X7042444Y-15133531D01*
X7042444Y-15133531D02*
X7032920Y-15124008D01*
X7032920Y-15124008D02*
X7013872Y-15114484D01*
X7013872Y-15114484D02*
X6975777Y-15114484D01*
X6975777Y-15114484D02*
X6956729Y-15124008D01*
X6956729Y-15124008D02*
X6947206Y-15133531D01*
X6947206Y-15133531D02*
X6937682Y-15152579D01*
X6937682Y-15152579D02*
X6937682Y-15200198D01*
X6937682Y-15200198D02*
X6947206Y-15219246D01*
X6947206Y-15219246D02*
X6956729Y-15228769D01*
X6956729Y-15228769D02*
X6975777Y-15238293D01*
X6975777Y-15238293D02*
X7013872Y-15238293D01*
X7013872Y-15238293D02*
X7032920Y-15228769D01*
X7032920Y-15228769D02*
X7042444Y-15219246D01*
X7042444Y-15219246D02*
X7051967Y-15200198D01*
X7118634Y-15114484D02*
X7251967Y-15114484D01*
X7251967Y-15114484D02*
X7166253Y-15314484D01*
X7318634Y-15114484D02*
X7318634Y-15152579D01*
X7394825Y-15114484D02*
X7394825Y-15152579D01*
X7690063Y-15390674D02*
X7680539Y-15381150D01*
X7680539Y-15381150D02*
X7661491Y-15352579D01*
X7661491Y-15352579D02*
X7651968Y-15333531D01*
X7651968Y-15333531D02*
X7642444Y-15304960D01*
X7642444Y-15304960D02*
X7632920Y-15257341D01*
X7632920Y-15257341D02*
X7632920Y-15219246D01*
X7632920Y-15219246D02*
X7642444Y-15171627D01*
X7642444Y-15171627D02*
X7651968Y-15143055D01*
X7651968Y-15143055D02*
X7661491Y-15124008D01*
X7661491Y-15124008D02*
X7680539Y-15095436D01*
X7680539Y-15095436D02*
X7690063Y-15085912D01*
X7756729Y-15133531D02*
X7766253Y-15124008D01*
X7766253Y-15124008D02*
X7785301Y-15114484D01*
X7785301Y-15114484D02*
X7832920Y-15114484D01*
X7832920Y-15114484D02*
X7851968Y-15124008D01*
X7851968Y-15124008D02*
X7861491Y-15133531D01*
X7861491Y-15133531D02*
X7871015Y-15152579D01*
X7871015Y-15152579D02*
X7871015Y-15171627D01*
X7871015Y-15171627D02*
X7861491Y-15200198D01*
X7861491Y-15200198D02*
X7747206Y-15314484D01*
X7747206Y-15314484D02*
X7871015Y-15314484D01*
X8042444Y-15181150D02*
X8042444Y-15314484D01*
X7994825Y-15104960D02*
X7947206Y-15247817D01*
X7947206Y-15247817D02*
X8071015Y-15247817D01*
X8299587Y-15314484D02*
X8299587Y-15114484D01*
X8385301Y-15314484D02*
X8385301Y-15209722D01*
X8385301Y-15209722D02*
X8375777Y-15190674D01*
X8375777Y-15190674D02*
X8356730Y-15181150D01*
X8356730Y-15181150D02*
X8328158Y-15181150D01*
X8328158Y-15181150D02*
X8309110Y-15190674D01*
X8309110Y-15190674D02*
X8299587Y-15200198D01*
X8509111Y-15314484D02*
X8490063Y-15304960D01*
X8490063Y-15304960D02*
X8480539Y-15295436D01*
X8480539Y-15295436D02*
X8471015Y-15276388D01*
X8471015Y-15276388D02*
X8471015Y-15219246D01*
X8471015Y-15219246D02*
X8480539Y-15200198D01*
X8480539Y-15200198D02*
X8490063Y-15190674D01*
X8490063Y-15190674D02*
X8509111Y-15181150D01*
X8509111Y-15181150D02*
X8537682Y-15181150D01*
X8537682Y-15181150D02*
X8556730Y-15190674D01*
X8556730Y-15190674D02*
X8566253Y-15200198D01*
X8566253Y-15200198D02*
X8575777Y-15219246D01*
X8575777Y-15219246D02*
X8575777Y-15276388D01*
X8575777Y-15276388D02*
X8566253Y-15295436D01*
X8566253Y-15295436D02*
X8556730Y-15304960D01*
X8556730Y-15304960D02*
X8537682Y-15314484D01*
X8537682Y-15314484D02*
X8509111Y-15314484D01*
X8690063Y-15314484D02*
X8671015Y-15304960D01*
X8671015Y-15304960D02*
X8661492Y-15285912D01*
X8661492Y-15285912D02*
X8661492Y-15114484D01*
X8842444Y-15304960D02*
X8823396Y-15314484D01*
X8823396Y-15314484D02*
X8785301Y-15314484D01*
X8785301Y-15314484D02*
X8766253Y-15304960D01*
X8766253Y-15304960D02*
X8756730Y-15285912D01*
X8756730Y-15285912D02*
X8756730Y-15209722D01*
X8756730Y-15209722D02*
X8766253Y-15190674D01*
X8766253Y-15190674D02*
X8785301Y-15181150D01*
X8785301Y-15181150D02*
X8823396Y-15181150D01*
X8823396Y-15181150D02*
X8842444Y-15190674D01*
X8842444Y-15190674D02*
X8851968Y-15209722D01*
X8851968Y-15209722D02*
X8851968Y-15228769D01*
X8851968Y-15228769D02*
X8756730Y-15247817D01*
X8928158Y-15304960D02*
X8947206Y-15314484D01*
X8947206Y-15314484D02*
X8985301Y-15314484D01*
X8985301Y-15314484D02*
X9004349Y-15304960D01*
X9004349Y-15304960D02*
X9013873Y-15285912D01*
X9013873Y-15285912D02*
X9013873Y-15276388D01*
X9013873Y-15276388D02*
X9004349Y-15257341D01*
X9004349Y-15257341D02*
X8985301Y-15247817D01*
X8985301Y-15247817D02*
X8956730Y-15247817D01*
X8956730Y-15247817D02*
X8937682Y-15238293D01*
X8937682Y-15238293D02*
X8928158Y-15219246D01*
X8928158Y-15219246D02*
X8928158Y-15209722D01*
X8928158Y-15209722D02*
X8937682Y-15190674D01*
X8937682Y-15190674D02*
X8956730Y-15181150D01*
X8956730Y-15181150D02*
X8985301Y-15181150D01*
X8985301Y-15181150D02*
X9004349Y-15190674D01*
X9080539Y-15390674D02*
X9090063Y-15381150D01*
X9090063Y-15381150D02*
X9109111Y-15352579D01*
X9109111Y-15352579D02*
X9118634Y-15333531D01*
X9118634Y-15333531D02*
X9128158Y-15304960D01*
X9128158Y-15304960D02*
X9137682Y-15257341D01*
X9137682Y-15257341D02*
X9137682Y-15219246D01*
X9137682Y-15219246D02*
X9128158Y-15171627D01*
X9128158Y-15171627D02*
X9118634Y-15143055D01*
X9118634Y-15143055D02*
X9109111Y-15124008D01*
X9109111Y-15124008D02*
X9090063Y-15095436D01*
X9090063Y-15095436D02*
X9080539Y-15085912D01*
D10*
X4106213Y-15508213D02*
X4106213Y-15465787D01*
X4063787Y-15465787D01*
X4063787Y-15508213D01*
X4106213Y-15508213D01*
D11*
X4413872Y-15378484D02*
X4432920Y-15378484D01*
X4432920Y-15378484D02*
X4451967Y-15388008D01*
X4451967Y-15388008D02*
X4461491Y-15397531D01*
X4461491Y-15397531D02*
X4471015Y-15416579D01*
X4471015Y-15416579D02*
X4480539Y-15454674D01*
X4480539Y-15454674D02*
X4480539Y-15502293D01*
X4480539Y-15502293D02*
X4471015Y-15540388D01*
X4471015Y-15540388D02*
X4461491Y-15559436D01*
X4461491Y-15559436D02*
X4451967Y-15568960D01*
X4451967Y-15568960D02*
X4432920Y-15578484D01*
X4432920Y-15578484D02*
X4413872Y-15578484D01*
X4413872Y-15578484D02*
X4394824Y-15568960D01*
X4394824Y-15568960D02*
X4385301Y-15559436D01*
X4385301Y-15559436D02*
X4375777Y-15540388D01*
X4375777Y-15540388D02*
X4366253Y-15502293D01*
X4366253Y-15502293D02*
X4366253Y-15454674D01*
X4366253Y-15454674D02*
X4375777Y-15416579D01*
X4375777Y-15416579D02*
X4385301Y-15397531D01*
X4385301Y-15397531D02*
X4394824Y-15388008D01*
X4394824Y-15388008D02*
X4413872Y-15378484D01*
X4566253Y-15559436D02*
X4575777Y-15568960D01*
X4575777Y-15568960D02*
X4566253Y-15578484D01*
X4566253Y-15578484D02*
X4556729Y-15568960D01*
X4556729Y-15568960D02*
X4566253Y-15559436D01*
X4566253Y-15559436D02*
X4566253Y-15578484D01*
X4747205Y-15378484D02*
X4709110Y-15378484D01*
X4709110Y-15378484D02*
X4690063Y-15388008D01*
X4690063Y-15388008D02*
X4680539Y-15397531D01*
X4680539Y-15397531D02*
X4661491Y-15426103D01*
X4661491Y-15426103D02*
X4651967Y-15464198D01*
X4651967Y-15464198D02*
X4651967Y-15540388D01*
X4651967Y-15540388D02*
X4661491Y-15559436D01*
X4661491Y-15559436D02*
X4671015Y-15568960D01*
X4671015Y-15568960D02*
X4690063Y-15578484D01*
X4690063Y-15578484D02*
X4728158Y-15578484D01*
X4728158Y-15578484D02*
X4747205Y-15568960D01*
X4747205Y-15568960D02*
X4756729Y-15559436D01*
X4756729Y-15559436D02*
X4766253Y-15540388D01*
X4766253Y-15540388D02*
X4766253Y-15492769D01*
X4766253Y-15492769D02*
X4756729Y-15473722D01*
X4756729Y-15473722D02*
X4747205Y-15464198D01*
X4747205Y-15464198D02*
X4728158Y-15454674D01*
X4728158Y-15454674D02*
X4690063Y-15454674D01*
X4690063Y-15454674D02*
X4671015Y-15464198D01*
X4671015Y-15464198D02*
X4661491Y-15473722D01*
X4661491Y-15473722D02*
X4651967Y-15492769D01*
X4890063Y-15378484D02*
X4909110Y-15378484D01*
X4909110Y-15378484D02*
X4928158Y-15388008D01*
X4928158Y-15388008D02*
X4937682Y-15397531D01*
X4937682Y-15397531D02*
X4947205Y-15416579D01*
X4947205Y-15416579D02*
X4956729Y-15454674D01*
X4956729Y-15454674D02*
X4956729Y-15502293D01*
X4956729Y-15502293D02*
X4947205Y-15540388D01*
X4947205Y-15540388D02*
X4937682Y-15559436D01*
X4937682Y-15559436D02*
X4928158Y-15568960D01*
X4928158Y-15568960D02*
X4909110Y-15578484D01*
X4909110Y-15578484D02*
X4890063Y-15578484D01*
X4890063Y-15578484D02*
X4871015Y-15568960D01*
X4871015Y-15568960D02*
X4861491Y-15559436D01*
X4861491Y-15559436D02*
X4851967Y-15540388D01*
X4851967Y-15540388D02*
X4842444Y-15502293D01*
X4842444Y-15502293D02*
X4842444Y-15454674D01*
X4842444Y-15454674D02*
X4851967Y-15416579D01*
X4851967Y-15416579D02*
X4861491Y-15397531D01*
X4861491Y-15397531D02*
X4871015Y-15388008D01*
X4871015Y-15388008D02*
X4890063Y-15378484D01*
X5080539Y-15378484D02*
X5099586Y-15378484D01*
X5099586Y-15378484D02*
X5118634Y-15388008D01*
X5118634Y-15388008D02*
X5128158Y-15397531D01*
X5128158Y-15397531D02*
X5137682Y-15416579D01*
X5137682Y-15416579D02*
X5147205Y-15454674D01*
X5147205Y-15454674D02*
X5147205Y-15502293D01*
X5147205Y-15502293D02*
X5137682Y-15540388D01*
X5137682Y-15540388D02*
X5128158Y-15559436D01*
X5128158Y-15559436D02*
X5118634Y-15568960D01*
X5118634Y-15568960D02*
X5099586Y-15578484D01*
X5099586Y-15578484D02*
X5080539Y-15578484D01*
X5080539Y-15578484D02*
X5061491Y-15568960D01*
X5061491Y-15568960D02*
X5051967Y-15559436D01*
X5051967Y-15559436D02*
X5042444Y-15540388D01*
X5042444Y-15540388D02*
X5032920Y-15502293D01*
X5032920Y-15502293D02*
X5032920Y-15454674D01*
X5032920Y-15454674D02*
X5042444Y-15416579D01*
X5042444Y-15416579D02*
X5051967Y-15397531D01*
X5051967Y-15397531D02*
X5061491Y-15388008D01*
X5061491Y-15388008D02*
X5080539Y-15378484D01*
X5232920Y-15578484D02*
X5232920Y-15445150D01*
X5232920Y-15464198D02*
X5242444Y-15454674D01*
X5242444Y-15454674D02*
X5261491Y-15445150D01*
X5261491Y-15445150D02*
X5290063Y-15445150D01*
X5290063Y-15445150D02*
X5309110Y-15454674D01*
X5309110Y-15454674D02*
X5318634Y-15473722D01*
X5318634Y-15473722D02*
X5318634Y-15578484D01*
X5318634Y-15473722D02*
X5328158Y-15454674D01*
X5328158Y-15454674D02*
X5347205Y-15445150D01*
X5347205Y-15445150D02*
X5375777Y-15445150D01*
X5375777Y-15445150D02*
X5394825Y-15454674D01*
X5394825Y-15454674D02*
X5404348Y-15473722D01*
X5404348Y-15473722D02*
X5404348Y-15578484D01*
X5499586Y-15578484D02*
X5499586Y-15445150D01*
X5499586Y-15464198D02*
X5509110Y-15454674D01*
X5509110Y-15454674D02*
X5528158Y-15445150D01*
X5528158Y-15445150D02*
X5556729Y-15445150D01*
X5556729Y-15445150D02*
X5575777Y-15454674D01*
X5575777Y-15454674D02*
X5585301Y-15473722D01*
X5585301Y-15473722D02*
X5585301Y-15578484D01*
X5585301Y-15473722D02*
X5594824Y-15454674D01*
X5594824Y-15454674D02*
X5613872Y-15445150D01*
X5613872Y-15445150D02*
X5642443Y-15445150D01*
X5642443Y-15445150D02*
X5661491Y-15454674D01*
X5661491Y-15454674D02*
X5671015Y-15473722D01*
X5671015Y-15473722D02*
X5671015Y-15578484D01*
X6061491Y-15368960D02*
X5890063Y-15626103D01*
X6318634Y-15378484D02*
X6337682Y-15378484D01*
X6337682Y-15378484D02*
X6356729Y-15388008D01*
X6356729Y-15388008D02*
X6366253Y-15397531D01*
X6366253Y-15397531D02*
X6375777Y-15416579D01*
X6375777Y-15416579D02*
X6385301Y-15454674D01*
X6385301Y-15454674D02*
X6385301Y-15502293D01*
X6385301Y-15502293D02*
X6375777Y-15540388D01*
X6375777Y-15540388D02*
X6366253Y-15559436D01*
X6366253Y-15559436D02*
X6356729Y-15568960D01*
X6356729Y-15568960D02*
X6337682Y-15578484D01*
X6337682Y-15578484D02*
X6318634Y-15578484D01*
X6318634Y-15578484D02*
X6299586Y-15568960D01*
X6299586Y-15568960D02*
X6290063Y-15559436D01*
X6290063Y-15559436D02*
X6280539Y-15540388D01*
X6280539Y-15540388D02*
X6271015Y-15502293D01*
X6271015Y-15502293D02*
X6271015Y-15454674D01*
X6271015Y-15454674D02*
X6280539Y-15416579D01*
X6280539Y-15416579D02*
X6290063Y-15397531D01*
X6290063Y-15397531D02*
X6299586Y-15388008D01*
X6299586Y-15388008D02*
X6318634Y-15378484D01*
X6471015Y-15559436D02*
X6480539Y-15568960D01*
X6480539Y-15568960D02*
X6471015Y-15578484D01*
X6471015Y-15578484D02*
X6461491Y-15568960D01*
X6461491Y-15568960D02*
X6471015Y-15559436D01*
X6471015Y-15559436D02*
X6471015Y-15578484D01*
X6604348Y-15378484D02*
X6623396Y-15378484D01*
X6623396Y-15378484D02*
X6642444Y-15388008D01*
X6642444Y-15388008D02*
X6651967Y-15397531D01*
X6651967Y-15397531D02*
X6661491Y-15416579D01*
X6661491Y-15416579D02*
X6671015Y-15454674D01*
X6671015Y-15454674D02*
X6671015Y-15502293D01*
X6671015Y-15502293D02*
X6661491Y-15540388D01*
X6661491Y-15540388D02*
X6651967Y-15559436D01*
X6651967Y-15559436D02*
X6642444Y-15568960D01*
X6642444Y-15568960D02*
X6623396Y-15578484D01*
X6623396Y-15578484D02*
X6604348Y-15578484D01*
X6604348Y-15578484D02*
X6585301Y-15568960D01*
X6585301Y-15568960D02*
X6575777Y-15559436D01*
X6575777Y-15559436D02*
X6566253Y-15540388D01*
X6566253Y-15540388D02*
X6556729Y-15502293D01*
X6556729Y-15502293D02*
X6556729Y-15454674D01*
X6556729Y-15454674D02*
X6566253Y-15416579D01*
X6566253Y-15416579D02*
X6575777Y-15397531D01*
X6575777Y-15397531D02*
X6585301Y-15388008D01*
X6585301Y-15388008D02*
X6604348Y-15378484D01*
X6747206Y-15397531D02*
X6756729Y-15388008D01*
X6756729Y-15388008D02*
X6775777Y-15378484D01*
X6775777Y-15378484D02*
X6823396Y-15378484D01*
X6823396Y-15378484D02*
X6842444Y-15388008D01*
X6842444Y-15388008D02*
X6851967Y-15397531D01*
X6851967Y-15397531D02*
X6861491Y-15416579D01*
X6861491Y-15416579D02*
X6861491Y-15435627D01*
X6861491Y-15435627D02*
X6851967Y-15464198D01*
X6851967Y-15464198D02*
X6737682Y-15578484D01*
X6737682Y-15578484D02*
X6861491Y-15578484D01*
X6928158Y-15378484D02*
X7051967Y-15378484D01*
X7051967Y-15378484D02*
X6985301Y-15454674D01*
X6985301Y-15454674D02*
X7013872Y-15454674D01*
X7013872Y-15454674D02*
X7032920Y-15464198D01*
X7032920Y-15464198D02*
X7042444Y-15473722D01*
X7042444Y-15473722D02*
X7051967Y-15492769D01*
X7051967Y-15492769D02*
X7051967Y-15540388D01*
X7051967Y-15540388D02*
X7042444Y-15559436D01*
X7042444Y-15559436D02*
X7032920Y-15568960D01*
X7032920Y-15568960D02*
X7013872Y-15578484D01*
X7013872Y-15578484D02*
X6956729Y-15578484D01*
X6956729Y-15578484D02*
X6937682Y-15568960D01*
X6937682Y-15568960D02*
X6928158Y-15559436D01*
X7223396Y-15378484D02*
X7185301Y-15378484D01*
X7185301Y-15378484D02*
X7166253Y-15388008D01*
X7166253Y-15388008D02*
X7156729Y-15397531D01*
X7156729Y-15397531D02*
X7137682Y-15426103D01*
X7137682Y-15426103D02*
X7128158Y-15464198D01*
X7128158Y-15464198D02*
X7128158Y-15540388D01*
X7128158Y-15540388D02*
X7137682Y-15559436D01*
X7137682Y-15559436D02*
X7147206Y-15568960D01*
X7147206Y-15568960D02*
X7166253Y-15578484D01*
X7166253Y-15578484D02*
X7204348Y-15578484D01*
X7204348Y-15578484D02*
X7223396Y-15568960D01*
X7223396Y-15568960D02*
X7232920Y-15559436D01*
X7232920Y-15559436D02*
X7242444Y-15540388D01*
X7242444Y-15540388D02*
X7242444Y-15492769D01*
X7242444Y-15492769D02*
X7232920Y-15473722D01*
X7232920Y-15473722D02*
X7223396Y-15464198D01*
X7223396Y-15464198D02*
X7204348Y-15454674D01*
X7204348Y-15454674D02*
X7166253Y-15454674D01*
X7166253Y-15454674D02*
X7147206Y-15464198D01*
X7147206Y-15464198D02*
X7137682Y-15473722D01*
X7137682Y-15473722D02*
X7128158Y-15492769D01*
X7318634Y-15378484D02*
X7318634Y-15416579D01*
X7394825Y-15378484D02*
X7394825Y-15416579D01*
X7690063Y-15654674D02*
X7680539Y-15645150D01*
X7680539Y-15645150D02*
X7661491Y-15616579D01*
X7661491Y-15616579D02*
X7651968Y-15597531D01*
X7651968Y-15597531D02*
X7642444Y-15568960D01*
X7642444Y-15568960D02*
X7632920Y-15521341D01*
X7632920Y-15521341D02*
X7632920Y-15483246D01*
X7632920Y-15483246D02*
X7642444Y-15435627D01*
X7642444Y-15435627D02*
X7651968Y-15407055D01*
X7651968Y-15407055D02*
X7661491Y-15388008D01*
X7661491Y-15388008D02*
X7680539Y-15359436D01*
X7680539Y-15359436D02*
X7690063Y-15349912D01*
X7804348Y-15378484D02*
X7823396Y-15378484D01*
X7823396Y-15378484D02*
X7842444Y-15388008D01*
X7842444Y-15388008D02*
X7851968Y-15397531D01*
X7851968Y-15397531D02*
X7861491Y-15416579D01*
X7861491Y-15416579D02*
X7871015Y-15454674D01*
X7871015Y-15454674D02*
X7871015Y-15502293D01*
X7871015Y-15502293D02*
X7861491Y-15540388D01*
X7861491Y-15540388D02*
X7851968Y-15559436D01*
X7851968Y-15559436D02*
X7842444Y-15568960D01*
X7842444Y-15568960D02*
X7823396Y-15578484D01*
X7823396Y-15578484D02*
X7804348Y-15578484D01*
X7804348Y-15578484D02*
X7785301Y-15568960D01*
X7785301Y-15568960D02*
X7775777Y-15559436D01*
X7775777Y-15559436D02*
X7766253Y-15540388D01*
X7766253Y-15540388D02*
X7756729Y-15502293D01*
X7756729Y-15502293D02*
X7756729Y-15454674D01*
X7756729Y-15454674D02*
X7766253Y-15416579D01*
X7766253Y-15416579D02*
X7775777Y-15397531D01*
X7775777Y-15397531D02*
X7785301Y-15388008D01*
X7785301Y-15388008D02*
X7804348Y-15378484D01*
X8109110Y-15578484D02*
X8109110Y-15378484D01*
X8194825Y-15578484D02*
X8194825Y-15473722D01*
X8194825Y-15473722D02*
X8185301Y-15454674D01*
X8185301Y-15454674D02*
X8166253Y-15445150D01*
X8166253Y-15445150D02*
X8137682Y-15445150D01*
X8137682Y-15445150D02*
X8118634Y-15454674D01*
X8118634Y-15454674D02*
X8109110Y-15464198D01*
X8318634Y-15578484D02*
X8299587Y-15568960D01*
X8299587Y-15568960D02*
X8290063Y-15559436D01*
X8290063Y-15559436D02*
X8280539Y-15540388D01*
X8280539Y-15540388D02*
X8280539Y-15483246D01*
X8280539Y-15483246D02*
X8290063Y-15464198D01*
X8290063Y-15464198D02*
X8299587Y-15454674D01*
X8299587Y-15454674D02*
X8318634Y-15445150D01*
X8318634Y-15445150D02*
X8347206Y-15445150D01*
X8347206Y-15445150D02*
X8366253Y-15454674D01*
X8366253Y-15454674D02*
X8375777Y-15464198D01*
X8375777Y-15464198D02*
X8385301Y-15483246D01*
X8385301Y-15483246D02*
X8385301Y-15540388D01*
X8385301Y-15540388D02*
X8375777Y-15559436D01*
X8375777Y-15559436D02*
X8366253Y-15568960D01*
X8366253Y-15568960D02*
X8347206Y-15578484D01*
X8347206Y-15578484D02*
X8318634Y-15578484D01*
X8499587Y-15578484D02*
X8480539Y-15568960D01*
X8480539Y-15568960D02*
X8471015Y-15549912D01*
X8471015Y-15549912D02*
X8471015Y-15378484D01*
X8651968Y-15568960D02*
X8632920Y-15578484D01*
X8632920Y-15578484D02*
X8594825Y-15578484D01*
X8594825Y-15578484D02*
X8575777Y-15568960D01*
X8575777Y-15568960D02*
X8566253Y-15549912D01*
X8566253Y-15549912D02*
X8566253Y-15473722D01*
X8566253Y-15473722D02*
X8575777Y-15454674D01*
X8575777Y-15454674D02*
X8594825Y-15445150D01*
X8594825Y-15445150D02*
X8632920Y-15445150D01*
X8632920Y-15445150D02*
X8651968Y-15454674D01*
X8651968Y-15454674D02*
X8661492Y-15473722D01*
X8661492Y-15473722D02*
X8661492Y-15492769D01*
X8661492Y-15492769D02*
X8566253Y-15511817D01*
X8737682Y-15568960D02*
X8756730Y-15578484D01*
X8756730Y-15578484D02*
X8794825Y-15578484D01*
X8794825Y-15578484D02*
X8813873Y-15568960D01*
X8813873Y-15568960D02*
X8823396Y-15549912D01*
X8823396Y-15549912D02*
X8823396Y-15540388D01*
X8823396Y-15540388D02*
X8813873Y-15521341D01*
X8813873Y-15521341D02*
X8794825Y-15511817D01*
X8794825Y-15511817D02*
X8766253Y-15511817D01*
X8766253Y-15511817D02*
X8747206Y-15502293D01*
X8747206Y-15502293D02*
X8737682Y-15483246D01*
X8737682Y-15483246D02*
X8737682Y-15473722D01*
X8737682Y-15473722D02*
X8747206Y-15454674D01*
X8747206Y-15454674D02*
X8766253Y-15445150D01*
X8766253Y-15445150D02*
X8794825Y-15445150D01*
X8794825Y-15445150D02*
X8813873Y-15454674D01*
X9061492Y-15502293D02*
X9213873Y-15502293D01*
X9137682Y-15578484D02*
X9137682Y-15426103D01*
X9547206Y-15445150D02*
X9547206Y-15578484D01*
X9499587Y-15368960D02*
X9451968Y-15511817D01*
X9451968Y-15511817D02*
X9575777Y-15511817D01*
X9794825Y-15568960D02*
X9813873Y-15578484D01*
X9813873Y-15578484D02*
X9851968Y-15578484D01*
X9851968Y-15578484D02*
X9871016Y-15568960D01*
X9871016Y-15568960D02*
X9880539Y-15549912D01*
X9880539Y-15549912D02*
X9880539Y-15540388D01*
X9880539Y-15540388D02*
X9871016Y-15521341D01*
X9871016Y-15521341D02*
X9851968Y-15511817D01*
X9851968Y-15511817D02*
X9823396Y-15511817D01*
X9823396Y-15511817D02*
X9804349Y-15502293D01*
X9804349Y-15502293D02*
X9794825Y-15483246D01*
X9794825Y-15483246D02*
X9794825Y-15473722D01*
X9794825Y-15473722D02*
X9804349Y-15454674D01*
X9804349Y-15454674D02*
X9823396Y-15445150D01*
X9823396Y-15445150D02*
X9851968Y-15445150D01*
X9851968Y-15445150D02*
X9871016Y-15454674D01*
X9994825Y-15578484D02*
X9975777Y-15568960D01*
X9975777Y-15568960D02*
X9966254Y-15549912D01*
X9966254Y-15549912D02*
X9966254Y-15378484D01*
X10099587Y-15578484D02*
X10080539Y-15568960D01*
X10080539Y-15568960D02*
X10071016Y-15559436D01*
X10071016Y-15559436D02*
X10061492Y-15540388D01*
X10061492Y-15540388D02*
X10061492Y-15483246D01*
X10061492Y-15483246D02*
X10071016Y-15464198D01*
X10071016Y-15464198D02*
X10080539Y-15454674D01*
X10080539Y-15454674D02*
X10099587Y-15445150D01*
X10099587Y-15445150D02*
X10128158Y-15445150D01*
X10128158Y-15445150D02*
X10147206Y-15454674D01*
X10147206Y-15454674D02*
X10156730Y-15464198D01*
X10156730Y-15464198D02*
X10166254Y-15483246D01*
X10166254Y-15483246D02*
X10166254Y-15540388D01*
X10166254Y-15540388D02*
X10156730Y-15559436D01*
X10156730Y-15559436D02*
X10147206Y-15568960D01*
X10147206Y-15568960D02*
X10128158Y-15578484D01*
X10128158Y-15578484D02*
X10099587Y-15578484D01*
X10223397Y-15445150D02*
X10299587Y-15445150D01*
X10251968Y-15378484D02*
X10251968Y-15549912D01*
X10251968Y-15549912D02*
X10261492Y-15568960D01*
X10261492Y-15568960D02*
X10280539Y-15578484D01*
X10280539Y-15578484D02*
X10299587Y-15578484D01*
X10356730Y-15568960D02*
X10375777Y-15578484D01*
X10375777Y-15578484D02*
X10413873Y-15578484D01*
X10413873Y-15578484D02*
X10432920Y-15568960D01*
X10432920Y-15568960D02*
X10442444Y-15549912D01*
X10442444Y-15549912D02*
X10442444Y-15540388D01*
X10442444Y-15540388D02*
X10432920Y-15521341D01*
X10432920Y-15521341D02*
X10413873Y-15511817D01*
X10413873Y-15511817D02*
X10385301Y-15511817D01*
X10385301Y-15511817D02*
X10366254Y-15502293D01*
X10366254Y-15502293D02*
X10356730Y-15483246D01*
X10356730Y-15483246D02*
X10356730Y-15473722D01*
X10356730Y-15473722D02*
X10366254Y-15454674D01*
X10366254Y-15454674D02*
X10385301Y-15445150D01*
X10385301Y-15445150D02*
X10413873Y-15445150D01*
X10413873Y-15445150D02*
X10432920Y-15454674D01*
X10509111Y-15654674D02*
X10518635Y-15645150D01*
X10518635Y-15645150D02*
X10537682Y-15616579D01*
X10537682Y-15616579D02*
X10547206Y-15597531D01*
X10547206Y-15597531D02*
X10556730Y-15568960D01*
X10556730Y-15568960D02*
X10566254Y-15521341D01*
X10566254Y-15521341D02*
X10566254Y-15483246D01*
X10566254Y-15483246D02*
X10556730Y-15435627D01*
X10556730Y-15435627D02*
X10547206Y-15407055D01*
X10547206Y-15407055D02*
X10537682Y-15388008D01*
X10537682Y-15388008D02*
X10518635Y-15359436D01*
X10518635Y-15359436D02*
X10509111Y-15349912D01*
D10*
X4080000Y-15786000D02*
X4115000Y-15751000D01*
X4080000Y-15716000D01*
X4045000Y-15751000D01*
X4080000Y-15786000D01*
D11*
X4413872Y-15642484D02*
X4432920Y-15642484D01*
X4432920Y-15642484D02*
X4451967Y-15652008D01*
X4451967Y-15652008D02*
X4461491Y-15661531D01*
X4461491Y-15661531D02*
X4471015Y-15680579D01*
X4471015Y-15680579D02*
X4480539Y-15718674D01*
X4480539Y-15718674D02*
X4480539Y-15766293D01*
X4480539Y-15766293D02*
X4471015Y-15804388D01*
X4471015Y-15804388D02*
X4461491Y-15823436D01*
X4461491Y-15823436D02*
X4451967Y-15832960D01*
X4451967Y-15832960D02*
X4432920Y-15842484D01*
X4432920Y-15842484D02*
X4413872Y-15842484D01*
X4413872Y-15842484D02*
X4394824Y-15832960D01*
X4394824Y-15832960D02*
X4385301Y-15823436D01*
X4385301Y-15823436D02*
X4375777Y-15804388D01*
X4375777Y-15804388D02*
X4366253Y-15766293D01*
X4366253Y-15766293D02*
X4366253Y-15718674D01*
X4366253Y-15718674D02*
X4375777Y-15680579D01*
X4375777Y-15680579D02*
X4385301Y-15661531D01*
X4385301Y-15661531D02*
X4394824Y-15652008D01*
X4394824Y-15652008D02*
X4413872Y-15642484D01*
X4566253Y-15823436D02*
X4575777Y-15832960D01*
X4575777Y-15832960D02*
X4566253Y-15842484D01*
X4566253Y-15842484D02*
X4556729Y-15832960D01*
X4556729Y-15832960D02*
X4566253Y-15823436D01*
X4566253Y-15823436D02*
X4566253Y-15842484D01*
X4642444Y-15642484D02*
X4775777Y-15642484D01*
X4775777Y-15642484D02*
X4690063Y-15842484D01*
X4890063Y-15642484D02*
X4909110Y-15642484D01*
X4909110Y-15642484D02*
X4928158Y-15652008D01*
X4928158Y-15652008D02*
X4937682Y-15661531D01*
X4937682Y-15661531D02*
X4947205Y-15680579D01*
X4947205Y-15680579D02*
X4956729Y-15718674D01*
X4956729Y-15718674D02*
X4956729Y-15766293D01*
X4956729Y-15766293D02*
X4947205Y-15804388D01*
X4947205Y-15804388D02*
X4937682Y-15823436D01*
X4937682Y-15823436D02*
X4928158Y-15832960D01*
X4928158Y-15832960D02*
X4909110Y-15842484D01*
X4909110Y-15842484D02*
X4890063Y-15842484D01*
X4890063Y-15842484D02*
X4871015Y-15832960D01*
X4871015Y-15832960D02*
X4861491Y-15823436D01*
X4861491Y-15823436D02*
X4851967Y-15804388D01*
X4851967Y-15804388D02*
X4842444Y-15766293D01*
X4842444Y-15766293D02*
X4842444Y-15718674D01*
X4842444Y-15718674D02*
X4851967Y-15680579D01*
X4851967Y-15680579D02*
X4861491Y-15661531D01*
X4861491Y-15661531D02*
X4871015Y-15652008D01*
X4871015Y-15652008D02*
X4890063Y-15642484D01*
X5080539Y-15642484D02*
X5099586Y-15642484D01*
X5099586Y-15642484D02*
X5118634Y-15652008D01*
X5118634Y-15652008D02*
X5128158Y-15661531D01*
X5128158Y-15661531D02*
X5137682Y-15680579D01*
X5137682Y-15680579D02*
X5147205Y-15718674D01*
X5147205Y-15718674D02*
X5147205Y-15766293D01*
X5147205Y-15766293D02*
X5137682Y-15804388D01*
X5137682Y-15804388D02*
X5128158Y-15823436D01*
X5128158Y-15823436D02*
X5118634Y-15832960D01*
X5118634Y-15832960D02*
X5099586Y-15842484D01*
X5099586Y-15842484D02*
X5080539Y-15842484D01*
X5080539Y-15842484D02*
X5061491Y-15832960D01*
X5061491Y-15832960D02*
X5051967Y-15823436D01*
X5051967Y-15823436D02*
X5042444Y-15804388D01*
X5042444Y-15804388D02*
X5032920Y-15766293D01*
X5032920Y-15766293D02*
X5032920Y-15718674D01*
X5032920Y-15718674D02*
X5042444Y-15680579D01*
X5042444Y-15680579D02*
X5051967Y-15661531D01*
X5051967Y-15661531D02*
X5061491Y-15652008D01*
X5061491Y-15652008D02*
X5080539Y-15642484D01*
X5232920Y-15842484D02*
X5232920Y-15709150D01*
X5232920Y-15728198D02*
X5242444Y-15718674D01*
X5242444Y-15718674D02*
X5261491Y-15709150D01*
X5261491Y-15709150D02*
X5290063Y-15709150D01*
X5290063Y-15709150D02*
X5309110Y-15718674D01*
X5309110Y-15718674D02*
X5318634Y-15737722D01*
X5318634Y-15737722D02*
X5318634Y-15842484D01*
X5318634Y-15737722D02*
X5328158Y-15718674D01*
X5328158Y-15718674D02*
X5347205Y-15709150D01*
X5347205Y-15709150D02*
X5375777Y-15709150D01*
X5375777Y-15709150D02*
X5394825Y-15718674D01*
X5394825Y-15718674D02*
X5404348Y-15737722D01*
X5404348Y-15737722D02*
X5404348Y-15842484D01*
X5499586Y-15842484D02*
X5499586Y-15709150D01*
X5499586Y-15728198D02*
X5509110Y-15718674D01*
X5509110Y-15718674D02*
X5528158Y-15709150D01*
X5528158Y-15709150D02*
X5556729Y-15709150D01*
X5556729Y-15709150D02*
X5575777Y-15718674D01*
X5575777Y-15718674D02*
X5585301Y-15737722D01*
X5585301Y-15737722D02*
X5585301Y-15842484D01*
X5585301Y-15737722D02*
X5594824Y-15718674D01*
X5594824Y-15718674D02*
X5613872Y-15709150D01*
X5613872Y-15709150D02*
X5642443Y-15709150D01*
X5642443Y-15709150D02*
X5661491Y-15718674D01*
X5661491Y-15718674D02*
X5671015Y-15737722D01*
X5671015Y-15737722D02*
X5671015Y-15842484D01*
X6061491Y-15632960D02*
X5890063Y-15890103D01*
X6318634Y-15642484D02*
X6337682Y-15642484D01*
X6337682Y-15642484D02*
X6356729Y-15652008D01*
X6356729Y-15652008D02*
X6366253Y-15661531D01*
X6366253Y-15661531D02*
X6375777Y-15680579D01*
X6375777Y-15680579D02*
X6385301Y-15718674D01*
X6385301Y-15718674D02*
X6385301Y-15766293D01*
X6385301Y-15766293D02*
X6375777Y-15804388D01*
X6375777Y-15804388D02*
X6366253Y-15823436D01*
X6366253Y-15823436D02*
X6356729Y-15832960D01*
X6356729Y-15832960D02*
X6337682Y-15842484D01*
X6337682Y-15842484D02*
X6318634Y-15842484D01*
X6318634Y-15842484D02*
X6299586Y-15832960D01*
X6299586Y-15832960D02*
X6290063Y-15823436D01*
X6290063Y-15823436D02*
X6280539Y-15804388D01*
X6280539Y-15804388D02*
X6271015Y-15766293D01*
X6271015Y-15766293D02*
X6271015Y-15718674D01*
X6271015Y-15718674D02*
X6280539Y-15680579D01*
X6280539Y-15680579D02*
X6290063Y-15661531D01*
X6290063Y-15661531D02*
X6299586Y-15652008D01*
X6299586Y-15652008D02*
X6318634Y-15642484D01*
X6471015Y-15823436D02*
X6480539Y-15832960D01*
X6480539Y-15832960D02*
X6471015Y-15842484D01*
X6471015Y-15842484D02*
X6461491Y-15832960D01*
X6461491Y-15832960D02*
X6471015Y-15823436D01*
X6471015Y-15823436D02*
X6471015Y-15842484D01*
X6604348Y-15642484D02*
X6623396Y-15642484D01*
X6623396Y-15642484D02*
X6642444Y-15652008D01*
X6642444Y-15652008D02*
X6651967Y-15661531D01*
X6651967Y-15661531D02*
X6661491Y-15680579D01*
X6661491Y-15680579D02*
X6671015Y-15718674D01*
X6671015Y-15718674D02*
X6671015Y-15766293D01*
X6671015Y-15766293D02*
X6661491Y-15804388D01*
X6661491Y-15804388D02*
X6651967Y-15823436D01*
X6651967Y-15823436D02*
X6642444Y-15832960D01*
X6642444Y-15832960D02*
X6623396Y-15842484D01*
X6623396Y-15842484D02*
X6604348Y-15842484D01*
X6604348Y-15842484D02*
X6585301Y-15832960D01*
X6585301Y-15832960D02*
X6575777Y-15823436D01*
X6575777Y-15823436D02*
X6566253Y-15804388D01*
X6566253Y-15804388D02*
X6556729Y-15766293D01*
X6556729Y-15766293D02*
X6556729Y-15718674D01*
X6556729Y-15718674D02*
X6566253Y-15680579D01*
X6566253Y-15680579D02*
X6575777Y-15661531D01*
X6575777Y-15661531D02*
X6585301Y-15652008D01*
X6585301Y-15652008D02*
X6604348Y-15642484D01*
X6747206Y-15661531D02*
X6756729Y-15652008D01*
X6756729Y-15652008D02*
X6775777Y-15642484D01*
X6775777Y-15642484D02*
X6823396Y-15642484D01*
X6823396Y-15642484D02*
X6842444Y-15652008D01*
X6842444Y-15652008D02*
X6851967Y-15661531D01*
X6851967Y-15661531D02*
X6861491Y-15680579D01*
X6861491Y-15680579D02*
X6861491Y-15699627D01*
X6861491Y-15699627D02*
X6851967Y-15728198D01*
X6851967Y-15728198D02*
X6737682Y-15842484D01*
X6737682Y-15842484D02*
X6861491Y-15842484D01*
X6928158Y-15642484D02*
X7061491Y-15642484D01*
X7061491Y-15642484D02*
X6975777Y-15842484D01*
X7223396Y-15642484D02*
X7185301Y-15642484D01*
X7185301Y-15642484D02*
X7166253Y-15652008D01*
X7166253Y-15652008D02*
X7156729Y-15661531D01*
X7156729Y-15661531D02*
X7137682Y-15690103D01*
X7137682Y-15690103D02*
X7128158Y-15728198D01*
X7128158Y-15728198D02*
X7128158Y-15804388D01*
X7128158Y-15804388D02*
X7137682Y-15823436D01*
X7137682Y-15823436D02*
X7147206Y-15832960D01*
X7147206Y-15832960D02*
X7166253Y-15842484D01*
X7166253Y-15842484D02*
X7204348Y-15842484D01*
X7204348Y-15842484D02*
X7223396Y-15832960D01*
X7223396Y-15832960D02*
X7232920Y-15823436D01*
X7232920Y-15823436D02*
X7242444Y-15804388D01*
X7242444Y-15804388D02*
X7242444Y-15756769D01*
X7242444Y-15756769D02*
X7232920Y-15737722D01*
X7232920Y-15737722D02*
X7223396Y-15728198D01*
X7223396Y-15728198D02*
X7204348Y-15718674D01*
X7204348Y-15718674D02*
X7166253Y-15718674D01*
X7166253Y-15718674D02*
X7147206Y-15728198D01*
X7147206Y-15728198D02*
X7137682Y-15737722D01*
X7137682Y-15737722D02*
X7128158Y-15756769D01*
X7318634Y-15642484D02*
X7318634Y-15680579D01*
X7394825Y-15642484D02*
X7394825Y-15680579D01*
X7690063Y-15918674D02*
X7680539Y-15909150D01*
X7680539Y-15909150D02*
X7661491Y-15880579D01*
X7661491Y-15880579D02*
X7651968Y-15861531D01*
X7651968Y-15861531D02*
X7642444Y-15832960D01*
X7642444Y-15832960D02*
X7632920Y-15785341D01*
X7632920Y-15785341D02*
X7632920Y-15747246D01*
X7632920Y-15747246D02*
X7642444Y-15699627D01*
X7642444Y-15699627D02*
X7651968Y-15671055D01*
X7651968Y-15671055D02*
X7661491Y-15652008D01*
X7661491Y-15652008D02*
X7680539Y-15623436D01*
X7680539Y-15623436D02*
X7690063Y-15613912D01*
X7794825Y-15728198D02*
X7775777Y-15718674D01*
X7775777Y-15718674D02*
X7766253Y-15709150D01*
X7766253Y-15709150D02*
X7756729Y-15690103D01*
X7756729Y-15690103D02*
X7756729Y-15680579D01*
X7756729Y-15680579D02*
X7766253Y-15661531D01*
X7766253Y-15661531D02*
X7775777Y-15652008D01*
X7775777Y-15652008D02*
X7794825Y-15642484D01*
X7794825Y-15642484D02*
X7832920Y-15642484D01*
X7832920Y-15642484D02*
X7851968Y-15652008D01*
X7851968Y-15652008D02*
X7861491Y-15661531D01*
X7861491Y-15661531D02*
X7871015Y-15680579D01*
X7871015Y-15680579D02*
X7871015Y-15690103D01*
X7871015Y-15690103D02*
X7861491Y-15709150D01*
X7861491Y-15709150D02*
X7851968Y-15718674D01*
X7851968Y-15718674D02*
X7832920Y-15728198D01*
X7832920Y-15728198D02*
X7794825Y-15728198D01*
X7794825Y-15728198D02*
X7775777Y-15737722D01*
X7775777Y-15737722D02*
X7766253Y-15747246D01*
X7766253Y-15747246D02*
X7756729Y-15766293D01*
X7756729Y-15766293D02*
X7756729Y-15804388D01*
X7756729Y-15804388D02*
X7766253Y-15823436D01*
X7766253Y-15823436D02*
X7775777Y-15832960D01*
X7775777Y-15832960D02*
X7794825Y-15842484D01*
X7794825Y-15842484D02*
X7832920Y-15842484D01*
X7832920Y-15842484D02*
X7851968Y-15832960D01*
X7851968Y-15832960D02*
X7861491Y-15823436D01*
X7861491Y-15823436D02*
X7871015Y-15804388D01*
X7871015Y-15804388D02*
X7871015Y-15766293D01*
X7871015Y-15766293D02*
X7861491Y-15747246D01*
X7861491Y-15747246D02*
X7851968Y-15737722D01*
X7851968Y-15737722D02*
X7832920Y-15728198D01*
X8109110Y-15842484D02*
X8109110Y-15642484D01*
X8194825Y-15842484D02*
X8194825Y-15737722D01*
X8194825Y-15737722D02*
X8185301Y-15718674D01*
X8185301Y-15718674D02*
X8166253Y-15709150D01*
X8166253Y-15709150D02*
X8137682Y-15709150D01*
X8137682Y-15709150D02*
X8118634Y-15718674D01*
X8118634Y-15718674D02*
X8109110Y-15728198D01*
X8318634Y-15842484D02*
X8299587Y-15832960D01*
X8299587Y-15832960D02*
X8290063Y-15823436D01*
X8290063Y-15823436D02*
X8280539Y-15804388D01*
X8280539Y-15804388D02*
X8280539Y-15747246D01*
X8280539Y-15747246D02*
X8290063Y-15728198D01*
X8290063Y-15728198D02*
X8299587Y-15718674D01*
X8299587Y-15718674D02*
X8318634Y-15709150D01*
X8318634Y-15709150D02*
X8347206Y-15709150D01*
X8347206Y-15709150D02*
X8366253Y-15718674D01*
X8366253Y-15718674D02*
X8375777Y-15728198D01*
X8375777Y-15728198D02*
X8385301Y-15747246D01*
X8385301Y-15747246D02*
X8385301Y-15804388D01*
X8385301Y-15804388D02*
X8375777Y-15823436D01*
X8375777Y-15823436D02*
X8366253Y-15832960D01*
X8366253Y-15832960D02*
X8347206Y-15842484D01*
X8347206Y-15842484D02*
X8318634Y-15842484D01*
X8499587Y-15842484D02*
X8480539Y-15832960D01*
X8480539Y-15832960D02*
X8471015Y-15813912D01*
X8471015Y-15813912D02*
X8471015Y-15642484D01*
X8651968Y-15832960D02*
X8632920Y-15842484D01*
X8632920Y-15842484D02*
X8594825Y-15842484D01*
X8594825Y-15842484D02*
X8575777Y-15832960D01*
X8575777Y-15832960D02*
X8566253Y-15813912D01*
X8566253Y-15813912D02*
X8566253Y-15737722D01*
X8566253Y-15737722D02*
X8575777Y-15718674D01*
X8575777Y-15718674D02*
X8594825Y-15709150D01*
X8594825Y-15709150D02*
X8632920Y-15709150D01*
X8632920Y-15709150D02*
X8651968Y-15718674D01*
X8651968Y-15718674D02*
X8661492Y-15737722D01*
X8661492Y-15737722D02*
X8661492Y-15756769D01*
X8661492Y-15756769D02*
X8566253Y-15775817D01*
X8737682Y-15832960D02*
X8756730Y-15842484D01*
X8756730Y-15842484D02*
X8794825Y-15842484D01*
X8794825Y-15842484D02*
X8813873Y-15832960D01*
X8813873Y-15832960D02*
X8823396Y-15813912D01*
X8823396Y-15813912D02*
X8823396Y-15804388D01*
X8823396Y-15804388D02*
X8813873Y-15785341D01*
X8813873Y-15785341D02*
X8794825Y-15775817D01*
X8794825Y-15775817D02*
X8766253Y-15775817D01*
X8766253Y-15775817D02*
X8747206Y-15766293D01*
X8747206Y-15766293D02*
X8737682Y-15747246D01*
X8737682Y-15747246D02*
X8737682Y-15737722D01*
X8737682Y-15737722D02*
X8747206Y-15718674D01*
X8747206Y-15718674D02*
X8766253Y-15709150D01*
X8766253Y-15709150D02*
X8794825Y-15709150D01*
X8794825Y-15709150D02*
X8813873Y-15718674D01*
X8890063Y-15918674D02*
X8899587Y-15909150D01*
X8899587Y-15909150D02*
X8918634Y-15880579D01*
X8918634Y-15880579D02*
X8928158Y-15861531D01*
X8928158Y-15861531D02*
X8937682Y-15832960D01*
X8937682Y-15832960D02*
X8947206Y-15785341D01*
X8947206Y-15785341D02*
X8947206Y-15747246D01*
X8947206Y-15747246D02*
X8937682Y-15699627D01*
X8937682Y-15699627D02*
X8928158Y-15671055D01*
X8928158Y-15671055D02*
X8918634Y-15652008D01*
X8918634Y-15652008D02*
X8899587Y-15623436D01*
X8899587Y-15623436D02*
X8890063Y-15613912D01*
D10*
X4035000Y-15975000D02*
X4115000Y-16055000D01*
X4115000Y-15975000D02*
X4035000Y-16055000D01*
X4115000Y-16015000D02*
G75*
G02*
X4035000Y-16015000I-40000J0D01*
G01*
X4035000Y-16015000D02*
G75*
G02*
X4115000Y-16015000I40000J0D01*
G01*
D11*
X4413872Y-15906484D02*
X4432920Y-15906484D01*
X4432920Y-15906484D02*
X4451967Y-15916008D01*
X4451967Y-15916008D02*
X4461491Y-15925531D01*
X4461491Y-15925531D02*
X4471015Y-15944579D01*
X4471015Y-15944579D02*
X4480539Y-15982674D01*
X4480539Y-15982674D02*
X4480539Y-16030293D01*
X4480539Y-16030293D02*
X4471015Y-16068388D01*
X4471015Y-16068388D02*
X4461491Y-16087436D01*
X4461491Y-16087436D02*
X4451967Y-16096960D01*
X4451967Y-16096960D02*
X4432920Y-16106484D01*
X4432920Y-16106484D02*
X4413872Y-16106484D01*
X4413872Y-16106484D02*
X4394824Y-16096960D01*
X4394824Y-16096960D02*
X4385301Y-16087436D01*
X4385301Y-16087436D02*
X4375777Y-16068388D01*
X4375777Y-16068388D02*
X4366253Y-16030293D01*
X4366253Y-16030293D02*
X4366253Y-15982674D01*
X4366253Y-15982674D02*
X4375777Y-15944579D01*
X4375777Y-15944579D02*
X4385301Y-15925531D01*
X4385301Y-15925531D02*
X4394824Y-15916008D01*
X4394824Y-15916008D02*
X4413872Y-15906484D01*
X4566253Y-16087436D02*
X4575777Y-16096960D01*
X4575777Y-16096960D02*
X4566253Y-16106484D01*
X4566253Y-16106484D02*
X4556729Y-16096960D01*
X4556729Y-16096960D02*
X4566253Y-16087436D01*
X4566253Y-16087436D02*
X4566253Y-16106484D01*
X4690063Y-15992198D02*
X4671015Y-15982674D01*
X4671015Y-15982674D02*
X4661491Y-15973150D01*
X4661491Y-15973150D02*
X4651967Y-15954103D01*
X4651967Y-15954103D02*
X4651967Y-15944579D01*
X4651967Y-15944579D02*
X4661491Y-15925531D01*
X4661491Y-15925531D02*
X4671015Y-15916008D01*
X4671015Y-15916008D02*
X4690063Y-15906484D01*
X4690063Y-15906484D02*
X4728158Y-15906484D01*
X4728158Y-15906484D02*
X4747205Y-15916008D01*
X4747205Y-15916008D02*
X4756729Y-15925531D01*
X4756729Y-15925531D02*
X4766253Y-15944579D01*
X4766253Y-15944579D02*
X4766253Y-15954103D01*
X4766253Y-15954103D02*
X4756729Y-15973150D01*
X4756729Y-15973150D02*
X4747205Y-15982674D01*
X4747205Y-15982674D02*
X4728158Y-15992198D01*
X4728158Y-15992198D02*
X4690063Y-15992198D01*
X4690063Y-15992198D02*
X4671015Y-16001722D01*
X4671015Y-16001722D02*
X4661491Y-16011246D01*
X4661491Y-16011246D02*
X4651967Y-16030293D01*
X4651967Y-16030293D02*
X4651967Y-16068388D01*
X4651967Y-16068388D02*
X4661491Y-16087436D01*
X4661491Y-16087436D02*
X4671015Y-16096960D01*
X4671015Y-16096960D02*
X4690063Y-16106484D01*
X4690063Y-16106484D02*
X4728158Y-16106484D01*
X4728158Y-16106484D02*
X4747205Y-16096960D01*
X4747205Y-16096960D02*
X4756729Y-16087436D01*
X4756729Y-16087436D02*
X4766253Y-16068388D01*
X4766253Y-16068388D02*
X4766253Y-16030293D01*
X4766253Y-16030293D02*
X4756729Y-16011246D01*
X4756729Y-16011246D02*
X4747205Y-16001722D01*
X4747205Y-16001722D02*
X4728158Y-15992198D01*
X4890063Y-15906484D02*
X4909110Y-15906484D01*
X4909110Y-15906484D02*
X4928158Y-15916008D01*
X4928158Y-15916008D02*
X4937682Y-15925531D01*
X4937682Y-15925531D02*
X4947205Y-15944579D01*
X4947205Y-15944579D02*
X4956729Y-15982674D01*
X4956729Y-15982674D02*
X4956729Y-16030293D01*
X4956729Y-16030293D02*
X4947205Y-16068388D01*
X4947205Y-16068388D02*
X4937682Y-16087436D01*
X4937682Y-16087436D02*
X4928158Y-16096960D01*
X4928158Y-16096960D02*
X4909110Y-16106484D01*
X4909110Y-16106484D02*
X4890063Y-16106484D01*
X4890063Y-16106484D02*
X4871015Y-16096960D01*
X4871015Y-16096960D02*
X4861491Y-16087436D01*
X4861491Y-16087436D02*
X4851967Y-16068388D01*
X4851967Y-16068388D02*
X4842444Y-16030293D01*
X4842444Y-16030293D02*
X4842444Y-15982674D01*
X4842444Y-15982674D02*
X4851967Y-15944579D01*
X4851967Y-15944579D02*
X4861491Y-15925531D01*
X4861491Y-15925531D02*
X4871015Y-15916008D01*
X4871015Y-15916008D02*
X4890063Y-15906484D01*
X5080539Y-15906484D02*
X5099586Y-15906484D01*
X5099586Y-15906484D02*
X5118634Y-15916008D01*
X5118634Y-15916008D02*
X5128158Y-15925531D01*
X5128158Y-15925531D02*
X5137682Y-15944579D01*
X5137682Y-15944579D02*
X5147205Y-15982674D01*
X5147205Y-15982674D02*
X5147205Y-16030293D01*
X5147205Y-16030293D02*
X5137682Y-16068388D01*
X5137682Y-16068388D02*
X5128158Y-16087436D01*
X5128158Y-16087436D02*
X5118634Y-16096960D01*
X5118634Y-16096960D02*
X5099586Y-16106484D01*
X5099586Y-16106484D02*
X5080539Y-16106484D01*
X5080539Y-16106484D02*
X5061491Y-16096960D01*
X5061491Y-16096960D02*
X5051967Y-16087436D01*
X5051967Y-16087436D02*
X5042444Y-16068388D01*
X5042444Y-16068388D02*
X5032920Y-16030293D01*
X5032920Y-16030293D02*
X5032920Y-15982674D01*
X5032920Y-15982674D02*
X5042444Y-15944579D01*
X5042444Y-15944579D02*
X5051967Y-15925531D01*
X5051967Y-15925531D02*
X5061491Y-15916008D01*
X5061491Y-15916008D02*
X5080539Y-15906484D01*
X5232920Y-16106484D02*
X5232920Y-15973150D01*
X5232920Y-15992198D02*
X5242444Y-15982674D01*
X5242444Y-15982674D02*
X5261491Y-15973150D01*
X5261491Y-15973150D02*
X5290063Y-15973150D01*
X5290063Y-15973150D02*
X5309110Y-15982674D01*
X5309110Y-15982674D02*
X5318634Y-16001722D01*
X5318634Y-16001722D02*
X5318634Y-16106484D01*
X5318634Y-16001722D02*
X5328158Y-15982674D01*
X5328158Y-15982674D02*
X5347205Y-15973150D01*
X5347205Y-15973150D02*
X5375777Y-15973150D01*
X5375777Y-15973150D02*
X5394825Y-15982674D01*
X5394825Y-15982674D02*
X5404348Y-16001722D01*
X5404348Y-16001722D02*
X5404348Y-16106484D01*
X5499586Y-16106484D02*
X5499586Y-15973150D01*
X5499586Y-15992198D02*
X5509110Y-15982674D01*
X5509110Y-15982674D02*
X5528158Y-15973150D01*
X5528158Y-15973150D02*
X5556729Y-15973150D01*
X5556729Y-15973150D02*
X5575777Y-15982674D01*
X5575777Y-15982674D02*
X5585301Y-16001722D01*
X5585301Y-16001722D02*
X5585301Y-16106484D01*
X5585301Y-16001722D02*
X5594824Y-15982674D01*
X5594824Y-15982674D02*
X5613872Y-15973150D01*
X5613872Y-15973150D02*
X5642443Y-15973150D01*
X5642443Y-15973150D02*
X5661491Y-15982674D01*
X5661491Y-15982674D02*
X5671015Y-16001722D01*
X5671015Y-16001722D02*
X5671015Y-16106484D01*
X6061491Y-15896960D02*
X5890063Y-16154103D01*
X6318634Y-15906484D02*
X6337682Y-15906484D01*
X6337682Y-15906484D02*
X6356729Y-15916008D01*
X6356729Y-15916008D02*
X6366253Y-15925531D01*
X6366253Y-15925531D02*
X6375777Y-15944579D01*
X6375777Y-15944579D02*
X6385301Y-15982674D01*
X6385301Y-15982674D02*
X6385301Y-16030293D01*
X6385301Y-16030293D02*
X6375777Y-16068388D01*
X6375777Y-16068388D02*
X6366253Y-16087436D01*
X6366253Y-16087436D02*
X6356729Y-16096960D01*
X6356729Y-16096960D02*
X6337682Y-16106484D01*
X6337682Y-16106484D02*
X6318634Y-16106484D01*
X6318634Y-16106484D02*
X6299586Y-16096960D01*
X6299586Y-16096960D02*
X6290063Y-16087436D01*
X6290063Y-16087436D02*
X6280539Y-16068388D01*
X6280539Y-16068388D02*
X6271015Y-16030293D01*
X6271015Y-16030293D02*
X6271015Y-15982674D01*
X6271015Y-15982674D02*
X6280539Y-15944579D01*
X6280539Y-15944579D02*
X6290063Y-15925531D01*
X6290063Y-15925531D02*
X6299586Y-15916008D01*
X6299586Y-15916008D02*
X6318634Y-15906484D01*
X6471015Y-16087436D02*
X6480539Y-16096960D01*
X6480539Y-16096960D02*
X6471015Y-16106484D01*
X6471015Y-16106484D02*
X6461491Y-16096960D01*
X6461491Y-16096960D02*
X6471015Y-16087436D01*
X6471015Y-16087436D02*
X6471015Y-16106484D01*
X6604348Y-15906484D02*
X6623396Y-15906484D01*
X6623396Y-15906484D02*
X6642444Y-15916008D01*
X6642444Y-15916008D02*
X6651967Y-15925531D01*
X6651967Y-15925531D02*
X6661491Y-15944579D01*
X6661491Y-15944579D02*
X6671015Y-15982674D01*
X6671015Y-15982674D02*
X6671015Y-16030293D01*
X6671015Y-16030293D02*
X6661491Y-16068388D01*
X6661491Y-16068388D02*
X6651967Y-16087436D01*
X6651967Y-16087436D02*
X6642444Y-16096960D01*
X6642444Y-16096960D02*
X6623396Y-16106484D01*
X6623396Y-16106484D02*
X6604348Y-16106484D01*
X6604348Y-16106484D02*
X6585301Y-16096960D01*
X6585301Y-16096960D02*
X6575777Y-16087436D01*
X6575777Y-16087436D02*
X6566253Y-16068388D01*
X6566253Y-16068388D02*
X6556729Y-16030293D01*
X6556729Y-16030293D02*
X6556729Y-15982674D01*
X6556729Y-15982674D02*
X6566253Y-15944579D01*
X6566253Y-15944579D02*
X6575777Y-15925531D01*
X6575777Y-15925531D02*
X6585301Y-15916008D01*
X6585301Y-15916008D02*
X6604348Y-15906484D01*
X6737682Y-15906484D02*
X6861491Y-15906484D01*
X6861491Y-15906484D02*
X6794825Y-15982674D01*
X6794825Y-15982674D02*
X6823396Y-15982674D01*
X6823396Y-15982674D02*
X6842444Y-15992198D01*
X6842444Y-15992198D02*
X6851967Y-16001722D01*
X6851967Y-16001722D02*
X6861491Y-16020769D01*
X6861491Y-16020769D02*
X6861491Y-16068388D01*
X6861491Y-16068388D02*
X6851967Y-16087436D01*
X6851967Y-16087436D02*
X6842444Y-16096960D01*
X6842444Y-16096960D02*
X6823396Y-16106484D01*
X6823396Y-16106484D02*
X6766253Y-16106484D01*
X6766253Y-16106484D02*
X6747206Y-16096960D01*
X6747206Y-16096960D02*
X6737682Y-16087436D01*
X7051967Y-16106484D02*
X6937682Y-16106484D01*
X6994825Y-16106484D02*
X6994825Y-15906484D01*
X6994825Y-15906484D02*
X6975777Y-15935055D01*
X6975777Y-15935055D02*
X6956729Y-15954103D01*
X6956729Y-15954103D02*
X6937682Y-15963627D01*
X7232920Y-15906484D02*
X7137682Y-15906484D01*
X7137682Y-15906484D02*
X7128158Y-16001722D01*
X7128158Y-16001722D02*
X7137682Y-15992198D01*
X7137682Y-15992198D02*
X7156729Y-15982674D01*
X7156729Y-15982674D02*
X7204348Y-15982674D01*
X7204348Y-15982674D02*
X7223396Y-15992198D01*
X7223396Y-15992198D02*
X7232920Y-16001722D01*
X7232920Y-16001722D02*
X7242444Y-16020769D01*
X7242444Y-16020769D02*
X7242444Y-16068388D01*
X7242444Y-16068388D02*
X7232920Y-16087436D01*
X7232920Y-16087436D02*
X7223396Y-16096960D01*
X7223396Y-16096960D02*
X7204348Y-16106484D01*
X7204348Y-16106484D02*
X7156729Y-16106484D01*
X7156729Y-16106484D02*
X7137682Y-16096960D01*
X7137682Y-16096960D02*
X7128158Y-16087436D01*
X7318634Y-15906484D02*
X7318634Y-15944579D01*
X7394825Y-15906484D02*
X7394825Y-15944579D01*
X7690063Y-16182674D02*
X7680539Y-16173150D01*
X7680539Y-16173150D02*
X7661491Y-16144579D01*
X7661491Y-16144579D02*
X7651968Y-16125531D01*
X7651968Y-16125531D02*
X7642444Y-16096960D01*
X7642444Y-16096960D02*
X7632920Y-16049341D01*
X7632920Y-16049341D02*
X7632920Y-16011246D01*
X7632920Y-16011246D02*
X7642444Y-15963627D01*
X7642444Y-15963627D02*
X7651968Y-15935055D01*
X7651968Y-15935055D02*
X7661491Y-15916008D01*
X7661491Y-15916008D02*
X7680539Y-15887436D01*
X7680539Y-15887436D02*
X7690063Y-15877912D01*
X7851968Y-15906484D02*
X7813872Y-15906484D01*
X7813872Y-15906484D02*
X7794825Y-15916008D01*
X7794825Y-15916008D02*
X7785301Y-15925531D01*
X7785301Y-15925531D02*
X7766253Y-15954103D01*
X7766253Y-15954103D02*
X7756729Y-15992198D01*
X7756729Y-15992198D02*
X7756729Y-16068388D01*
X7756729Y-16068388D02*
X7766253Y-16087436D01*
X7766253Y-16087436D02*
X7775777Y-16096960D01*
X7775777Y-16096960D02*
X7794825Y-16106484D01*
X7794825Y-16106484D02*
X7832920Y-16106484D01*
X7832920Y-16106484D02*
X7851968Y-16096960D01*
X7851968Y-16096960D02*
X7861491Y-16087436D01*
X7861491Y-16087436D02*
X7871015Y-16068388D01*
X7871015Y-16068388D02*
X7871015Y-16020769D01*
X7871015Y-16020769D02*
X7861491Y-16001722D01*
X7861491Y-16001722D02*
X7851968Y-15992198D01*
X7851968Y-15992198D02*
X7832920Y-15982674D01*
X7832920Y-15982674D02*
X7794825Y-15982674D01*
X7794825Y-15982674D02*
X7775777Y-15992198D01*
X7775777Y-15992198D02*
X7766253Y-16001722D01*
X7766253Y-16001722D02*
X7756729Y-16020769D01*
X8109110Y-16106484D02*
X8109110Y-15906484D01*
X8194825Y-16106484D02*
X8194825Y-16001722D01*
X8194825Y-16001722D02*
X8185301Y-15982674D01*
X8185301Y-15982674D02*
X8166253Y-15973150D01*
X8166253Y-15973150D02*
X8137682Y-15973150D01*
X8137682Y-15973150D02*
X8118634Y-15982674D01*
X8118634Y-15982674D02*
X8109110Y-15992198D01*
X8318634Y-16106484D02*
X8299587Y-16096960D01*
X8299587Y-16096960D02*
X8290063Y-16087436D01*
X8290063Y-16087436D02*
X8280539Y-16068388D01*
X8280539Y-16068388D02*
X8280539Y-16011246D01*
X8280539Y-16011246D02*
X8290063Y-15992198D01*
X8290063Y-15992198D02*
X8299587Y-15982674D01*
X8299587Y-15982674D02*
X8318634Y-15973150D01*
X8318634Y-15973150D02*
X8347206Y-15973150D01*
X8347206Y-15973150D02*
X8366253Y-15982674D01*
X8366253Y-15982674D02*
X8375777Y-15992198D01*
X8375777Y-15992198D02*
X8385301Y-16011246D01*
X8385301Y-16011246D02*
X8385301Y-16068388D01*
X8385301Y-16068388D02*
X8375777Y-16087436D01*
X8375777Y-16087436D02*
X8366253Y-16096960D01*
X8366253Y-16096960D02*
X8347206Y-16106484D01*
X8347206Y-16106484D02*
X8318634Y-16106484D01*
X8499587Y-16106484D02*
X8480539Y-16096960D01*
X8480539Y-16096960D02*
X8471015Y-16077912D01*
X8471015Y-16077912D02*
X8471015Y-15906484D01*
X8651968Y-16096960D02*
X8632920Y-16106484D01*
X8632920Y-16106484D02*
X8594825Y-16106484D01*
X8594825Y-16106484D02*
X8575777Y-16096960D01*
X8575777Y-16096960D02*
X8566253Y-16077912D01*
X8566253Y-16077912D02*
X8566253Y-16001722D01*
X8566253Y-16001722D02*
X8575777Y-15982674D01*
X8575777Y-15982674D02*
X8594825Y-15973150D01*
X8594825Y-15973150D02*
X8632920Y-15973150D01*
X8632920Y-15973150D02*
X8651968Y-15982674D01*
X8651968Y-15982674D02*
X8661492Y-16001722D01*
X8661492Y-16001722D02*
X8661492Y-16020769D01*
X8661492Y-16020769D02*
X8566253Y-16039817D01*
X8737682Y-16096960D02*
X8756730Y-16106484D01*
X8756730Y-16106484D02*
X8794825Y-16106484D01*
X8794825Y-16106484D02*
X8813873Y-16096960D01*
X8813873Y-16096960D02*
X8823396Y-16077912D01*
X8823396Y-16077912D02*
X8823396Y-16068388D01*
X8823396Y-16068388D02*
X8813873Y-16049341D01*
X8813873Y-16049341D02*
X8794825Y-16039817D01*
X8794825Y-16039817D02*
X8766253Y-16039817D01*
X8766253Y-16039817D02*
X8747206Y-16030293D01*
X8747206Y-16030293D02*
X8737682Y-16011246D01*
X8737682Y-16011246D02*
X8737682Y-16001722D01*
X8737682Y-16001722D02*
X8747206Y-15982674D01*
X8747206Y-15982674D02*
X8766253Y-15973150D01*
X8766253Y-15973150D02*
X8794825Y-15973150D01*
X8794825Y-15973150D02*
X8813873Y-15982674D01*
X8890063Y-16182674D02*
X8899587Y-16173150D01*
X8899587Y-16173150D02*
X8918634Y-16144579D01*
X8918634Y-16144579D02*
X8928158Y-16125531D01*
X8928158Y-16125531D02*
X8937682Y-16096960D01*
X8937682Y-16096960D02*
X8947206Y-16049341D01*
X8947206Y-16049341D02*
X8947206Y-16011246D01*
X8947206Y-16011246D02*
X8937682Y-15963627D01*
X8937682Y-15963627D02*
X8928158Y-15935055D01*
X8928158Y-15935055D02*
X8918634Y-15916008D01*
X8918634Y-15916008D02*
X8899587Y-15887436D01*
X8899587Y-15887436D02*
X8890063Y-15877912D01*
D10*
X4015000Y-16229000D02*
X4115000Y-16329000D01*
X4115000Y-16229000D02*
X4015000Y-16329000D01*
X4065000Y-16229000D02*
X4065000Y-16329000D01*
X4015000Y-16279000D02*
X4115000Y-16279000D01*
D11*
X4480539Y-16370484D02*
X4366253Y-16370484D01*
X4423396Y-16370484D02*
X4423396Y-16170484D01*
X4423396Y-16170484D02*
X4404348Y-16199055D01*
X4404348Y-16199055D02*
X4385301Y-16218103D01*
X4385301Y-16218103D02*
X4366253Y-16227627D01*
X4566253Y-16351436D02*
X4575777Y-16360960D01*
X4575777Y-16360960D02*
X4566253Y-16370484D01*
X4566253Y-16370484D02*
X4556729Y-16360960D01*
X4556729Y-16360960D02*
X4566253Y-16351436D01*
X4566253Y-16351436D02*
X4566253Y-16370484D01*
X4699586Y-16170484D02*
X4718634Y-16170484D01*
X4718634Y-16170484D02*
X4737682Y-16180008D01*
X4737682Y-16180008D02*
X4747205Y-16189531D01*
X4747205Y-16189531D02*
X4756729Y-16208579D01*
X4756729Y-16208579D02*
X4766253Y-16246674D01*
X4766253Y-16246674D02*
X4766253Y-16294293D01*
X4766253Y-16294293D02*
X4756729Y-16332388D01*
X4756729Y-16332388D02*
X4747205Y-16351436D01*
X4747205Y-16351436D02*
X4737682Y-16360960D01*
X4737682Y-16360960D02*
X4718634Y-16370484D01*
X4718634Y-16370484D02*
X4699586Y-16370484D01*
X4699586Y-16370484D02*
X4680539Y-16360960D01*
X4680539Y-16360960D02*
X4671015Y-16351436D01*
X4671015Y-16351436D02*
X4661491Y-16332388D01*
X4661491Y-16332388D02*
X4651967Y-16294293D01*
X4651967Y-16294293D02*
X4651967Y-16246674D01*
X4651967Y-16246674D02*
X4661491Y-16208579D01*
X4661491Y-16208579D02*
X4671015Y-16189531D01*
X4671015Y-16189531D02*
X4680539Y-16180008D01*
X4680539Y-16180008D02*
X4699586Y-16170484D01*
X4890063Y-16170484D02*
X4909110Y-16170484D01*
X4909110Y-16170484D02*
X4928158Y-16180008D01*
X4928158Y-16180008D02*
X4937682Y-16189531D01*
X4937682Y-16189531D02*
X4947205Y-16208579D01*
X4947205Y-16208579D02*
X4956729Y-16246674D01*
X4956729Y-16246674D02*
X4956729Y-16294293D01*
X4956729Y-16294293D02*
X4947205Y-16332388D01*
X4947205Y-16332388D02*
X4937682Y-16351436D01*
X4937682Y-16351436D02*
X4928158Y-16360960D01*
X4928158Y-16360960D02*
X4909110Y-16370484D01*
X4909110Y-16370484D02*
X4890063Y-16370484D01*
X4890063Y-16370484D02*
X4871015Y-16360960D01*
X4871015Y-16360960D02*
X4861491Y-16351436D01*
X4861491Y-16351436D02*
X4851967Y-16332388D01*
X4851967Y-16332388D02*
X4842444Y-16294293D01*
X4842444Y-16294293D02*
X4842444Y-16246674D01*
X4842444Y-16246674D02*
X4851967Y-16208579D01*
X4851967Y-16208579D02*
X4861491Y-16189531D01*
X4861491Y-16189531D02*
X4871015Y-16180008D01*
X4871015Y-16180008D02*
X4890063Y-16170484D01*
X5080539Y-16170484D02*
X5099586Y-16170484D01*
X5099586Y-16170484D02*
X5118634Y-16180008D01*
X5118634Y-16180008D02*
X5128158Y-16189531D01*
X5128158Y-16189531D02*
X5137682Y-16208579D01*
X5137682Y-16208579D02*
X5147205Y-16246674D01*
X5147205Y-16246674D02*
X5147205Y-16294293D01*
X5147205Y-16294293D02*
X5137682Y-16332388D01*
X5137682Y-16332388D02*
X5128158Y-16351436D01*
X5128158Y-16351436D02*
X5118634Y-16360960D01*
X5118634Y-16360960D02*
X5099586Y-16370484D01*
X5099586Y-16370484D02*
X5080539Y-16370484D01*
X5080539Y-16370484D02*
X5061491Y-16360960D01*
X5061491Y-16360960D02*
X5051967Y-16351436D01*
X5051967Y-16351436D02*
X5042444Y-16332388D01*
X5042444Y-16332388D02*
X5032920Y-16294293D01*
X5032920Y-16294293D02*
X5032920Y-16246674D01*
X5032920Y-16246674D02*
X5042444Y-16208579D01*
X5042444Y-16208579D02*
X5051967Y-16189531D01*
X5051967Y-16189531D02*
X5061491Y-16180008D01*
X5061491Y-16180008D02*
X5080539Y-16170484D01*
X5232920Y-16370484D02*
X5232920Y-16237150D01*
X5232920Y-16256198D02*
X5242444Y-16246674D01*
X5242444Y-16246674D02*
X5261491Y-16237150D01*
X5261491Y-16237150D02*
X5290063Y-16237150D01*
X5290063Y-16237150D02*
X5309110Y-16246674D01*
X5309110Y-16246674D02*
X5318634Y-16265722D01*
X5318634Y-16265722D02*
X5318634Y-16370484D01*
X5318634Y-16265722D02*
X5328158Y-16246674D01*
X5328158Y-16246674D02*
X5347205Y-16237150D01*
X5347205Y-16237150D02*
X5375777Y-16237150D01*
X5375777Y-16237150D02*
X5394825Y-16246674D01*
X5394825Y-16246674D02*
X5404348Y-16265722D01*
X5404348Y-16265722D02*
X5404348Y-16370484D01*
X5499586Y-16370484D02*
X5499586Y-16237150D01*
X5499586Y-16256198D02*
X5509110Y-16246674D01*
X5509110Y-16246674D02*
X5528158Y-16237150D01*
X5528158Y-16237150D02*
X5556729Y-16237150D01*
X5556729Y-16237150D02*
X5575777Y-16246674D01*
X5575777Y-16246674D02*
X5585301Y-16265722D01*
X5585301Y-16265722D02*
X5585301Y-16370484D01*
X5585301Y-16265722D02*
X5594824Y-16246674D01*
X5594824Y-16246674D02*
X5613872Y-16237150D01*
X5613872Y-16237150D02*
X5642443Y-16237150D01*
X5642443Y-16237150D02*
X5661491Y-16246674D01*
X5661491Y-16246674D02*
X5671015Y-16265722D01*
X5671015Y-16265722D02*
X5671015Y-16370484D01*
X6061491Y-16160960D02*
X5890063Y-16418103D01*
X6318634Y-16170484D02*
X6337682Y-16170484D01*
X6337682Y-16170484D02*
X6356729Y-16180008D01*
X6356729Y-16180008D02*
X6366253Y-16189531D01*
X6366253Y-16189531D02*
X6375777Y-16208579D01*
X6375777Y-16208579D02*
X6385301Y-16246674D01*
X6385301Y-16246674D02*
X6385301Y-16294293D01*
X6385301Y-16294293D02*
X6375777Y-16332388D01*
X6375777Y-16332388D02*
X6366253Y-16351436D01*
X6366253Y-16351436D02*
X6356729Y-16360960D01*
X6356729Y-16360960D02*
X6337682Y-16370484D01*
X6337682Y-16370484D02*
X6318634Y-16370484D01*
X6318634Y-16370484D02*
X6299586Y-16360960D01*
X6299586Y-16360960D02*
X6290063Y-16351436D01*
X6290063Y-16351436D02*
X6280539Y-16332388D01*
X6280539Y-16332388D02*
X6271015Y-16294293D01*
X6271015Y-16294293D02*
X6271015Y-16246674D01*
X6271015Y-16246674D02*
X6280539Y-16208579D01*
X6280539Y-16208579D02*
X6290063Y-16189531D01*
X6290063Y-16189531D02*
X6299586Y-16180008D01*
X6299586Y-16180008D02*
X6318634Y-16170484D01*
X6471015Y-16351436D02*
X6480539Y-16360960D01*
X6480539Y-16360960D02*
X6471015Y-16370484D01*
X6471015Y-16370484D02*
X6461491Y-16360960D01*
X6461491Y-16360960D02*
X6471015Y-16351436D01*
X6471015Y-16351436D02*
X6471015Y-16370484D01*
X6604348Y-16170484D02*
X6623396Y-16170484D01*
X6623396Y-16170484D02*
X6642444Y-16180008D01*
X6642444Y-16180008D02*
X6651967Y-16189531D01*
X6651967Y-16189531D02*
X6661491Y-16208579D01*
X6661491Y-16208579D02*
X6671015Y-16246674D01*
X6671015Y-16246674D02*
X6671015Y-16294293D01*
X6671015Y-16294293D02*
X6661491Y-16332388D01*
X6661491Y-16332388D02*
X6651967Y-16351436D01*
X6651967Y-16351436D02*
X6642444Y-16360960D01*
X6642444Y-16360960D02*
X6623396Y-16370484D01*
X6623396Y-16370484D02*
X6604348Y-16370484D01*
X6604348Y-16370484D02*
X6585301Y-16360960D01*
X6585301Y-16360960D02*
X6575777Y-16351436D01*
X6575777Y-16351436D02*
X6566253Y-16332388D01*
X6566253Y-16332388D02*
X6556729Y-16294293D01*
X6556729Y-16294293D02*
X6556729Y-16246674D01*
X6556729Y-16246674D02*
X6566253Y-16208579D01*
X6566253Y-16208579D02*
X6575777Y-16189531D01*
X6575777Y-16189531D02*
X6585301Y-16180008D01*
X6585301Y-16180008D02*
X6604348Y-16170484D01*
X6737682Y-16170484D02*
X6861491Y-16170484D01*
X6861491Y-16170484D02*
X6794825Y-16246674D01*
X6794825Y-16246674D02*
X6823396Y-16246674D01*
X6823396Y-16246674D02*
X6842444Y-16256198D01*
X6842444Y-16256198D02*
X6851967Y-16265722D01*
X6851967Y-16265722D02*
X6861491Y-16284769D01*
X6861491Y-16284769D02*
X6861491Y-16332388D01*
X6861491Y-16332388D02*
X6851967Y-16351436D01*
X6851967Y-16351436D02*
X6842444Y-16360960D01*
X6842444Y-16360960D02*
X6823396Y-16370484D01*
X6823396Y-16370484D02*
X6766253Y-16370484D01*
X6766253Y-16370484D02*
X6747206Y-16360960D01*
X6747206Y-16360960D02*
X6737682Y-16351436D01*
X6956729Y-16370484D02*
X6994825Y-16370484D01*
X6994825Y-16370484D02*
X7013872Y-16360960D01*
X7013872Y-16360960D02*
X7023396Y-16351436D01*
X7023396Y-16351436D02*
X7042444Y-16322865D01*
X7042444Y-16322865D02*
X7051967Y-16284769D01*
X7051967Y-16284769D02*
X7051967Y-16208579D01*
X7051967Y-16208579D02*
X7042444Y-16189531D01*
X7042444Y-16189531D02*
X7032920Y-16180008D01*
X7032920Y-16180008D02*
X7013872Y-16170484D01*
X7013872Y-16170484D02*
X6975777Y-16170484D01*
X6975777Y-16170484D02*
X6956729Y-16180008D01*
X6956729Y-16180008D02*
X6947206Y-16189531D01*
X6947206Y-16189531D02*
X6937682Y-16208579D01*
X6937682Y-16208579D02*
X6937682Y-16256198D01*
X6937682Y-16256198D02*
X6947206Y-16275246D01*
X6947206Y-16275246D02*
X6956729Y-16284769D01*
X6956729Y-16284769D02*
X6975777Y-16294293D01*
X6975777Y-16294293D02*
X7013872Y-16294293D01*
X7013872Y-16294293D02*
X7032920Y-16284769D01*
X7032920Y-16284769D02*
X7042444Y-16275246D01*
X7042444Y-16275246D02*
X7051967Y-16256198D01*
X7223396Y-16237150D02*
X7223396Y-16370484D01*
X7175777Y-16160960D02*
X7128158Y-16303817D01*
X7128158Y-16303817D02*
X7251967Y-16303817D01*
X7318634Y-16170484D02*
X7318634Y-16208579D01*
X7394825Y-16170484D02*
X7394825Y-16208579D01*
X7690063Y-16446674D02*
X7680539Y-16437150D01*
X7680539Y-16437150D02*
X7661491Y-16408579D01*
X7661491Y-16408579D02*
X7651968Y-16389531D01*
X7651968Y-16389531D02*
X7642444Y-16360960D01*
X7642444Y-16360960D02*
X7632920Y-16313341D01*
X7632920Y-16313341D02*
X7632920Y-16275246D01*
X7632920Y-16275246D02*
X7642444Y-16227627D01*
X7642444Y-16227627D02*
X7651968Y-16199055D01*
X7651968Y-16199055D02*
X7661491Y-16180008D01*
X7661491Y-16180008D02*
X7680539Y-16151436D01*
X7680539Y-16151436D02*
X7690063Y-16141912D01*
X7871015Y-16370484D02*
X7756729Y-16370484D01*
X7813872Y-16370484D02*
X7813872Y-16170484D01*
X7813872Y-16170484D02*
X7794825Y-16199055D01*
X7794825Y-16199055D02*
X7775777Y-16218103D01*
X7775777Y-16218103D02*
X7756729Y-16227627D01*
X8061491Y-16370484D02*
X7947206Y-16370484D01*
X8004348Y-16370484D02*
X8004348Y-16170484D01*
X8004348Y-16170484D02*
X7985301Y-16199055D01*
X7985301Y-16199055D02*
X7966253Y-16218103D01*
X7966253Y-16218103D02*
X7947206Y-16227627D01*
X8299587Y-16370484D02*
X8299587Y-16170484D01*
X8385301Y-16370484D02*
X8385301Y-16265722D01*
X8385301Y-16265722D02*
X8375777Y-16246674D01*
X8375777Y-16246674D02*
X8356730Y-16237150D01*
X8356730Y-16237150D02*
X8328158Y-16237150D01*
X8328158Y-16237150D02*
X8309110Y-16246674D01*
X8309110Y-16246674D02*
X8299587Y-16256198D01*
X8509111Y-16370484D02*
X8490063Y-16360960D01*
X8490063Y-16360960D02*
X8480539Y-16351436D01*
X8480539Y-16351436D02*
X8471015Y-16332388D01*
X8471015Y-16332388D02*
X8471015Y-16275246D01*
X8471015Y-16275246D02*
X8480539Y-16256198D01*
X8480539Y-16256198D02*
X8490063Y-16246674D01*
X8490063Y-16246674D02*
X8509111Y-16237150D01*
X8509111Y-16237150D02*
X8537682Y-16237150D01*
X8537682Y-16237150D02*
X8556730Y-16246674D01*
X8556730Y-16246674D02*
X8566253Y-16256198D01*
X8566253Y-16256198D02*
X8575777Y-16275246D01*
X8575777Y-16275246D02*
X8575777Y-16332388D01*
X8575777Y-16332388D02*
X8566253Y-16351436D01*
X8566253Y-16351436D02*
X8556730Y-16360960D01*
X8556730Y-16360960D02*
X8537682Y-16370484D01*
X8537682Y-16370484D02*
X8509111Y-16370484D01*
X8690063Y-16370484D02*
X8671015Y-16360960D01*
X8671015Y-16360960D02*
X8661492Y-16341912D01*
X8661492Y-16341912D02*
X8661492Y-16170484D01*
X8842444Y-16360960D02*
X8823396Y-16370484D01*
X8823396Y-16370484D02*
X8785301Y-16370484D01*
X8785301Y-16370484D02*
X8766253Y-16360960D01*
X8766253Y-16360960D02*
X8756730Y-16341912D01*
X8756730Y-16341912D02*
X8756730Y-16265722D01*
X8756730Y-16265722D02*
X8766253Y-16246674D01*
X8766253Y-16246674D02*
X8785301Y-16237150D01*
X8785301Y-16237150D02*
X8823396Y-16237150D01*
X8823396Y-16237150D02*
X8842444Y-16246674D01*
X8842444Y-16246674D02*
X8851968Y-16265722D01*
X8851968Y-16265722D02*
X8851968Y-16284769D01*
X8851968Y-16284769D02*
X8756730Y-16303817D01*
X8928158Y-16360960D02*
X8947206Y-16370484D01*
X8947206Y-16370484D02*
X8985301Y-16370484D01*
X8985301Y-16370484D02*
X9004349Y-16360960D01*
X9004349Y-16360960D02*
X9013873Y-16341912D01*
X9013873Y-16341912D02*
X9013873Y-16332388D01*
X9013873Y-16332388D02*
X9004349Y-16313341D01*
X9004349Y-16313341D02*
X8985301Y-16303817D01*
X8985301Y-16303817D02*
X8956730Y-16303817D01*
X8956730Y-16303817D02*
X8937682Y-16294293D01*
X8937682Y-16294293D02*
X8928158Y-16275246D01*
X8928158Y-16275246D02*
X8928158Y-16265722D01*
X8928158Y-16265722D02*
X8937682Y-16246674D01*
X8937682Y-16246674D02*
X8956730Y-16237150D01*
X8956730Y-16237150D02*
X8985301Y-16237150D01*
X8985301Y-16237150D02*
X9004349Y-16246674D01*
X9080539Y-16446674D02*
X9090063Y-16437150D01*
X9090063Y-16437150D02*
X9109111Y-16408579D01*
X9109111Y-16408579D02*
X9118634Y-16389531D01*
X9118634Y-16389531D02*
X9128158Y-16360960D01*
X9128158Y-16360960D02*
X9137682Y-16313341D01*
X9137682Y-16313341D02*
X9137682Y-16275246D01*
X9137682Y-16275246D02*
X9128158Y-16227627D01*
X9128158Y-16227627D02*
X9118634Y-16199055D01*
X9118634Y-16199055D02*
X9109111Y-16180008D01*
X9109111Y-16180008D02*
X9090063Y-16151436D01*
X9090063Y-16151436D02*
X9080539Y-16141912D01*
D12*
X4005000Y-16488000D02*
X4115000Y-16598000D01*
X4115000Y-16488000D02*
X4005000Y-16598000D01*
X4098891Y-16581891D02*
X4098891Y-16504109D01*
X4021109Y-16504109D01*
X4021109Y-16581891D01*
X4098891Y-16581891D01*
D11*
X4480539Y-16634484D02*
X4366253Y-16634484D01*
X4423396Y-16634484D02*
X4423396Y-16434484D01*
X4423396Y-16434484D02*
X4404348Y-16463055D01*
X4404348Y-16463055D02*
X4385301Y-16482103D01*
X4385301Y-16482103D02*
X4366253Y-16491627D01*
X4566253Y-16615436D02*
X4575777Y-16624960D01*
X4575777Y-16624960D02*
X4566253Y-16634484D01*
X4566253Y-16634484D02*
X4556729Y-16624960D01*
X4556729Y-16624960D02*
X4566253Y-16615436D01*
X4566253Y-16615436D02*
X4566253Y-16634484D01*
X4766253Y-16634484D02*
X4651967Y-16634484D01*
X4709110Y-16634484D02*
X4709110Y-16434484D01*
X4709110Y-16434484D02*
X4690063Y-16463055D01*
X4690063Y-16463055D02*
X4671015Y-16482103D01*
X4671015Y-16482103D02*
X4651967Y-16491627D01*
X4890063Y-16434484D02*
X4909110Y-16434484D01*
X4909110Y-16434484D02*
X4928158Y-16444008D01*
X4928158Y-16444008D02*
X4937682Y-16453531D01*
X4937682Y-16453531D02*
X4947205Y-16472579D01*
X4947205Y-16472579D02*
X4956729Y-16510674D01*
X4956729Y-16510674D02*
X4956729Y-16558293D01*
X4956729Y-16558293D02*
X4947205Y-16596388D01*
X4947205Y-16596388D02*
X4937682Y-16615436D01*
X4937682Y-16615436D02*
X4928158Y-16624960D01*
X4928158Y-16624960D02*
X4909110Y-16634484D01*
X4909110Y-16634484D02*
X4890063Y-16634484D01*
X4890063Y-16634484D02*
X4871015Y-16624960D01*
X4871015Y-16624960D02*
X4861491Y-16615436D01*
X4861491Y-16615436D02*
X4851967Y-16596388D01*
X4851967Y-16596388D02*
X4842444Y-16558293D01*
X4842444Y-16558293D02*
X4842444Y-16510674D01*
X4842444Y-16510674D02*
X4851967Y-16472579D01*
X4851967Y-16472579D02*
X4861491Y-16453531D01*
X4861491Y-16453531D02*
X4871015Y-16444008D01*
X4871015Y-16444008D02*
X4890063Y-16434484D01*
X5080539Y-16434484D02*
X5099586Y-16434484D01*
X5099586Y-16434484D02*
X5118634Y-16444008D01*
X5118634Y-16444008D02*
X5128158Y-16453531D01*
X5128158Y-16453531D02*
X5137682Y-16472579D01*
X5137682Y-16472579D02*
X5147205Y-16510674D01*
X5147205Y-16510674D02*
X5147205Y-16558293D01*
X5147205Y-16558293D02*
X5137682Y-16596388D01*
X5137682Y-16596388D02*
X5128158Y-16615436D01*
X5128158Y-16615436D02*
X5118634Y-16624960D01*
X5118634Y-16624960D02*
X5099586Y-16634484D01*
X5099586Y-16634484D02*
X5080539Y-16634484D01*
X5080539Y-16634484D02*
X5061491Y-16624960D01*
X5061491Y-16624960D02*
X5051967Y-16615436D01*
X5051967Y-16615436D02*
X5042444Y-16596388D01*
X5042444Y-16596388D02*
X5032920Y-16558293D01*
X5032920Y-16558293D02*
X5032920Y-16510674D01*
X5032920Y-16510674D02*
X5042444Y-16472579D01*
X5042444Y-16472579D02*
X5051967Y-16453531D01*
X5051967Y-16453531D02*
X5061491Y-16444008D01*
X5061491Y-16444008D02*
X5080539Y-16434484D01*
X5232920Y-16634484D02*
X5232920Y-16501150D01*
X5232920Y-16520198D02*
X5242444Y-16510674D01*
X5242444Y-16510674D02*
X5261491Y-16501150D01*
X5261491Y-16501150D02*
X5290063Y-16501150D01*
X5290063Y-16501150D02*
X5309110Y-16510674D01*
X5309110Y-16510674D02*
X5318634Y-16529722D01*
X5318634Y-16529722D02*
X5318634Y-16634484D01*
X5318634Y-16529722D02*
X5328158Y-16510674D01*
X5328158Y-16510674D02*
X5347205Y-16501150D01*
X5347205Y-16501150D02*
X5375777Y-16501150D01*
X5375777Y-16501150D02*
X5394825Y-16510674D01*
X5394825Y-16510674D02*
X5404348Y-16529722D01*
X5404348Y-16529722D02*
X5404348Y-16634484D01*
X5499586Y-16634484D02*
X5499586Y-16501150D01*
X5499586Y-16520198D02*
X5509110Y-16510674D01*
X5509110Y-16510674D02*
X5528158Y-16501150D01*
X5528158Y-16501150D02*
X5556729Y-16501150D01*
X5556729Y-16501150D02*
X5575777Y-16510674D01*
X5575777Y-16510674D02*
X5585301Y-16529722D01*
X5585301Y-16529722D02*
X5585301Y-16634484D01*
X5585301Y-16529722D02*
X5594824Y-16510674D01*
X5594824Y-16510674D02*
X5613872Y-16501150D01*
X5613872Y-16501150D02*
X5642443Y-16501150D01*
X5642443Y-16501150D02*
X5661491Y-16510674D01*
X5661491Y-16510674D02*
X5671015Y-16529722D01*
X5671015Y-16529722D02*
X5671015Y-16634484D01*
X6061491Y-16424960D02*
X5890063Y-16682103D01*
X6318634Y-16434484D02*
X6337682Y-16434484D01*
X6337682Y-16434484D02*
X6356729Y-16444008D01*
X6356729Y-16444008D02*
X6366253Y-16453531D01*
X6366253Y-16453531D02*
X6375777Y-16472579D01*
X6375777Y-16472579D02*
X6385301Y-16510674D01*
X6385301Y-16510674D02*
X6385301Y-16558293D01*
X6385301Y-16558293D02*
X6375777Y-16596388D01*
X6375777Y-16596388D02*
X6366253Y-16615436D01*
X6366253Y-16615436D02*
X6356729Y-16624960D01*
X6356729Y-16624960D02*
X6337682Y-16634484D01*
X6337682Y-16634484D02*
X6318634Y-16634484D01*
X6318634Y-16634484D02*
X6299586Y-16624960D01*
X6299586Y-16624960D02*
X6290063Y-16615436D01*
X6290063Y-16615436D02*
X6280539Y-16596388D01*
X6280539Y-16596388D02*
X6271015Y-16558293D01*
X6271015Y-16558293D02*
X6271015Y-16510674D01*
X6271015Y-16510674D02*
X6280539Y-16472579D01*
X6280539Y-16472579D02*
X6290063Y-16453531D01*
X6290063Y-16453531D02*
X6299586Y-16444008D01*
X6299586Y-16444008D02*
X6318634Y-16434484D01*
X6471015Y-16615436D02*
X6480539Y-16624960D01*
X6480539Y-16624960D02*
X6471015Y-16634484D01*
X6471015Y-16634484D02*
X6461491Y-16624960D01*
X6461491Y-16624960D02*
X6471015Y-16615436D01*
X6471015Y-16615436D02*
X6471015Y-16634484D01*
X6604348Y-16434484D02*
X6623396Y-16434484D01*
X6623396Y-16434484D02*
X6642444Y-16444008D01*
X6642444Y-16444008D02*
X6651967Y-16453531D01*
X6651967Y-16453531D02*
X6661491Y-16472579D01*
X6661491Y-16472579D02*
X6671015Y-16510674D01*
X6671015Y-16510674D02*
X6671015Y-16558293D01*
X6671015Y-16558293D02*
X6661491Y-16596388D01*
X6661491Y-16596388D02*
X6651967Y-16615436D01*
X6651967Y-16615436D02*
X6642444Y-16624960D01*
X6642444Y-16624960D02*
X6623396Y-16634484D01*
X6623396Y-16634484D02*
X6604348Y-16634484D01*
X6604348Y-16634484D02*
X6585301Y-16624960D01*
X6585301Y-16624960D02*
X6575777Y-16615436D01*
X6575777Y-16615436D02*
X6566253Y-16596388D01*
X6566253Y-16596388D02*
X6556729Y-16558293D01*
X6556729Y-16558293D02*
X6556729Y-16510674D01*
X6556729Y-16510674D02*
X6566253Y-16472579D01*
X6566253Y-16472579D02*
X6575777Y-16453531D01*
X6575777Y-16453531D02*
X6585301Y-16444008D01*
X6585301Y-16444008D02*
X6604348Y-16434484D01*
X6842444Y-16501150D02*
X6842444Y-16634484D01*
X6794825Y-16424960D02*
X6747206Y-16567817D01*
X6747206Y-16567817D02*
X6871015Y-16567817D01*
X6928158Y-16434484D02*
X7051967Y-16434484D01*
X7051967Y-16434484D02*
X6985301Y-16510674D01*
X6985301Y-16510674D02*
X7013872Y-16510674D01*
X7013872Y-16510674D02*
X7032920Y-16520198D01*
X7032920Y-16520198D02*
X7042444Y-16529722D01*
X7042444Y-16529722D02*
X7051967Y-16548769D01*
X7051967Y-16548769D02*
X7051967Y-16596388D01*
X7051967Y-16596388D02*
X7042444Y-16615436D01*
X7042444Y-16615436D02*
X7032920Y-16624960D01*
X7032920Y-16624960D02*
X7013872Y-16634484D01*
X7013872Y-16634484D02*
X6956729Y-16634484D01*
X6956729Y-16634484D02*
X6937682Y-16624960D01*
X6937682Y-16624960D02*
X6928158Y-16615436D01*
X7118634Y-16434484D02*
X7242444Y-16434484D01*
X7242444Y-16434484D02*
X7175777Y-16510674D01*
X7175777Y-16510674D02*
X7204348Y-16510674D01*
X7204348Y-16510674D02*
X7223396Y-16520198D01*
X7223396Y-16520198D02*
X7232920Y-16529722D01*
X7232920Y-16529722D02*
X7242444Y-16548769D01*
X7242444Y-16548769D02*
X7242444Y-16596388D01*
X7242444Y-16596388D02*
X7232920Y-16615436D01*
X7232920Y-16615436D02*
X7223396Y-16624960D01*
X7223396Y-16624960D02*
X7204348Y-16634484D01*
X7204348Y-16634484D02*
X7147206Y-16634484D01*
X7147206Y-16634484D02*
X7128158Y-16624960D01*
X7128158Y-16624960D02*
X7118634Y-16615436D01*
X7318634Y-16434484D02*
X7318634Y-16472579D01*
X7394825Y-16434484D02*
X7394825Y-16472579D01*
X7690063Y-16710674D02*
X7680539Y-16701150D01*
X7680539Y-16701150D02*
X7661491Y-16672579D01*
X7661491Y-16672579D02*
X7651968Y-16653531D01*
X7651968Y-16653531D02*
X7642444Y-16624960D01*
X7642444Y-16624960D02*
X7632920Y-16577341D01*
X7632920Y-16577341D02*
X7632920Y-16539246D01*
X7632920Y-16539246D02*
X7642444Y-16491627D01*
X7642444Y-16491627D02*
X7651968Y-16463055D01*
X7651968Y-16463055D02*
X7661491Y-16444008D01*
X7661491Y-16444008D02*
X7680539Y-16415436D01*
X7680539Y-16415436D02*
X7690063Y-16405912D01*
X7871015Y-16634484D02*
X7756729Y-16634484D01*
X7813872Y-16634484D02*
X7813872Y-16434484D01*
X7813872Y-16434484D02*
X7794825Y-16463055D01*
X7794825Y-16463055D02*
X7775777Y-16482103D01*
X7775777Y-16482103D02*
X7756729Y-16491627D01*
X7985301Y-16520198D02*
X7966253Y-16510674D01*
X7966253Y-16510674D02*
X7956729Y-16501150D01*
X7956729Y-16501150D02*
X7947206Y-16482103D01*
X7947206Y-16482103D02*
X7947206Y-16472579D01*
X7947206Y-16472579D02*
X7956729Y-16453531D01*
X7956729Y-16453531D02*
X7966253Y-16444008D01*
X7966253Y-16444008D02*
X7985301Y-16434484D01*
X7985301Y-16434484D02*
X8023396Y-16434484D01*
X8023396Y-16434484D02*
X8042444Y-16444008D01*
X8042444Y-16444008D02*
X8051968Y-16453531D01*
X8051968Y-16453531D02*
X8061491Y-16472579D01*
X8061491Y-16472579D02*
X8061491Y-16482103D01*
X8061491Y-16482103D02*
X8051968Y-16501150D01*
X8051968Y-16501150D02*
X8042444Y-16510674D01*
X8042444Y-16510674D02*
X8023396Y-16520198D01*
X8023396Y-16520198D02*
X7985301Y-16520198D01*
X7985301Y-16520198D02*
X7966253Y-16529722D01*
X7966253Y-16529722D02*
X7956729Y-16539246D01*
X7956729Y-16539246D02*
X7947206Y-16558293D01*
X7947206Y-16558293D02*
X7947206Y-16596388D01*
X7947206Y-16596388D02*
X7956729Y-16615436D01*
X7956729Y-16615436D02*
X7966253Y-16624960D01*
X7966253Y-16624960D02*
X7985301Y-16634484D01*
X7985301Y-16634484D02*
X8023396Y-16634484D01*
X8023396Y-16634484D02*
X8042444Y-16624960D01*
X8042444Y-16624960D02*
X8051968Y-16615436D01*
X8051968Y-16615436D02*
X8061491Y-16596388D01*
X8061491Y-16596388D02*
X8061491Y-16558293D01*
X8061491Y-16558293D02*
X8051968Y-16539246D01*
X8051968Y-16539246D02*
X8042444Y-16529722D01*
X8042444Y-16529722D02*
X8023396Y-16520198D01*
X8299587Y-16634484D02*
X8299587Y-16434484D01*
X8385301Y-16634484D02*
X8385301Y-16529722D01*
X8385301Y-16529722D02*
X8375777Y-16510674D01*
X8375777Y-16510674D02*
X8356730Y-16501150D01*
X8356730Y-16501150D02*
X8328158Y-16501150D01*
X8328158Y-16501150D02*
X8309110Y-16510674D01*
X8309110Y-16510674D02*
X8299587Y-16520198D01*
X8509111Y-16634484D02*
X8490063Y-16624960D01*
X8490063Y-16624960D02*
X8480539Y-16615436D01*
X8480539Y-16615436D02*
X8471015Y-16596388D01*
X8471015Y-16596388D02*
X8471015Y-16539246D01*
X8471015Y-16539246D02*
X8480539Y-16520198D01*
X8480539Y-16520198D02*
X8490063Y-16510674D01*
X8490063Y-16510674D02*
X8509111Y-16501150D01*
X8509111Y-16501150D02*
X8537682Y-16501150D01*
X8537682Y-16501150D02*
X8556730Y-16510674D01*
X8556730Y-16510674D02*
X8566253Y-16520198D01*
X8566253Y-16520198D02*
X8575777Y-16539246D01*
X8575777Y-16539246D02*
X8575777Y-16596388D01*
X8575777Y-16596388D02*
X8566253Y-16615436D01*
X8566253Y-16615436D02*
X8556730Y-16624960D01*
X8556730Y-16624960D02*
X8537682Y-16634484D01*
X8537682Y-16634484D02*
X8509111Y-16634484D01*
X8690063Y-16634484D02*
X8671015Y-16624960D01*
X8671015Y-16624960D02*
X8661492Y-16605912D01*
X8661492Y-16605912D02*
X8661492Y-16434484D01*
X8842444Y-16624960D02*
X8823396Y-16634484D01*
X8823396Y-16634484D02*
X8785301Y-16634484D01*
X8785301Y-16634484D02*
X8766253Y-16624960D01*
X8766253Y-16624960D02*
X8756730Y-16605912D01*
X8756730Y-16605912D02*
X8756730Y-16529722D01*
X8756730Y-16529722D02*
X8766253Y-16510674D01*
X8766253Y-16510674D02*
X8785301Y-16501150D01*
X8785301Y-16501150D02*
X8823396Y-16501150D01*
X8823396Y-16501150D02*
X8842444Y-16510674D01*
X8842444Y-16510674D02*
X8851968Y-16529722D01*
X8851968Y-16529722D02*
X8851968Y-16548769D01*
X8851968Y-16548769D02*
X8756730Y-16567817D01*
X8928158Y-16624960D02*
X8947206Y-16634484D01*
X8947206Y-16634484D02*
X8985301Y-16634484D01*
X8985301Y-16634484D02*
X9004349Y-16624960D01*
X9004349Y-16624960D02*
X9013873Y-16605912D01*
X9013873Y-16605912D02*
X9013873Y-16596388D01*
X9013873Y-16596388D02*
X9004349Y-16577341D01*
X9004349Y-16577341D02*
X8985301Y-16567817D01*
X8985301Y-16567817D02*
X8956730Y-16567817D01*
X8956730Y-16567817D02*
X8937682Y-16558293D01*
X8937682Y-16558293D02*
X8928158Y-16539246D01*
X8928158Y-16539246D02*
X8928158Y-16529722D01*
X8928158Y-16529722D02*
X8937682Y-16510674D01*
X8937682Y-16510674D02*
X8956730Y-16501150D01*
X8956730Y-16501150D02*
X8985301Y-16501150D01*
X8985301Y-16501150D02*
X9004349Y-16510674D01*
X9080539Y-16710674D02*
X9090063Y-16701150D01*
X9090063Y-16701150D02*
X9109111Y-16672579D01*
X9109111Y-16672579D02*
X9118634Y-16653531D01*
X9118634Y-16653531D02*
X9128158Y-16624960D01*
X9128158Y-16624960D02*
X9137682Y-16577341D01*
X9137682Y-16577341D02*
X9137682Y-16539246D01*
X9137682Y-16539246D02*
X9128158Y-16491627D01*
X9128158Y-16491627D02*
X9118634Y-16463055D01*
X9118634Y-16463055D02*
X9109111Y-16444008D01*
X9109111Y-16444008D02*
X9090063Y-16415436D01*
X9090063Y-16415436D02*
X9080539Y-16405912D01*
M02*
